<?xml version="1.0" encoding="utf-8"?>
<!-- Generator: Adobe Illustrator 16.0.0, SVG Export Plug-In . SVG Version: 6.00 Build 0)  -->
<!DOCTYPE svg PUBLIC "-//W3C//DTD SVG 1.1//EN" "http://www.w3.org/Graphics/SVG/1.1/DTD/svg11.dtd">
<svg version="1.1" id="Layer_1" xmlns="http://www.w3.org/2000/svg" xmlns:xlink="http://www.w3.org/1999/xlink" x="0px" y="0px"
	 width="497.332px" height="640.468px" viewBox="0 0 497.332 640.468" enable-background="new 0 0 497.332 640.468"
	 xml:space="preserve">
<path fill="none" stroke="#3A3B3B" stroke-width="0.5" stroke-miterlimit="10" d="M54.54,239.24"/>
<g>
	<g>
		<polygon fill="#D4145A" points="62.391,285.304 61.222,284.785 61.157,234.427 62.585,235.465 		"/>
		<g>
			<polygon fill="#D4145A" points="104.939,289.079 63.795,285.25 63.984,235.606 104.625,239.24 			"/>
			<polygon fill="#D4145A" points="95.438,228.424 62.499,234.201 63,234.685 95.43,229.761 			"/>
			<path fill="none" stroke="#D4145A" stroke-miterlimit="10" d="M95.294,229.701c1.88,3.207,6.549-0.103,8.14,10.056"/>
		</g>
	</g>
	<path fill="#D4145A" d="M104.615,239.24"/>
	<path fill="#D4145A" d="M95.422,229.592"/>
</g>
<g>
	<g>
		<polygon fill="#D4145A" points="112.465,285.304 111.297,284.785 111.232,234.427 112.66,235.465 		"/>
		<g>
			<polygon fill="#D4145A" points="155.015,289.079 113.87,285.25 114.059,235.606 154.699,239.24 			"/>
			<polygon fill="#D4145A" points="145.513,228.424 112.575,234.201 113.076,234.685 145.505,229.761 			"/>
			<path fill="none" stroke="#D4145A" stroke-miterlimit="10" d="M145.369,229.701c1.88,3.207,6.549-0.103,8.14,10.056"/>
		</g>
	</g>
	<path fill="#D4145A" d="M154.69,239.24"/>
	<path fill="#D4145A" d="M145.497,229.592"/>
</g>
<g>
	<polygon fill="#D4145A" points="162.541,285.304 161.373,284.785 161.308,234.427 162.735,235.465 	"/>
	<g>
		<polygon fill="#D4145A" points="205.089,289.079 163.945,285.25 164.134,235.606 204.774,239.24 		"/>
		<polygon fill="#D4145A" points="195.588,228.424 162.649,234.201 163.15,234.685 195.58,229.761 		"/>
		<path fill="none" stroke="#D4145A" stroke-miterlimit="10" d="M195.444,229.701c1.881,3.207,6.55-0.103,8.14,10.056"/>
	</g>
</g>
<path fill="none" stroke="#3A3B3B" stroke-width="0.5" stroke-miterlimit="10" d="M204.765,239.24"/>
<path fill="none" d="M195.572,229.592"/>
<path fill="none" stroke="#3A3B3B" stroke-width="0.5" stroke-miterlimit="10" d="M254.84,239.24"/>
<g>
	<g>
		<polygon fill="#D4145A" points="212.616,285.304 211.448,284.785 211.383,234.427 212.811,235.465 		"/>
		<g>
			<polygon fill="#D4145A" points="255.165,289.079 214.02,285.25 214.209,235.606 254.85,239.24 			"/>
			<polygon fill="#D4145A" points="245.663,228.424 212.725,234.201 213.226,234.685 245.655,229.761 			"/>
			<path fill="none" stroke="#D4145A" stroke-miterlimit="10" d="M245.519,229.701c1.881,3.207,6.55-0.103,8.14,10.056"/>
		</g>
	</g>
	<path fill="#D4145A" d="M245.647,229.592"/>
</g>
<path fill="none" stroke="#3A3B3B" stroke-width="0.5" stroke-miterlimit="10" d="M40.799,490.256"/>
<g>
	<g>
		<polygon fill="#D4145A" points="65.345,446.104 64.693,445.814 64.657,417.721 65.453,418.299 		"/>
		<polygon fill="#D4145A" points="89.082,448.209 66.128,446.074 66.234,418.377 88.907,420.404 		"/>
		<polygon fill="#D4145A" points="83.781,414.371 65.405,417.594 65.685,417.863 83.777,415.117 		"/>
	</g>
	<path fill="none" stroke="#ED1E79" stroke-width="0.5" stroke-miterlimit="10" d="M83.701,415.082
		c1.049,1.789,3.654-0.057,4.542,5.611"/>
	<path fill="none" d="M83.772,415.023"/>
</g>
<g>
	<g>
		<polygon fill="#D4145A" points="11.638,284.076 10.481,283.561 10.417,233.743 11.83,234.768 		"/>
		<polygon fill="#D4145A" points="53.73,287.809 13.027,284.022 13.214,234.908 53.419,238.503 		"/>
		<polygon fill="#D4145A" points="44.331,227.803 11.745,233.518 12.241,233.996 44.324,229.126 		"/>
	</g>
	<path fill="none" stroke="#ED1E79" stroke-width="0.5" stroke-miterlimit="10" d="M44.188,229.066
		c1.861,3.172,6.479-0.101,8.053,9.948"/>
	<path fill="none" d="M44.315,228.96"/>
</g>
<g>
	<g>
		<polygon fill="#D4145A" points="70.993,525.201 70.341,524.912 70.305,496.818 71.102,497.398 		"/>
		<g>
			<polygon fill="#D4145A" points="94.73,527.309 71.776,525.172 71.882,497.477 94.555,499.504 			"/>
			<polygon fill="#D4145A" points="89.43,493.469 71.053,496.691 71.333,496.961 89.425,494.215 			"/>
			<path fill="none" stroke="#D4145A" stroke-miterlimit="10" d="M89.349,494.182c1.049,1.789,3.654-0.057,4.542,5.609"/>
		</g>
	</g>
	<path fill="#D4145A" d="M94.549,499.504"/>
	<path fill="#D4145A" d="M89.421,494.121"/>
</g>
<g>
	<g>
		<polygon fill="#D4145A" points="152.332,506.514 151.68,506.225 151.645,478.131 152.441,478.709 		"/>
		<g>
			<polygon fill="#D4145A" points="176.07,508.621 153.116,506.484 153.221,478.789 175.894,480.816 			"/>
			<polygon fill="#D4145A" points="170.769,474.781 152.393,478.004 152.672,478.273 170.765,475.527 			"/>
			<path fill="none" stroke="#D4145A" stroke-miterlimit="10" d="M170.688,475.494c1.049,1.789,3.654-0.057,4.542,5.609"/>
		</g>
	</g>
	<path fill="#D4145A" d="M175.889,480.816"/>
	<path fill="#D4145A" d="M170.76,475.434"/>
</g>
<g>
	<polygon fill="#D4145A" points="90.38,483.939 89.729,483.65 89.692,455.557 90.488,456.135 	"/>
	<g>
		<polygon fill="#D4145A" points="114.117,486.045 91.163,483.91 91.269,456.213 113.942,458.24 		"/>
		<polygon fill="#D4145A" points="108.817,452.207 90.44,455.43 90.72,455.699 108.812,452.953 		"/>
		<path fill="none" stroke="#D4145A" stroke-miterlimit="10" d="M108.736,452.918c1.049,1.789,3.654-0.057,4.541,5.611"/>
	</g>
</g>
<path fill="none" stroke="#3A3B3B" stroke-width="0.5" stroke-miterlimit="10" d="M124.608,490.256"/>
<path fill="none" d="M119.479,484.873"/>
<g>
	<g>
		<polygon fill="#D4145A" points="159.581,463.352 158.929,463.062 158.893,434.969 159.689,435.547 		"/>
		<g>
			<polygon fill="#D4145A" points="183.318,465.459 160.364,463.32 160.47,435.625 183.143,437.654 			"/>
			<polygon fill="#D4145A" points="178.018,431.619 159.642,434.842 159.921,435.111 178.013,432.363 			"/>
			<path fill="none" stroke="#D4145A" stroke-miterlimit="10" d="M177.938,432.33c1.049,1.789,3.654-0.057,4.541,5.611"/>
		</g>
	</g>
	<path fill="#D4145A" d="M178.009,432.271"/>
</g>
<g>
	<g>
		<polygon fill="#D4145A" points="185.745,622.699 185.092,622.408 185.057,594.316 185.854,594.895 		"/>
		<g>
			<polygon fill="#D4145A" points="209.483,624.805 186.528,622.668 186.633,594.973 209.307,597 			"/>
			<polygon fill="#D4145A" points="204.182,590.967 185.805,594.189 186.084,594.459 204.178,591.711 			"/>
			<path fill="#D4145A" d="M204.102,591.678c1.049,1.789,3.654-0.057,4.541,5.609"/>
		</g>
	</g>
	<path fill="#D4145A" d="M209.301,597"/>
	<path fill="#D4145A" d="M204.172,591.617"/>
</g>
<g>
	<polygon fill="#D4145A" points="114.792,623.125 114.141,622.834 114.104,594.74 114.901,595.32 	"/>
	<g>
		<polygon fill="#D4145A" points="138.53,625.23 115.576,623.094 115.681,595.398 138.354,597.426 		"/>
		<polygon fill="#D4145A" points="133.229,591.391 114.853,594.613 115.132,594.883 133.225,592.137 		"/>
		<path fill="#D4145A" d="M133.149,592.104c1.049,1.789,3.654-0.057,4.541,5.609"/>
	</g>
</g>
<g>
	<g>
		<polygon fill="#D4145A" points="149.993,622.535 149.342,622.246 149.306,594.152 150.102,594.73 		"/>
		<g>
			<polygon fill="#D4145A" points="173.73,624.643 150.777,622.506 150.883,594.811 173.556,596.838 			"/>
			<polygon fill="#D4145A" points="168.43,590.803 150.055,594.025 150.334,594.295 168.426,591.549 			"/>
			<path fill="#D4145A" d="M168.35,591.516c1.05,1.789,3.654-0.057,4.541,5.609"/>
		</g>
	</g>
	<path fill="#D4145A" d="M168.422,591.455"/>
</g>
<g>
	<polygon fill="#29ABE2" points="262.69,285.304 261.522,284.785 261.458,234.427 262.885,235.465 	"/>
	<g>
		<polygon fill="#29ABE2" points="305.239,289.079 264.095,285.25 264.284,235.606 304.924,239.24 		"/>
		<polygon fill="#29ABE2" points="295.739,228.424 262.799,234.201 263.301,234.685 295.731,229.761 		"/>
		<path fill="none" stroke="#29ABE2" stroke-miterlimit="10" d="M295.594,229.701c1.881,3.207,6.549-0.103,8.141,10.056"/>
	</g>
</g>
<g>
	<polygon fill="#29ABE2" points="312.766,285.304 311.598,284.785 311.532,234.427 312.961,235.465 	"/>
	<g>
		<polygon fill="#29ABE2" points="355.315,289.079 314.17,285.25 314.36,235.606 355,239.24 		"/>
		<polygon fill="#29ABE2" points="345.813,228.424 312.875,234.201 313.375,234.685 345.805,229.761 		"/>
		<path fill="none" stroke="#29ABE2" stroke-miterlimit="10" d="M345.668,229.701c1.881,3.207,6.551-0.103,8.141,10.056"/>
	</g>
</g>
<g>
	<polygon fill="#29ABE2" points="428.179,440.868 427.495,440.564 427.458,411.08 428.293,411.688 	"/>
	<g>
		<polygon fill="#29ABE2" points="453.092,443.078 429.002,440.837 429.113,411.77 452.908,413.897 		"/>
		<polygon fill="#29ABE2" points="447.529,407.564 428.244,410.947 428.537,411.23 447.525,408.348 		"/>
		<path fill="#29ABE2" d="M447.446,408.312c1.101,1.877,3.834-0.061,4.766,5.887"/>
	</g>
</g>
<g>
	<polygon fill="#29ABE2" points="276.5,440.868 275.815,440.564 275.777,411.08 276.614,411.688 	"/>
	<g>
		<polygon fill="#29ABE2" points="301.413,443.078 277.322,440.837 277.433,411.77 301.228,413.897 		"/>
		<polygon fill="#29ABE2" points="295.849,407.564 276.564,410.947 276.857,411.23 295.844,408.348 		"/>
		<path fill="#29ABE2" d="M295.764,408.312c1.102,1.877,3.836-0.061,4.767,5.887"/>
	</g>
</g>
<g>
	<polygon fill="#00A99D" points="362.84,285.304 361.672,284.785 361.608,234.427 363.036,235.465 	"/>
	<g>
		<polygon fill="#00A99D" points="405.389,289.079 364.245,285.25 364.434,235.606 405.075,239.24 		"/>
		<polygon fill="#00A99D" points="395.889,228.424 362.95,234.201 363.452,234.685 395.881,229.761 		"/>
		<path fill="none" stroke="#00A99D" stroke-miterlimit="10" d="M395.745,229.701c1.881,3.207,6.549-0.103,8.139,10.056"/>
	</g>
</g>
<g>
	<g>
		<polygon fill="#00A99D" points="412.917,285.304 411.749,284.785 411.682,234.427 413.11,235.465 		"/>
		<g>
			<polygon fill="#00A99D" points="455.465,289.079 414.321,285.25 414.51,235.606 455.149,239.24 			"/>
			<polygon fill="#00A99D" points="445.963,228.424 413.024,234.201 413.526,234.685 445.956,229.761 			"/>
			<path fill="none" stroke="#00A99D" stroke-miterlimit="10" d="M445.819,229.701c1.881,3.207,6.551-0.103,8.141,10.056"/>
		</g>
	</g>
	<path fill="#00A99D" d="M457.192,240.882"/>
	<path fill="none" stroke="#00A99D" stroke-miterlimit="10" d="M448,231.234"/>
	<path fill="#00A99D" d="M457.192,240.882"/>
</g>
<rect x="185.062" y="194.54" fill="none" width="198.658" height="35.299"/>
<text transform="matrix(1 0 0 1 185.061 210.1602)" font-family="'MyriadPro-Regular'" font-size="22">SVD Results</text>
<line fill="none" x1="0" y1="285.316" x2="0" y2="332.108"/>
<line fill="none" x1="-5.746" y1="285.316" x2="-5.746" y2="343.601"/>
<line fill="#93278F" stroke="#8CC63F" stroke-miterlimit="10" x1="5.747" y1="285.316" x2="5.747" y2="310.726"/>
<line fill="#93278F" stroke="#8CC63F" stroke-miterlimit="10" x1="5.472" y1="311.257" x2="95.697" y2="311.257"/>
<line fill="none" stroke="#8CC63F" stroke-miterlimit="10" x1="257.764" y1="311.257" x2="257.764" y2="289.421"/>
<line fill="#93278F" stroke="#8CC63F" stroke-miterlimit="10" x1="178.253" y1="311.257" x2="257.762" y2="311.257"/>
<rect x="103.981" y="305.785" fill="none" width="70.841" height="35.299"/>
<text transform="matrix(1 0 0 1 103.9814 315.7256)" fill="#8CC63F" font-family="'MyriadPro-Regular'" font-size="14">1st Window</text>
<line fill="none" x1="-3" y1="304.316" x2="-3" y2="351.107"/>
<line fill="none" x1="-8.746" y1="319.316" x2="-8.746" y2="377.601"/>
<g>
	<line fill="#F15A24" stroke="#FF7BAC" stroke-miterlimit="10" x1="2.747" y1="304.316" x2="2.747" y2="329.726"/>
	<line fill="#F15A24" stroke="#FF7BAC" stroke-miterlimit="10" x1="2.472" y1="330.257" x2="244.253" y2="330.257"/>
	<line fill="#F15A24" stroke="#FF7BAC" stroke-miterlimit="10" x1="359.764" y1="330.257" x2="359.764" y2="284.785"/>
	<line fill="none" stroke="#FF7BAC" stroke-miterlimit="10" x1="328.253" y1="330.257" x2="360.254" y2="330.257"/>
	<rect x="248.481" y="323.785" fill="none" width="81.342" height="35.299"/>
	<text transform="matrix(1 0 0 1 248.481 333.7256)" fill="#FF7BAC" font-family="'MyriadPro-Regular'" font-size="14">2nd  Window</text>
</g>
<g>
	<line fill="#93278F" x1="132.141" y1="323.393" x2="132.141" y2="376.387"/>
	<g>
		<g>
			<polygon fill="#9BCD57" points="127.381,323.393 127.381,353.613 118.987,353.613 132.142,376.387 145.295,353.613 
				136.902,353.613 136.902,323.393 			"/>
		</g>
	</g>
</g>
<line fill="none" stroke="#231F20" stroke-miterlimit="10" x1="8.208" y1="388.727" x2="8.208" y2="533.727"/>
<line fill="none" stroke="#231F20" stroke-miterlimit="10" x1="214.254" y1="533.727" x2="8.208" y2="533.727"/>
<g>
	<g>
		<g>
			<polygon fill="#FF0000" points="258.89,165.763 257.721,165.244 257.657,114.886 259.084,115.924 			"/>
			<polygon fill="#D4145A" points="301.44,169.538 260.295,165.709 260.484,116.065 301.124,119.699 			"/>
			<polygon fill="#662D91" points="291.938,108.883 258.999,114.66 259.5,115.144 291.93,110.22 			"/>
		</g>
		<path fill="none" stroke="#ED1E79" stroke-width="0.5" stroke-miterlimit="10" d="M291.793,110.16
			c1.881,3.207,6.549-0.103,8.141,10.056"/>
		<path fill="none" d="M291.92,110.051"/>
	</g>
	<rect x="260.484" y="116.065" fill="none" width="11.812" height="49.983"/>
	<polygon fill="#F15A24" points="271.989,166.819 260.043,165.733 260.245,116.151 271.989,117.223 	"/>
	<polygon fill="#22B573" points="295.401,168.957 283.499,167.879 283.784,118.091 295.53,119.164 	"/>
	<polygon fill="#0071BC" points="301.491,169.538 295.452,168.957 295.581,119.164 301.174,119.699 	"/>
</g>
<rect x="158.465" y="132.666" fill="none" width="225.749" height="35.299"/>
<text transform="matrix(1 0 0 1 158.4644 143.1582)" font-family="'MyriadPro-Regular'" font-size="14.7762">Book Recipe = </text>
<g>
	<g>
		<g>
			<polygon fill="#FF0000" points="133.551,473.363 132.887,473.068 132.85,444.426 133.661,445.016 			"/>
			<polygon fill="#D4145A" points="157.753,475.512 134.35,473.334 134.458,445.096 157.573,447.162 			"/>
			<polygon fill="#662D91" points="152.348,441.012 133.613,444.297 133.898,444.572 152.344,441.771 			"/>
		</g>
		<path fill="none" stroke="#ED1E79" stroke-width="0.5" stroke-miterlimit="10" d="M152.266,441.736
			c1.07,1.824,3.725-0.059,4.63,5.721"/>
		<path fill="none" d="M152.339,441.674"/>
	</g>
	<rect x="134.458" y="445.096" fill="none" width="6.718" height="28.43"/>
	<polygon fill="#F15A24" points="141.002,473.965 134.207,473.346 134.322,445.145 141.002,445.756 	"/>
	<polygon fill="#22B573" points="154.318,475.18 147.547,474.566 147.71,446.248 154.391,446.857 	"/>
	<polygon fill="#0071BC" points="157.782,475.512 154.347,475.18 154.42,446.857 157.602,447.162 	"/>
</g>
<rect x="75.934" y="382.848" fill="none" width="225.748" height="35.299"/>
<text transform="matrix(1 0 0 1 75.9336 393.3398)" font-family="'MyriadPro-Regular'" font-size="14.7762">KNN Model</text>
<g>
	<line fill="#93278F" x1="125.891" y1="540.74" x2="125.891" y2="579.387"/>
	<g>
		<g>
			<polygon fill="#9BCD57" points="121.131,540.74 121.131,554.693 121.131,556.613 112.736,556.613 125.892,579.387 
				139.045,556.613 130.651,556.613 130.651,554.693 130.651,540.74 			"/>
		</g>
	</g>
</g>
<rect x="11.465" y="594.666" fill="none" width="163.748" height="35.299"/>
<text transform="matrix(1 0 0 1 11.4648 606.0254)"><tspan x="0" y="0" font-family="'MyriadPro-Regular'" font-size="16">1st Delivered </tspan><tspan x="0" y="19.201" font-family="'MyriadPro-Regular'" font-size="16">Result Set: </tspan></text>
<path fill="none" stroke="#3A3B3B" stroke-width="0.5" stroke-miterlimit="10" d="M305.798,489.256"/>
<g>
	<g>
		<polygon fill="#D4145A" points="330.345,445.104 329.693,444.814 329.657,416.721 330.453,417.299 		"/>
		<polygon fill="#D4145A" points="354.082,447.209 331.128,445.074 331.234,417.377 353.907,419.404 		"/>
		<polygon fill="#D4145A" points="348.781,413.371 330.406,416.594 330.685,416.863 348.777,414.117 		"/>
	</g>
	<path fill="#D4145A" d="M348.701,414.082c1.05,1.789,3.654-0.057,4.542,5.611"/>
	<path fill="#D4145A" d="M348.773,414.023"/>
</g>
<g>
	<g>
		<polygon fill="#D4145A" points="345.994,524.535 345.341,524.246 345.305,496.152 346.102,496.732 		"/>
		<g>
			<polygon fill="#D4145A" points="369.731,526.643 346.777,524.506 346.882,496.811 369.555,498.838 			"/>
			<polygon fill="#D4145A" points="364.43,492.803 346.054,496.025 346.333,496.295 364.425,493.549 			"/>
			<path fill="#D4145A" d="M364.349,493.516c1.05,1.789,3.654-0.057,4.542,5.609"/>
		</g>
	</g>
	<path fill="#D4145A" d="M369.55,498.838"/>
	<path fill="#D4145A" d="M364.421,493.455"/>
</g>
<g>
	<polygon fill="#29ABE2" points="422.179,621.868 421.495,621.564 421.458,592.08 422.293,592.688 	"/>
	<g>
		<polygon fill="#29ABE2" points="447.092,624.078 423.002,621.837 423.113,592.77 446.908,594.897 		"/>
		<polygon fill="#29ABE2" points="441.529,588.564 422.244,591.947 422.537,592.23 441.525,589.348 		"/>
		<path fill="none" stroke="#29ABE2" stroke-width="0.5" stroke-miterlimit="10" d="M441.446,589.312
			c1.101,1.877,3.834-0.061,4.766,5.887"/>
	</g>
</g>
<g>
	<g>
		<polygon fill="#D4145A" points="388.345,622.104 387.693,621.814 387.657,593.721 388.453,594.299 		"/>
		<polygon fill="#D4145A" points="412.082,624.209 389.128,622.074 389.234,594.377 411.907,596.404 		"/>
		<polygon fill="#D4145A" points="406.781,590.371 388.406,593.594 388.685,593.863 406.777,591.117 		"/>
	</g>
	<path fill="none" stroke="#ED1E79" stroke-width="0.5" stroke-miterlimit="10" d="M406.701,591.082
		c1.05,1.789,3.654-0.057,4.542,5.611"/>
	<path fill="none" d="M406.773,591.023"/>
</g>
<g>
	<g>
		<polygon fill="#D4145A" points="457.994,622.201 457.341,621.912 457.305,593.818 458.102,594.398 		"/>
		<g>
			<polygon fill="#D4145A" points="481.731,624.309 458.777,622.172 458.882,594.477 481.555,596.504 			"/>
			<polygon fill="#D4145A" points="476.43,590.469 458.054,593.691 458.333,593.961 476.425,591.215 			"/>
			<path fill="#D4145A" d="M476.349,591.182c1.05,1.789,3.654-0.057,4.542,5.609"/>
		</g>
	</g>
	<path fill="#D4145A" d="M481.55,596.504"/>
	<path fill="#D4145A" d="M476.421,591.121"/>
</g>
<path fill="none" stroke="#3A3B3B" stroke-width="0.5" stroke-miterlimit="10" d="M389.608,489.256"/>
<path fill="none" d="M384.48,483.873"/>
<line fill="none" x1="256.253" y1="312.316" x2="256.253" y2="370.601"/>
<g>
	<line fill="#93278F" x1="292.256" y1="340.953" x2="316.335" y2="383.724"/>
	<g>
		<g>
			<polygon fill="#FF8CB7" points="288.109,343.289 300.074,364.541 301.015,366.214 293.701,370.332 316.336,383.723 
				316.625,357.426 309.311,361.544 308.369,359.871 296.404,338.619 			"/>
		</g>
	</g>
</g>
<line fill="none" stroke="#231F20" stroke-miterlimit="10" x1="273.208" y1="387.727" x2="273.208" y2="532.727"/>
<line fill="none" stroke="#231F20" stroke-miterlimit="10" x1="479.253" y1="532.727" x2="273.208" y2="532.727"/>
<g>
	<g>
		<g>
			<polygon fill="#FF0000" points="398.551,472.363 397.886,472.068 397.85,443.426 398.662,444.016 			"/>
			<polygon fill="#D4145A" points="422.753,474.512 399.35,472.334 399.458,444.096 422.574,446.162 			"/>
			<polygon fill="#662D91" points="417.348,440.012 398.613,443.297 398.898,443.572 417.344,440.771 			"/>
		</g>
		<path fill="none" stroke="#ED1E79" stroke-width="0.5" stroke-miterlimit="10" d="M417.266,440.736
			c1.069,1.824,3.726-0.059,4.63,5.721"/>
		<path fill="none" d="M417.339,440.674"/>
	</g>
	<rect x="399.458" y="444.096" fill="none" width="6.718" height="28.43"/>
	<polygon fill="#F15A24" points="406.002,472.965 399.207,472.346 399.322,444.145 406.002,444.756 	"/>
	<polygon fill="#22B573" points="419.318,474.18 412.547,473.566 412.71,445.248 419.391,445.857 	"/>
	<polygon fill="#0071BC" points="422.782,474.512 419.347,474.18 419.419,445.857 422.602,446.162 	"/>
</g>
<rect x="340.934" y="379.848" fill="none" width="225.748" height="35.299"/>
<text transform="matrix(1 0 0 1 340.9331 390.3398)" font-family="'MyriadPro-Regular'" font-size="14.7762">KNN Model </text>
<g>
	<line fill="#93278F" x1="390.89" y1="538.393" x2="390.89" y2="578.387"/>
	<g>
		<g>
			<polygon fill="#FF8CB7" points="386.13,538.393 386.13,553.693 386.13,555.613 377.736,555.613 390.891,578.387 404.044,555.613 
				395.65,555.613 395.65,553.693 395.65,538.393 			"/>
		</g>
	</g>
</g>
<rect x="276.464" y="593.666" fill="none" width="163.748" height="35.299"/>
<text transform="matrix(1 0 0 1 276.4644 605.0254)"><tspan x="0" y="0" font-family="'MyriadPro-Regular'" font-size="16">2nd Delivered </tspan><tspan x="0" y="19.201" font-family="'MyriadPro-Regular'" font-size="16">Result Set: </tspan></text>
<rect x="-93.868" y="250.666" fill="none" width="225.749" height="35.299"/>
<rect x="462.003" y="280.643" width="5.75" height="6"/>
<rect x="472.003" y="280.643" width="5.75" height="6"/>
<rect x="482.003" y="280.643" width="5.75" height="6"/>
<rect x="491.628" y="280.643" width="5.75" height="6"/>
<rect x="12.062" y="14.54" fill="none" width="496.191" height="124.853"/>
<text transform="matrix(1 0 0 1 25.9434 35.1304)"><tspan x="0" y="0" font-family="'MyriadPro-Semibold'" font-size="29">SVD + KNN Recommendation Process </tspan><tspan x="72.615" y="34.8" font-family="'MyriadPro-Semibold'" font-size="29">Using Expanding Window</tspan></text>
<g>
	<path fill="#8CC63F" d="M86.303,468.892c0,0,0.012,0.346,0.036,1.017c0.021,0.671,0.041,1.668,0.196,2.955
		c0.268,2.568,0.913,6.362,2.703,10.865c1.819,4.474,4.864,9.621,9.543,14.471c4.651,4.857,10.879,9.407,18.393,12.864
		c7.5,3.472,16.267,5.844,25.709,6.673c9.425,0.741,19.596-0.023,29.492-3.095c9.868-3.019,19.594-8.276,27.156-16.15
		c3.725-3.956,6.917-8.508,9.087-13.562c2.236-5.022,3.335-10.537,3.361-16.037c-0.074-5.508-1.218-10.989-3.489-15.98
		c-2.206-5.019-5.422-9.521-9.161-13.425c-7.538-7.81-17.187-13.097-27.024-16.118c-9.862-3.079-19.987-3.916-29.414-3.215
		c-9.435,0.775-18.207,3.118-25.718,6.566c-7.526,3.438-13.733,8.021-18.386,12.871c-4.679,4.849-7.723,9.995-9.544,14.467
		c-1.792,4.503-2.439,8.294-2.708,10.864c-0.156,1.289-0.177,2.284-0.197,2.954C86.316,468.547,86.303,468.892,86.303,468.892z
		 M86.204,468.894c0,0,0.01-0.348,0.029-1.02c0.016-0.672,0.03-1.67,0.178-2.964c0.253-2.58,0.876-6.39,2.647-10.926
		c1.824-4.49,4.748-9.741,9.402-14.703c4.614-4.967,10.823-9.681,18.383-13.267c7.54-3.604,16.403-6.12,25.968-6.877
		c4.795-0.373,9.711-0.337,14.729,0.169c2.507,0.231,5.02,0.649,7.545,1.122c2.512,0.54,5.039,1.143,7.528,1.951
		c9.959,3.115,19.738,8.507,27.349,16.502c3.763,4.006,6.988,8.618,9.18,13.744c2.258,5.089,3.368,10.698,3.385,16.267
		c-0.064,5.576-1.22,11.152-3.513,16.21c-2.228,5.091-5.479,9.654-9.254,13.607c-1.912,1.958-3.934,3.789-6.057,5.477
		c-2.134,1.675-4.381,3.176-6.674,4.568c-4.632,2.706-9.505,4.876-14.487,6.425c-4.97,1.586-10.025,2.604-15.021,3.122
		c-5.002,0.53-9.92,0.589-14.703,0.241c-9.557-0.704-18.426-3.192-25.977-6.771c-7.573-3.566-13.761-8.314-18.376-13.274
		c-4.654-4.96-7.577-10.21-9.403-14.698c-1.772-4.535-2.397-8.343-2.651-10.925c-0.148-1.296-0.163-2.292-0.179-2.963
		C86.213,469.24,86.204,468.894,86.204,468.894z"/>
</g>
<g>
	<path fill="#FF7BAC" d="M304.303,466.892c0,0,0.019,0.505,0.054,1.485c0.019,0.489,0.04,1.098,0.066,1.821
		c0.039,0.722,0.153,1.552,0.245,2.494c0.452,3.742,1.437,9.302,4.351,15.765c2.832,6.477,7.727,13.732,14.859,20.52
		c7.124,6.785,16.511,13.035,27.674,17.728c5.576,2.352,11.586,4.324,17.935,5.826c6.348,1.49,13.02,2.62,19.94,3.117
		c13.813,0.993,28.647-0.068,43.237-4.177c0.91-0.261,1.821-0.522,2.735-0.784c0.903-0.297,1.809-0.594,2.715-0.891
		c1.825-0.563,3.598-1.297,5.406-1.951c3.555-1.462,7.124-2.988,10.548-4.856c3.438-1.832,6.819-3.839,10.028-6.13
		c3.222-2.266,6.347-4.724,9.202-7.495c5.781-5.456,10.723-11.925,14.248-19.151c3.525-7.221,5.407-15.271,5.433-23.31
		c-0.073-8.084-2-16.072-5.559-23.268c-3.56-7.188-8.522-13.606-14.314-19.01c-2.87-2.732-5.959-5.21-9.171-7.471
		c-3.193-2.293-6.56-4.302-9.984-6.138c-3.41-1.873-6.968-3.405-10.512-4.873c-1.803-0.658-3.57-1.395-5.391-1.961
		c-0.904-0.299-1.807-0.598-2.708-0.896c-0.911-0.264-1.82-0.527-2.729-0.79c-14.561-4.139-29.364-5.231-43.18-4.271
		c-13.826,1.031-26.715,4.199-37.868,8.887c-11.16,4.686-20.561,10.916-27.675,17.71c-7.128,6.794-11.979,14.065-14.834,20.523
		c-2.924,6.453-3.918,12.008-4.377,15.75c-0.094,0.942-0.209,1.773-0.25,2.494c-0.027,0.723-0.051,1.33-0.069,1.819
		C304.323,466.388,304.303,466.892,304.303,466.892z M304.204,466.894c0,0,0.016-0.507,0.045-1.488
		c0.016-0.49,0.034-1.1,0.056-1.824c0.035-0.724,0.145-1.557,0.23-2.503c0.432-3.755,1.387-9.337,4.274-15.844
		c2.817-6.51,7.639-13.86,14.758-20.75c7.102-6.892,16.493-13.265,27.691-18.091c11.182-4.84,24.158-8.181,38.105-9.15
		c13.919-0.953,28.832,0.16,43.506,4.348c0.915,0.266,1.832,0.532,2.751,0.799c0.907,0.302,1.817,0.604,2.729,0.906
		c1.834,0.573,3.616,1.317,5.434,1.982c3.574,1.484,7.16,3.034,10.601,4.927c3.455,1.856,6.852,3.889,10.076,6.207
		c3.238,2.292,6.371,4.785,9.249,7.577c5.82,5.503,10.8,12.032,14.353,19.334c3.553,7.291,5.45,15.442,5.465,23.56
		c-0.062,8.162-2.005,16.252-5.591,23.518c-3.587,7.264-8.588,13.742-14.419,19.192c-2.893,2.753-5.989,5.266-9.218,7.553
		c-3.208,2.319-6.59,4.354-10.032,6.216c-3.427,1.896-7.001,3.452-10.563,4.942c-1.812,0.668-3.59,1.416-5.419,1.992
		c-0.909,0.305-1.817,0.608-2.723,0.912c-0.917,0.269-1.831,0.537-2.744,0.805c-7.308,2.131-14.71,3.438-22,4.144
		c-7.3,0.701-14.477,0.771-21.448,0.298c-13.94-0.929-26.918-4.261-38.098-9.092c-11.196-4.82-20.601-11.174-27.693-18.073
		c-7.113-6.897-11.892-14.264-14.732-20.755c-2.897-6.497-3.862-12.074-4.301-15.829c-0.088-0.946-0.198-1.78-0.234-2.503
		c-0.023-0.724-0.044-1.332-0.06-1.822C304.22,467.4,304.204,466.894,304.204,466.894z"/>
</g>
</svg>
