<?xml version="1.0" encoding="utf-8"?>
<!-- Generator: Adobe Illustrator 16.0.0, SVG Export Plug-In . SVG Version: 6.00 Build 0)  -->
<!DOCTYPE svg PUBLIC "-//W3C//DTD SVG 1.1//EN" "http://www.w3.org/Graphics/SVG/1.1/DTD/svg11.dtd">
<svg version="1.1" id="Layer_1" xmlns="http://www.w3.org/2000/svg" xmlns:xlink="http://www.w3.org/1999/xlink" x="0px" y="0px"
	 width="497.332px" height="627.734px" viewBox="0 12.734 497.332 627.734" enable-background="new 0 12.734 497.332 627.734"
	 xml:space="preserve">
<path fill="none" stroke="#3A3B3B" stroke-width="0.5" stroke-miterlimit="10" d="M54.54,239.24"/>
<g>
	<g>
		<polygon fill="#D4145A" points="62.391,285.304 61.222,284.785 61.157,234.427 62.585,235.465 		"/>
		<g>
			<polygon fill="#D4145A" points="104.939,289.079 63.795,285.25 63.984,235.606 104.625,239.24 			"/>
			<polygon fill="#D4145A" points="95.438,228.424 62.499,234.201 63,234.685 95.43,229.761 			"/>
			<path fill="none" stroke="#D4145A" stroke-miterlimit="10" d="M95.294,229.701c1.88,3.207,6.549-0.103,8.14,10.056"/>
		</g>
	</g>
	<path fill="#D4145A" d="M104.615,239.24"/>
	<path fill="#D4145A" d="M95.422,229.592"/>
</g>
<g>
	<g>
		<polygon fill="#D4145A" points="112.465,285.304 111.297,284.785 111.232,234.427 112.66,235.465 		"/>
		<g>
			<polygon fill="#D4145A" points="155.015,289.079 113.87,285.25 114.059,235.606 154.699,239.24 			"/>
			<polygon fill="#D4145A" points="145.513,228.424 112.575,234.201 113.076,234.685 145.505,229.761 			"/>
			<path fill="none" stroke="#D4145A" stroke-miterlimit="10" d="M145.369,229.701c1.88,3.207,6.549-0.103,8.14,10.056"/>
		</g>
	</g>
	<path fill="#D4145A" d="M154.69,239.24"/>
	<path fill="#D4145A" d="M145.497,229.592"/>
</g>
<g>
	<polygon fill="#D4145A" points="162.541,285.304 161.373,284.785 161.308,234.427 162.735,235.465 	"/>
	<g>
		<polygon fill="#D4145A" points="205.089,289.079 163.945,285.25 164.134,235.606 204.774,239.24 		"/>
		<polygon fill="#D4145A" points="195.588,228.424 162.649,234.201 163.15,234.685 195.58,229.761 		"/>
		<path fill="none" stroke="#D4145A" stroke-miterlimit="10" d="M195.444,229.701c1.881,3.207,6.55-0.103,8.14,10.056"/>
	</g>
</g>
<path fill="none" stroke="#3A3B3B" stroke-width="0.5" stroke-miterlimit="10" d="M204.765,239.24"/>
<path fill="none" d="M195.572,229.592"/>
<path fill="none" stroke="#3A3B3B" stroke-width="0.5" stroke-miterlimit="10" d="M254.84,239.24"/>
<g>
	<g>
		<polygon fill="#D4145A" points="212.616,285.304 211.448,284.785 211.383,234.427 212.811,235.465 		"/>
		<g>
			<polygon fill="#D4145A" points="255.165,289.079 214.02,285.25 214.209,235.606 254.85,239.24 			"/>
			<polygon fill="#D4145A" points="245.663,228.424 212.725,234.201 213.226,234.685 245.655,229.761 			"/>
			<path fill="none" stroke="#D4145A" stroke-miterlimit="10" d="M245.519,229.701c1.881,3.207,6.549-0.103,8.14,10.056"/>
		</g>
	</g>
	<path fill="#D4145A" d="M245.647,229.592"/>
</g>
<path fill="none" stroke="#3A3B3B" stroke-width="0.5" stroke-miterlimit="10" d="M40.799,490.255"/>
<g>
	<g>
		<polygon fill="#D4145A" points="65.345,446.103 64.693,445.814 64.657,417.72 65.453,418.298 		"/>
		<polygon fill="#D4145A" points="89.082,448.208 66.128,446.074 66.234,418.376 88.907,420.404 		"/>
		<polygon fill="#D4145A" points="83.781,414.371 65.405,417.593 65.685,417.863 83.777,415.117 		"/>
	</g>
	<path fill="none" stroke="#ED1E79" stroke-width="0.5" stroke-miterlimit="10" d="M83.701,415.082
		c1.049,1.789,3.654-0.057,4.542,5.611"/>
	<path fill="none" d="M83.772,415.023"/>
</g>
<g>
	<g>
		<polygon fill="#D4145A" points="11.638,284.076 10.481,283.561 10.417,233.743 11.83,234.768 		"/>
		<polygon fill="#D4145A" points="53.73,287.809 13.027,284.022 13.214,234.908 53.419,238.503 		"/>
		<polygon fill="#D4145A" points="44.331,227.803 11.745,233.518 12.241,233.996 44.324,229.126 		"/>
	</g>
	<path fill="none" stroke="#ED1E79" stroke-width="0.5" stroke-miterlimit="10" d="M44.188,229.066
		c1.861,3.172,6.479-0.101,8.053,9.948"/>
	<path fill="none" d="M44.315,228.96"/>
</g>
<g>
	<g>
		<polygon fill="#D4145A" points="70.993,525.201 70.341,524.912 70.305,496.818 71.102,497.398 		"/>
		<g>
			<polygon fill="#D4145A" points="94.73,527.308 71.776,525.171 71.882,497.476 94.555,499.503 			"/>
			<polygon fill="#D4145A" points="89.43,493.468 71.053,496.691 71.333,496.96 89.425,494.214 			"/>
			<path fill="none" stroke="#D4145A" stroke-miterlimit="10" d="M89.349,494.181c1.049,1.789,3.654-0.057,4.542,5.609"/>
		</g>
	</g>
	<path fill="#D4145A" d="M94.549,499.503"/>
	<path fill="#D4145A" d="M89.421,494.121"/>
</g>
<g>
	<g>
		<polygon fill="#D4145A" points="152.332,506.513 151.68,506.224 151.645,478.13 152.441,478.708 		"/>
		<g>
			<polygon fill="#D4145A" points="176.07,508.621 153.116,506.484 153.221,478.789 175.894,480.816 			"/>
			<polygon fill="#D4145A" points="170.769,474.781 152.393,478.003 152.672,478.273 170.765,475.527 			"/>
			<path fill="none" stroke="#D4145A" stroke-miterlimit="10" d="M170.688,475.494c1.049,1.789,3.654-0.057,4.542,5.609"/>
		</g>
	</g>
	<path fill="#D4145A" d="M175.889,480.816"/>
	<path fill="#D4145A" d="M170.76,475.433"/>
</g>
<g>
	<polygon fill="#D4145A" points="90.38,483.939 89.729,483.65 89.692,455.556 90.488,456.134 	"/>
	<g>
		<polygon fill="#D4145A" points="114.117,486.044 91.163,483.91 91.269,456.212 113.942,458.24 		"/>
		<polygon fill="#D4145A" points="108.817,452.207 90.44,455.429 90.72,455.699 108.812,452.953 		"/>
		<path fill="none" stroke="#D4145A" stroke-miterlimit="10" d="M108.736,452.917c1.049,1.789,3.654-0.057,4.541,5.611"/>
	</g>
</g>
<path fill="none" stroke="#3A3B3B" stroke-width="0.5" stroke-miterlimit="10" d="M124.608,490.255"/>
<path fill="none" d="M119.479,484.873"/>
<g>
	<g>
		<polygon fill="#D4145A" points="159.581,463.351 158.929,463.062 158.893,434.968 159.689,435.546 		"/>
		<g>
			<polygon fill="#D4145A" points="183.318,465.458 160.364,463.32 160.47,435.625 183.143,437.654 			"/>
			<polygon fill="#D4145A" points="178.018,431.619 159.642,434.841 159.921,435.111 178.013,432.363 			"/>
			<path fill="none" stroke="#D4145A" stroke-miterlimit="10" d="M177.938,432.33c1.049,1.789,3.654-0.057,4.541,5.611"/>
		</g>
	</g>
	<path fill="#D4145A" d="M178.009,432.271"/>
</g>
<g>
	<g>
		<polygon fill="#D4145A" points="185.745,622.699 185.092,622.408 185.057,594.316 185.854,594.894 		"/>
		<g>
			<polygon fill="#D4145A" points="209.483,624.804 186.528,622.667 186.633,594.972 209.307,597 			"/>
			<polygon fill="#D4145A" points="204.182,590.966 185.805,594.189 186.084,594.458 204.178,591.71 			"/>
			<path fill="#D4145A" d="M204.102,591.677c1.049,1.789,3.654-0.057,4.541,5.609"/>
		</g>
	</g>
	<path fill="#D4145A" d="M209.301,597"/>
	<path fill="#D4145A" d="M204.172,591.617"/>
</g>
<g>
	<polygon fill="#D4145A" points="114.792,623.125 114.141,622.833 114.104,594.74 114.901,595.32 	"/>
	<g>
		<polygon fill="#D4145A" points="138.53,625.23 115.576,623.093 115.681,595.398 138.354,597.425 		"/>
		<polygon fill="#D4145A" points="133.229,591.39 114.853,594.613 115.132,594.882 133.225,592.136 		"/>
		<path fill="#D4145A" d="M133.149,592.103c1.049,1.789,3.654-0.057,4.541,5.609"/>
	</g>
</g>
<g>
	<g>
		<polygon fill="#D4145A" points="149.993,622.535 149.342,622.246 149.306,594.152 150.102,594.73 		"/>
		<g>
			<polygon fill="#D4145A" points="173.73,624.642 150.777,622.505 150.883,594.81 173.556,596.837 			"/>
			<polygon fill="#D4145A" points="168.43,590.802 150.055,594.025 150.334,594.294 168.426,591.548 			"/>
			<path fill="#D4145A" d="M168.35,591.515c1.05,1.789,3.654-0.057,4.541,5.609"/>
		</g>
	</g>
	<path fill="#D4145A" d="M168.422,591.455"/>
</g>
<g>
	<polygon fill="#29ABE2" points="262.689,285.304 261.521,284.785 261.458,234.427 262.885,235.465 	"/>
	<g>
		<polygon fill="#29ABE2" points="305.239,289.079 264.096,285.25 264.284,235.606 304.924,239.24 		"/>
		<polygon fill="#29ABE2" points="295.739,228.424 262.799,234.201 263.301,234.685 295.73,229.761 		"/>
		<path fill="none" stroke="#29ABE2" stroke-miterlimit="10" d="M295.594,229.701c1.881,3.207,6.549-0.103,8.141,10.056"/>
	</g>
</g>
<g>
	<polygon fill="#29ABE2" points="312.766,285.304 311.598,284.785 311.532,234.427 312.961,235.465 	"/>
	<g>
		<polygon fill="#29ABE2" points="355.315,289.079 314.17,285.25 314.36,235.606 355,239.24 		"/>
		<polygon fill="#29ABE2" points="345.812,228.424 312.875,234.201 313.375,234.685 345.805,229.761 		"/>
		<path fill="none" stroke="#29ABE2" stroke-miterlimit="10" d="M345.668,229.701c1.881,3.207,6.551-0.103,8.141,10.056"/>
	</g>
</g>
<g>
	<polygon fill="#29ABE2" points="428.179,440.869 427.495,440.564 427.458,411.08 428.293,411.687 	"/>
	<g>
		<polygon fill="#29ABE2" points="453.092,443.078 429.002,440.837 429.113,411.769 452.908,413.898 		"/>
		<polygon fill="#29ABE2" points="447.529,407.564 428.244,410.947 428.537,411.23 447.525,408.347 		"/>
		<path fill="#29ABE2" d="M447.446,408.312c1.101,1.877,3.834-0.061,4.766,5.887"/>
	</g>
</g>
<g>
	<polygon fill="#29ABE2" points="276.5,440.869 275.814,440.564 275.777,411.08 276.614,411.687 	"/>
	<g>
		<polygon fill="#29ABE2" points="301.413,443.078 277.322,440.837 277.434,411.769 301.229,413.898 		"/>
		<polygon fill="#29ABE2" points="295.85,407.564 276.564,410.947 276.857,411.23 295.844,408.347 		"/>
		<path fill="#29ABE2" d="M295.764,408.312c1.103,1.877,3.836-0.061,4.768,5.887"/>
	</g>
</g>
<g>
	<polygon fill="#00A99D" points="362.84,285.304 361.672,284.785 361.608,234.427 363.036,235.465 	"/>
	<g>
		<polygon fill="#00A99D" points="405.389,289.079 364.245,285.25 364.434,235.606 405.075,239.24 		"/>
		<polygon fill="#00A99D" points="395.889,228.424 362.95,234.201 363.452,234.685 395.881,229.761 		"/>
		<path fill="none" stroke="#00A99D" stroke-miterlimit="10" d="M395.745,229.701c1.881,3.207,6.549-0.103,8.139,10.056"/>
	</g>
</g>
<g>
	<g>
		<polygon fill="#00A99D" points="412.917,285.304 411.749,284.785 411.682,234.427 413.11,235.465 		"/>
		<g>
			<polygon fill="#00A99D" points="455.465,289.079 414.321,285.25 414.51,235.606 455.149,239.24 			"/>
			<polygon fill="#00A99D" points="445.963,228.424 413.024,234.201 413.526,234.685 445.956,229.761 			"/>
			<path fill="none" stroke="#00A99D" stroke-miterlimit="10" d="M445.819,229.701c1.881,3.207,6.551-0.103,8.141,10.056"/>
		</g>
	</g>
	<path fill="#00A99D" d="M457.192,240.882"/>
	<path fill="none" stroke="#00A99D" stroke-miterlimit="10" d="M448,231.234"/>
	<path fill="#00A99D" d="M457.192,240.882"/>
</g>
<g>
	<path d="M186.469,207.828c0.858,0.528,2.112,0.968,3.433,0.968c1.958,0,3.103-1.034,3.103-2.53c0-1.386-0.792-2.178-2.794-2.948
		c-2.42-0.858-3.917-2.112-3.917-4.203c0-2.311,1.915-4.027,4.797-4.027c1.518,0,2.619,0.352,3.278,0.726l-0.528,1.562
		c-0.484-0.264-1.474-0.704-2.816-0.704c-2.024,0-2.794,1.21-2.794,2.222c0,1.386,0.902,2.068,2.948,2.86
		c2.509,0.968,3.785,2.178,3.785,4.356c0,2.289-1.694,4.269-5.193,4.269c-1.43,0-2.992-0.418-3.784-0.946L186.469,207.828z"/>
	<path d="M200.835,210.16l-4.841-14.83h2.068l2.311,7.305c0.638,2.002,1.188,3.806,1.584,5.544h0.044
		c0.418-1.716,1.034-3.586,1.694-5.522l2.508-7.327h2.046l-5.303,14.83H200.835z"/>
	<path d="M209.855,195.528c1.166-0.176,2.552-0.308,4.07-0.308c2.75,0,4.709,0.638,6.007,1.848c1.32,1.21,2.09,2.926,2.09,5.325
		c0,2.42-0.748,4.4-2.134,5.765c-1.386,1.386-3.674,2.134-6.557,2.134c-1.364,0-2.508-0.066-3.477-0.176L209.855,195.528
		L209.855,195.528z M211.769,208.642c0.484,0.088,1.188,0.11,1.937,0.11c4.092,0,6.315-2.288,6.315-6.293
		c0.022-3.499-1.958-5.721-6.007-5.721c-0.99,0-1.738,0.088-2.245,0.198V208.642z"/>
	<path d="M229.17,195.528c0.968-0.198,2.354-0.308,3.674-0.308c2.046,0,3.367,0.374,4.291,1.21c0.749,0.66,1.167,1.672,1.167,2.816
		c0,1.958-1.232,3.256-2.794,3.785v0.066c1.144,0.396,1.826,1.452,2.178,2.992c0.484,2.068,0.836,3.499,1.144,4.071h-1.98
		c-0.242-0.418-0.572-1.694-0.99-3.542c-0.44-2.046-1.232-2.816-2.971-2.882h-1.804v6.425h-1.914L229.17,195.528L229.17,195.528z
		 M231.084,202.283h1.958c2.046,0,3.344-1.123,3.344-2.816c0-1.915-1.386-2.75-3.41-2.772c-0.924,0-1.584,0.088-1.893,0.176
		L231.084,202.283L231.084,202.283z"/>
	<path d="M242.106,205.188c0.044,2.618,1.716,3.696,3.652,3.696c1.386,0,2.222-0.242,2.948-0.55l0.33,1.386
		c-0.682,0.308-1.848,0.66-3.542,0.66c-3.278,0-5.237-2.157-5.237-5.369c0-3.212,1.893-5.743,4.995-5.743
		c3.476,0,4.4,3.059,4.4,5.017c0,0.396-0.045,0.704-0.066,0.902L242.106,205.188L242.106,205.188z M247.783,203.801
		c0.022-1.232-0.506-3.146-2.685-3.146c-1.958,0-2.816,1.804-2.97,3.146H247.783z"/>
	<path d="M251.786,208.18c0.571,0.374,1.584,0.771,2.552,0.771c1.408,0,2.068-0.704,2.068-1.584c0-0.924-0.551-1.43-1.98-1.958
		c-1.914-0.682-2.816-1.738-2.816-3.014c0-1.716,1.387-3.125,3.676-3.125c1.078,0,2.023,0.308,2.617,0.66l-0.482,1.408
		c-0.418-0.264-1.189-0.616-2.179-0.616c-1.146,0-1.782,0.66-1.782,1.452c0,0.88,0.639,1.276,2.023,1.804
		c1.85,0.704,2.795,1.628,2.795,3.213c0,1.87-1.452,3.19-3.982,3.19c-1.166,0-2.244-0.286-2.992-0.726L251.786,208.18z"/>
	<path d="M269.673,207.256c0,1.1,0.021,2.068,0.089,2.904h-1.718l-0.108-1.738h-0.045c-0.507,0.858-1.627,1.98-3.521,1.98
		c-1.672,0-3.675-0.924-3.675-4.665v-6.227h1.937v5.896c0,2.024,0.616,3.389,2.377,3.389c1.298,0,2.199-0.902,2.552-1.76
		c0.11-0.286,0.176-0.638,0.176-0.99v-6.535h1.938L269.673,207.256L269.673,207.256z"/>
	<path d="M272.884,194.538h1.937v15.622h-1.937V194.538z"/>
	<path d="M280.408,196.452v3.059h2.773v1.474h-2.773v5.743c0,1.32,0.375,2.068,1.453,2.068c0.506,0,0.88-0.066,1.121-0.132
		l0.088,1.452c-0.373,0.154-0.967,0.264-1.715,0.264c-0.902,0-1.629-0.286-2.092-0.814c-0.55-0.572-0.748-1.518-0.748-2.772v-5.809
		h-1.649v-1.474h1.649v-2.553L280.408,196.452z"/>
	<path d="M285.093,208.18c0.572,0.374,1.584,0.771,2.554,0.771c1.408,0,2.067-0.704,2.067-1.584c0-0.924-0.551-1.43-1.979-1.958
		c-1.914-0.682-2.816-1.738-2.816-3.014c0-1.716,1.387-3.125,3.675-3.125c1.078,0,2.024,0.308,2.618,0.66l-0.484,1.408
		c-0.418-0.264-1.188-0.616-2.178-0.616c-1.145,0-1.781,0.66-1.781,1.452c0,0.88,0.637,1.276,2.023,1.804
		c1.848,0.704,2.794,1.628,2.794,3.213c0,1.87-1.452,3.19-3.981,3.19c-1.166,0-2.244-0.286-2.994-0.726L285.093,208.18z"/>
</g>
<line fill="none" x1="0" y1="285.316" x2="0" y2="332.108"/>
<line fill="none" x1="-5.746" y1="285.316" x2="-5.746" y2="343.601"/>
<line fill="none" stroke="#8CC63F" stroke-miterlimit="10" x1="5.747" y1="285.316" x2="5.747" y2="310.726"/>
<line fill="none" stroke="#8CC63F" stroke-miterlimit="10" x1="5.472" y1="311.257" x2="95.697" y2="311.257"/>
<line fill="none" stroke="#8CC63F" stroke-miterlimit="10" x1="257.764" y1="311.257" x2="257.764" y2="289.421"/>
<line fill="none" stroke="#8CC63F" stroke-miterlimit="10" x1="178.253" y1="311.257" x2="257.762" y2="311.257"/>
<g>
	<path fill="#8CC63F" d="M107.287,307.77h-0.028l-1.583,0.854l-0.238-0.938l1.989-1.064h1.051v9.105h-1.191V307.77z"/>
	<path fill="#8CC63F" d="M112.018,314.465c0.364,0.238,1.008,0.49,1.625,0.49c0.896,0,1.316-0.448,1.316-1.008
		c0-0.588-0.35-0.911-1.261-1.247c-1.218-0.435-1.793-1.107-1.793-1.919c0-1.092,0.883-1.989,2.339-1.989
		c0.687,0,1.289,0.196,1.667,0.42l-0.308,0.896c-0.266-0.168-0.756-0.392-1.387-0.392c-0.729,0-1.135,0.42-1.135,0.924
		c0,0.561,0.406,0.812,1.289,1.149c1.177,0.448,1.779,1.037,1.779,2.045c0,1.191-0.925,2.031-2.536,2.031
		c-0.742,0-1.429-0.182-1.905-0.462L112.018,314.465z"/>
	<path fill="#8CC63F" d="M119.214,306.999v1.947h1.765v0.938h-1.765v3.656c0,0.84,0.238,1.316,0.924,1.316
		c0.322,0,0.561-0.042,0.715-0.084l0.056,0.925c-0.238,0.098-0.616,0.168-1.092,0.168c-0.575,0-1.037-0.182-1.331-0.519
		c-0.35-0.364-0.476-0.966-0.476-1.765v-3.698h-1.051v-0.938h1.051v-1.625L119.214,306.999z"/>
	<path fill="#8CC63F" d="M126.41,315.726l-2.396-9.441h1.289l1.121,4.776c0.28,1.177,0.532,2.354,0.7,3.264h0.028
		c0.154-0.938,0.448-2.059,0.771-3.278l1.261-4.762h1.275l1.148,4.791c0.266,1.121,0.518,2.241,0.658,3.236h0.028
		c0.196-1.037,0.462-2.087,0.756-3.264l1.247-4.762h1.247l-2.675,9.441h-1.275l-1.19-4.917c-0.294-1.205-0.49-2.129-0.616-3.082
		h-0.028c-0.168,0.939-0.378,1.863-0.729,3.082l-1.345,4.917L126.41,315.726L126.41,315.726z"/>
	<path fill="#8CC63F" d="M137.82,307.041c0.014,0.42-0.294,0.756-0.785,0.756c-0.434,0-0.742-0.336-0.742-0.756
		c0-0.435,0.322-0.771,0.77-0.771C137.525,306.271,137.82,306.606,137.82,307.041z M136.447,315.726v-6.78h1.233v6.78H136.447z"/>
	<path fill="#8CC63F" d="M139.723,310.781c0-0.7-0.014-1.274-0.056-1.835h1.093l0.07,1.121h0.028
		c0.336-0.644,1.121-1.274,2.241-1.274c0.938,0,2.395,0.56,2.395,2.885v4.048h-1.232v-3.908c0-1.092-0.406-2.003-1.569-2.003
		c-0.812,0-1.443,0.574-1.653,1.261c-0.056,0.154-0.084,0.364-0.084,0.574v4.076h-1.233V310.781L139.723,310.781z"/>
	<path fill="#8CC63F" d="M153.348,305.78v8.194c0,0.603,0.014,1.289,0.056,1.751h-1.106l-0.056-1.177h-0.028
		c-0.378,0.756-1.205,1.331-2.312,1.331c-1.639,0-2.899-1.387-2.899-3.446c-0.014-2.255,1.387-3.642,3.04-3.642
		c1.037,0,1.737,0.49,2.045,1.037h0.028v-4.048H153.348L153.348,305.78z M152.115,311.706c0-0.154-0.014-0.364-0.056-0.519
		c-0.182-0.784-0.854-1.429-1.779-1.429c-1.275,0-2.031,1.121-2.031,2.62c0,1.373,0.672,2.507,2.003,2.507
		c0.826,0,1.583-0.546,1.807-1.471c0.042-0.168,0.056-0.336,0.056-0.533V311.706z"/>
	<path fill="#8CC63F" d="M161.524,312.28c0,2.507-1.737,3.6-3.375,3.6c-1.835,0-3.25-1.345-3.25-3.488c0-2.269,1.485-3.6,3.362-3.6
		C160.208,308.792,161.524,310.207,161.524,312.28z M156.145,312.35c0,1.485,0.854,2.605,2.059,2.605
		c1.177,0,2.059-1.106,2.059-2.633c0-1.148-0.574-2.605-2.031-2.605C156.775,309.716,156.145,311.061,156.145,312.35z"/>
	<path fill="#8CC63F" d="M163.467,308.946l0.896,3.446c0.196,0.757,0.378,1.457,0.504,2.157h0.042
		c0.154-0.686,0.378-1.415,0.603-2.143l1.106-3.46h1.037l1.05,3.39c0.252,0.812,0.448,1.527,0.603,2.213h0.042
		c0.112-0.686,0.294-1.4,0.518-2.199l0.967-3.404h1.219l-2.186,6.78h-1.121l-1.036-3.236c-0.238-0.756-0.435-1.429-0.603-2.227
		h-0.028c-0.168,0.812-0.378,1.513-0.617,2.241l-1.092,3.222h-1.121l-2.045-6.78L163.467,308.946L163.467,308.946z"/>
</g>
<line fill="none" x1="-3" y1="304.316" x2="-3" y2="351.107"/>
<line fill="none" x1="-8.746" y1="319.316" x2="-8.746" y2="377.601"/>
<g>
	<g>
		<line fill="none" x1="2.747" y1="304.316" x2="2.747" y2="329.726"/>
		<rect x="2.247" y="304.316" fill="#FF7BAC" width="1" height="25.41"/>
	</g>
	<g>
		<line fill="none" x1="2.472" y1="330.257" x2="244.253" y2="330.257"/>
		<rect x="2.472" y="329.757" fill="#FF7BAC" width="241.781" height="1"/>
	</g>
	<g>
		<line fill="none" x1="359.764" y1="330.257" x2="359.764" y2="284.785"/>
		<rect x="359.264" y="284.785" fill="#FF7BAC" width="1" height="45.472"/>
	</g>
	<g>
		<rect x="328.253" y="329.757" fill="#FF7BAC" width="32.001" height="1"/>
	</g>
	<g>
		<path fill="#FF7BAC" d="M249.111,333.726v-0.757l0.966-0.938c2.325-2.213,3.376-3.39,3.391-4.763c0-0.924-0.448-1.778-1.808-1.778
			c-0.827,0-1.514,0.42-1.934,0.771l-0.392-0.869c0.63-0.532,1.526-0.925,2.577-0.925c1.962,0,2.788,1.346,2.788,2.648
			c0,1.68-1.22,3.039-3.138,4.887l-0.729,0.672v0.029h4.09v1.021h-5.812V333.726z"/>
		<path fill="#FF7BAC" d="M256.686,328.781c0-0.699-0.015-1.273-0.058-1.835h1.095l0.069,1.121h0.026
			c0.336-0.644,1.121-1.274,2.242-1.274c0.938,0,2.396,0.561,2.396,2.886v4.048h-1.231v-3.908c0-1.092-0.406-2.003-1.57-2.003
			c-0.812,0-1.441,0.574-1.652,1.261c-0.057,0.154-0.084,0.364-0.084,0.574v4.076h-1.232V328.781L256.686,328.781z"/>
		<path fill="#FF7BAC" d="M270.311,323.78v8.194c0,0.604,0.014,1.289,0.057,1.751h-1.107l-0.056-1.177h-0.028
			c-0.378,0.756-1.203,1.33-2.311,1.33c-1.639,0-2.9-1.387-2.9-3.445c-0.014-2.256,1.387-3.643,3.04-3.643
			c1.036,0,1.737,0.49,2.046,1.037h0.027v-4.048H270.311L270.311,323.78z M269.078,329.707c0-0.154-0.014-0.365-0.057-0.52
			c-0.183-0.784-0.854-1.43-1.778-1.43c-1.274,0-2.031,1.121-2.031,2.621c0,1.373,0.673,2.506,2.003,2.506
			c0.826,0,1.583-0.545,1.807-1.469c0.043-0.168,0.058-0.336,0.058-0.533L269.078,329.707L269.078,329.707z"/>
		<path fill="#FF7BAC" d="M279.366,333.726l-2.396-9.441h1.288l1.121,4.776c0.279,1.177,0.531,2.354,0.699,3.265h0.028
			c0.154-0.938,0.447-2.06,0.771-3.279l1.261-4.762h1.274l1.147,4.791c0.268,1.121,0.52,2.241,0.658,3.236h0.029
			c0.195-1.037,0.461-2.087,0.756-3.264l1.246-4.762h1.247l-2.675,9.44h-1.275l-1.189-4.917c-0.295-1.205-0.49-2.129-0.616-3.082
			h-0.028c-0.168,0.939-0.378,1.863-0.729,3.082l-1.346,4.917L279.366,333.726L279.366,333.726z"/>
		<path fill="#FF7BAC" d="M290.775,325.041c0.014,0.42-0.295,0.756-0.784,0.756c-0.435,0-0.742-0.336-0.742-0.756
			c0-0.435,0.321-0.771,0.771-0.771C290.48,324.271,290.775,324.606,290.775,325.041z M289.402,333.726v-6.78h1.232v6.78H289.402z"
			/>
		<path fill="#FF7BAC" d="M292.678,328.781c0-0.699-0.015-1.273-0.056-1.835h1.092l0.07,1.121h0.028
			c0.336-0.644,1.119-1.274,2.24-1.274c0.938,0,2.396,0.561,2.396,2.886v4.048h-1.232v-3.908c0-1.092-0.405-2.003-1.567-2.003
			c-0.812,0-1.443,0.574-1.652,1.261c-0.057,0.154-0.084,0.364-0.084,0.574v4.076h-1.232v-4.945H292.678z"/>
		<path fill="#FF7BAC" d="M306.304,323.78v8.194c0,0.604,0.015,1.289,0.056,1.751h-1.105l-0.057-1.177h-0.027
			c-0.379,0.756-1.205,1.33-2.312,1.33c-1.639,0-2.897-1.387-2.897-3.445c-0.015-2.256,1.387-3.643,3.039-3.643
			c1.037,0,1.737,0.49,2.045,1.037h0.028v-4.048H306.304L306.304,323.78z M305.07,329.707c0-0.154-0.014-0.365-0.055-0.52
			c-0.184-0.784-0.855-1.43-1.779-1.43c-1.275,0-2.031,1.121-2.031,2.621c0,1.373,0.672,2.506,2.004,2.506
			c0.826,0,1.582-0.545,1.807-1.469c0.041-0.168,0.057-0.336,0.057-0.533v-1.176H305.07z"/>
		<path fill="#FF7BAC" d="M314.48,330.28c0,2.507-1.737,3.601-3.377,3.601c-1.835,0-3.25-1.346-3.25-3.488
			c0-2.27,1.485-3.6,3.362-3.6C313.164,326.792,314.48,328.207,314.48,330.28z M309.101,330.35c0,1.485,0.854,2.604,2.06,2.604
			c1.177,0,2.059-1.105,2.059-2.633c0-1.148-0.574-2.605-2.029-2.605C309.731,327.716,309.101,329.061,309.101,330.35z"/>
		<path fill="#FF7BAC" d="M316.423,326.946l0.896,3.446c0.194,0.757,0.378,1.457,0.504,2.156h0.042
			c0.153-0.686,0.378-1.414,0.603-2.143l1.106-3.459h1.036l1.051,3.389c0.252,0.812,0.448,1.527,0.603,2.213h0.042
			c0.111-0.686,0.294-1.399,0.519-2.198l0.967-3.403h1.219l-2.186,6.779h-1.12l-1.036-3.236c-0.238-0.756-0.435-1.429-0.603-2.227
			h-0.028c-0.168,0.812-0.378,1.513-0.616,2.24l-1.093,3.223h-1.12l-2.046-6.779L316.423,326.946L316.423,326.946z"/>
	</g>
</g>
<g>
	<line fill="none" x1="132.141" y1="323.393" x2="132.141" y2="376.387"/>
	<g>
		<polygon fill="#9BCD57" points="127.381,323.393 127.381,353.613 118.987,353.613 132.142,376.387 145.295,353.613 
			136.902,353.613 136.902,323.393 		"/>
	</g>
</g>
<line fill="none" stroke="#231F20" stroke-miterlimit="10" x1="8.208" y1="388.727" x2="8.208" y2="533.726"/>
<line fill="none" stroke="#231F20" stroke-miterlimit="10" x1="214.254" y1="533.726" x2="8.208" y2="533.726"/>
<g>
	<g>
		<g>
			<polygon fill="#FF0000" points="258.891,165.763 257.721,165.244 257.657,114.886 259.084,115.924 			"/>
			<polygon fill="#D4145A" points="301.439,169.538 260.295,165.709 260.484,116.065 301.124,119.699 			"/>
			<polygon fill="#662D91" points="291.938,108.883 258.999,114.66 259.5,115.144 291.93,110.22 			"/>
		</g>
		<path fill="none" stroke="#ED1E79" stroke-width="0.5" stroke-miterlimit="10" d="M291.793,110.16
			c1.881,3.207,6.549-0.103,8.141,10.056"/>
		<path fill="none" d="M291.92,110.051"/>
	</g>
	<rect x="260.484" y="116.065" fill="none" width="11.812" height="49.983"/>
	<polygon fill="#F15A24" points="271.989,166.819 260.043,165.733 260.245,116.151 271.989,117.223 	"/>
	<polygon fill="#22B573" points="295.4,168.957 283.499,167.879 283.784,118.091 295.529,119.164 	"/>
	<polygon fill="#0071BC" points="301.491,169.538 295.452,168.957 295.581,119.164 301.174,119.699 	"/>
</g>
<g>
	<path d="M159.587,133.336c0.562-0.118,1.447-0.207,2.349-0.207c1.285,0,2.112,0.222,2.732,0.724
		c0.517,0.384,0.827,0.975,0.827,1.758c0,0.96-0.635,1.802-1.684,2.186v0.03c0.945,0.236,2.053,1.019,2.053,2.496
		c0,0.856-0.34,1.507-0.842,1.994c-0.694,0.635-1.817,0.931-3.441,0.931c-0.886,0-1.566-0.06-1.994-0.118V133.336L159.587,133.336z
		 M160.872,137.413h1.167c1.358,0,2.156-0.709,2.156-1.669c0-1.167-0.886-1.625-2.186-1.625c-0.591,0-0.931,0.044-1.137,0.088
		V137.413L160.872,137.413z M160.872,142.184c0.251,0.044,0.62,0.059,1.078,0.059c1.329,0,2.555-0.487,2.555-1.935
		c0-1.359-1.167-1.92-2.57-1.92h-1.063V142.184L160.872,142.184z"/>
	<path d="M174.08,139.524c0,2.644-1.832,3.796-3.56,3.796c-1.935,0-3.427-1.418-3.427-3.678c0-2.393,1.565-3.796,3.545-3.796
		C172.691,135.847,174.08,137.339,174.08,139.524z M168.408,139.599c0,1.565,0.901,2.747,2.171,2.747
		c1.241,0,2.171-1.167,2.171-2.777c0-1.211-0.605-2.747-2.142-2.747S168.408,138.24,168.408,139.599z"/>
	<path d="M182.192,139.524c0,2.644-1.832,3.796-3.56,3.796c-1.935,0-3.427-1.418-3.427-3.678c0-2.393,1.565-3.796,3.545-3.796
		C180.804,135.847,182.192,137.339,182.192,139.524z M176.521,139.599c0,1.565,0.901,2.747,2.171,2.747
		c1.241,0,2.171-1.167,2.171-2.777c0-1.211-0.605-2.747-2.142-2.747C177.184,136.822,176.521,138.24,176.521,139.599z"/>
	<path d="M185.12,139.288h0.029c0.178-0.251,0.429-0.561,0.635-0.812l2.098-2.467h1.565l-2.762,2.939l3.146,4.209h-1.581
		l-2.467-3.427l-0.665,0.738v2.688h-1.285v-10.487h1.285v6.619H185.12z"/>
	<path d="M193.942,133.336c0.65-0.133,1.581-0.207,2.467-0.207c1.374,0,2.26,0.251,2.88,0.812c0.502,0.443,0.783,1.123,0.783,1.891
		c0,1.314-0.827,2.186-1.876,2.541v0.044c0.768,0.266,1.226,0.975,1.462,2.009c0.325,1.388,0.561,2.349,0.768,2.732h-1.33
		c-0.162-0.281-0.384-1.137-0.665-2.378c-0.295-1.374-0.827-1.891-1.994-1.936h-1.211v4.313h-1.285L193.942,133.336L193.942,133.336
		z M195.227,137.87h1.314c1.374,0,2.245-0.753,2.245-1.891c0-1.285-0.931-1.846-2.29-1.861c-0.62,0-1.063,0.059-1.27,0.118
		L195.227,137.87L195.227,137.87z"/>
	<path d="M202.63,139.82c0.03,1.757,1.152,2.481,2.452,2.481c0.931,0,1.492-0.163,1.979-0.37l0.221,0.931
		c-0.458,0.207-1.241,0.443-2.378,0.443c-2.201,0-3.515-1.447-3.515-3.604c0-2.157,1.27-3.855,3.353-3.855
		c2.334,0,2.954,2.053,2.954,3.368c0,0.266-0.029,0.473-0.044,0.606H202.63z M206.441,138.89c0.015-0.827-0.34-2.112-1.802-2.112
		c-1.314,0-1.891,1.211-1.994,2.112H206.441z"/>
	<path d="M214.405,142.893c-0.34,0.177-1.093,0.413-2.053,0.413c-2.157,0-3.56-1.462-3.56-3.648c0-2.201,1.507-3.796,3.841-3.796
		c0.768,0,1.447,0.192,1.802,0.37l-0.295,1.004c-0.31-0.177-0.797-0.34-1.506-0.34c-1.64,0-2.526,1.211-2.526,2.703
		c0,1.654,1.063,2.673,2.481,2.673c0.738,0,1.226-0.192,1.595-0.354L214.405,142.893z"/>
	<path d="M217.376,134c0.015,0.443-0.31,0.797-0.827,0.797c-0.458,0-0.783-0.354-0.783-0.797c0-0.458,0.339-0.812,0.812-0.812
		C217.066,133.188,217.376,133.542,217.376,134z M215.929,143.158v-7.149h1.3v7.149H215.929z"/>
	<path d="M219.386,138.343c0-0.916-0.029-1.654-0.059-2.333h1.167l0.059,1.226h0.03c0.531-0.872,1.374-1.389,2.54-1.389
		c1.729,0,3.028,1.462,3.028,3.634c0,2.57-1.566,3.84-3.25,3.84c-0.945,0-1.772-0.414-2.201-1.123h-0.03v3.885h-1.285v-7.74H219.386
		z M220.671,140.249c0,0.192,0.03,0.369,0.059,0.532c0.236,0.901,1.019,1.521,1.95,1.521c1.374,0,2.171-1.123,2.171-2.762
		c0-1.433-0.753-2.659-2.127-2.659c-0.886,0-1.713,0.635-1.965,1.61c-0.044,0.163-0.088,0.354-0.088,0.532V140.249L220.671,140.249z
		"/>
	<path d="M228.518,139.82c0.029,1.757,1.152,2.481,2.452,2.481c0.931,0,1.492-0.163,1.979-0.37l0.222,0.931
		c-0.458,0.207-1.241,0.443-2.378,0.443c-2.201,0-3.516-1.447-3.516-3.604c0-2.157,1.271-3.855,3.353-3.855
		c2.334,0,2.954,2.053,2.954,3.368c0,0.266-0.029,0.473-0.044,0.606H228.518z M232.328,138.89c0.015-0.827-0.34-2.112-1.802-2.112
		c-1.315,0-1.891,1.211-1.994,2.112H232.328z"/>
	<path d="M237.841,138.181v-0.886h7.622v0.886H237.841z M237.841,141.076v-0.886h7.622v0.886H237.841z"/>
</g>
<g>
	<g>
		<g>
			<polygon fill="#FF0000" points="133.551,473.363 132.887,473.068 132.85,444.425 133.661,445.015 			"/>
			<polygon fill="#D4145A" points="157.753,475.511 134.35,473.333 134.458,445.095 157.573,447.162 			"/>
			<polygon fill="#662D91" points="152.348,441.011 133.613,444.296 133.898,444.572 152.344,441.771 			"/>
		</g>
		<path fill="none" stroke="#ED1E79" stroke-width="0.5" stroke-miterlimit="10" d="M152.266,441.736
			c1.07,1.824,3.725-0.059,4.63,5.721"/>
		<path fill="none" d="M152.339,441.673"/>
	</g>
	<rect x="134.458" y="445.095" fill="none" width="6.718" height="28.432"/>
	<polygon fill="#F15A24" points="141.002,473.964 134.207,473.345 134.322,445.144 141.002,445.755 	"/>
	<polygon fill="#22B573" points="154.318,475.179 147.547,474.566 147.71,446.248 154.391,446.857 	"/>
	<polygon fill="#0071BC" points="157.782,475.511 154.347,475.179 154.42,446.857 157.602,447.162 	"/>
</g>
<g>
	<path d="M77.056,383.384h1.285v4.801h0.044c0.266-0.385,0.531-0.738,0.783-1.062l3.042-3.736h1.595l-3.604,4.225l3.885,5.73h-1.521
		l-3.279-4.889l-0.945,1.092v3.797h-1.285V383.384z"/>
	<path d="M85.065,393.339v-9.955h1.403l3.19,5.037c0.738,1.166,1.314,2.216,1.787,3.234l0.03-0.015
		c-0.118-1.33-0.148-2.541-0.148-4.093v-4.164h1.211v9.955h-1.3l-3.161-5.053c-0.694-1.106-1.359-2.244-1.861-3.322l-0.044,0.015
		c0.074,1.256,0.104,2.452,0.104,4.106v4.254H85.065L85.065,393.339z"/>
	<path d="M94.788,393.339v-9.955h1.403l3.19,5.037c0.738,1.166,1.314,2.216,1.787,3.234l0.03-0.015
		c-0.118-1.33-0.148-2.541-0.148-4.093v-4.164h1.211v9.955h-1.3l-3.161-5.053c-0.694-1.106-1.359-2.244-1.861-3.322l-0.044,0.015
		c0.074,1.256,0.104,2.452,0.104,4.106v4.254H94.788L94.788,393.339z"/>
	<path d="M116.032,388.968c-0.074-1.389-0.163-3.059-0.147-4.299h-0.044c-0.34,1.166-0.753,2.408-1.255,3.781l-1.758,4.83h-0.975
		l-1.61-4.742c-0.473-1.402-0.872-2.688-1.152-3.869h-0.029c-0.029,1.24-0.104,2.91-0.192,4.401l-0.266,4.269h-1.226l0.694-9.955
		h1.64l1.699,4.814c0.414,1.227,0.753,2.319,1.004,3.354h0.044c0.251-1.005,0.605-2.099,1.048-3.354l1.772-4.814h1.64l0.621,9.955
		h-1.256L116.032,388.968z"/>
	<path d="M126.036,389.707c0,2.645-1.832,3.795-3.56,3.795c-1.935,0-3.427-1.418-3.427-3.678c0-2.393,1.565-3.796,3.545-3.796
		C124.647,386.028,126.036,387.521,126.036,389.707z M120.364,389.78c0,1.565,0.901,2.747,2.171,2.747
		c1.241,0,2.171-1.167,2.171-2.775c0-1.213-0.605-2.748-2.142-2.748S120.364,388.421,120.364,389.78z"/>
	<path d="M133.853,382.853v8.641c0,0.637,0.015,1.359,0.059,1.848h-1.167l-0.059-1.24h-0.03c-0.398,0.797-1.27,1.402-2.437,1.402
		c-1.728,0-3.057-1.463-3.057-3.633c-0.015-2.379,1.462-3.842,3.205-3.842c1.093,0,1.832,0.518,2.156,1.094h0.03v-4.27H133.853
		L133.853,382.853z M132.553,389.101c0-0.162-0.015-0.385-0.059-0.546c-0.192-0.828-0.901-1.507-1.876-1.507
		c-1.344,0-2.142,1.182-2.142,2.762c0,1.447,0.709,2.645,2.112,2.645c0.871,0,1.669-0.576,1.905-1.552
		c0.044-0.177,0.059-0.354,0.059-0.562v-1.24H132.553z"/>
	<path d="M136.736,390.001c0.029,1.758,1.152,2.481,2.452,2.481c0.931,0,1.492-0.163,1.979-0.368l0.222,0.93
		c-0.458,0.207-1.241,0.442-2.378,0.442c-2.201,0-3.516-1.446-3.516-3.604c0-2.156,1.271-3.854,3.353-3.854
		c2.334,0,2.954,2.054,2.954,3.368c0,0.266-0.029,0.473-0.044,0.605H136.736L136.736,390.001z M140.547,389.071
		c0.015-0.827-0.34-2.112-1.802-2.112c-1.315,0-1.891,1.211-1.994,2.112H140.547z"/>
	<path d="M143.415,382.853h1.3v10.486h-1.3V382.853z"/>
</g>
<g>
	<line fill="none" x1="125.891" y1="540.74" x2="125.891" y2="579.386"/>
	<g>
		<polygon fill="#9BCD57" points="121.131,540.74 121.131,554.693 121.131,556.613 112.736,556.613 125.892,579.386 
			139.045,556.613 130.651,556.613 130.651,554.693 130.651,540.74 		"/>
	</g>
</g>
<g>
	<path d="M15.242,596.933H15.21l-1.809,0.979l-0.272-1.072l2.273-1.217h1.201v10.404h-1.361V596.933z"/>
	<path d="M20.649,604.585c0.416,0.271,1.152,0.561,1.856,0.561c1.024,0,1.505-0.514,1.505-1.152c0-0.672-0.4-1.039-1.441-1.424
		c-1.393-0.496-2.049-1.266-2.049-2.193c0-1.248,1.009-2.271,2.673-2.271c0.784,0,1.473,0.223,1.905,0.479l-0.352,1.025
		c-0.304-0.193-0.865-0.449-1.585-0.449c-0.832,0-1.296,0.479-1.296,1.057c0,0.641,0.464,0.93,1.473,1.312
		c1.345,0.512,2.033,1.186,2.033,2.338c0,1.359-1.056,2.32-2.897,2.32c-0.849,0-1.633-0.207-2.177-0.527L20.649,604.585z"/>
	<path d="M28.874,596.054v2.227h2.017v1.07h-2.017v4.18c0,0.959,0.272,1.504,1.056,1.504c0.368,0,0.641-0.049,0.816-0.096
		l0.064,1.057c-0.272,0.111-0.704,0.189-1.249,0.189c-0.656,0-1.184-0.205-1.521-0.592c-0.4-0.416-0.544-1.104-0.544-2.018v-4.225
		h-1.201v-1.072h1.201v-1.857L28.874,596.054z"/>
	<path d="M35.913,595.38c0.849-0.127,1.857-0.223,2.961-0.223c2.001,0,3.425,0.463,4.37,1.344c0.96,0.881,1.521,2.129,1.521,3.873
		c0,1.762-0.544,3.201-1.552,4.195c-1.009,1.008-2.673,1.553-4.77,1.553c-0.993,0-1.825-0.049-2.529-0.129L35.913,595.38
		L35.913,595.38z M37.305,604.921c0.353,0.064,0.865,0.08,1.409,0.08c2.977,0,4.594-1.664,4.594-4.578
		c0.016-2.545-1.424-4.162-4.37-4.162c-0.72,0-1.265,0.064-1.633,0.146V604.921z"/>
	<path d="M47.369,602.408c0.032,1.904,1.249,2.689,2.657,2.689c1.008,0,1.617-0.176,2.145-0.4l0.24,1.008
		c-0.496,0.225-1.344,0.48-2.577,0.48c-2.385,0-3.81-1.568-3.81-3.904c0-2.338,1.376-4.18,3.633-4.18
		c2.529,0,3.201,2.227,3.201,3.65c0,0.287-0.032,0.512-0.048,0.656H47.369L47.369,602.408z M51.499,601.4
		c0.016-0.896-0.368-2.289-1.953-2.289c-1.425,0-2.049,1.312-2.161,2.289H51.499z"/>
	<path d="M54.601,594.662h1.409v11.363h-1.409V594.662z"/>
	<path d="M59.945,596.101c0.016,0.48-0.336,0.865-0.896,0.865c-0.496,0-0.849-0.385-0.849-0.865c0-0.494,0.368-0.879,0.88-0.879
		C59.609,595.222,59.945,595.605,59.945,596.101z M58.376,606.025v-7.746h1.409v7.746H58.376z"/>
	<path d="M62.665,598.279l1.521,4.354c0.256,0.705,0.464,1.344,0.624,1.984h0.048c0.176-0.641,0.4-1.279,0.656-1.984l1.504-4.354
		h1.473l-3.041,7.746h-1.345l-2.945-7.746H62.665z"/>
	<path d="M70.44,602.408c0.032,1.904,1.249,2.689,2.657,2.689c1.008,0,1.617-0.176,2.145-0.4l0.24,1.008
		c-0.496,0.225-1.344,0.48-2.577,0.48c-2.385,0-3.81-1.568-3.81-3.904c0-2.338,1.376-4.18,3.633-4.18
		c2.529,0,3.201,2.227,3.201,3.65c0,0.287-0.032,0.512-0.048,0.656H70.44L70.44,602.408z M74.57,601.4
		c0.016-0.896-0.368-2.289-1.953-2.289c-1.425,0-2.049,1.312-2.161,2.289H74.57z"/>
	<path d="M77.672,600.695c0-0.912-0.016-1.695-0.064-2.416h1.232l0.048,1.52h0.064c0.352-1.039,1.2-1.695,2.145-1.695
		c0.16,0,0.272,0.018,0.4,0.049v1.326c-0.144-0.029-0.288-0.047-0.48-0.047c-0.992,0-1.696,0.752-1.889,1.811
		c-0.032,0.189-0.064,0.416-0.064,0.656v4.129h-1.393L77.672,600.695L77.672,600.695z"/>
	<path d="M83.528,602.408c0.032,1.904,1.249,2.689,2.657,2.689c1.008,0,1.617-0.176,2.145-0.4l0.24,1.008
		c-0.496,0.225-1.344,0.48-2.577,0.48c-2.385,0-3.81-1.568-3.81-3.904c0-2.338,1.376-4.18,3.633-4.18
		c2.529,0,3.201,2.227,3.201,3.65c0,0.287-0.032,0.512-0.048,0.656H83.528L83.528,602.408z M87.658,601.4
		c0.016-0.896-0.368-2.289-1.953-2.289c-1.425,0-2.049,1.312-2.161,2.289H87.658z"/>
	<path d="M97.451,594.662v9.363c0,0.688,0.016,1.473,0.064,2H96.25l-0.064-1.344h-0.032c-0.432,0.863-1.376,1.521-2.641,1.521
		c-1.873,0-3.313-1.586-3.313-3.939c-0.016-2.574,1.584-4.16,3.473-4.16c1.185,0,1.985,0.561,2.337,1.186h0.032v-4.627H97.451
		L97.451,594.662z M96.042,601.431c0-0.176-0.016-0.416-0.064-0.592c-0.208-0.895-0.977-1.633-2.033-1.633
		c-1.457,0-2.321,1.281-2.321,2.994c0,1.568,0.769,2.865,2.289,2.865c0.944,0,1.809-0.625,2.065-1.682
		c0.048-0.191,0.064-0.385,0.064-0.607V601.431z"/>
	<path d="M12.681,614.582c0.705-0.145,1.713-0.225,2.673-0.225c1.488,0,2.449,0.271,3.121,0.881c0.544,0.48,0.849,1.217,0.849,2.049
		c0,1.424-0.896,2.369-2.033,2.754v0.047c0.833,0.289,1.329,1.057,1.585,2.178c0.352,1.504,0.608,2.545,0.832,2.961h-1.44
		c-0.176-0.305-0.416-1.23-0.72-2.578c-0.32-1.486-0.896-2.049-2.161-2.096h-1.312v4.674h-1.393L12.681,614.582L12.681,614.582z
		 M14.074,619.496h1.425c1.489,0,2.433-0.816,2.433-2.049c0-1.393-1.009-2-2.481-2.018c-0.672,0-1.153,0.064-1.377,0.129V619.496z"
		/>
	<path d="M22.089,621.609c0.032,1.904,1.249,2.688,2.657,2.688c1.008,0,1.617-0.176,2.145-0.4l0.24,1.01
		c-0.496,0.225-1.344,0.48-2.577,0.48c-2.385,0-3.81-1.568-3.81-3.906s1.376-4.178,3.633-4.178c2.529,0,3.201,2.225,3.201,3.648
		c0,0.289-0.032,0.514-0.048,0.656h-5.441V621.609z M26.219,620.599c0.016-0.895-0.368-2.289-1.953-2.289
		c-1.425,0-2.049,1.314-2.161,2.289H26.219z"/>
	<path d="M29.129,623.785c0.416,0.271,1.152,0.561,1.856,0.561c1.024,0,1.505-0.512,1.505-1.15c0-0.674-0.4-1.041-1.441-1.426
		c-1.393-0.496-2.049-1.266-2.049-2.191c0-1.25,1.009-2.273,2.673-2.273c0.784,0,1.473,0.225,1.905,0.48l-0.352,1.023
		c-0.304-0.191-0.865-0.447-1.585-0.447c-0.832,0-1.296,0.479-1.296,1.057c0,0.641,0.464,0.928,1.473,1.311
		c1.345,0.514,2.033,1.186,2.033,2.338c0,1.359-1.056,2.32-2.897,2.32c-0.849,0-1.633-0.209-2.177-0.529L29.129,623.785z"/>
	<path d="M42.14,623.113c0,0.801,0.016,1.504,0.064,2.113h-1.249l-0.08-1.266h-0.032c-0.368,0.625-1.185,1.441-2.561,1.441
		c-1.216,0-2.673-0.674-2.673-3.395v-4.531h1.408v4.291c0,1.473,0.448,2.465,1.729,2.465c0.944,0,1.601-0.654,1.856-1.279
		c0.08-0.209,0.128-0.465,0.128-0.723v-4.754h1.408v5.637H42.14z"/>
	<path d="M44.473,613.861h1.409v11.365h-1.409V613.861z"/>
	<path d="M49.946,615.253v2.225h2.017v1.072h-2.017v4.178c0,0.963,0.272,1.508,1.056,1.508c0.368,0,0.641-0.051,0.816-0.098
		l0.064,1.057c-0.272,0.111-0.704,0.191-1.249,0.191c-0.656,0-1.184-0.209-1.521-0.592c-0.4-0.416-0.544-1.104-0.544-2.018v-4.227
		h-1.201v-1.072h1.201v-1.855L49.946,615.253z"/>
	<path d="M56.792,623.529c0.624,0.385,1.537,0.705,2.497,0.705c1.424,0,2.257-0.752,2.257-1.842c0-1.008-0.576-1.584-2.033-2.145
		c-1.761-0.625-2.849-1.537-2.849-3.057c0-1.684,1.393-2.932,3.489-2.932c1.104,0,1.905,0.256,2.385,0.529l-0.384,1.135
		c-0.352-0.189-1.073-0.512-2.049-0.512c-1.473,0-2.033,0.881-2.033,1.617c0,1.008,0.656,1.504,2.145,2.08
		c1.825,0.705,2.753,1.586,2.753,3.17c0,1.664-1.233,3.105-3.778,3.105c-1.041,0-2.177-0.305-2.753-0.689L56.792,623.529z"/>
	<path d="M65.705,621.609c0.032,1.904,1.249,2.688,2.657,2.688c1.008,0,1.617-0.176,2.145-0.4l0.24,1.01
		c-0.496,0.225-1.344,0.48-2.577,0.48c-2.385,0-3.81-1.568-3.81-3.906s1.376-4.178,3.633-4.178c2.529,0,3.201,2.225,3.201,3.648
		c0,0.289-0.032,0.514-0.048,0.656h-5.441V621.609z M69.834,620.599c0.016-0.895-0.368-2.289-1.953-2.289
		c-1.425,0-2.049,1.314-2.161,2.289H69.834z"/>
	<path d="M74.633,615.253v2.225h2.017v1.072h-2.017v4.178c0,0.963,0.272,1.508,1.056,1.508c0.368,0,0.641-0.051,0.816-0.098
		l0.064,1.057c-0.272,0.111-0.704,0.191-1.249,0.191c-0.656,0-1.184-0.209-1.521-0.592c-0.4-0.416-0.544-1.104-0.544-2.018v-4.227
		h-1.201v-1.072h1.201v-1.855L74.633,615.253z"/>
	<path d="M77.896,618.759c0-0.592,0.4-1.008,0.96-1.008s0.928,0.416,0.944,1.008c0,0.562-0.368,0.992-0.96,0.992
		C78.28,619.751,77.896,619.32,77.896,618.759z M77.896,624.41c0-0.592,0.4-1.008,0.96-1.008s0.928,0.416,0.944,1.008
		c0,0.561-0.368,0.992-0.96,0.992C78.28,625.402,77.896,624.97,77.896,624.41z"/>
</g>
<path fill="none" stroke="#3A3B3B" stroke-width="0.5" stroke-miterlimit="10" d="M305.798,489.255"/>
<g>
	<g>
		<polygon fill="#D4145A" points="330.345,445.103 329.693,444.814 329.657,416.72 330.453,417.298 		"/>
		<polygon fill="#D4145A" points="354.082,447.208 331.128,445.074 331.234,417.376 353.907,419.404 		"/>
		<polygon fill="#D4145A" points="348.781,413.371 330.406,416.593 330.685,416.863 348.777,414.117 		"/>
	</g>
	<path fill="#D4145A" d="M348.701,414.082c1.05,1.789,3.654-0.057,4.542,5.611"/>
	<path fill="#D4145A" d="M348.773,414.023"/>
</g>
<g>
	<g>
		<polygon fill="#D4145A" points="345.994,524.535 345.341,524.246 345.305,496.152 346.102,496.732 		"/>
		<g>
			<polygon fill="#D4145A" points="369.731,526.642 346.777,524.505 346.882,496.81 369.555,498.837 			"/>
			<polygon fill="#D4145A" points="364.43,492.802 346.054,496.025 346.333,496.294 364.425,493.548 			"/>
			<path fill="#D4145A" d="M364.349,493.515c1.051,1.789,3.654-0.057,4.542,5.609"/>
		</g>
	</g>
	<path fill="#D4145A" d="M369.55,498.837"/>
	<path fill="#D4145A" d="M364.421,493.455"/>
</g>
<g>
	<polygon fill="#29ABE2" points="422.179,621.869 421.495,621.564 421.458,592.08 422.293,592.687 	"/>
	<g>
		<polygon fill="#29ABE2" points="447.092,624.078 423.002,621.837 423.113,592.769 446.908,594.896 		"/>
		<polygon fill="#29ABE2" points="441.529,588.564 422.244,591.947 422.537,592.23 441.525,589.347 		"/>
		<path fill="none" stroke="#29ABE2" stroke-width="0.5" stroke-miterlimit="10" d="M441.446,589.312
			c1.101,1.877,3.834-0.061,4.766,5.887"/>
	</g>
</g>
<g>
	<g>
		<polygon fill="#D4145A" points="388.345,622.103 387.693,621.814 387.657,593.72 388.453,594.298 		"/>
		<polygon fill="#D4145A" points="412.082,624.208 389.128,622.074 389.234,594.376 411.907,596.404 		"/>
		<polygon fill="#D4145A" points="406.781,590.371 388.406,593.593 388.685,593.863 406.777,591.117 		"/>
	</g>
	<path fill="none" stroke="#ED1E79" stroke-width="0.5" stroke-miterlimit="10" d="M406.701,591.082
		c1.05,1.789,3.654-0.057,4.542,5.611"/>
	<path fill="none" d="M406.773,591.023"/>
</g>
<g>
	<g>
		<polygon fill="#D4145A" points="457.994,622.201 457.341,621.912 457.305,593.818 458.102,594.398 		"/>
		<g>
			<polygon fill="#D4145A" points="481.731,624.308 458.777,622.171 458.882,594.476 481.555,596.503 			"/>
			<polygon fill="#D4145A" points="476.43,590.468 458.054,593.691 458.333,593.96 476.425,591.214 			"/>
			<path fill="#D4145A" d="M476.349,591.181c1.051,1.789,3.654-0.057,4.542,5.609"/>
		</g>
	</g>
	<path fill="#D4145A" d="M481.55,596.503"/>
	<path fill="#D4145A" d="M476.421,591.121"/>
</g>
<path fill="none" stroke="#3A3B3B" stroke-width="0.5" stroke-miterlimit="10" d="M389.608,489.255"/>
<path fill="none" d="M384.48,483.873"/>
<line fill="none" x1="256.253" y1="312.316" x2="256.253" y2="370.601"/>
<g>
	<line fill="none" x1="292.256" y1="340.953" x2="316.335" y2="383.724"/>
	<g>
		<polygon fill="#FF8CB7" points="288.109,343.289 300.074,364.541 301.016,366.214 293.701,370.332 316.336,383.723 
			316.625,357.425 309.312,361.542 308.37,359.871 296.404,338.617 		"/>
	</g>
</g>
<line fill="none" stroke="#231F20" stroke-miterlimit="10" x1="273.208" y1="387.727" x2="273.208" y2="532.726"/>
<line fill="none" stroke="#231F20" stroke-miterlimit="10" x1="479.253" y1="532.726" x2="273.208" y2="532.726"/>
<g>
	<g>
		<g>
			<polygon fill="#FF0000" points="398.551,472.363 397.886,472.068 397.85,443.425 398.662,444.015 			"/>
			<polygon fill="#D4145A" points="422.753,474.511 399.35,472.333 399.458,444.095 422.574,446.162 			"/>
			<polygon fill="#662D91" points="417.348,440.011 398.613,443.296 398.898,443.572 417.344,440.771 			"/>
		</g>
		<path fill="none" stroke="#ED1E79" stroke-width="0.5" stroke-miterlimit="10" d="M417.266,440.736
			c1.069,1.824,3.727-0.059,4.631,5.721"/>
		<path fill="none" d="M417.339,440.673"/>
	</g>
	<rect x="399.458" y="444.095" fill="none" width="6.718" height="28.432"/>
	<polygon fill="#F15A24" points="406.002,472.964 399.207,472.345 399.322,444.144 406.002,444.755 	"/>
	<polygon fill="#22B573" points="419.318,474.179 412.547,473.566 412.71,445.248 419.391,445.857 	"/>
	<polygon fill="#0071BC" points="422.782,474.511 419.347,474.179 419.419,445.857 422.602,446.162 	"/>
</g>
<g>
	<path d="M342.056,380.384h1.285v4.801h0.045c0.267-0.385,0.531-0.738,0.782-1.062l3.042-3.736h1.596l-3.604,4.225l3.885,5.73
		h-1.521l-3.279-4.889l-0.945,1.092v3.797h-1.285L342.056,380.384L342.056,380.384z"/>
	<path d="M350.065,390.339v-9.955h1.402l3.19,5.037c0.738,1.166,1.313,2.216,1.787,3.234l0.029-0.015
		c-0.118-1.33-0.147-2.541-0.147-4.093v-4.164h1.211v9.955h-1.299l-3.162-5.053c-0.693-1.106-1.358-2.244-1.861-3.322l-0.043,0.015
		c0.073,1.256,0.104,2.452,0.104,4.106v4.254H350.065L350.065,390.339z"/>
	<path d="M359.788,390.339v-9.955h1.403l3.189,5.037c0.738,1.166,1.314,2.216,1.787,3.234l0.03-0.015
		c-0.119-1.33-0.148-2.541-0.148-4.093v-4.164h1.211v9.955h-1.299l-3.162-5.053c-0.692-1.106-1.357-2.244-1.86-3.322l-0.043,0.015
		c0.072,1.256,0.104,2.452,0.104,4.106v4.254H359.788L359.788,390.339z"/>
	<path d="M381.033,385.968c-0.074-1.389-0.163-3.059-0.148-4.299h-0.044c-0.34,1.166-0.753,2.408-1.255,3.781l-1.758,4.83h-0.977
		l-1.609-4.742c-0.474-1.402-0.871-2.688-1.152-3.869h-0.029c-0.028,1.24-0.104,2.91-0.19,4.401l-0.267,4.269h-1.227l0.694-9.955
		h1.64l1.699,4.814c0.413,1.227,0.752,2.319,1.004,3.354h0.045c0.25-1.005,0.605-2.099,1.048-3.354l1.772-4.814h1.64l0.62,9.955
		h-1.256L381.033,385.968z"/>
	<path d="M391.037,386.707c0,2.645-1.832,3.795-3.562,3.795c-1.935,0-3.426-1.418-3.426-3.678c0-2.393,1.564-3.796,3.545-3.796
		C389.648,383.028,391.037,384.521,391.037,386.707z M385.365,386.78c0,1.565,0.899,2.747,2.17,2.747
		c1.242,0,2.172-1.167,2.172-2.775c0-1.213-0.605-2.748-2.142-2.748C386.028,384.003,385.365,385.421,385.365,386.78z"/>
	<path d="M398.853,379.853v8.641c0,0.637,0.016,1.359,0.06,1.848h-1.166l-0.061-1.24h-0.029c-0.398,0.797-1.271,1.402-2.438,1.402
		c-1.728,0-3.058-1.463-3.058-3.633c-0.016-2.379,1.463-3.842,3.205-3.842c1.094,0,1.832,0.518,2.155,1.094h0.03v-4.27H398.853
		L398.853,379.853z M397.553,386.101c0-0.162-0.015-0.385-0.06-0.546c-0.191-0.828-0.9-1.507-1.875-1.507
		c-1.345,0-2.144,1.182-2.144,2.762c0,1.447,0.709,2.645,2.113,2.645c0.871,0,1.668-0.576,1.904-1.552
		c0.045-0.177,0.06-0.354,0.06-0.562L397.553,386.101L397.553,386.101z"/>
	<path d="M401.736,387.001c0.028,1.758,1.151,2.481,2.451,2.481c0.932,0,1.491-0.163,1.979-0.368l0.221,0.93
		c-0.457,0.207-1.239,0.442-2.377,0.442c-2.201,0-3.516-1.446-3.516-3.604c0-2.156,1.27-3.854,3.353-3.854
		c2.334,0,2.954,2.054,2.954,3.368c0,0.266-0.028,0.473-0.045,0.605H401.736L401.736,387.001z M405.546,386.071
		c0.016-0.827-0.34-2.112-1.801-2.112c-1.315,0-1.892,1.211-1.994,2.112H405.546z"/>
	<path d="M408.416,379.853h1.299v10.486h-1.299V379.853z"/>
</g>
<g>
	<line fill="none" x1="390.89" y1="538.392" x2="390.89" y2="578.386"/>
	<g>
		<polygon fill="#FF8CB7" points="386.13,538.392 386.13,553.693 386.13,555.613 377.736,555.613 390.891,578.386 404.044,555.613 
			395.651,555.613 395.651,553.693 395.651,538.392 		"/>
	</g>
</g>
<g>
	<path d="M277.186,605.025v-0.863l1.104-1.072c2.656-2.529,3.857-3.875,3.874-5.441c0-1.059-0.513-2.033-2.065-2.033
		c-0.943,0-1.729,0.479-2.207,0.881l-0.449-0.992c0.721-0.607,1.744-1.057,2.944-1.057c2.241,0,3.187,1.537,3.187,3.023
		c0,1.922-1.393,3.475-3.586,5.586l-0.832,0.77v0.033h4.674v1.168h-6.643V605.025z"/>
	<path d="M285.841,599.375c0-0.799-0.016-1.455-0.063-2.096h1.248l0.08,1.279h0.033c0.383-0.736,1.279-1.457,2.561-1.457
		c1.072,0,2.736,0.643,2.736,3.299v4.625h-1.408v-4.465c0-1.25-0.463-2.289-1.793-2.289c-0.928,0-1.648,0.656-1.889,1.439
		c-0.063,0.176-0.097,0.416-0.097,0.656v4.656h-1.408V599.375z"/>
	<path d="M301.412,593.662v9.363c0,0.688,0.016,1.473,0.064,2h-1.266l-0.062-1.344h-0.033c-0.432,0.863-1.377,1.521-2.641,1.521
		c-1.873,0-3.312-1.586-3.312-3.939c-0.018-2.574,1.584-4.16,3.473-4.16c1.186,0,1.984,0.561,2.338,1.186h0.031v-4.627H301.412
		L301.412,593.662z M300.003,600.431c0-0.176-0.017-0.416-0.063-0.592c-0.207-0.895-0.978-1.633-2.033-1.633
		c-1.456,0-2.32,1.281-2.32,2.994c0,1.568,0.77,2.865,2.289,2.865c0.943,0,1.809-0.625,2.064-1.682
		c0.049-0.191,0.063-0.385,0.063-0.607V600.431z"/>
	<path d="M307.185,594.38c0.85-0.127,1.857-0.223,2.962-0.223c2.002,0,3.426,0.463,4.369,1.344c0.96,0.881,1.521,2.129,1.521,3.873
		c0,1.762-0.544,3.201-1.553,4.195c-1.009,1.008-2.674,1.553-4.771,1.553c-0.992,0-1.824-0.049-2.529-0.129V594.38z
		 M308.578,603.921c0.353,0.064,0.865,0.08,1.408,0.08c2.978,0,4.594-1.664,4.594-4.578c0.017-2.545-1.424-4.162-4.369-4.162
		c-0.721,0-1.265,0.064-1.633,0.146V603.921z"/>
	<path d="M318.641,601.408c0.032,1.904,1.249,2.689,2.657,2.689c1.008,0,1.617-0.176,2.146-0.4l0.239,1.008
		c-0.496,0.225-1.344,0.48-2.575,0.48c-2.387,0-3.812-1.568-3.812-3.904c0-2.338,1.377-4.18,3.634-4.18
		c2.528,0,3.201,2.227,3.201,3.65c0,0.287-0.032,0.512-0.048,0.656H318.641L318.641,601.408z M322.771,600.4
		c0.016-0.896-0.368-2.289-1.953-2.289c-1.425,0-2.05,1.312-2.16,2.289H322.771z"/>
	<path d="M325.873,593.662h1.409v11.363h-1.409V593.662z"/>
	<path d="M331.218,595.101c0.017,0.48-0.337,0.865-0.896,0.865c-0.496,0-0.851-0.385-0.851-0.865c0-0.494,0.369-0.879,0.881-0.879
		C330.881,594.222,331.218,594.605,331.218,595.101z M329.649,605.025v-7.746h1.408v7.746H329.649z"/>
	<path d="M333.938,597.279l1.521,4.354c0.256,0.705,0.464,1.344,0.624,1.984h0.049c0.176-0.641,0.399-1.279,0.656-1.984l1.504-4.354
		h1.473l-3.041,7.746h-1.345l-2.945-7.746H333.938z"/>
	<path d="M341.712,601.408c0.032,1.904,1.248,2.689,2.657,2.689c1.009,0,1.616-0.176,2.146-0.4l0.239,1.008
		c-0.496,0.225-1.345,0.48-2.577,0.48c-2.385,0-3.809-1.568-3.809-3.904c0-2.338,1.376-4.18,3.633-4.18
		c2.529,0,3.201,2.227,3.201,3.65c0,0.287-0.031,0.512-0.048,0.656H341.712L341.712,601.408z M345.842,600.4
		c0.018-0.896-0.368-2.289-1.952-2.289c-1.426,0-2.049,1.312-2.161,2.289H345.842z"/>
	<path d="M348.945,599.695c0-0.912-0.017-1.695-0.064-2.416h1.232l0.049,1.52h0.063c0.353-1.039,1.199-1.695,2.146-1.695
		c0.16,0,0.271,0.018,0.4,0.049v1.326c-0.146-0.029-0.289-0.047-0.48-0.047c-0.992,0-1.697,0.752-1.889,1.811
		c-0.032,0.189-0.064,0.416-0.064,0.656v4.129h-1.393V599.695L348.945,599.695z"/>
	<path d="M354.8,601.408c0.033,1.904,1.249,2.689,2.658,2.689c1.008,0,1.616-0.176,2.145-0.4l0.24,1.008
		c-0.496,0.225-1.345,0.48-2.577,0.48c-2.386,0-3.81-1.568-3.81-3.904c0-2.338,1.377-4.18,3.633-4.18
		c2.529,0,3.201,2.227,3.201,3.65c0,0.287-0.031,0.512-0.047,0.656H354.8L354.8,601.408z M358.931,600.4
		c0.017-0.896-0.368-2.289-1.953-2.289c-1.425,0-2.049,1.312-2.16,2.289H358.931z"/>
	<path d="M368.724,593.662v9.363c0,0.688,0.017,1.473,0.063,2h-1.266l-0.063-1.344h-0.031c-0.433,0.863-1.377,1.521-2.642,1.521
		c-1.872,0-3.313-1.586-3.313-3.939c-0.016-2.574,1.585-4.16,3.475-4.16c1.185,0,1.984,0.561,2.337,1.186h0.032v-4.627H368.724
		L368.724,593.662z M367.315,600.431c0-0.176-0.018-0.416-0.063-0.592c-0.209-0.895-0.977-1.633-2.033-1.633
		c-1.457,0-2.32,1.281-2.32,2.994c0,1.568,0.769,2.865,2.289,2.865c0.943,0,1.809-0.625,2.064-1.682
		c0.047-0.191,0.063-0.385,0.063-0.607V600.431z"/>
	<path d="M277.682,613.582c0.704-0.145,1.713-0.225,2.674-0.225c1.487,0,2.447,0.271,3.121,0.881
		c0.543,0.48,0.848,1.217,0.848,2.049c0,1.424-0.896,2.369-2.033,2.754v0.047c0.833,0.289,1.329,1.057,1.586,2.178
		c0.352,1.504,0.607,2.545,0.832,2.961h-1.441c-0.176-0.305-0.416-1.23-0.72-2.578c-0.319-1.486-0.896-2.049-2.161-2.096h-1.312
		v4.674h-1.394V613.582L277.682,613.582z M279.074,618.496h1.425c1.489,0,2.433-0.816,2.433-2.049c0-1.393-1.008-2-2.479-2.018
		c-0.673,0-1.152,0.064-1.377,0.129L279.074,618.496L279.074,618.496z"/>
	<path d="M287.089,620.609c0.032,1.904,1.248,2.688,2.657,2.688c1.009,0,1.615-0.176,2.146-0.4l0.238,1.01
		c-0.496,0.225-1.345,0.48-2.576,0.48c-2.386,0-3.81-1.568-3.81-3.906s1.376-4.178,3.633-4.178c2.529,0,3.201,2.225,3.201,3.648
		c0,0.289-0.031,0.514-0.048,0.656h-5.442V620.609z M291.219,619.599c0.018-0.895-0.367-2.289-1.951-2.289
		c-1.427,0-2.05,1.314-2.162,2.289H291.219z"/>
	<path d="M294.129,622.785c0.416,0.271,1.152,0.561,1.855,0.561c1.024,0,1.506-0.512,1.506-1.15c0-0.674-0.4-1.041-1.44-1.426
		c-1.393-0.496-2.049-1.266-2.049-2.191c0-1.25,1.008-2.273,2.673-2.273c0.784,0,1.473,0.225,1.905,0.48l-0.353,1.023
		c-0.305-0.191-0.865-0.447-1.586-0.447c-0.832,0-1.297,0.479-1.297,1.057c0,0.641,0.465,0.928,1.473,1.311
		c1.347,0.514,2.033,1.186,2.033,2.338c0,1.359-1.057,2.32-2.896,2.32c-0.851,0-1.634-0.209-2.179-0.529L294.129,622.785z"/>
	<path d="M307.14,622.113c0,0.801,0.017,1.504,0.064,2.113h-1.249l-0.08-1.266h-0.032c-0.368,0.625-1.185,1.441-2.561,1.441
		c-1.218,0-2.675-0.674-2.675-3.395v-4.531h1.408v4.291c0,1.473,0.449,2.465,1.729,2.465c0.944,0,1.601-0.654,1.856-1.279
		c0.08-0.209,0.129-0.465,0.129-0.723v-4.754h1.407v5.637H307.14z"/>
	<path d="M309.473,612.861h1.409v11.365h-1.409V612.861z"/>
	<path d="M314.946,614.253v2.225h2.017v1.072h-2.017v4.178c0,0.963,0.271,1.508,1.056,1.508c0.369,0,0.641-0.051,0.816-0.098
		l0.063,1.057c-0.271,0.111-0.704,0.191-1.248,0.191c-0.655,0-1.185-0.209-1.521-0.592c-0.399-0.416-0.543-1.104-0.543-2.018v-4.227
		h-1.201v-1.072h1.201v-1.855L314.946,614.253z"/>
	<path d="M321.792,622.529c0.624,0.385,1.537,0.705,2.497,0.705c1.425,0,2.257-0.752,2.257-1.842c0-1.008-0.576-1.584-2.033-2.145
		c-1.76-0.625-2.849-1.537-2.849-3.057c0-1.684,1.393-2.932,3.489-2.932c1.104,0,1.903,0.256,2.385,0.529l-0.384,1.135
		c-0.354-0.189-1.073-0.512-2.049-0.512c-1.474,0-2.032,0.881-2.032,1.617c0,1.008,0.655,1.504,2.145,2.08
		c1.824,0.705,2.753,1.586,2.753,3.17c0,1.664-1.232,3.105-3.777,3.105c-1.04,0-2.177-0.305-2.752-0.689L321.792,622.529z"/>
	<path d="M330.705,620.609c0.032,1.904,1.248,2.688,2.657,2.688c1.009,0,1.615-0.176,2.146-0.4l0.239,1.01
		c-0.496,0.225-1.345,0.48-2.577,0.48c-2.385,0-3.809-1.568-3.809-3.906s1.376-4.178,3.633-4.178c2.529,0,3.201,2.225,3.201,3.648
		c0,0.289-0.031,0.514-0.048,0.656h-5.442V620.609z M334.834,619.599c0.017-0.895-0.368-2.289-1.952-2.289
		c-1.426,0-2.049,1.314-2.162,2.289H334.834z"/>
	<path d="M339.632,614.253v2.225h2.019v1.072h-2.019v4.178c0,0.963,0.272,1.508,1.058,1.508c0.367,0,0.641-0.051,0.815-0.098
		l0.064,1.057c-0.272,0.111-0.705,0.191-1.249,0.191c-0.656,0-1.186-0.209-1.521-0.592c-0.399-0.416-0.544-1.104-0.544-2.018v-4.227
		h-1.2v-1.072h1.2v-1.855L339.632,614.253z"/>
	<path d="M342.896,617.759c0-0.592,0.399-1.008,0.961-1.008c0.56,0,0.928,0.416,0.942,1.008c0,0.562-0.367,0.992-0.96,0.992
		C343.28,618.751,342.896,618.32,342.896,617.759z M342.896,623.41c0-0.592,0.399-1.008,0.961-1.008c0.56,0,0.928,0.416,0.942,1.008
		c0,0.561-0.367,0.992-0.96,0.992C343.28,624.402,342.896,623.97,342.896,623.41z"/>
</g>
<rect x="-93.868" y="250.666" fill="none" width="225.749" height="35.299"/>
<rect x="462.003" y="280.643" width="5.75" height="6"/>
<rect x="472.003" y="280.643" width="5.75" height="6"/>
<rect x="482.003" y="280.643" width="5.75" height="6"/>
<rect x="491.628" y="280.643" width="5.75" height="6"/>
<g>
	<path d="M59.727,47.512c0.971,0.559,2.428,1.044,3.958,1.044c1.919,0,2.987-0.898,2.987-2.234c0-1.239-0.825-1.968-2.915-2.72
		c-2.696-0.971-4.42-2.405-4.42-4.76c0-2.672,2.234-4.711,5.781-4.711c1.772,0,3.084,0.388,3.935,0.825l-0.729,2.405
		c-0.583-0.315-1.724-0.777-3.254-0.777c-1.895,0-2.721,1.02-2.721,1.968c0,1.263,0.947,1.846,3.133,2.696
		c2.842,1.068,4.226,2.501,4.226,4.857c0,2.623-1.992,4.906-6.217,4.906c-1.725,0-3.521-0.486-4.42-1.02L59.727,47.512z"/>
	<path d="M76.142,50.765l-5.294-16.369h3.254l2.234,7.432c0.632,2.064,1.166,3.983,1.603,5.974h0.049
		c0.437-1.942,1.02-3.934,1.675-5.926l2.381-7.48h3.181l-5.659,16.37H76.142z"/>
	<path d="M86.994,34.615c1.312-0.218,2.988-0.34,4.76-0.34c3.061,0,5.174,0.631,6.679,1.895c1.579,1.287,2.55,3.23,2.55,6.023
		c0,2.914-0.996,5.1-2.55,6.508c-1.627,1.482-4.226,2.235-7.408,2.235c-1.748,0-3.06-0.097-4.032-0.218V34.615z M89.982,48.483
		c0.413,0.073,1.044,0.073,1.651,0.073c3.886,0.024,6.193-2.113,6.193-6.267c0.025-3.618-2.063-5.683-5.804-5.683
		c-0.947,0-1.627,0.073-2.041,0.17L89.982,48.483L89.982,48.483z"/>
	<path d="M115.113,37.845v5.489h5.27v1.894h-5.27v5.538h-1.992v-5.538h-5.27v-1.894h5.27v-5.489H115.113z"/>
	<path d="M128.102,34.396h2.963v7.529h0.073c0.389-0.631,0.802-1.214,1.19-1.773l4.274-5.756h3.692l-5.634,6.97l5.999,9.399h-3.498
		l-4.639-7.504l-1.458,1.749v5.756h-2.963V34.396z"/>
	<path d="M142.233,50.765V34.396h3.4l4.226,7.019c1.093,1.821,2.041,3.716,2.793,5.489h0.049c-0.194-2.185-0.267-4.299-0.267-6.801
		v-5.707h2.769v16.369h-3.084l-4.274-7.189c-1.045-1.797-2.138-3.812-2.939-5.659l-0.073,0.024c0.122,2.113,0.146,4.274,0.146,6.971
		v5.853H142.233z"/>
	<path d="M158.647,50.765V34.396h3.4l4.226,7.019c1.094,1.821,2.041,3.716,2.793,5.489h0.049c-0.194-2.185-0.267-4.299-0.267-6.801
		v-5.707h2.769v16.369h-3.084l-4.274-7.189c-1.045-1.797-2.138-3.812-2.939-5.659l-0.073,0.024c0.121,2.113,0.146,4.274,0.146,6.971
		v5.853H158.647z"/>
	<path d="M180.086,34.615c1.117-0.194,2.793-0.34,4.517-0.34c2.356,0,3.96,0.389,5.053,1.311c0.898,0.753,1.408,1.895,1.408,3.279
		c0,2.112-1.433,3.546-2.963,4.104v0.073c1.166,0.437,1.87,1.578,2.284,3.157c0.51,2.041,0.947,3.935,1.287,4.566h-3.084
		c-0.243-0.486-0.631-1.821-1.092-3.861c-0.462-2.137-1.238-2.818-2.939-2.866h-1.506v6.728h-2.963V34.615L180.086,34.615z
		 M183.05,41.852h1.773c2.016,0,3.279-1.068,3.279-2.696c0-1.797-1.263-2.624-3.206-2.624c-0.947,0-1.554,0.073-1.846,0.146V41.852z
		"/>
	<path d="M195.967,45.689c0.073,2.138,1.748,3.061,3.643,3.061c1.384,0,2.381-0.194,3.279-0.534l0.437,2.064
		c-1.02,0.413-2.428,0.729-4.128,0.729c-3.837,0-6.096-2.355-6.096-5.975c0-3.279,1.992-6.363,5.781-6.363
		c3.837,0,5.1,3.157,5.1,5.756c0,0.558-0.048,0.995-0.097,1.262H195.967z M201.165,43.601c0.024-1.093-0.461-2.89-2.453-2.89
		c-1.846,0-2.624,1.675-2.745,2.89H201.165z"/>
	<path d="M215.078,50.401c-0.631,0.292-1.87,0.607-3.352,0.607c-3.692,0-6.097-2.355-6.097-6.023c0-3.546,2.429-6.315,6.583-6.315
		c1.093,0,2.21,0.243,2.89,0.559l-0.534,2.234c-0.486-0.219-1.19-0.462-2.259-0.462c-2.283,0-3.643,1.676-3.619,3.837
		c0,2.428,1.579,3.813,3.619,3.813c1.044,0,1.773-0.219,2.355-0.461L215.078,50.401z"/>
	<path d="M228.312,44.743c0,4.347-3.061,6.291-6.072,6.291c-3.352,0-5.926-2.307-5.926-6.096c0-3.887,2.55-6.266,6.121-6.266
		C225.956,38.671,228.312,41.148,228.312,44.743z M219.398,44.864c0,2.283,1.117,4.007,2.939,4.007c1.7,0,2.89-1.676,2.89-4.056
		c0-1.845-0.825-3.958-2.866-3.958C220.248,40.856,219.398,42.896,219.398,44.864z"/>
	<path d="M230.761,42.459c0-1.361-0.024-2.502-0.097-3.522h2.574l0.122,1.749h0.073c0.583-0.922,1.651-2.015,3.643-2.015
		c1.554,0,2.769,0.874,3.279,2.185h0.049c0.413-0.655,0.898-1.141,1.457-1.482c0.655-0.461,1.409-0.704,2.38-0.704
		c1.968,0,3.959,1.335,3.959,5.125v6.97h-2.914v-6.533c0-1.967-0.68-3.133-2.113-3.133c-1.02,0-1.772,0.729-2.089,1.579
		c-0.073,0.292-0.146,0.656-0.146,0.996v7.091h-2.915v-6.849c0-1.651-0.656-2.817-2.041-2.817c-1.117,0-1.87,0.874-2.138,1.701
		c-0.122,0.291-0.17,0.631-0.17,0.971v6.995h-2.915L230.761,42.459L230.761,42.459z"/>
	<path d="M251.352,42.459c0-1.361-0.023-2.502-0.098-3.522h2.576l0.121,1.749h0.073c0.582-0.922,1.65-2.015,3.642-2.015
		c1.555,0,2.771,0.874,3.279,2.185h0.049c0.414-0.655,0.899-1.141,1.457-1.482c0.656-0.461,1.41-0.704,2.381-0.704
		c1.967,0,3.959,1.335,3.959,5.125v6.97h-2.914v-6.533c0-1.967-0.68-3.133-2.113-3.133c-1.02,0-1.772,0.729-2.088,1.579
		c-0.074,0.292-0.146,0.656-0.146,0.996v7.091h-2.914v-6.849c0-1.651-0.655-2.817-2.041-2.817c-1.116,0-1.869,0.874-2.138,1.701
		c-0.121,0.291-0.17,0.631-0.17,0.971v6.995h-2.914v-8.305H251.352z"/>
	<path d="M274.055,45.689c0.072,2.138,1.748,3.061,3.645,3.061c1.383,0,2.379-0.194,3.278-0.534l0.436,2.064
		c-1.021,0.413-2.427,0.729-4.13,0.729c-3.836,0-6.095-2.355-6.095-5.975c0-3.279,1.991-6.363,5.779-6.363
		c3.838,0,5.102,3.157,5.102,5.756c0,0.558-0.05,0.995-0.097,1.262H274.055z M279.252,43.601c0.023-1.093-0.461-2.89-2.454-2.89
		c-1.845,0-2.623,1.675-2.743,2.89H279.252z"/>
	<path d="M284.471,42.459c0-1.361-0.023-2.502-0.097-3.522h2.623l0.146,1.774h0.074c0.51-0.924,1.797-2.041,3.764-2.041
		c2.064,0,4.202,1.335,4.202,5.076v7.019h-2.987v-6.679c0-1.699-0.632-2.987-2.258-2.987c-1.191,0-2.017,0.851-2.332,1.749
		c-0.097,0.268-0.122,0.631-0.122,0.971v6.946h-3.013V42.459L284.471,42.459z"/>
	<path d="M309.265,33.522v13.917c0,1.215,0.05,2.526,0.097,3.327h-2.67l-0.123-1.87h-0.047c-0.706,1.311-2.139,2.137-3.862,2.137
		c-2.818,0-5.052-2.405-5.052-6.048c-0.024-3.958,2.453-6.314,5.295-6.314c1.627,0,2.793,0.68,3.326,1.554h0.05v-6.703
		L309.265,33.522L309.265,33.522z M306.277,43.869c0-0.243-0.024-0.534-0.071-0.777c-0.269-1.166-1.216-2.113-2.576-2.113
		c-1.918,0-2.987,1.701-2.987,3.91c0,2.162,1.069,3.74,2.963,3.74c1.215,0,2.284-0.826,2.576-2.112
		c0.071-0.268,0.096-0.559,0.096-0.875V43.869z"/>
	<path d="M319.121,50.765l-0.194-1.311h-0.071c-0.729,0.923-1.968,1.579-3.498,1.579c-2.38,0-3.717-1.724-3.717-3.522
		c0-2.988,2.647-4.494,7.02-4.468v-0.195c0-0.777-0.315-2.064-2.403-2.064c-1.167,0-2.382,0.364-3.183,0.874l-0.582-1.943
		c0.873-0.534,2.403-1.044,4.273-1.044c3.789,0,4.882,2.405,4.882,4.978v4.274c0,1.068,0.05,2.113,0.17,2.842L319.121,50.765
		L319.121,50.765z M318.734,44.985c-2.113-0.048-4.131,0.413-4.131,2.21c0,1.166,0.753,1.701,1.699,1.701
		c1.191,0,2.065-0.777,2.332-1.627c0.074-0.219,0.099-0.462,0.099-0.656L318.734,44.985L318.734,44.985z"/>
	<path d="M328.082,35.562v3.375h2.84v2.235h-2.84v5.222c0,1.433,0.387,2.185,1.528,2.185c0.51,0,0.898-0.073,1.166-0.146
		l0.049,2.284c-0.437,0.17-1.214,0.291-2.161,0.291c-1.093,0-2.016-0.364-2.573-0.971c-0.632-0.68-0.925-1.748-0.925-3.303v-5.562
		h-1.699v-2.234h1.699v-2.672L328.082,35.562z"/>
	<path d="M336.36,35.635c0,0.898-0.655,1.604-1.7,1.604c-0.996,0-1.652-0.705-1.652-1.604c0-0.923,0.68-1.627,1.677-1.627
		C335.705,34.008,336.336,34.712,336.36,35.635z M333.179,50.765V38.938h3.013v11.828H333.179z"/>
	<path d="M350.639,44.743c0,4.347-3.06,6.291-6.072,6.291c-3.351,0-5.925-2.307-5.925-6.096c0-3.887,2.551-6.266,6.12-6.266
		C348.284,38.671,350.639,41.148,350.639,44.743z M341.727,44.864c0,2.283,1.117,4.007,2.938,4.007c1.699,0,2.89-1.676,2.89-4.056
		c0-1.845-0.825-3.958-2.865-3.958C342.576,40.856,341.727,42.896,341.727,44.864z"/>
	<path d="M353.089,42.459c0-1.361-0.024-2.502-0.097-3.522h2.623l0.146,1.774h0.072c0.511-0.924,1.797-2.041,3.765-2.041
		c2.065,0,4.202,1.335,4.202,5.076v7.019h-2.986v-6.679c0-1.699-0.631-2.987-2.259-2.987c-1.19,0-2.016,0.851-2.332,1.749
		c-0.097,0.268-0.121,0.631-0.121,0.971v6.946h-3.012L353.089,42.459L353.089,42.459z"/>
	<path d="M372.125,34.615c1.068-0.194,2.55-0.34,4.565-0.34c2.186,0,3.789,0.461,4.833,1.336c0.971,0.801,1.602,2.088,1.602,3.619
		c0,1.554-0.484,2.842-1.408,3.716c-1.19,1.19-3.06,1.748-5.172,1.748c-0.56,0-1.07-0.024-1.457-0.097v6.169h-2.964L372.125,34.615
		L372.125,34.615z M375.088,42.241c0.364,0.097,0.849,0.121,1.457,0.121c2.234,0,3.595-1.092,3.595-3.011
		c0-1.821-1.264-2.793-3.329-2.793c-0.824,0-1.407,0.073-1.723,0.146V42.241L375.088,42.241z"/>
	<path d="M385.284,42.751c0-1.604-0.021-2.745-0.096-3.813h2.599l0.099,2.259h0.097c0.581-1.675,1.967-2.526,3.229-2.526
		c0.292,0,0.461,0.024,0.705,0.073v2.817c-0.243-0.048-0.51-0.097-0.875-0.097c-1.433,0-2.404,0.923-2.67,2.259
		c-0.05,0.267-0.098,0.583-0.098,0.924v6.12h-2.988L385.284,42.751L385.284,42.751z"/>
	<path d="M404.956,44.743c0,4.347-3.062,6.291-6.072,6.291c-3.353,0-5.927-2.307-5.927-6.096c0-3.887,2.55-6.266,6.122-6.266
		C402.6,38.671,404.956,41.148,404.956,44.743z M396.043,44.864c0,2.283,1.116,4.007,2.938,4.007c1.7,0,2.891-1.676,2.891-4.056
		c0-1.845-0.825-3.958-2.866-3.958C396.892,40.856,396.043,42.896,396.043,44.864z"/>
	<path d="M416.1,50.401c-0.631,0.292-1.869,0.607-3.351,0.607c-3.692,0-6.097-2.355-6.097-6.023c0-3.546,2.428-6.315,6.582-6.315
		c1.093,0,2.21,0.243,2.889,0.559l-0.534,2.234C415.104,41.244,414.399,41,413.33,41c-2.282,0-3.644,1.676-3.618,3.837
		c0,2.428,1.58,3.813,3.618,3.813c1.045,0,1.773-0.219,2.356-0.461L416.1,50.401z"/>
	<path d="M420.202,45.689c0.071,2.138,1.748,3.061,3.643,3.061c1.384,0,2.381-0.194,3.278-0.534l0.438,2.064
		c-1.021,0.413-2.429,0.729-4.129,0.729c-3.838,0-6.097-2.355-6.097-5.975c0-3.279,1.992-6.363,5.781-6.363
		c3.836,0,5.101,3.157,5.101,5.756c0,0.558-0.049,0.995-0.099,1.262H420.202z M425.399,43.601c0.024-1.093-0.462-2.89-2.453-2.89
		c-1.847,0-2.623,1.675-2.744,2.89H425.399z"/>
	<path d="M430.473,48.021c0.68,0.413,1.967,0.85,3.035,0.85c1.311,0,1.896-0.535,1.896-1.312c0-0.801-0.486-1.214-1.943-1.724
		c-2.307-0.802-3.278-2.065-3.256-3.449c0-2.089,1.726-3.716,4.47-3.716c1.312,0,2.453,0.34,3.133,0.704l-0.582,2.113
		c-0.509-0.291-1.458-0.68-2.502-0.68c-1.068,0-1.651,0.51-1.651,1.238c0,0.753,0.56,1.117,2.063,1.652
		c2.139,0.777,3.134,1.87,3.158,3.619c0,2.137-1.677,3.691-4.81,3.691c-1.433,0-2.72-0.34-3.595-0.826L430.473,48.021z"/>
	<path d="M440.597,48.021c0.68,0.413,1.968,0.85,3.037,0.85c1.312,0,1.894-0.535,1.894-1.312c0-0.801-0.485-1.214-1.942-1.724
		c-2.308-0.802-3.278-2.065-3.255-3.449c0-2.089,1.725-3.716,4.47-3.716c1.312,0,2.454,0.34,3.133,0.704l-0.583,2.113
		c-0.51-0.291-1.457-0.68-2.502-0.68c-1.067,0-1.652,0.51-1.652,1.238c0,0.753,0.56,1.117,2.066,1.652
		c2.138,0.777,3.133,1.87,3.157,3.619c0,2.137-1.677,3.691-4.81,3.691c-1.433,0-2.72-0.34-3.595-0.826L440.597,48.021z"/>
	<path d="M123.975,63.533v9.545c0,3.206,1.336,4.687,3.352,4.687c2.162,0,3.449-1.482,3.449-4.687v-9.545h2.988v9.351
		c0,5.051-2.599,7.286-6.534,7.286c-3.789,0-6.242-2.112-6.242-7.262v-9.375H123.975z"/>
	<path d="M136.672,77.158c0.68,0.413,1.968,0.85,3.036,0.85c1.312,0,1.895-0.535,1.895-1.312c0-0.801-0.485-1.214-1.943-1.724
		c-2.307-0.802-3.279-2.065-3.255-3.449c0-2.089,1.725-3.716,4.469-3.716c1.311,0,2.453,0.34,3.133,0.705l-0.583,2.113
		c-0.51-0.292-1.457-0.68-2.502-0.68c-1.068,0-1.651,0.51-1.651,1.238c0,0.753,0.559,1.117,2.064,1.652
		c2.137,0.777,3.133,1.87,3.157,3.619c0,2.138-1.675,3.691-4.809,3.691c-1.433,0-2.72-0.34-3.594-0.826L136.672,77.158z"/>
	<path d="M150.125,64.772c0,0.899-0.656,1.604-1.7,1.604c-0.996,0-1.652-0.704-1.652-1.604c0-0.923,0.68-1.626,1.675-1.626
		C149.47,63.146,150.101,63.849,150.125,64.772z M146.943,79.903V68.076h3.012v11.827H146.943z"/>
	<path d="M153.159,71.597c0-1.36-0.024-2.501-0.097-3.521h2.623l0.146,1.773h0.073c0.51-0.923,1.797-2.041,3.764-2.041
		c2.064,0,4.202,1.336,4.202,5.076v7.019h-2.988v-6.679c0-1.7-0.631-2.988-2.259-2.988c-1.189,0-2.015,0.851-2.332,1.75
		c-0.097,0.267-0.121,0.631-0.121,0.971v6.946h-3.012L153.159,71.597L153.159,71.597z"/>
	<path d="M177.856,68.076c-0.049,0.802-0.097,1.773-0.097,3.4v6.704c0,2.478-0.51,4.25-1.749,5.368
		c-1.239,1.092-2.939,1.433-4.566,1.433c-1.506,0-3.109-0.316-4.129-0.947l0.656-2.259c0.752,0.437,2.016,0.898,3.449,0.898
		c1.942,0,3.4-1.02,3.4-3.57v-1.02h-0.048c-0.68,1.044-1.895,1.748-3.449,1.748c-2.939,0-5.027-2.429-5.027-5.78
		c0-3.886,2.526-6.242,5.368-6.242c1.796,0,2.866,0.874,3.425,1.847h0.048l0.122-1.58h2.598V68.076z M174.771,72.811
		c0-0.267-0.024-0.559-0.097-0.801c-0.315-1.092-1.166-1.919-2.428-1.919c-1.676,0-2.915,1.457-2.915,3.862
		c0,2.016,1.02,3.643,2.89,3.643c1.117,0,2.089-0.728,2.429-1.797c0.073-0.315,0.121-0.728,0.121-1.068L174.771,72.811
		L174.771,72.811z"/>
	<path d="M195.265,72.641h-6.168v4.809h6.897v2.453h-9.885v-16.37h9.521v2.454h-6.533v4.226h6.168V72.641L195.265,72.641z"/>
	<path d="M200.483,68.076l1.409,2.234c0.389,0.631,0.729,1.214,1.068,1.821h0.073c0.34-0.656,0.68-1.263,1.02-1.87l1.312-2.186
		h3.254l-3.958,5.683l4.031,6.145h-3.375l-1.457-2.355c-0.389-0.631-0.729-1.264-1.068-1.919h-0.049
		c-0.34,0.68-0.68,1.263-1.068,1.919l-1.36,2.355h-3.303l4.104-6.024l-3.959-5.804H200.483z"/>
	<path d="M210.487,72.01c0-1.554-0.049-2.817-0.097-3.934h2.624l0.146,1.822h0.048c0.874-1.336,2.259-2.089,4.056-2.089
		c2.721,0,4.979,2.332,4.979,6.022c0,4.275-2.696,6.339-5.392,6.339c-1.482,0-2.72-0.631-3.327-1.578h-0.049v6.12h-2.987V72.01z
		 M213.474,74.949c0,0.291,0.024,0.559,0.097,0.826c0.292,1.214,1.361,2.089,2.623,2.089c1.895,0,3.012-1.579,3.012-3.91
		c0-2.088-1.02-3.789-2.939-3.789c-1.238,0-2.379,0.899-2.671,2.21c-0.073,0.243-0.121,0.51-0.121,0.753L213.474,74.949
		L213.474,74.949z"/>
	<path d="M231.346,79.903l-0.194-1.311h-0.073c-0.729,0.922-1.967,1.578-3.498,1.578c-2.38,0-3.716-1.724-3.716-3.521
		c0-2.987,2.648-4.494,7.019-4.469v-0.194c0-0.777-0.316-2.065-2.405-2.065c-1.165,0-2.38,0.364-3.182,0.874l-0.583-1.943
		c0.874-0.535,2.404-1.044,4.274-1.044c3.789,0,4.881,2.405,4.881,4.979v4.274c0,1.068,0.049,2.113,0.17,2.842L231.346,79.903
		L231.346,79.903z M230.958,74.122c-2.114-0.048-4.129,0.413-4.129,2.21c0,1.167,0.752,1.701,1.7,1.701
		c1.189,0,2.065-0.777,2.332-1.628c0.073-0.218,0.098-0.461,0.098-0.656V74.122z"/>
	<path d="M237.026,71.597c0-1.36-0.024-2.501-0.097-3.521h2.623l0.146,1.773h0.073c0.51-0.923,1.797-2.041,3.765-2.041
		c2.063,0,4.201,1.336,4.201,5.076v7.019h-2.987v-6.679c0-1.7-0.631-2.988-2.259-2.988c-1.19,0-2.017,0.851-2.332,1.75
		c-0.097,0.267-0.122,0.631-0.122,0.971v6.946h-3.012L237.026,71.597L237.026,71.597z"/>
	<path d="M261.82,62.659v13.917c0,1.215,0.049,2.526,0.097,3.327h-2.671l-0.122-1.87h-0.05c-0.703,1.312-2.138,2.137-3.86,2.137
		c-2.817,0-5.052-2.405-5.052-6.048c-0.023-3.958,2.452-6.315,5.294-6.315c1.626,0,2.793,0.68,3.329,1.554h0.048v-6.703
		L261.82,62.659L261.82,62.659z M258.833,73.005c0-0.243-0.024-0.534-0.073-0.777c-0.266-1.167-1.214-2.113-2.574-2.113
		c-1.918,0-2.987,1.7-2.987,3.91c0,2.162,1.069,3.74,2.964,3.74c1.214,0,2.282-0.825,2.573-2.112
		c0.073-0.267,0.098-0.559,0.098-0.874V73.005z"/>
	<path d="M268.204,64.772c0,0.899-0.655,1.604-1.7,1.604c-0.996,0-1.652-0.704-1.652-1.604c0-0.923,0.68-1.626,1.676-1.626
		C267.549,63.146,268.18,63.849,268.204,64.772z M265.021,79.903V68.076h3.013v11.827H265.021z"/>
	<path d="M271.238,71.597c0-1.36-0.025-2.501-0.098-3.521h2.623l0.146,1.773h0.073c0.509-0.923,1.797-2.041,3.765-2.041
		c2.063,0,4.201,1.336,4.201,5.076v7.019h-2.987v-6.679c0-1.7-0.632-2.988-2.259-2.988c-1.189,0-2.016,0.851-2.332,1.75
		c-0.096,0.267-0.121,0.631-0.121,0.971v6.946h-3.011L271.238,71.597L271.238,71.597z"/>
	<path d="M295.934,68.076c-0.048,0.802-0.097,1.773-0.097,3.4v6.704c0,2.478-0.51,4.25-1.748,5.368
		c-1.239,1.092-2.938,1.433-4.565,1.433c-1.506,0-3.108-0.316-4.13-0.947l0.656-2.259c0.751,0.437,2.014,0.898,3.448,0.898
		c1.942,0,3.4-1.02,3.4-3.57v-1.02h-0.049c-0.681,1.044-1.895,1.748-3.449,1.748c-2.939,0-5.027-2.429-5.027-5.78
		c0-3.886,2.527-6.242,5.366-6.242c1.798,0,2.868,0.874,3.426,1.847h0.049l0.122-1.58h2.598V68.076z M292.85,72.811
		c0-0.267-0.024-0.559-0.096-0.801c-0.316-1.092-1.166-1.919-2.429-1.919c-1.677,0-2.915,1.457-2.915,3.862
		c0,2.016,1.021,3.643,2.892,3.643c1.116,0,2.088-0.728,2.428-1.797c0.073-0.315,0.121-0.728,0.121-1.068L292.85,72.811
		L292.85,72.811z"/>
	<path d="M305.962,79.903l-4.008-16.37h3.183l1.553,7.432c0.413,1.991,0.802,4.08,1.069,5.707h0.048
		c0.268-1.725,0.729-3.667,1.19-5.731l1.772-7.408h3.133l1.627,7.529c0.414,1.943,0.752,3.765,0.995,5.538h0.05
		c0.291-1.796,0.68-3.667,1.117-5.659l1.699-7.408h3.037l-4.396,16.37h-3.206l-1.699-7.699c-0.414-1.87-0.705-3.424-0.899-5.198
		h-0.048c-0.294,1.749-0.609,3.327-1.094,5.198l-1.895,7.699L305.962,79.903L305.962,79.903z"/>
	<path d="M326.94,64.772c0,0.899-0.656,1.604-1.701,1.604c-0.995,0-1.651-0.704-1.651-1.604c0-0.923,0.68-1.626,1.676-1.626
		C326.283,63.146,326.915,63.849,326.94,64.772z M323.758,79.903V68.076h3.012v11.827H323.758z"/>
	<path d="M329.974,71.597c0-1.36-0.022-2.501-0.097-3.521h2.623l0.146,1.773h0.073c0.51-0.923,1.797-2.041,3.765-2.041
		c2.064,0,4.201,1.336,4.201,5.076v7.019h-2.987v-6.679c0-1.7-0.632-2.988-2.258-2.988c-1.19,0-2.017,0.851-2.332,1.75
		c-0.097,0.267-0.122,0.631-0.122,0.971v6.946h-3.012L329.974,71.597L329.974,71.597z"/>
	<path d="M354.769,62.659v13.917c0,1.215,0.049,2.526,0.096,3.327h-2.67l-0.122-1.87h-0.048c-0.705,1.312-2.138,2.137-3.862,2.137
		c-2.817,0-5.052-2.405-5.052-6.048c-0.023-3.958,2.454-6.315,5.295-6.315c1.627,0,2.793,0.68,3.327,1.554h0.049v-6.703
		L354.769,62.659L354.769,62.659z M351.78,73.005c0-0.243-0.024-0.534-0.072-0.777c-0.269-1.167-1.215-2.113-2.576-2.113
		c-1.918,0-2.986,1.7-2.986,3.91c0,2.162,1.068,3.74,2.962,3.74c1.216,0,2.284-0.825,2.576-2.112
		c0.072-0.267,0.097-0.559,0.097-0.874V73.005z"/>
	<path d="M369.215,73.879c0,4.347-3.06,6.291-6.072,6.291c-3.351,0-5.925-2.307-5.925-6.096c0-3.886,2.55-6.266,6.12-6.266
		C366.859,67.808,369.215,70.285,369.215,73.879z M360.302,74c0,2.284,1.117,4.008,2.939,4.008c1.698,0,2.889-1.676,2.889-4.056
		c0-1.846-0.825-3.959-2.865-3.959C361.152,69.993,360.302,72.034,360.302,74z"/>
	<path d="M373.268,68.076l1.238,5.367c0.267,1.263,0.536,2.55,0.752,3.837h0.05c0.243-1.287,0.632-2.599,0.971-3.812l1.531-5.392
		h2.429l1.481,5.246c0.365,1.384,0.68,2.672,0.946,3.959h0.05c0.194-1.287,0.462-2.575,0.777-3.959l1.312-5.246h2.938l-3.716,11.828
		h-2.77l-1.409-4.809c-0.365-1.238-0.632-2.356-0.897-3.789h-0.05c-0.241,1.458-0.56,2.623-0.897,3.789l-1.506,4.809h-2.794
		l-3.498-11.828L373.268,68.076L373.268,68.076z"/>
</g>
<ellipse fill="none" stroke="#8CC63F" stroke-miterlimit="10" cx="144.166" cy="470.234" rx="57" ry="50.5"/>
<ellipse fill="none" stroke="#FF8CB7" stroke-miterlimit="10" cx="392.166" cy="461.984" rx="91" ry="68.25"/>
</svg>
