<?xml version="1.0" encoding="utf-8"?>
<!-- Generator: Adobe Illustrator 16.0.0, SVG Export Plug-In . SVG Version: 6.00 Build 0)  -->
<!DOCTYPE svg PUBLIC "-//W3C//DTD SVG 1.1//EN" "http://www.w3.org/Graphics/SVG/1.1/DTD/svg11.dtd">
<svg version="1.1" id="Layer_1" xmlns="http://www.w3.org/2000/svg" xmlns:xlink="http://www.w3.org/1999/xlink" x="0px" y="0px"
	 width="497.332px" height="640.468px" viewBox="0 0 497.332 640.468" enable-background="new 0 0 497.332 640.468"
	 xml:space="preserve">
<path fill="none" stroke="#3A3B3B" stroke-width="0.5" stroke-miterlimit="10" d="M54.54,239.24"/>
<g>
	<g>
		<polygon fill="#D4145A" points="62.391,285.304 61.222,284.785 61.157,234.427 62.585,235.465 		"/>
		<g>
			<polygon fill="#D4145A" points="104.939,289.079 63.795,285.25 63.984,235.606 104.625,239.24 			"/>
			<polygon fill="#D4145A" points="95.438,228.424 62.499,234.201 63,234.685 95.43,229.761 			"/>
			<path fill="none" stroke="#D4145A" stroke-miterlimit="10" d="M95.294,229.701c1.88,3.207,6.549-0.103,8.14,10.056"/>
		</g>
	</g>
	<path fill="#D4145A" d="M104.615,239.24"/>
	<path fill="#D4145A" d="M95.422,229.592"/>
</g>
<g>
	<g>
		<polygon fill="#D4145A" points="112.465,285.304 111.297,284.785 111.232,234.427 112.66,235.465 		"/>
		<g>
			<polygon fill="#D4145A" points="155.015,289.079 113.87,285.25 114.059,235.606 154.699,239.24 			"/>
			<polygon fill="#D4145A" points="145.513,228.424 112.575,234.201 113.076,234.685 145.505,229.761 			"/>
			<path fill="none" stroke="#D4145A" stroke-miterlimit="10" d="M145.369,229.701c1.88,3.207,6.549-0.103,8.14,10.056"/>
		</g>
	</g>
	<path fill="#D4145A" d="M154.69,239.24"/>
	<path fill="#D4145A" d="M145.497,229.592"/>
</g>
<g>
	<polygon fill="#D4145A" points="162.541,285.304 161.373,284.785 161.308,234.427 162.735,235.465 	"/>
	<g>
		<polygon fill="#D4145A" points="205.089,289.079 163.945,285.25 164.134,235.606 204.774,239.24 		"/>
		<polygon fill="#D4145A" points="195.588,228.424 162.649,234.201 163.15,234.685 195.58,229.761 		"/>
		<path fill="none" stroke="#D4145A" stroke-miterlimit="10" d="M195.444,229.701c1.881,3.207,6.55-0.103,8.14,10.056"/>
	</g>
</g>
<path fill="none" stroke="#3A3B3B" stroke-width="0.5" stroke-miterlimit="10" d="M204.765,239.24"/>
<path fill="none" d="M195.572,229.592"/>
<path fill="none" stroke="#3A3B3B" stroke-width="0.5" stroke-miterlimit="10" d="M254.84,239.24"/>
<g>
	<g>
		<polygon fill="#D4145A" points="212.616,285.304 211.448,284.785 211.383,234.427 212.811,235.465 		"/>
		<g>
			<polygon fill="#D4145A" points="255.165,289.079 214.02,285.25 214.209,235.606 254.85,239.24 			"/>
			<polygon fill="#D4145A" points="245.663,228.424 212.725,234.201 213.226,234.685 245.655,229.761 			"/>
			<path fill="none" stroke="#D4145A" stroke-miterlimit="10" d="M245.519,229.701c1.881,3.207,6.55-0.103,8.14,10.056"/>
		</g>
	</g>
	<path fill="#D4145A" d="M245.647,229.592"/>
</g>
<path fill="none" stroke="#3A3B3B" stroke-width="0.5" stroke-miterlimit="10" d="M40.799,490.256"/>
<g>
	<g>
		<polygon fill="#D4145A" points="65.345,446.104 64.693,445.814 64.657,417.721 65.453,418.299 		"/>
		<polygon fill="#D4145A" points="89.082,448.209 66.128,446.074 66.234,418.377 88.907,420.404 		"/>
		<polygon fill="#D4145A" points="83.781,414.371 65.405,417.594 65.685,417.863 83.777,415.117 		"/>
	</g>
	<path fill="none" stroke="#ED1E79" stroke-width="0.5" stroke-miterlimit="10" d="M83.701,415.082
		c1.049,1.789,3.654-0.057,4.542,5.611"/>
	<path fill="none" d="M83.772,415.023"/>
</g>
<g>
	<g>
		<polygon fill="#D4145A" points="11.638,284.076 10.481,283.561 10.417,233.743 11.83,234.768 		"/>
		<polygon fill="#D4145A" points="53.73,287.809 13.027,284.022 13.214,234.908 53.419,238.503 		"/>
		<polygon fill="#D4145A" points="44.331,227.803 11.745,233.518 12.241,233.996 44.324,229.126 		"/>
	</g>
	<path fill="none" stroke="#ED1E79" stroke-width="0.5" stroke-miterlimit="10" d="M44.188,229.066
		c1.861,3.172,6.479-0.101,8.053,9.948"/>
	<path fill="none" d="M44.315,228.96"/>
</g>
<g>
	<g>
		<polygon fill="#D4145A" points="70.993,525.201 70.341,524.912 70.305,496.818 71.102,497.398 		"/>
		<g>
			<polygon fill="#D4145A" points="94.73,527.309 71.776,525.172 71.882,497.477 94.555,499.504 			"/>
			<polygon fill="#D4145A" points="89.43,493.469 71.053,496.691 71.333,496.961 89.425,494.215 			"/>
			<path fill="none" stroke="#D4145A" stroke-miterlimit="10" d="M89.349,494.182c1.049,1.789,3.654-0.057,4.542,5.609"/>
		</g>
	</g>
	<path fill="#D4145A" d="M94.549,499.504"/>
	<path fill="#D4145A" d="M89.421,494.121"/>
</g>
<g>
	<g>
		<polygon fill="#D4145A" points="152.332,506.514 151.68,506.225 151.645,478.131 152.441,478.709 		"/>
		<g>
			<polygon fill="#D4145A" points="176.07,508.621 153.116,506.484 153.221,478.789 175.894,480.816 			"/>
			<polygon fill="#D4145A" points="170.769,474.781 152.393,478.004 152.672,478.273 170.765,475.527 			"/>
			<path fill="none" stroke="#D4145A" stroke-miterlimit="10" d="M170.688,475.494c1.049,1.789,3.654-0.057,4.542,5.609"/>
		</g>
	</g>
	<path fill="#D4145A" d="M175.889,480.816"/>
	<path fill="#D4145A" d="M170.76,475.434"/>
</g>
<g>
	<polygon fill="#D4145A" points="90.38,483.939 89.729,483.65 89.692,455.557 90.488,456.135 	"/>
	<g>
		<polygon fill="#D4145A" points="114.117,486.045 91.163,483.91 91.269,456.213 113.942,458.24 		"/>
		<polygon fill="#D4145A" points="108.817,452.207 90.44,455.43 90.72,455.699 108.812,452.953 		"/>
		<path fill="none" stroke="#D4145A" stroke-miterlimit="10" d="M108.736,452.918c1.049,1.789,3.654-0.057,4.541,5.611"/>
	</g>
</g>
<path fill="none" stroke="#3A3B3B" stroke-width="0.5" stroke-miterlimit="10" d="M124.608,490.256"/>
<path fill="none" d="M119.479,484.873"/>
<g>
	<g>
		<polygon fill="#D4145A" points="159.581,463.352 158.929,463.062 158.893,434.969 159.689,435.547 		"/>
		<g>
			<polygon fill="#D4145A" points="183.318,465.459 160.364,463.32 160.47,435.625 183.143,437.654 			"/>
			<polygon fill="#D4145A" points="178.018,431.619 159.642,434.842 159.921,435.111 178.013,432.363 			"/>
			<path fill="none" stroke="#D4145A" stroke-miterlimit="10" d="M177.938,432.33c1.049,1.789,3.654-0.057,4.541,5.611"/>
		</g>
	</g>
	<path fill="#D4145A" d="M178.009,432.271"/>
</g>
<g>
	<g>
		<polygon fill="#D4145A" points="185.745,622.699 185.092,622.408 185.057,594.316 185.854,594.895 		"/>
		<g>
			<polygon fill="#D4145A" points="209.483,624.805 186.528,622.668 186.633,594.973 209.307,597 			"/>
			<polygon fill="#D4145A" points="204.182,590.967 185.805,594.189 186.084,594.459 204.178,591.711 			"/>
			<path fill="#D4145A" d="M204.102,591.678c1.049,1.789,3.654-0.057,4.541,5.609"/>
		</g>
	</g>
	<path fill="#D4145A" d="M209.301,597"/>
	<path fill="#D4145A" d="M204.172,591.617"/>
</g>
<g>
	<polygon fill="#D4145A" points="114.792,623.125 114.141,622.834 114.104,594.74 114.901,595.32 	"/>
	<g>
		<polygon fill="#D4145A" points="138.53,625.23 115.576,623.094 115.681,595.398 138.354,597.426 		"/>
		<polygon fill="#D4145A" points="133.229,591.391 114.853,594.613 115.132,594.883 133.225,592.137 		"/>
		<path fill="#D4145A" d="M133.149,592.104c1.049,1.789,3.654-0.057,4.541,5.609"/>
	</g>
</g>
<g>
	<g>
		<polygon fill="#D4145A" points="149.993,622.535 149.342,622.246 149.306,594.152 150.102,594.73 		"/>
		<g>
			<polygon fill="#D4145A" points="173.73,624.643 150.777,622.506 150.883,594.811 173.556,596.838 			"/>
			<polygon fill="#D4145A" points="168.43,590.803 150.055,594.025 150.334,594.295 168.426,591.549 			"/>
			<path fill="#D4145A" d="M168.35,591.516c1.05,1.789,3.654-0.057,4.541,5.609"/>
		</g>
	</g>
	<path fill="#D4145A" d="M168.422,591.455"/>
</g>
<g>
	<polygon fill="#29ABE2" points="262.69,285.304 261.522,284.785 261.458,234.427 262.885,235.465 	"/>
	<g>
		<polygon fill="#29ABE2" points="305.239,289.079 264.095,285.25 264.284,235.606 304.924,239.24 		"/>
		<polygon fill="#29ABE2" points="295.739,228.424 262.799,234.201 263.301,234.685 295.731,229.761 		"/>
		<path fill="none" stroke="#29ABE2" stroke-miterlimit="10" d="M295.594,229.701c1.881,3.207,6.549-0.103,8.141,10.056"/>
	</g>
</g>
<g>
	<polygon fill="#29ABE2" points="312.766,285.304 311.598,284.785 311.532,234.427 312.961,235.465 	"/>
	<g>
		<polygon fill="#29ABE2" points="355.315,289.079 314.17,285.25 314.36,235.606 355,239.24 		"/>
		<polygon fill="#29ABE2" points="345.813,228.424 312.875,234.201 313.375,234.685 345.805,229.761 		"/>
		<path fill="none" stroke="#29ABE2" stroke-miterlimit="10" d="M345.668,229.701c1.881,3.207,6.551-0.103,8.141,10.056"/>
	</g>
</g>
<g>
	<polygon fill="#29ABE2" points="428.179,440.868 427.495,440.564 427.458,411.08 428.293,411.688 	"/>
	<g>
		<polygon fill="#29ABE2" points="453.092,443.078 429.002,440.837 429.113,411.77 452.908,413.897 		"/>
		<polygon fill="#29ABE2" points="447.529,407.564 428.244,410.947 428.537,411.23 447.525,408.348 		"/>
		<path fill="#29ABE2" d="M447.446,408.312c1.101,1.877,3.834-0.061,4.766,5.887"/>
	</g>
</g>
<g>
	<polygon fill="#29ABE2" points="276.5,440.868 275.815,440.564 275.777,411.08 276.614,411.688 	"/>
	<g>
		<polygon fill="#29ABE2" points="301.413,443.078 277.322,440.837 277.433,411.77 301.228,413.897 		"/>
		<polygon fill="#29ABE2" points="295.849,407.564 276.564,410.947 276.857,411.23 295.844,408.348 		"/>
		<path fill="#29ABE2" d="M295.764,408.312c1.102,1.877,3.836-0.061,4.767,5.887"/>
	</g>
</g>
<g>
	<polygon fill="#00A99D" points="362.84,285.304 361.672,284.785 361.608,234.427 363.036,235.465 	"/>
	<g>
		<polygon fill="#00A99D" points="405.389,289.079 364.245,285.25 364.434,235.606 405.075,239.24 		"/>
		<polygon fill="#00A99D" points="395.889,228.424 362.95,234.201 363.452,234.685 395.881,229.761 		"/>
		<path fill="none" stroke="#00A99D" stroke-miterlimit="10" d="M395.745,229.701c1.881,3.207,6.549-0.103,8.139,10.056"/>
	</g>
</g>
<g>
	<g>
		<polygon fill="#00A99D" points="412.917,285.304 411.749,284.785 411.682,234.427 413.11,235.465 		"/>
		<g>
			<polygon fill="#00A99D" points="455.465,289.079 414.321,285.25 414.51,235.606 455.149,239.24 			"/>
			<polygon fill="#00A99D" points="445.963,228.424 413.024,234.201 413.526,234.685 445.956,229.761 			"/>
			<path fill="none" stroke="#00A99D" stroke-miterlimit="10" d="M445.819,229.701c1.881,3.207,6.551-0.103,8.141,10.056"/>
		</g>
	</g>
	<path fill="#00A99D" d="M457.192,240.882"/>
	<path fill="none" stroke="#00A99D" stroke-miterlimit="10" d="M448,231.234"/>
	<path fill="#00A99D" d="M457.192,240.882"/>
</g>
<g>
	<path d="M186.469,207.828c0.858,0.528,2.112,0.968,3.433,0.968c1.958,0,3.103-1.034,3.103-2.53c0-1.386-0.792-2.178-2.794-2.948
		c-2.42-0.858-3.917-2.112-3.917-4.203c0-2.311,1.915-4.027,4.797-4.027c1.518,0,2.619,0.352,3.278,0.726l-0.528,1.562
		c-0.484-0.264-1.474-0.704-2.816-0.704c-2.024,0-2.794,1.21-2.794,2.222c0,1.386,0.902,2.068,2.948,2.86
		c2.509,0.968,3.785,2.178,3.785,4.356c0,2.289-1.694,4.269-5.193,4.269c-1.43,0-2.992-0.418-3.784-0.946L186.469,207.828z"/>
	<path d="M200.835,210.16l-4.841-14.83h2.068l2.311,7.305c0.638,2.002,1.188,3.806,1.584,5.544h0.044
		c0.418-1.716,1.034-3.586,1.694-5.522l2.508-7.327h2.046l-5.303,14.83H200.835z"/>
	<path d="M209.855,195.528c1.166-0.176,2.552-0.308,4.07-0.308c2.75,0,4.709,0.638,6.007,1.848c1.32,1.21,2.09,2.926,2.09,5.325
		c0,2.42-0.748,4.4-2.134,5.765c-1.386,1.386-3.674,2.134-6.557,2.134c-1.364,0-2.508-0.066-3.477-0.176V195.528z M211.769,208.642
		c0.484,0.088,1.188,0.11,1.937,0.11c4.092,0,6.315-2.288,6.315-6.293c0.022-3.499-1.958-5.721-6.007-5.721
		c-0.99,0-1.738,0.088-2.245,0.198V208.642z"/>
	<path d="M229.17,195.528c0.968-0.198,2.354-0.308,3.674-0.308c2.046,0,3.367,0.374,4.291,1.21c0.749,0.66,1.167,1.672,1.167,2.816
		c0,1.958-1.232,3.256-2.794,3.785v0.066c1.144,0.396,1.826,1.452,2.178,2.992c0.484,2.068,0.836,3.499,1.144,4.071h-1.98
		c-0.242-0.418-0.572-1.694-0.99-3.542c-0.44-2.046-1.232-2.816-2.971-2.882h-1.804v6.425h-1.914V195.528z M231.084,202.283h1.958
		c2.046,0,3.344-1.123,3.344-2.816c0-1.915-1.386-2.75-3.41-2.772c-0.924,0-1.584,0.088-1.893,0.176V202.283z"/>
	<path d="M242.106,205.188c0.044,2.618,1.716,3.696,3.652,3.696c1.386,0,2.222-0.242,2.948-0.55l0.33,1.386
		c-0.682,0.308-1.848,0.66-3.542,0.66c-3.278,0-5.237-2.157-5.237-5.369s1.893-5.743,4.995-5.743c3.476,0,4.4,3.059,4.4,5.017
		c0,0.396-0.044,0.704-0.066,0.902H242.106z M247.783,203.801c0.022-1.232-0.506-3.146-2.685-3.146c-1.958,0-2.816,1.804-2.97,3.146
		H247.783z"/>
	<path d="M251.786,208.18c0.572,0.374,1.584,0.771,2.552,0.771c1.408,0,2.068-0.704,2.068-1.584c0-0.924-0.55-1.43-1.98-1.958
		c-1.914-0.682-2.816-1.738-2.816-3.014c0-1.716,1.386-3.125,3.675-3.125c1.078,0,2.023,0.308,2.618,0.66l-0.483,1.408
		c-0.418-0.264-1.189-0.616-2.179-0.616c-1.145,0-1.782,0.66-1.782,1.452c0,0.88,0.638,1.276,2.023,1.804
		c1.85,0.704,2.795,1.628,2.795,3.213c0,1.87-1.452,3.19-3.982,3.19c-1.166,0-2.244-0.286-2.993-0.726L251.786,208.18z"/>
	<path d="M269.673,207.256c0,1.1,0.021,2.068,0.088,2.904h-1.717l-0.109-1.738h-0.044c-0.507,0.858-1.628,1.98-3.521,1.98
		c-1.672,0-3.675-0.924-3.675-4.665v-6.227h1.937v5.896c0,2.024,0.616,3.389,2.377,3.389c1.297,0,2.199-0.902,2.552-1.76
		c0.11-0.286,0.176-0.638,0.176-0.99v-6.535h1.937V207.256z"/>
	<path d="M272.884,194.538h1.936v15.622h-1.936V194.538z"/>
	<path d="M280.408,196.452v3.059h2.773v1.474h-2.773v5.743c0,1.32,0.375,2.068,1.453,2.068c0.506,0,0.88-0.066,1.121-0.132
		l0.089,1.452c-0.374,0.154-0.968,0.264-1.716,0.264c-0.902,0-1.629-0.286-2.091-0.814c-0.55-0.572-0.748-1.518-0.748-2.772v-5.809
		h-1.65v-1.474h1.65v-2.553L280.408,196.452z"/>
	<path d="M285.093,208.18c0.572,0.374,1.584,0.771,2.553,0.771c1.408,0,2.068-0.704,2.068-1.584c0-0.924-0.551-1.43-1.98-1.958
		c-1.914-0.682-2.816-1.738-2.816-3.014c0-1.716,1.387-3.125,3.675-3.125c1.078,0,2.024,0.308,2.618,0.66l-0.484,1.408
		c-0.418-0.264-1.188-0.616-2.178-0.616c-1.145,0-1.782,0.66-1.782,1.452c0,0.88,0.638,1.276,2.024,1.804
		c1.848,0.704,2.794,1.628,2.794,3.213c0,1.87-1.452,3.19-3.982,3.19c-1.166,0-2.244-0.286-2.993-0.726L285.093,208.18z"/>
</g>
<line fill="none" x1="0" y1="285.316" x2="0" y2="332.108"/>
<line fill="none" x1="-5.746" y1="285.316" x2="-5.746" y2="343.601"/>
<line fill="#93278F" stroke="#8CC63F" stroke-miterlimit="10" x1="5.747" y1="285.316" x2="5.747" y2="310.726"/>
<line fill="#93278F" stroke="#8CC63F" stroke-miterlimit="10" x1="5.472" y1="311.257" x2="95.697" y2="311.257"/>
<line fill="none" stroke="#8CC63F" stroke-miterlimit="10" x1="257.764" y1="311.257" x2="257.764" y2="289.421"/>
<line fill="#93278F" stroke="#8CC63F" stroke-miterlimit="10" x1="178.253" y1="311.257" x2="257.762" y2="311.257"/>
<g>
	<path fill="#8CC63F" d="M107.287,307.77h-0.028l-1.583,0.854l-0.238-0.938l1.989-1.064h1.051v9.105h-1.191V307.77z"/>
	<path fill="#8CC63F" d="M112.018,314.465c0.364,0.238,1.008,0.49,1.625,0.49c0.896,0,1.316-0.448,1.316-1.008
		c0-0.588-0.35-0.911-1.261-1.247c-1.218-0.435-1.793-1.107-1.793-1.919c0-1.092,0.883-1.989,2.339-1.989
		c0.687,0,1.289,0.196,1.667,0.42l-0.308,0.896c-0.266-0.168-0.756-0.392-1.387-0.392c-0.729,0-1.135,0.42-1.135,0.924
		c0,0.561,0.406,0.812,1.289,1.149c1.177,0.448,1.779,1.037,1.779,2.045c0,1.191-0.925,2.031-2.536,2.031
		c-0.742,0-1.429-0.182-1.905-0.462L112.018,314.465z"/>
	<path fill="#8CC63F" d="M119.214,306.999v1.947h1.765v0.938h-1.765v3.656c0,0.84,0.238,1.316,0.924,1.316
		c0.322,0,0.561-0.042,0.715-0.084l0.056,0.925c-0.238,0.098-0.616,0.168-1.092,0.168c-0.575,0-1.037-0.182-1.331-0.519
		c-0.35-0.364-0.476-0.966-0.476-1.765v-3.698h-1.051v-0.938h1.051v-1.625L119.214,306.999z"/>
	<path fill="#8CC63F" d="M126.41,315.726l-2.396-9.441h1.289l1.121,4.776c0.28,1.177,0.532,2.354,0.7,3.264h0.028
		c0.154-0.938,0.448-2.059,0.771-3.278l1.261-4.762h1.275l1.148,4.791c0.266,1.121,0.518,2.241,0.658,3.236h0.028
		c0.196-1.037,0.462-2.087,0.756-3.264l1.247-4.762h1.247l-2.675,9.441h-1.275l-1.19-4.917c-0.294-1.205-0.49-2.129-0.616-3.082
		h-0.028c-0.168,0.939-0.378,1.863-0.729,3.082l-1.345,4.917H126.41z"/>
	<path fill="#8CC63F" d="M137.82,307.041c0.014,0.42-0.294,0.756-0.785,0.756c-0.434,0-0.742-0.336-0.742-0.756
		c0-0.435,0.322-0.771,0.77-0.771C137.525,306.271,137.82,306.606,137.82,307.041z M136.447,315.726v-6.78h1.233v6.78H136.447z"/>
	<path fill="#8CC63F" d="M139.723,310.781c0-0.7-0.014-1.274-0.056-1.835h1.093l0.07,1.121h0.028
		c0.336-0.644,1.121-1.274,2.241-1.274c0.938,0,2.395,0.56,2.395,2.885v4.048h-1.232v-3.908c0-1.092-0.406-2.003-1.569-2.003
		c-0.812,0-1.443,0.574-1.653,1.261c-0.056,0.154-0.084,0.364-0.084,0.574v4.076h-1.233V310.781z"/>
	<path fill="#8CC63F" d="M153.348,305.78v8.194c0,0.603,0.014,1.289,0.056,1.751h-1.106l-0.056-1.177h-0.028
		c-0.378,0.756-1.205,1.331-2.312,1.331c-1.639,0-2.899-1.387-2.899-3.446c-0.014-2.255,1.387-3.642,3.04-3.642
		c1.037,0,1.737,0.49,2.045,1.037h0.028v-4.048H153.348z M152.115,311.706c0-0.154-0.014-0.364-0.056-0.519
		c-0.182-0.784-0.854-1.429-1.779-1.429c-1.275,0-2.031,1.121-2.031,2.62c0,1.373,0.672,2.507,2.003,2.507
		c0.826,0,1.583-0.546,1.807-1.471c0.042-0.168,0.056-0.336,0.056-0.533V311.706z"/>
	<path fill="#8CC63F" d="M161.524,312.28c0,2.507-1.737,3.6-3.375,3.6c-1.835,0-3.25-1.345-3.25-3.488c0-2.269,1.485-3.6,3.362-3.6
		C160.208,308.792,161.524,310.207,161.524,312.28z M156.145,312.35c0,1.485,0.854,2.605,2.059,2.605
		c1.177,0,2.059-1.106,2.059-2.633c0-1.148-0.574-2.605-2.031-2.605C156.775,309.716,156.145,311.061,156.145,312.35z"/>
	<path fill="#8CC63F" d="M163.467,308.946l0.896,3.446c0.196,0.757,0.378,1.457,0.504,2.157h0.042
		c0.154-0.686,0.378-1.415,0.603-2.143l1.106-3.46h1.037l1.05,3.39c0.252,0.812,0.448,1.527,0.603,2.213h0.042
		c0.112-0.686,0.294-1.4,0.518-2.199l0.967-3.404h1.219l-2.186,6.78h-1.121l-1.036-3.236c-0.238-0.756-0.435-1.429-0.603-2.227
		h-0.028c-0.168,0.812-0.378,1.513-0.617,2.241l-1.092,3.222h-1.121l-2.045-6.78H163.467z"/>
</g>
<line fill="none" x1="-3" y1="304.316" x2="-3" y2="351.107"/>
<line fill="none" x1="-8.746" y1="319.316" x2="-8.746" y2="377.601"/>
<g>
	<g>
		<line fill="#F15A24" x1="2.747" y1="304.316" x2="2.747" y2="329.726"/>
		<rect x="2.247" y="304.316" fill="#FF7BAC" width="1" height="25.41"/>
	</g>
	<g>
		<line fill="#F15A24" x1="2.472" y1="330.257" x2="244.253" y2="330.257"/>
		<rect x="2.472" y="329.757" fill="#FF7BAC" width="241.781" height="1"/>
	</g>
	<g>
		<line fill="#F15A24" x1="359.764" y1="330.257" x2="359.764" y2="284.785"/>
		<rect x="359.264" y="284.785" fill="#FF7BAC" width="1" height="45.472"/>
	</g>
	<g>
		<rect x="328.253" y="329.757" fill="#FF7BAC" width="32.001" height="1"/>
	</g>
	<g>
		<path fill="#FF7BAC" d="M249.111,333.726v-0.757l0.966-0.938c2.326-2.213,3.376-3.39,3.391-4.763c0-0.924-0.449-1.779-1.808-1.779
			c-0.827,0-1.513,0.42-1.933,0.771l-0.392-0.869c0.63-0.532,1.527-0.924,2.577-0.924c1.962,0,2.788,1.345,2.788,2.647
			c0,1.681-1.219,3.04-3.138,4.888l-0.729,0.672v0.028h4.09v1.022H249.111z"/>
		<path fill="#FF7BAC" d="M256.685,328.781c0-0.7-0.014-1.274-0.057-1.835h1.094l0.07,1.121h0.027
			c0.336-0.644,1.121-1.274,2.241-1.274c0.938,0,2.396,0.56,2.396,2.885v4.048h-1.232v-3.908c0-1.092-0.406-2.003-1.569-2.003
			c-0.812,0-1.442,0.574-1.653,1.261c-0.056,0.154-0.084,0.364-0.084,0.574v4.076h-1.232V328.781z"/>
		<path fill="#FF7BAC" d="M270.31,323.78v8.194c0,0.603,0.014,1.289,0.057,1.751h-1.107l-0.056-1.177h-0.028
			c-0.378,0.756-1.204,1.331-2.311,1.331c-1.639,0-2.9-1.387-2.9-3.446c-0.014-2.255,1.387-3.642,3.04-3.642
			c1.036,0,1.737,0.49,2.046,1.037h0.027v-4.048H270.31z M269.078,329.706c0-0.154-0.014-0.364-0.057-0.519
			c-0.182-0.784-0.854-1.429-1.778-1.429c-1.274,0-2.031,1.121-2.031,2.62c0,1.373,0.673,2.507,2.003,2.507
			c0.826,0,1.583-0.546,1.807-1.47c0.043-0.168,0.057-0.336,0.057-0.533V329.706z"/>
		<path fill="#FF7BAC" d="M279.366,333.726l-2.396-9.441h1.289l1.121,4.776c0.279,1.177,0.531,2.354,0.699,3.264h0.028
			c0.154-0.938,0.448-2.059,0.771-3.278l1.261-4.762h1.274l1.148,4.791c0.267,1.121,0.519,2.241,0.658,3.236h0.029
			c0.195-1.037,0.461-2.087,0.756-3.264l1.246-4.762h1.247l-2.675,9.441h-1.275l-1.19-4.917c-0.294-1.205-0.49-2.129-0.616-3.082
			h-0.028c-0.168,0.939-0.378,1.863-0.729,3.082l-1.345,4.917H279.366z"/>
		<path fill="#FF7BAC" d="M290.775,325.041c0.014,0.42-0.294,0.756-0.784,0.756c-0.435,0-0.742-0.336-0.742-0.756
			c0-0.435,0.321-0.771,0.771-0.771C290.481,324.271,290.775,324.606,290.775,325.041z M289.402,333.726v-6.78h1.233v6.78H289.402z"
			/>
		<path fill="#FF7BAC" d="M292.678,328.781c0-0.7-0.015-1.274-0.056-1.835h1.092l0.07,1.121h0.028
			c0.336-0.644,1.12-1.274,2.241-1.274c0.938,0,2.395,0.56,2.395,2.885v4.048h-1.232v-3.908c0-1.092-0.406-2.003-1.568-2.003
			c-0.812,0-1.443,0.574-1.652,1.261c-0.057,0.154-0.084,0.364-0.084,0.574v4.076h-1.233V328.781z"/>
		<path fill="#FF7BAC" d="M306.304,323.78v8.194c0,0.603,0.014,1.289,0.055,1.751h-1.105l-0.057-1.177h-0.027
			c-0.379,0.756-1.205,1.331-2.312,1.331c-1.639,0-2.898-1.387-2.898-3.446c-0.015-2.255,1.387-3.642,3.039-3.642
			c1.037,0,1.737,0.49,2.045,1.037h0.028v-4.048H306.304z M305.071,329.706c0-0.154-0.015-0.364-0.056-0.519
			c-0.183-0.784-0.855-1.429-1.779-1.429c-1.275,0-2.031,1.121-2.031,2.62c0,1.373,0.672,2.507,2.004,2.507
			c0.826,0,1.582-0.546,1.807-1.47c0.041-0.168,0.056-0.336,0.056-0.533V329.706z"/>
		<path fill="#FF7BAC" d="M314.48,330.28c0,2.507-1.737,3.6-3.376,3.6c-1.835,0-3.25-1.345-3.25-3.488c0-2.269,1.485-3.6,3.362-3.6
			C313.164,326.792,314.48,328.207,314.48,330.28z M309.101,330.35c0,1.485,0.854,2.605,2.059,2.605
			c1.177,0,2.059-1.106,2.059-2.633c0-1.148-0.574-2.605-2.03-2.605C309.731,327.716,309.101,329.061,309.101,330.35z"/>
		<path fill="#FF7BAC" d="M316.423,326.946l0.896,3.446c0.195,0.757,0.378,1.457,0.504,2.157h0.042
			c0.154-0.686,0.378-1.415,0.603-2.143l1.106-3.46h1.036l1.051,3.39c0.252,0.812,0.448,1.527,0.603,2.213h0.042
			c0.111-0.686,0.294-1.4,0.518-2.199l0.967-3.404h1.219l-2.186,6.78h-1.12l-1.036-3.236c-0.238-0.756-0.435-1.429-0.603-2.227
			h-0.028c-0.168,0.812-0.378,1.513-0.616,2.241l-1.093,3.222h-1.12l-2.046-6.78H316.423z"/>
	</g>
</g>
<g>
	<line fill="#93278F" x1="132.141" y1="323.393" x2="132.141" y2="376.387"/>
	<g>
		<polygon fill="#9BCD57" points="127.381,323.393 127.381,353.613 118.987,353.613 132.142,376.387 145.295,353.613 
			136.902,353.613 136.902,323.393 		"/>
	</g>
</g>
<line fill="none" stroke="#231F20" stroke-miterlimit="10" x1="8.208" y1="388.727" x2="8.208" y2="533.727"/>
<line fill="none" stroke="#231F20" stroke-miterlimit="10" x1="214.254" y1="533.727" x2="8.208" y2="533.727"/>
<g>
	<g>
		<g>
			<polygon fill="#FF0000" points="258.89,165.763 257.721,165.244 257.657,114.886 259.084,115.924 			"/>
			<polygon fill="#D4145A" points="301.44,169.538 260.295,165.709 260.484,116.065 301.124,119.699 			"/>
			<polygon fill="#662D91" points="291.938,108.883 258.999,114.66 259.5,115.144 291.93,110.22 			"/>
		</g>
		<path fill="none" stroke="#ED1E79" stroke-width="0.5" stroke-miterlimit="10" d="M291.793,110.16
			c1.881,3.207,6.549-0.103,8.141,10.056"/>
		<path fill="none" d="M291.92,110.051"/>
	</g>
	<rect x="260.484" y="116.065" fill="none" width="11.812" height="49.983"/>
	<polygon fill="#F15A24" points="271.989,166.819 260.043,165.733 260.245,116.151 271.989,117.223 	"/>
	<polygon fill="#22B573" points="295.401,168.957 283.499,167.879 283.784,118.091 295.53,119.164 	"/>
	<polygon fill="#0071BC" points="301.491,169.538 295.452,168.957 295.581,119.164 301.174,119.699 	"/>
</g>
<g>
	<path d="M159.587,133.336c0.562-0.118,1.447-0.207,2.349-0.207c1.285,0,2.112,0.222,2.732,0.724
		c0.517,0.384,0.827,0.975,0.827,1.758c0,0.96-0.635,1.802-1.684,2.186v0.03c0.945,0.236,2.053,1.019,2.053,2.496
		c0,0.856-0.34,1.507-0.842,1.994c-0.694,0.635-1.817,0.931-3.441,0.931c-0.886,0-1.566-0.06-1.994-0.118V133.336z M160.872,137.413
		h1.167c1.358,0,2.156-0.709,2.156-1.669c0-1.167-0.886-1.625-2.186-1.625c-0.591,0-0.931,0.044-1.137,0.088V137.413z
		 M160.872,142.184c0.251,0.044,0.62,0.059,1.078,0.059c1.329,0,2.555-0.487,2.555-1.935c0-1.359-1.167-1.92-2.57-1.92h-1.063
		V142.184z"/>
	<path d="M174.08,139.524c0,2.644-1.832,3.796-3.56,3.796c-1.935,0-3.427-1.418-3.427-3.678c0-2.393,1.565-3.796,3.545-3.796
		C172.691,135.847,174.08,137.339,174.08,139.524z M168.408,139.599c0,1.565,0.901,2.747,2.171,2.747
		c1.241,0,2.171-1.167,2.171-2.777c0-1.211-0.605-2.747-2.142-2.747S168.408,138.24,168.408,139.599z"/>
	<path d="M182.192,139.524c0,2.644-1.832,3.796-3.56,3.796c-1.935,0-3.427-1.418-3.427-3.678c0-2.393,1.565-3.796,3.545-3.796
		C180.804,135.847,182.192,137.339,182.192,139.524z M176.521,139.599c0,1.565,0.901,2.747,2.171,2.747
		c1.241,0,2.171-1.167,2.171-2.777c0-1.211-0.605-2.747-2.142-2.747S176.521,138.24,176.521,139.599z"/>
	<path d="M185.12,139.288h0.029c0.178-0.251,0.429-0.561,0.635-0.812l2.098-2.467h1.565l-2.762,2.939l3.146,4.209h-1.581
		l-2.467-3.427l-0.665,0.738v2.688h-1.285v-10.487h1.285V139.288z"/>
	<path d="M193.942,133.336c0.65-0.133,1.581-0.207,2.467-0.207c1.374,0,2.26,0.251,2.88,0.812c0.502,0.443,0.783,1.123,0.783,1.891
		c0,1.314-0.827,2.186-1.876,2.541v0.044c0.768,0.266,1.226,0.975,1.462,2.009c0.325,1.388,0.561,2.349,0.768,2.732h-1.33
		c-0.162-0.281-0.384-1.137-0.665-2.378c-0.295-1.374-0.827-1.891-1.994-1.935h-1.211v4.313h-1.285V133.336z M195.227,137.87h1.314
		c1.374,0,2.245-0.753,2.245-1.891c0-1.285-0.931-1.846-2.29-1.861c-0.62,0-1.063,0.059-1.27,0.118V137.87z"/>
	<path d="M202.63,139.82c0.03,1.757,1.152,2.481,2.452,2.481c0.931,0,1.492-0.163,1.979-0.37l0.221,0.931
		c-0.458,0.207-1.241,0.443-2.378,0.443c-2.201,0-3.515-1.447-3.515-3.604c0-2.157,1.27-3.855,3.353-3.855
		c2.334,0,2.954,2.053,2.954,3.368c0,0.266-0.029,0.473-0.044,0.606H202.63z M206.441,138.89c0.015-0.827-0.34-2.112-1.802-2.112
		c-1.314,0-1.891,1.211-1.994,2.112H206.441z"/>
	<path d="M214.405,142.893c-0.34,0.177-1.093,0.413-2.053,0.413c-2.157,0-3.56-1.462-3.56-3.648c0-2.201,1.507-3.796,3.841-3.796
		c0.768,0,1.447,0.192,1.802,0.37l-0.295,1.004c-0.31-0.177-0.797-0.34-1.506-0.34c-1.64,0-2.526,1.211-2.526,2.703
		c0,1.654,1.063,2.673,2.481,2.673c0.738,0,1.226-0.192,1.595-0.354L214.405,142.893z"/>
	<path d="M217.376,134c0.015,0.443-0.31,0.797-0.827,0.797c-0.458,0-0.783-0.354-0.783-0.797c0-0.458,0.339-0.812,0.812-0.812
		C217.066,133.188,217.376,133.542,217.376,134z M215.929,143.158v-7.149h1.3v7.149H215.929z"/>
	<path d="M219.386,138.343c0-0.916-0.029-1.654-0.059-2.333h1.167l0.059,1.226h0.03c0.531-0.872,1.374-1.389,2.54-1.389
		c1.729,0,3.028,1.462,3.028,3.634c0,2.57-1.566,3.84-3.25,3.84c-0.945,0-1.772-0.414-2.201-1.123h-0.03v3.885h-1.285V138.343z
		 M220.671,140.249c0,0.192,0.03,0.369,0.059,0.532c0.236,0.901,1.019,1.521,1.95,1.521c1.374,0,2.171-1.123,2.171-2.762
		c0-1.433-0.753-2.659-2.127-2.659c-0.886,0-1.713,0.635-1.965,1.61c-0.044,0.163-0.088,0.354-0.088,0.532V140.249z"/>
	<path d="M228.518,139.82c0.029,1.757,1.152,2.481,2.452,2.481c0.931,0,1.492-0.163,1.979-0.37l0.222,0.931
		c-0.458,0.207-1.241,0.443-2.378,0.443c-2.201,0-3.516-1.447-3.516-3.604c0-2.157,1.271-3.855,3.353-3.855
		c2.334,0,2.954,2.053,2.954,3.368c0,0.266-0.029,0.473-0.044,0.606H228.518z M232.328,138.89c0.015-0.827-0.34-2.112-1.802-2.112
		c-1.315,0-1.891,1.211-1.994,2.112H232.328z"/>
	<path d="M237.841,138.181v-0.886h7.622v0.886H237.841z M237.841,141.076v-0.886h7.622v0.886H237.841z"/>
</g>
<g>
	<g>
		<g>
			<polygon fill="#FF0000" points="133.551,473.363 132.887,473.068 132.85,444.426 133.661,445.016 			"/>
			<polygon fill="#D4145A" points="157.753,475.512 134.35,473.334 134.458,445.096 157.573,447.162 			"/>
			<polygon fill="#662D91" points="152.348,441.012 133.613,444.297 133.898,444.572 152.344,441.771 			"/>
		</g>
		<path fill="none" stroke="#ED1E79" stroke-width="0.5" stroke-miterlimit="10" d="M152.266,441.736
			c1.07,1.824,3.725-0.059,4.63,5.721"/>
		<path fill="none" d="M152.339,441.674"/>
	</g>
	<rect x="134.458" y="445.096" fill="none" width="6.718" height="28.43"/>
	<polygon fill="#F15A24" points="141.002,473.965 134.207,473.346 134.322,445.145 141.002,445.756 	"/>
	<polygon fill="#22B573" points="154.318,475.18 147.547,474.566 147.71,446.248 154.391,446.857 	"/>
	<polygon fill="#0071BC" points="157.782,475.512 154.347,475.18 154.42,446.857 157.602,447.162 	"/>
</g>
<g>
	<path d="M77.056,383.385h1.285v4.8h0.044c0.266-0.384,0.531-0.738,0.783-1.063l3.042-3.736h1.595l-3.604,4.225l3.885,5.73h-1.521
		l-3.279-4.889l-0.945,1.093v3.796h-1.285V383.385z"/>
	<path d="M85.065,393.34v-9.955h1.403l3.19,5.036c0.738,1.167,1.314,2.216,1.787,3.235l0.03-0.015
		c-0.118-1.33-0.148-2.541-0.148-4.092v-4.165h1.211v9.955h-1.3l-3.161-5.052c-0.694-1.107-1.359-2.245-1.861-3.323l-0.044,0.015
		c0.074,1.256,0.104,2.452,0.104,4.106v4.254H85.065z"/>
	<path d="M94.788,393.34v-9.955h1.403l3.19,5.036c0.738,1.167,1.314,2.216,1.787,3.235l0.03-0.015
		c-0.118-1.33-0.148-2.541-0.148-4.092v-4.165h1.211v9.955h-1.3l-3.161-5.052c-0.694-1.107-1.359-2.245-1.861-3.323l-0.044,0.015
		c0.074,1.256,0.104,2.452,0.104,4.106v4.254H94.788z"/>
	<path d="M116.032,388.968c-0.074-1.389-0.163-3.058-0.147-4.298h-0.044c-0.34,1.166-0.753,2.407-1.255,3.781l-1.758,4.83h-0.975
		l-1.61-4.742c-0.473-1.402-0.872-2.688-1.152-3.869h-0.029c-0.029,1.24-0.104,2.909-0.192,4.401l-0.266,4.269h-1.226l0.694-9.955
		h1.64l1.699,4.814c0.414,1.227,0.753,2.319,1.004,3.354h0.044c0.251-1.005,0.605-2.098,1.048-3.354l1.772-4.814h1.64l0.621,9.955
		h-1.256L116.032,388.968z"/>
	<path d="M126.036,389.706c0,2.645-1.832,3.796-3.56,3.796c-1.935,0-3.427-1.418-3.427-3.678c0-2.393,1.565-3.796,3.545-3.796
		C124.647,386.028,126.036,387.521,126.036,389.706z M120.364,389.78c0,1.565,0.901,2.747,2.171,2.747
		c1.241,0,2.171-1.167,2.171-2.776c0-1.212-0.605-2.748-2.142-2.748S120.364,388.421,120.364,389.78z"/>
	<path d="M133.853,382.853v8.641c0,0.636,0.015,1.359,0.059,1.847h-1.167l-0.059-1.24h-0.03c-0.398,0.797-1.27,1.402-2.437,1.402
		c-1.728,0-3.057-1.462-3.057-3.633c-0.015-2.379,1.462-3.841,3.205-3.841c1.093,0,1.832,0.517,2.156,1.093h0.03v-4.269H133.853z
		 M132.553,389.101c0-0.162-0.015-0.384-0.059-0.546c-0.192-0.828-0.901-1.507-1.876-1.507c-1.344,0-2.142,1.182-2.142,2.762
		c0,1.447,0.709,2.644,2.112,2.644c0.871,0,1.669-0.575,1.905-1.551c0.044-0.177,0.059-0.354,0.059-0.561V389.101z"/>
	<path d="M136.736,390.002c0.029,1.758,1.152,2.481,2.452,2.481c0.931,0,1.492-0.163,1.979-0.369l0.222,0.931
		c-0.458,0.206-1.241,0.442-2.378,0.442c-2.201,0-3.516-1.447-3.516-3.604c0-2.157,1.271-3.855,3.353-3.855
		c2.334,0,2.954,2.054,2.954,3.368c0,0.266-0.029,0.473-0.044,0.605H136.736z M140.547,389.071c0.015-0.827-0.34-2.112-1.802-2.112
		c-1.315,0-1.891,1.211-1.994,2.112H140.547z"/>
	<path d="M143.415,382.853h1.3v10.487h-1.3V382.853z"/>
</g>
<g>
	<line fill="#93278F" x1="125.891" y1="540.74" x2="125.891" y2="579.387"/>
	<g>
		<polygon fill="#9BCD57" points="121.131,540.74 121.131,554.693 121.131,556.613 112.736,556.613 125.892,579.387 
			139.045,556.613 130.651,556.613 130.651,554.693 130.651,540.74 		"/>
	</g>
</g>
<g>
	<path d="M15.242,596.934H15.21l-1.809,0.977l-0.272-1.072l2.273-1.217h1.201v10.404h-1.361V596.934z"/>
	<path d="M20.649,604.586c0.416,0.271,1.152,0.56,1.856,0.56c1.024,0,1.505-0.513,1.505-1.152c0-0.673-0.4-1.04-1.441-1.425
		c-1.393-0.496-2.049-1.264-2.049-2.193c0-1.248,1.009-2.272,2.673-2.272c0.784,0,1.473,0.224,1.905,0.48l-0.352,1.024
		c-0.304-0.192-0.865-0.448-1.585-0.448c-0.832,0-1.296,0.479-1.296,1.056c0,0.641,0.464,0.93,1.473,1.312
		c1.345,0.513,2.033,1.186,2.033,2.338c0,1.36-1.056,2.32-2.897,2.32c-0.849,0-1.633-0.207-2.177-0.527L20.649,604.586z"/>
	<path d="M28.874,596.054v2.226h2.017v1.072h-2.017v4.178c0,0.96,0.272,1.504,1.056,1.504c0.368,0,0.641-0.048,0.816-0.096
		l0.064,1.057c-0.272,0.111-0.704,0.191-1.249,0.191c-0.656,0-1.184-0.207-1.521-0.592c-0.4-0.416-0.544-1.104-0.544-2.018v-4.225
		h-1.201v-1.072h1.201v-1.857L28.874,596.054z"/>
	<path d="M35.913,595.381c0.849-0.127,1.857-0.223,2.961-0.223c2.001,0,3.425,0.463,4.37,1.344c0.96,0.881,1.521,2.129,1.521,3.873
		c0,1.762-0.544,3.201-1.552,4.194c-1.009,1.009-2.673,1.553-4.77,1.553c-0.993,0-1.825-0.048-2.529-0.128V595.381z M37.305,604.922
		c0.353,0.063,0.865,0.08,1.409,0.08c2.977,0,4.594-1.665,4.594-4.578c0.016-2.545-1.424-4.162-4.37-4.162
		c-0.72,0-1.265,0.064-1.633,0.145V604.922z"/>
	<path d="M47.369,602.408c0.032,1.904,1.249,2.689,2.657,2.689c1.008,0,1.617-0.176,2.145-0.4l0.24,1.008
		c-0.496,0.225-1.344,0.48-2.577,0.48c-2.385,0-3.81-1.568-3.81-3.905s1.376-4.178,3.633-4.178c2.529,0,3.201,2.226,3.201,3.649
		c0,0.288-0.032,0.512-0.048,0.656H47.369z M51.499,601.4c0.016-0.896-0.368-2.289-1.953-2.289c-1.425,0-2.049,1.312-2.161,2.289
		H51.499z"/>
	<path d="M54.601,594.661h1.409v11.364h-1.409V594.661z"/>
	<path d="M59.945,596.102c0.016,0.48-0.336,0.865-0.896,0.865c-0.496,0-0.849-0.385-0.849-0.865c0-0.496,0.368-0.88,0.88-0.88
		C59.609,595.222,59.945,595.605,59.945,596.102z M58.376,606.025v-7.746h1.409v7.746H58.376z"/>
	<path d="M62.665,598.279l1.521,4.354c0.256,0.704,0.464,1.344,0.624,1.984h0.048c0.176-0.641,0.4-1.28,0.656-1.984l1.504-4.354
		h1.473l-3.041,7.746h-1.345l-2.945-7.746H62.665z"/>
	<path d="M70.44,602.408c0.032,1.904,1.249,2.689,2.657,2.689c1.008,0,1.617-0.176,2.145-0.4l0.24,1.008
		c-0.496,0.225-1.344,0.48-2.577,0.48c-2.385,0-3.81-1.568-3.81-3.905s1.376-4.178,3.633-4.178c2.529,0,3.201,2.226,3.201,3.649
		c0,0.288-0.032,0.512-0.048,0.656H70.44z M74.57,601.4c0.016-0.896-0.368-2.289-1.953-2.289c-1.425,0-2.049,1.312-2.161,2.289
		H74.57z"/>
	<path d="M77.672,600.695c0-0.912-0.016-1.696-0.064-2.416h1.232l0.048,1.52h0.064c0.352-1.04,1.2-1.696,2.145-1.696
		c0.16,0,0.272,0.017,0.4,0.048v1.328c-0.144-0.031-0.288-0.047-0.48-0.047c-0.992,0-1.696,0.752-1.889,1.809
		c-0.032,0.191-0.064,0.416-0.064,0.656v4.129h-1.393V600.695z"/>
	<path d="M83.528,602.408c0.032,1.904,1.249,2.689,2.657,2.689c1.008,0,1.617-0.176,2.145-0.4l0.24,1.008
		c-0.496,0.225-1.344,0.48-2.577,0.48c-2.385,0-3.81-1.568-3.81-3.905s1.376-4.178,3.633-4.178c2.529,0,3.201,2.226,3.201,3.649
		c0,0.288-0.032,0.512-0.048,0.656H83.528z M87.658,601.4c0.016-0.896-0.368-2.289-1.953-2.289c-1.425,0-2.049,1.312-2.161,2.289
		H87.658z"/>
	<path d="M97.451,594.661v9.364c0,0.688,0.016,1.473,0.064,2H96.25l-0.064-1.344h-0.032c-0.432,0.864-1.376,1.521-2.641,1.521
		c-1.873,0-3.313-1.585-3.313-3.938c-0.016-2.576,1.584-4.161,3.473-4.161c1.185,0,1.985,0.561,2.337,1.185h0.032v-4.626H97.451z
		 M96.042,601.432c0-0.176-0.016-0.416-0.064-0.592c-0.208-0.896-0.977-1.633-2.033-1.633c-1.457,0-2.321,1.281-2.321,2.993
		c0,1.569,0.769,2.865,2.289,2.865c0.944,0,1.809-0.624,2.065-1.681c0.048-0.191,0.064-0.385,0.064-0.608V601.432z"/>
	<path d="M12.681,614.582c0.705-0.145,1.713-0.225,2.673-0.225c1.488,0,2.449,0.272,3.121,0.881c0.544,0.48,0.849,1.217,0.849,2.049
		c0,1.424-0.896,2.369-2.033,2.753v0.048c0.833,0.288,1.329,1.057,1.585,2.177c0.352,1.505,0.608,2.546,0.832,2.962h-1.44
		c-0.176-0.305-0.416-1.232-0.72-2.578c-0.32-1.488-0.896-2.049-2.161-2.096h-1.312v4.674h-1.393V614.582z M14.074,619.496h1.425
		c1.489,0,2.433-0.816,2.433-2.049c0-1.393-1.009-2.001-2.481-2.018c-0.672,0-1.153,0.064-1.377,0.129V619.496z"/>
	<path d="M22.089,621.608c0.032,1.905,1.249,2.689,2.657,2.689c1.008,0,1.617-0.177,2.145-0.4l0.24,1.009
		c-0.496,0.224-1.344,0.48-2.577,0.48c-2.385,0-3.81-1.569-3.81-3.906s1.376-4.178,3.633-4.178c2.529,0,3.201,2.225,3.201,3.649
		c0,0.288-0.032,0.513-0.048,0.656H22.089z M26.219,620.6c0.016-0.896-0.368-2.289-1.953-2.289c-1.425,0-2.049,1.313-2.161,2.289
		H26.219z"/>
	<path d="M29.129,623.785c0.416,0.272,1.152,0.561,1.856,0.561c1.024,0,1.505-0.512,1.505-1.152c0-0.672-0.4-1.041-1.441-1.425
		c-1.393-0.496-2.049-1.265-2.049-2.192c0-1.249,1.009-2.273,2.673-2.273c0.784,0,1.473,0.225,1.905,0.48l-0.352,1.024
		c-0.304-0.192-0.865-0.448-1.585-0.448c-0.832,0-1.296,0.48-1.296,1.057c0,0.641,0.464,0.928,1.473,1.312
		c1.345,0.512,2.033,1.184,2.033,2.337c0,1.36-1.056,2.321-2.897,2.321c-0.849,0-1.633-0.209-2.177-0.529L29.129,623.785z"/>
	<path d="M42.14,623.113c0,0.801,0.016,1.504,0.064,2.113h-1.249l-0.08-1.266h-0.032c-0.368,0.625-1.185,1.441-2.561,1.441
		c-1.216,0-2.673-0.672-2.673-3.394v-4.53h1.408v4.29c0,1.473,0.448,2.466,1.729,2.466c0.944,0,1.601-0.656,1.856-1.281
		c0.08-0.208,0.128-0.465,0.128-0.721v-4.754h1.408V623.113z"/>
	<path d="M44.473,613.861h1.409v11.365h-1.409V613.861z"/>
	<path d="M49.946,615.254v2.225h2.017v1.072h-2.017v4.178c0,0.961,0.272,1.506,1.056,1.506c0.368,0,0.641-0.049,0.816-0.097
		l0.064,1.056c-0.272,0.113-0.704,0.193-1.249,0.193c-0.656,0-1.184-0.209-1.521-0.593c-0.4-0.416-0.544-1.104-0.544-2.017v-4.227
		h-1.201v-1.072h1.201v-1.856L49.946,615.254z"/>
	<path d="M56.792,623.529c0.624,0.385,1.537,0.705,2.497,0.705c1.424,0,2.257-0.753,2.257-1.842c0-1.008-0.576-1.584-2.033-2.145
		c-1.761-0.624-2.849-1.537-2.849-3.057c0-1.682,1.393-2.93,3.489-2.93c1.104,0,1.905,0.256,2.385,0.528l-0.384,1.136
		c-0.352-0.191-1.073-0.512-2.049-0.512c-1.473,0-2.033,0.881-2.033,1.617c0,1.008,0.656,1.504,2.145,2.08
		c1.825,0.705,2.753,1.585,2.753,3.17c0,1.664-1.233,3.105-3.778,3.105c-1.041,0-2.177-0.305-2.753-0.689L56.792,623.529z"/>
	<path d="M65.705,621.608c0.032,1.905,1.249,2.689,2.657,2.689c1.008,0,1.617-0.177,2.145-0.4l0.24,1.009
		c-0.496,0.224-1.344,0.48-2.577,0.48c-2.385,0-3.81-1.569-3.81-3.906s1.376-4.178,3.633-4.178c2.529,0,3.201,2.225,3.201,3.649
		c0,0.288-0.032,0.513-0.048,0.656H65.705z M69.834,620.6c0.016-0.896-0.368-2.289-1.953-2.289c-1.425,0-2.049,1.313-2.161,2.289
		H69.834z"/>
	<path d="M74.633,615.254v2.225h2.017v1.072h-2.017v4.178c0,0.961,0.272,1.506,1.056,1.506c0.368,0,0.641-0.049,0.816-0.097
		l0.064,1.056c-0.272,0.113-0.704,0.193-1.249,0.193c-0.656,0-1.184-0.209-1.521-0.593c-0.4-0.416-0.544-1.104-0.544-2.017v-4.227
		h-1.201v-1.072h1.201v-1.856L74.633,615.254z"/>
	<path d="M77.896,618.76c0-0.593,0.4-1.009,0.96-1.009c0.56,0,0.928,0.416,0.944,1.009c0,0.561-0.368,0.992-0.96,0.992
		C78.28,619.752,77.896,619.32,77.896,618.76z M77.896,624.41c0-0.593,0.4-1.009,0.96-1.009c0.56,0,0.928,0.416,0.944,1.009
		c0,0.561-0.368,0.992-0.96,0.992C78.28,625.402,77.896,624.971,77.896,624.41z"/>
</g>
<path fill="none" stroke="#3A3B3B" stroke-width="0.5" stroke-miterlimit="10" d="M305.798,489.256"/>
<g>
	<g>
		<polygon fill="#D4145A" points="330.345,445.104 329.693,444.814 329.657,416.721 330.453,417.299 		"/>
		<polygon fill="#D4145A" points="354.082,447.209 331.128,445.074 331.234,417.377 353.907,419.404 		"/>
		<polygon fill="#D4145A" points="348.781,413.371 330.406,416.594 330.685,416.863 348.777,414.117 		"/>
	</g>
	<path fill="#D4145A" d="M348.701,414.082c1.05,1.789,3.654-0.057,4.542,5.611"/>
	<path fill="#D4145A" d="M348.773,414.023"/>
</g>
<g>
	<g>
		<polygon fill="#D4145A" points="345.994,524.535 345.341,524.246 345.305,496.152 346.102,496.732 		"/>
		<g>
			<polygon fill="#D4145A" points="369.731,526.643 346.777,524.506 346.882,496.811 369.555,498.838 			"/>
			<polygon fill="#D4145A" points="364.43,492.803 346.054,496.025 346.333,496.295 364.425,493.549 			"/>
			<path fill="#D4145A" d="M364.349,493.516c1.05,1.789,3.654-0.057,4.542,5.609"/>
		</g>
	</g>
	<path fill="#D4145A" d="M369.55,498.838"/>
	<path fill="#D4145A" d="M364.421,493.455"/>
</g>
<g>
	<polygon fill="#29ABE2" points="422.179,621.868 421.495,621.564 421.458,592.08 422.293,592.688 	"/>
	<g>
		<polygon fill="#29ABE2" points="447.092,624.078 423.002,621.837 423.113,592.77 446.908,594.897 		"/>
		<polygon fill="#29ABE2" points="441.529,588.564 422.244,591.947 422.537,592.23 441.525,589.348 		"/>
		<path fill="none" stroke="#29ABE2" stroke-width="0.5" stroke-miterlimit="10" d="M441.446,589.312
			c1.101,1.877,3.834-0.061,4.766,5.887"/>
	</g>
</g>
<g>
	<g>
		<polygon fill="#D4145A" points="388.345,622.104 387.693,621.814 387.657,593.721 388.453,594.299 		"/>
		<polygon fill="#D4145A" points="412.082,624.209 389.128,622.074 389.234,594.377 411.907,596.404 		"/>
		<polygon fill="#D4145A" points="406.781,590.371 388.406,593.594 388.685,593.863 406.777,591.117 		"/>
	</g>
	<path fill="none" stroke="#ED1E79" stroke-width="0.5" stroke-miterlimit="10" d="M406.701,591.082
		c1.05,1.789,3.654-0.057,4.542,5.611"/>
	<path fill="none" d="M406.773,591.023"/>
</g>
<g>
	<g>
		<polygon fill="#D4145A" points="457.994,622.201 457.341,621.912 457.305,593.818 458.102,594.398 		"/>
		<g>
			<polygon fill="#D4145A" points="481.731,624.309 458.777,622.172 458.882,594.477 481.555,596.504 			"/>
			<polygon fill="#D4145A" points="476.43,590.469 458.054,593.691 458.333,593.961 476.425,591.215 			"/>
			<path fill="#D4145A" d="M476.349,591.182c1.05,1.789,3.654-0.057,4.542,5.609"/>
		</g>
	</g>
	<path fill="#D4145A" d="M481.55,596.504"/>
	<path fill="#D4145A" d="M476.421,591.121"/>
</g>
<path fill="none" stroke="#3A3B3B" stroke-width="0.5" stroke-miterlimit="10" d="M389.608,489.256"/>
<path fill="none" d="M384.48,483.873"/>
<line fill="none" x1="256.253" y1="312.316" x2="256.253" y2="370.601"/>
<g>
	<line fill="#93278F" x1="292.256" y1="340.953" x2="316.335" y2="383.724"/>
	<g>
		<polygon fill="#FF8CB7" points="288.109,343.288 300.074,364.541 301.015,366.214 293.701,370.332 316.336,383.723 
			316.625,357.426 309.312,361.543 308.37,359.87 296.405,338.617 		"/>
	</g>
</g>
<line fill="none" stroke="#231F20" stroke-miterlimit="10" x1="273.208" y1="387.727" x2="273.208" y2="532.727"/>
<line fill="none" stroke="#231F20" stroke-miterlimit="10" x1="479.253" y1="532.727" x2="273.208" y2="532.727"/>
<g>
	<g>
		<g>
			<polygon fill="#FF0000" points="398.551,472.363 397.886,472.068 397.85,443.426 398.662,444.016 			"/>
			<polygon fill="#D4145A" points="422.753,474.512 399.35,472.334 399.458,444.096 422.574,446.162 			"/>
			<polygon fill="#662D91" points="417.348,440.012 398.613,443.297 398.898,443.572 417.344,440.771 			"/>
		</g>
		<path fill="none" stroke="#ED1E79" stroke-width="0.5" stroke-miterlimit="10" d="M417.266,440.736
			c1.069,1.824,3.726-0.059,4.63,5.721"/>
		<path fill="none" d="M417.339,440.674"/>
	</g>
	<rect x="399.458" y="444.096" fill="none" width="6.718" height="28.43"/>
	<polygon fill="#F15A24" points="406.002,472.965 399.207,472.346 399.322,444.145 406.002,444.756 	"/>
	<polygon fill="#22B573" points="419.318,474.18 412.547,473.566 412.71,445.248 419.391,445.857 	"/>
	<polygon fill="#0071BC" points="422.782,474.512 419.347,474.18 419.419,445.857 422.602,446.162 	"/>
</g>
<g>
	<path d="M342.056,380.385h1.285v4.8h0.045c0.266-0.384,0.531-0.738,0.782-1.063l3.042-3.736h1.596l-3.604,4.225l3.885,5.73h-1.521
		l-3.279-4.889l-0.945,1.093v3.796h-1.285V380.385z"/>
	<path d="M350.065,390.34v-9.955h1.403l3.19,5.036c0.738,1.167,1.314,2.216,1.787,3.235l0.03-0.015
		c-0.119-1.33-0.148-2.541-0.148-4.092v-4.165h1.211v9.955h-1.299l-3.162-5.052c-0.693-1.107-1.358-2.245-1.861-3.323l-0.043,0.015
		c0.073,1.256,0.104,2.452,0.104,4.106v4.254H350.065z"/>
	<path d="M359.788,390.34v-9.955h1.403l3.19,5.036c0.738,1.167,1.314,2.216,1.787,3.235l0.03-0.015
		c-0.119-1.33-0.148-2.541-0.148-4.092v-4.165h1.211v9.955h-1.299l-3.162-5.052c-0.693-1.107-1.358-2.245-1.861-3.323l-0.043,0.015
		c0.073,1.256,0.104,2.452,0.104,4.106v4.254H359.788z"/>
	<path d="M381.033,385.968c-0.074-1.389-0.163-3.058-0.148-4.298h-0.044c-0.34,1.166-0.753,2.407-1.255,3.781l-1.758,4.83h-0.976
		l-1.61-4.742c-0.473-1.402-0.871-2.688-1.152-3.869h-0.029c-0.029,1.24-0.104,2.909-0.191,4.401l-0.266,4.269h-1.227l0.694-9.955
		h1.64l1.699,4.814c0.413,1.227,0.752,2.319,1.004,3.354h0.045c0.25-1.005,0.605-2.098,1.048-3.354l1.772-4.814h1.64l0.62,9.955
		h-1.256L381.033,385.968z"/>
	<path d="M391.037,386.706c0,2.645-1.832,3.796-3.561,3.796c-1.935,0-3.426-1.418-3.426-3.678c0-2.393,1.564-3.796,3.545-3.796
		C389.648,383.028,391.037,384.521,391.037,386.706z M385.365,386.78c0,1.565,0.9,2.747,2.17,2.747c1.242,0,2.172-1.167,2.172-2.776
		c0-1.212-0.605-2.748-2.142-2.748S385.365,385.421,385.365,386.78z"/>
	<path d="M398.853,379.853v8.641c0,0.636,0.015,1.359,0.059,1.847h-1.166l-0.06-1.24h-0.03c-0.398,0.797-1.27,1.402-2.437,1.402
		c-1.728,0-3.058-1.462-3.058-3.633c-0.015-2.379,1.463-3.841,3.205-3.841c1.094,0,1.832,0.517,2.156,1.093h0.03v-4.269H398.853z
		 M397.553,386.101c0-0.162-0.015-0.384-0.06-0.546c-0.191-0.828-0.9-1.507-1.875-1.507c-1.345,0-2.143,1.182-2.143,2.762
		c0,1.447,0.709,2.644,2.113,2.644c0.871,0,1.668-0.575,1.904-1.551c0.045-0.177,0.06-0.354,0.06-0.561V386.101z"/>
	<path d="M401.736,387.002c0.029,1.758,1.152,2.481,2.452,2.481c0.931,0,1.491-0.163,1.979-0.369l0.221,0.931
		c-0.457,0.206-1.24,0.442-2.377,0.442c-2.201,0-3.516-1.447-3.516-3.604c0-2.157,1.27-3.855,3.353-3.855
		c2.334,0,2.954,2.054,2.954,3.368c0,0.266-0.029,0.473-0.045,0.605H401.736z M405.546,386.071c0.016-0.827-0.34-2.112-1.801-2.112
		c-1.315,0-1.891,1.211-1.994,2.112H405.546z"/>
	<path d="M408.416,379.853h1.299v10.487h-1.299V379.853z"/>
</g>
<g>
	<line fill="#93278F" x1="390.89" y1="538.393" x2="390.89" y2="578.387"/>
	<g>
		<polygon fill="#FF8CB7" points="386.13,538.393 386.13,553.693 386.13,555.613 377.736,555.613 390.891,578.387 404.044,555.613 
			395.651,555.613 395.651,553.693 395.651,538.393 		"/>
	</g>
</g>
<g>
	<path d="M277.185,605.025v-0.863l1.104-1.073c2.657-2.528,3.857-3.874,3.874-5.442c0-1.057-0.513-2.032-2.065-2.032
		c-0.944,0-1.729,0.479-2.208,0.88l-0.449-0.992c0.721-0.608,1.745-1.057,2.945-1.057c2.241,0,3.186,1.537,3.186,3.025
		c0,1.921-1.393,3.474-3.586,5.586l-0.832,0.769v0.032h4.674v1.168H277.185z"/>
	<path d="M285.841,599.375c0-0.8-0.016-1.456-0.064-2.096h1.249l0.08,1.279h0.032c0.384-0.736,1.28-1.456,2.561-1.456
		c1.072,0,2.737,0.641,2.737,3.298v4.625h-1.409v-4.465c0-1.249-0.463-2.289-1.792-2.289c-0.929,0-1.649,0.656-1.89,1.44
		c-0.063,0.176-0.096,0.416-0.096,0.656v4.657h-1.408V599.375z"/>
	<path d="M301.412,593.661v9.364c0,0.688,0.016,1.473,0.064,2h-1.265l-0.063-1.344h-0.033c-0.432,0.864-1.376,1.521-2.641,1.521
		c-1.873,0-3.312-1.585-3.312-3.938c-0.017-2.576,1.584-4.161,3.473-4.161c1.185,0,1.984,0.561,2.337,1.185h0.032v-4.626H301.412z
		 M300.003,600.432c0-0.176-0.016-0.416-0.064-0.592c-0.207-0.896-0.977-1.633-2.033-1.633c-1.456,0-2.32,1.281-2.32,2.993
		c0,1.569,0.769,2.865,2.289,2.865c0.944,0,1.809-0.624,2.064-1.681c0.049-0.191,0.064-0.385,0.064-0.608V600.432z"/>
	<path d="M307.185,594.381c0.849-0.127,1.857-0.223,2.961-0.223c2.002,0,3.426,0.463,4.37,1.344c0.96,0.881,1.521,2.129,1.521,3.873
		c0,1.762-0.544,3.201-1.553,4.194c-1.008,1.009-2.673,1.553-4.77,1.553c-0.992,0-1.824-0.048-2.529-0.128V594.381z
		 M308.578,603.922c0.353,0.063,0.865,0.08,1.408,0.08c2.978,0,4.594-1.665,4.594-4.578c0.017-2.545-1.424-4.162-4.369-4.162
		c-0.721,0-1.265,0.064-1.633,0.145V603.922z"/>
	<path d="M318.641,601.408c0.032,1.904,1.249,2.689,2.657,2.689c1.008,0,1.617-0.176,2.145-0.4l0.24,1.008
		c-0.496,0.225-1.344,0.48-2.576,0.48c-2.386,0-3.811-1.568-3.811-3.905s1.377-4.178,3.634-4.178c2.528,0,3.201,2.226,3.201,3.649
		c0,0.288-0.032,0.512-0.048,0.656H318.641z M322.771,600.4c0.016-0.896-0.368-2.289-1.953-2.289c-1.424,0-2.049,1.312-2.16,2.289
		H322.771z"/>
	<path d="M325.873,593.661h1.409v11.364h-1.409V593.661z"/>
	<path d="M331.218,595.102c0.016,0.48-0.337,0.865-0.896,0.865c-0.496,0-0.85-0.385-0.85-0.865c0-0.496,0.369-0.88,0.881-0.88
		C330.881,594.222,331.218,594.605,331.218,595.102z M329.649,605.025v-7.746h1.409v7.746H329.649z"/>
	<path d="M333.937,597.279l1.521,4.354c0.256,0.704,0.464,1.344,0.624,1.984h0.049c0.176-0.641,0.399-1.28,0.656-1.984l1.504-4.354
		h1.473l-3.041,7.746h-1.345l-2.945-7.746H333.937z"/>
	<path d="M341.712,601.408c0.032,1.904,1.248,2.689,2.657,2.689c1.009,0,1.616-0.176,2.146-0.4l0.239,1.008
		c-0.496,0.225-1.345,0.48-2.577,0.48c-2.385,0-3.809-1.568-3.809-3.905s1.376-4.178,3.633-4.178c2.529,0,3.201,2.226,3.201,3.649
		c0,0.288-0.031,0.512-0.048,0.656H341.712z M345.842,600.4c0.017-0.896-0.368-2.289-1.952-2.289c-1.426,0-2.049,1.312-2.162,2.289
		H345.842z"/>
	<path d="M348.945,599.695c0-0.912-0.016-1.696-0.064-2.416h1.232l0.049,1.52h0.064c0.352-1.04,1.199-1.696,2.145-1.696
		c0.16,0,0.271,0.017,0.4,0.048v1.328c-0.145-0.031-0.289-0.047-0.48-0.047c-0.992,0-1.697,0.752-1.889,1.809
		c-0.032,0.191-0.064,0.416-0.064,0.656v4.129h-1.393V599.695z"/>
	<path d="M354.8,601.408c0.033,1.904,1.249,2.689,2.658,2.689c1.008,0,1.616-0.176,2.145-0.4l0.24,1.008
		c-0.496,0.225-1.345,0.48-2.577,0.48c-2.386,0-3.81-1.568-3.81-3.905s1.377-4.178,3.633-4.178c2.529,0,3.201,2.226,3.201,3.649
		c0,0.288-0.031,0.512-0.047,0.656H354.8z M358.931,600.4c0.016-0.896-0.369-2.289-1.953-2.289c-1.425,0-2.049,1.312-2.161,2.289
		H358.931z"/>
	<path d="M368.724,593.661v9.364c0,0.688,0.016,1.473,0.063,2h-1.265l-0.064-1.344h-0.031c-0.433,0.864-1.377,1.521-2.642,1.521
		c-1.872,0-3.313-1.585-3.313-3.938c-0.016-2.576,1.585-4.161,3.474-4.161c1.185,0,1.985,0.561,2.337,1.185h0.032v-4.626H368.724z
		 M367.315,600.432c0-0.176-0.017-0.416-0.063-0.592c-0.209-0.896-0.977-1.633-2.033-1.633c-1.457,0-2.321,1.281-2.321,2.993
		c0,1.569,0.769,2.865,2.289,2.865c0.944,0,1.809-0.624,2.065-1.681c0.047-0.191,0.063-0.385,0.063-0.608V600.432z"/>
	<path d="M277.681,613.582c0.705-0.145,1.713-0.225,2.674-0.225c1.488,0,2.448,0.272,3.121,0.881
		c0.544,0.48,0.848,1.217,0.848,2.049c0,1.424-0.896,2.369-2.033,2.753v0.048c0.833,0.288,1.329,1.057,1.586,2.177
		c0.352,1.505,0.607,2.546,0.832,2.962h-1.441c-0.176-0.305-0.416-1.232-0.72-2.578c-0.32-1.488-0.896-2.049-2.161-2.096h-1.312
		v4.674h-1.393V613.582z M279.074,618.496h1.425c1.489,0,2.433-0.816,2.433-2.049c0-1.393-1.008-2.001-2.48-2.018
		c-0.672,0-1.152,0.064-1.377,0.129V618.496z"/>
	<path d="M287.089,620.608c0.032,1.905,1.248,2.689,2.657,2.689c1.009,0,1.616-0.177,2.146-0.4l0.239,1.009
		c-0.496,0.224-1.345,0.48-2.577,0.48c-2.385,0-3.809-1.569-3.809-3.906s1.376-4.178,3.633-4.178c2.529,0,3.201,2.225,3.201,3.649
		c0,0.288-0.031,0.513-0.048,0.656H287.089z M291.219,619.6c0.017-0.896-0.368-2.289-1.952-2.289c-1.426,0-2.049,1.313-2.162,2.289
		H291.219z"/>
	<path d="M294.129,622.785c0.416,0.272,1.152,0.561,1.856,0.561c1.024,0,1.505-0.512,1.505-1.152c0-0.672-0.4-1.041-1.44-1.425
		c-1.393-0.496-2.049-1.265-2.049-2.192c0-1.249,1.008-2.273,2.673-2.273c0.784,0,1.473,0.225,1.905,0.48l-0.353,1.024
		c-0.304-0.192-0.864-0.448-1.585-0.448c-0.832,0-1.297,0.48-1.297,1.057c0,0.641,0.465,0.928,1.473,1.312
		c1.346,0.512,2.033,1.184,2.033,2.337c0,1.36-1.057,2.321-2.896,2.321c-0.85,0-1.633-0.209-2.178-0.529L294.129,622.785z"/>
	<path d="M307.14,622.113c0,0.801,0.016,1.504,0.064,2.113h-1.249l-0.08-1.266h-0.032c-0.368,0.625-1.185,1.441-2.561,1.441
		c-1.217,0-2.674-0.672-2.674-3.394v-4.53h1.408v4.29c0,1.473,0.449,2.466,1.729,2.466c0.944,0,1.601-0.656,1.856-1.281
		c0.08-0.208,0.129-0.465,0.129-0.721v-4.754h1.408V622.113z"/>
	<path d="M309.473,612.861h1.409v11.365h-1.409V612.861z"/>
	<path d="M314.946,614.254v2.225h2.017v1.072h-2.017v4.178c0,0.961,0.272,1.506,1.056,1.506c0.369,0,0.641-0.049,0.816-0.097
		l0.064,1.056c-0.271,0.113-0.704,0.193-1.248,0.193c-0.656,0-1.185-0.209-1.521-0.593c-0.399-0.416-0.543-1.104-0.543-2.017v-4.227
		h-1.201v-1.072h1.201v-1.856L314.946,614.254z"/>
	<path d="M321.792,622.529c0.624,0.385,1.537,0.705,2.497,0.705c1.425,0,2.257-0.753,2.257-1.842c0-1.008-0.576-1.584-2.033-2.145
		c-1.76-0.624-2.849-1.537-2.849-3.057c0-1.682,1.393-2.93,3.489-2.93c1.104,0,1.904,0.256,2.385,0.528l-0.384,1.136
		c-0.353-0.191-1.073-0.512-2.049-0.512c-1.473,0-2.032,0.881-2.032,1.617c0,1.008,0.656,1.504,2.145,2.08
		c1.824,0.705,2.753,1.585,2.753,3.17c0,1.664-1.233,3.105-3.778,3.105c-1.04,0-2.176-0.305-2.752-0.689L321.792,622.529z"/>
	<path d="M330.705,620.608c0.032,1.905,1.248,2.689,2.657,2.689c1.009,0,1.616-0.177,2.146-0.4l0.239,1.009
		c-0.496,0.224-1.345,0.48-2.577,0.48c-2.385,0-3.809-1.569-3.809-3.906s1.376-4.178,3.633-4.178c2.529,0,3.201,2.225,3.201,3.649
		c0,0.288-0.031,0.513-0.048,0.656H330.705z M334.834,619.6c0.017-0.896-0.368-2.289-1.952-2.289c-1.426,0-2.049,1.313-2.162,2.289
		H334.834z"/>
	<path d="M339.632,614.254v2.225h2.018v1.072h-2.018v4.178c0,0.961,0.272,1.506,1.057,1.506c0.368,0,0.641-0.049,0.816-0.097
		l0.064,1.056c-0.272,0.113-0.705,0.193-1.249,0.193c-0.656,0-1.185-0.209-1.521-0.593c-0.4-0.416-0.544-1.104-0.544-2.017v-4.227
		h-1.2v-1.072h1.2v-1.856L339.632,614.254z"/>
	<path d="M342.896,617.76c0-0.593,0.4-1.009,0.961-1.009c0.56,0,0.928,0.416,0.943,1.009c0,0.561-0.367,0.992-0.96,0.992
		C343.28,618.752,342.896,618.32,342.896,617.76z M342.896,623.41c0-0.593,0.4-1.009,0.961-1.009c0.56,0,0.928,0.416,0.943,1.009
		c0,0.561-0.367,0.992-0.96,0.992C343.28,624.402,342.896,623.971,342.896,623.41z"/>
</g>
<rect x="-93.868" y="250.666" fill="none" width="225.749" height="35.299"/>
<rect x="462.003" y="280.643" width="5.75" height="6"/>
<rect x="472.003" y="280.643" width="5.75" height="6"/>
<rect x="482.003" y="280.643" width="5.75" height="6"/>
<rect x="491.628" y="280.643" width="5.75" height="6"/>
<g>
	<path d="M28.524,31.244c1.16,0.667,2.9,1.247,4.728,1.247c2.292,0,3.568-1.073,3.568-2.668c0-1.479-0.986-2.35-3.481-3.249
		c-3.22-1.16-5.279-2.872-5.279-5.685c0-3.191,2.668-5.627,6.904-5.627c2.117,0,3.684,0.464,4.699,0.986l-0.871,2.872
		c-0.696-0.377-2.059-0.928-3.887-0.928c-2.263,0-3.249,1.218-3.249,2.35c0,1.508,1.131,2.205,3.742,3.22
		c3.394,1.276,5.047,2.988,5.047,5.801c0,3.133-2.379,5.859-7.426,5.859c-2.06,0-4.206-0.58-5.279-1.218L28.524,31.244z"/>
	<path d="M48.129,35.13L41.806,15.58h3.887l2.669,8.876c0.754,2.465,1.392,4.757,1.914,7.135h0.058
		c0.522-2.32,1.218-4.699,2.001-7.078l2.843-8.934h3.8L52.219,35.13H48.129z"/>
	<path d="M61.091,15.841c1.566-0.261,3.568-0.406,5.685-0.406c3.655,0,6.179,0.754,7.977,2.263c1.886,1.537,3.046,3.858,3.046,7.194
		c0,3.48-1.189,6.091-3.046,7.773c-1.943,1.77-5.047,2.669-8.847,2.669c-2.088,0-3.655-0.116-4.815-0.261V15.841z M64.659,32.404
		c0.493,0.087,1.247,0.087,1.972,0.087c4.641,0.029,7.397-2.523,7.397-7.484c0.029-4.322-2.465-6.788-6.933-6.788
		c-1.131,0-1.943,0.087-2.437,0.203V32.404z"/>
	<path d="M94.674,19.699v6.556h6.294v2.262h-6.294v6.614h-2.379v-6.614h-6.294v-2.262h6.294v-6.556H94.674z"/>
	<path d="M110.187,15.58h3.539v8.992h0.087c0.464-0.754,0.957-1.45,1.421-2.118l5.105-6.875h4.409l-6.729,8.325l7.165,11.226h-4.177
		l-5.54-8.963l-1.741,2.089v6.875h-3.539V15.58z"/>
	<path d="M127.064,35.13V15.58h4.061l5.047,8.383c1.306,2.175,2.437,4.438,3.336,6.555h0.058c-0.232-2.61-0.319-5.134-0.319-8.122
		V15.58h3.307V35.13h-3.684l-5.105-8.586c-1.248-2.146-2.553-4.554-3.51-6.759l-0.087,0.029c0.145,2.524,0.174,5.105,0.174,8.325
		v6.991H127.064z"/>
	<path d="M146.668,35.13V15.58h4.061l5.047,8.383c1.306,2.175,2.437,4.438,3.336,6.555h0.058c-0.232-2.61-0.319-5.134-0.319-8.122
		V15.58h3.307V35.13h-3.684l-5.105-8.586c-1.248-2.146-2.553-4.554-3.51-6.759l-0.087,0.029c0.145,2.524,0.174,5.105,0.174,8.325
		v6.991H146.668z"/>
	<path d="M172.274,15.841c1.334-0.232,3.336-0.406,5.395-0.406c2.814,0,4.729,0.464,6.034,1.566
		c1.073,0.899,1.682,2.263,1.682,3.916c0,2.523-1.711,4.235-3.539,4.902v0.087c1.392,0.522,2.233,1.885,2.727,3.771
		c0.609,2.437,1.131,4.699,1.538,5.453h-3.684c-0.29-0.58-0.754-2.175-1.305-4.612c-0.551-2.552-1.479-3.365-3.51-3.423h-1.799
		v8.035h-3.539V15.841z M175.813,24.485h2.118c2.408,0,3.916-1.276,3.916-3.22c0-2.146-1.508-3.133-3.829-3.133
		c-1.131,0-1.856,0.087-2.205,0.174V24.485z"/>
	<path d="M191.24,29.068c0.087,2.553,2.088,3.655,4.351,3.655c1.653,0,2.843-0.232,3.916-0.638l0.522,2.466
		c-1.218,0.493-2.9,0.87-4.931,0.87c-4.583,0-7.281-2.813-7.281-7.136c0-3.916,2.379-7.6,6.904-7.6c4.583,0,6.091,3.771,6.091,6.875
		c0,0.667-0.058,1.189-0.116,1.508H191.24z M197.448,26.573c0.029-1.305-0.551-3.452-2.93-3.452c-2.205,0-3.133,2.001-3.278,3.452
		H197.448z"/>
	<path d="M214.065,34.695c-0.754,0.348-2.233,0.725-4.003,0.725c-4.409,0-7.281-2.813-7.281-7.194c0-4.235,2.901-7.542,7.861-7.542
		c1.306,0,2.64,0.29,3.452,0.667l-0.638,2.668c-0.58-0.261-1.421-0.551-2.698-0.551c-2.727,0-4.351,2.001-4.322,4.583
		c0,2.9,1.886,4.554,4.322,4.554c1.247,0,2.118-0.261,2.813-0.551L214.065,34.695z"/>
	<path d="M229.871,27.937c0,5.192-3.655,7.513-7.252,7.513c-4.003,0-7.078-2.755-7.078-7.28c0-4.642,3.046-7.484,7.31-7.484
		C227.057,20.685,229.871,23.644,229.871,27.937z M219.225,28.082c0,2.727,1.334,4.786,3.51,4.786c2.03,0,3.452-2.001,3.452-4.844
		c0-2.204-0.986-4.728-3.423-4.728C220.24,23.295,219.225,25.732,219.225,28.082z"/>
	<path d="M232.796,25.21c0-1.625-0.029-2.988-0.116-4.206h3.075l0.145,2.088h0.087c0.696-1.102,1.972-2.407,4.351-2.407
		c1.856,0,3.307,1.044,3.916,2.61h0.058c0.493-0.783,1.073-1.363,1.74-1.77c0.783-0.551,1.683-0.841,2.843-0.841
		c2.35,0,4.728,1.595,4.728,6.12v8.325h-3.48v-7.803c0-2.35-0.812-3.742-2.524-3.742c-1.218,0-2.117,0.871-2.495,1.886
		c-0.087,0.348-0.174,0.783-0.174,1.189v8.47h-3.481v-8.18c0-1.972-0.783-3.365-2.437-3.365c-1.334,0-2.233,1.044-2.553,2.031
		c-0.145,0.348-0.203,0.754-0.203,1.16v8.354h-3.481V25.21z"/>
	<path d="M257.388,25.21c0-1.625-0.029-2.988-0.116-4.206h3.075l0.145,2.088h0.088c0.695-1.102,1.972-2.407,4.35-2.407
		c1.857,0,3.308,1.044,3.916,2.61h0.059c0.493-0.783,1.073-1.363,1.74-1.77c0.783-0.551,1.683-0.841,2.843-0.841
		c2.35,0,4.728,1.595,4.728,6.12v8.325h-3.48v-7.803c0-2.35-0.812-3.742-2.523-3.742c-1.219,0-2.117,0.871-2.494,1.886
		c-0.088,0.348-0.174,0.783-0.174,1.189v8.47h-3.481v-8.18c0-1.972-0.783-3.365-2.437-3.365c-1.334,0-2.233,1.044-2.553,2.031
		c-0.145,0.348-0.203,0.754-0.203,1.16v8.354h-3.48V25.21z"/>
	<path d="M284.503,29.068c0.087,2.553,2.088,3.655,4.352,3.655c1.652,0,2.842-0.232,3.916-0.638l0.521,2.466
		c-1.219,0.493-2.9,0.87-4.932,0.87c-4.582,0-7.28-2.813-7.28-7.136c0-3.916,2.379-7.6,6.903-7.6c4.584,0,6.092,3.771,6.092,6.875
		c0,0.667-0.059,1.189-0.115,1.508H284.503z M290.71,26.573c0.029-1.305-0.551-3.452-2.93-3.452c-2.204,0-3.133,2.001-3.277,3.452
		H290.71z"/>
	<path d="M296.943,25.21c0-1.625-0.027-2.988-0.115-4.206h3.133l0.174,2.118h0.088c0.609-1.103,2.146-2.437,4.496-2.437
		c2.465,0,5.018,1.595,5.018,6.062v8.383h-3.568v-7.977c0-2.03-0.754-3.568-2.697-3.568c-1.422,0-2.408,1.016-2.785,2.089
		c-0.115,0.319-0.145,0.754-0.145,1.16v8.296h-3.598V25.21z"/>
	<path d="M326.556,14.536v16.621c0,1.451,0.059,3.017,0.115,3.974h-3.189l-0.146-2.233h-0.057c-0.842,1.566-2.553,2.552-4.613,2.552
		c-3.365,0-6.033-2.872-6.033-7.223c-0.029-4.728,2.93-7.542,6.324-7.542c1.943,0,3.336,0.812,3.973,1.856h0.059v-8.006H326.556z
		 M322.988,26.893c0-0.29-0.029-0.638-0.086-0.928c-0.32-1.393-1.451-2.524-3.076-2.524c-2.291,0-3.568,2.031-3.568,4.67
		c0,2.582,1.277,4.467,3.539,4.467c1.451,0,2.727-0.986,3.076-2.523c0.086-0.319,0.115-0.667,0.115-1.044V26.893z"/>
	<path d="M338.328,35.13l-0.232-1.566h-0.086c-0.871,1.102-2.35,1.885-4.178,1.885c-2.842,0-4.438-2.059-4.438-4.206
		c0-3.568,3.162-5.367,8.383-5.337v-0.232c0-0.928-0.377-2.466-2.871-2.466c-1.393,0-2.844,0.435-3.801,1.044l-0.695-2.321
		c1.043-0.638,2.871-1.247,5.105-1.247c4.525,0,5.83,2.872,5.83,5.946v5.105c0,1.276,0.059,2.524,0.203,3.394H338.328z
		 M337.865,28.227c-2.523-0.058-4.932,0.493-4.932,2.64c0,1.393,0.898,2.031,2.029,2.031c1.422,0,2.467-0.928,2.785-1.944
		c0.088-0.261,0.117-0.551,0.117-0.783V28.227z"/>
	<path d="M349.029,16.972v4.032h3.393v2.669h-3.393v6.236c0,1.711,0.463,2.61,1.826,2.61c0.609,0,1.074-0.087,1.393-0.174
		l0.059,2.727c-0.523,0.203-1.451,0.348-2.582,0.348c-1.305,0-2.408-0.435-3.074-1.16c-0.754-0.812-1.104-2.088-1.104-3.945v-6.643
		h-2.029v-2.669h2.029v-3.191L349.029,16.972z"/>
	<path d="M358.917,17.059c0,1.073-0.783,1.915-2.031,1.915c-1.189,0-1.973-0.841-1.973-1.915c0-1.103,0.812-1.943,2.002-1.943
		C358.134,15.116,358.888,15.957,358.917,17.059z M355.117,35.13V21.004h3.598V35.13H355.117z"/>
	<path d="M375.97,27.937c0,5.192-3.654,7.513-7.252,7.513c-4.002,0-7.076-2.755-7.076-7.28c0-4.642,3.045-7.484,7.309-7.484
		C373.158,20.685,375.97,23.644,375.97,27.937z M365.326,28.082c0,2.727,1.334,4.786,3.51,4.786c2.029,0,3.451-2.001,3.451-4.844
		c0-2.204-0.986-4.728-3.422-4.728C366.341,23.295,365.326,25.732,365.326,28.082z"/>
	<path d="M378.896,25.21c0-1.625-0.029-2.988-0.115-4.206h3.133l0.174,2.118h0.086c0.609-1.103,2.146-2.437,4.496-2.437
		c2.467,0,5.018,1.595,5.018,6.062v8.383h-3.566v-7.977c0-2.03-0.754-3.568-2.697-3.568c-1.422,0-2.408,1.016-2.785,2.089
		c-0.117,0.319-0.145,0.754-0.145,1.16v8.296h-3.598V25.21z"/>
	<path d="M401.632,15.841c1.275-0.232,3.045-0.406,5.453-0.406c2.609,0,4.525,0.551,5.771,1.596c1.16,0.957,1.914,2.494,1.914,4.322
		c0,1.856-0.58,3.394-1.682,4.438c-1.422,1.421-3.654,2.088-6.178,2.088c-0.668,0-1.277-0.029-1.74-0.116v7.368h-3.539V15.841z
		 M405.171,24.949c0.434,0.116,1.014,0.145,1.74,0.145c2.668,0,4.293-1.305,4.293-3.597c0-2.175-1.51-3.336-3.975-3.336
		c-0.986,0-1.682,0.087-2.059,0.174V24.949z"/>
	<path d="M417.349,25.558c0-1.915-0.027-3.278-0.115-4.554h3.104l0.117,2.698h0.115c0.695-2.001,2.35-3.017,3.857-3.017
		c0.348,0,0.551,0.029,0.842,0.087v3.365c-0.291-0.058-0.609-0.116-1.045-0.116c-1.711,0-2.871,1.103-3.189,2.698
		c-0.059,0.319-0.117,0.696-0.117,1.103v7.31h-3.568V25.558z"/>
	<path d="M440.843,27.937c0,5.192-3.656,7.513-7.252,7.513c-4.004,0-7.078-2.755-7.078-7.28c0-4.642,3.045-7.484,7.311-7.484
		C438.029,20.685,440.843,23.644,440.843,27.937z M430.197,28.082c0,2.727,1.334,4.786,3.51,4.786c2.031,0,3.453-2.001,3.453-4.844
		c0-2.204-0.986-4.728-3.424-4.728C431.212,23.295,430.197,25.732,430.197,28.082z"/>
	<path d="M454.152,34.695c-0.754,0.348-2.232,0.725-4.002,0.725c-4.41,0-7.281-2.813-7.281-7.194c0-4.235,2.9-7.542,7.861-7.542
		c1.305,0,2.639,0.29,3.451,0.667l-0.639,2.668c-0.58-0.261-1.42-0.551-2.697-0.551c-2.727,0-4.352,2.001-4.322,4.583
		c0,2.9,1.887,4.554,4.322,4.554c1.248,0,2.117-0.261,2.814-0.551L454.152,34.695z"/>
	<path d="M459.052,29.068c0.086,2.553,2.088,3.655,4.35,3.655c1.654,0,2.844-0.232,3.916-0.638l0.523,2.466
		c-1.219,0.493-2.902,0.87-4.932,0.87c-4.584,0-7.281-2.813-7.281-7.136c0-3.916,2.379-7.6,6.904-7.6
		c4.582,0,6.092,3.771,6.092,6.875c0,0.667-0.059,1.189-0.117,1.508H459.052z M465.259,26.573c0.029-1.305-0.551-3.452-2.93-3.452
		c-2.205,0-3.133,2.001-3.277,3.452H465.259z"/>
	<path d="M471.318,31.853c0.812,0.493,2.35,1.015,3.625,1.015c1.566,0,2.264-0.638,2.264-1.566c0-0.957-0.58-1.45-2.32-2.059
		c-2.756-0.958-3.916-2.466-3.889-4.119c0-2.495,2.061-4.438,5.338-4.438c1.566,0,2.93,0.406,3.742,0.841l-0.695,2.524
		c-0.609-0.348-1.742-0.812-2.988-0.812c-1.277,0-1.973,0.609-1.973,1.479c0,0.899,0.668,1.334,2.465,1.973
		c2.553,0.928,3.742,2.233,3.771,4.322c0,2.553-2.002,4.409-5.744,4.409c-1.711,0-3.248-0.406-4.293-0.986L471.318,31.853z"/>
	<path d="M483.41,31.853c0.812,0.493,2.35,1.015,3.627,1.015c1.566,0,2.262-0.638,2.262-1.566c0-0.957-0.58-1.45-2.32-2.059
		c-2.756-0.958-3.916-2.466-3.887-4.119c0-2.495,2.059-4.438,5.338-4.438c1.566,0,2.93,0.406,3.742,0.841l-0.697,2.524
		c-0.609-0.348-1.74-0.812-2.988-0.812c-1.275,0-1.973,0.609-1.973,1.479c0,0.899,0.668,1.334,2.467,1.973
		c2.553,0.928,3.742,2.233,3.771,4.322c0,2.553-2.002,4.409-5.744,4.409c-1.711,0-3.248-0.406-4.293-0.986L483.41,31.853z"/>
	<path d="M105.258,50.379v11.4c0,3.829,1.596,5.598,4.003,5.598c2.582,0,4.119-1.77,4.119-5.598v-11.4h3.568v11.168
		c0,6.033-3.104,8.702-7.803,8.702c-4.525,0-7.455-2.523-7.455-8.673V50.379H105.258z"/>
	<path d="M120.423,66.652c0.812,0.493,2.35,1.015,3.626,1.015c1.566,0,2.263-0.638,2.263-1.566c0-0.957-0.58-1.45-2.321-2.059
		c-2.755-0.958-3.916-2.466-3.887-4.119c0-2.495,2.06-4.438,5.337-4.438c1.566,0,2.93,0.406,3.742,0.841l-0.696,2.524
		c-0.609-0.348-1.74-0.812-2.988-0.812c-1.276,0-1.972,0.609-1.972,1.479c0,0.899,0.667,1.334,2.465,1.973
		c2.553,0.928,3.742,2.233,3.771,4.322c0,2.553-2.001,4.409-5.743,4.409c-1.711,0-3.249-0.406-4.293-0.986L120.423,66.652z"/>
	<path d="M136.49,51.859c0,1.073-0.783,1.915-2.03,1.915c-1.189,0-1.973-0.841-1.973-1.915c0-1.103,0.812-1.943,2.001-1.943
		C135.707,49.916,136.461,50.756,136.49,51.859z M132.69,69.93V55.804h3.597V69.93H132.69z"/>
	<path d="M140.114,60.01c0-1.625-0.029-2.988-0.116-4.206h3.133l0.174,2.118h0.087c0.609-1.103,2.146-2.437,4.496-2.437
		c2.465,0,5.018,1.595,5.018,6.062v8.383h-3.568v-7.977c0-2.03-0.754-3.568-2.698-3.568c-1.421,0-2.407,1.016-2.785,2.089
		c-0.116,0.319-0.145,0.754-0.145,1.16v8.296h-3.597V60.01z"/>
	<path d="M169.61,55.804c-0.058,0.958-0.116,2.118-0.116,4.061v8.006c0,2.959-0.609,5.076-2.088,6.411
		c-1.479,1.305-3.51,1.711-5.454,1.711c-1.798,0-3.713-0.377-4.931-1.131l0.783-2.698c0.899,0.522,2.408,1.073,4.119,1.073
		c2.32,0,4.061-1.218,4.061-4.264v-1.218h-0.058c-0.812,1.247-2.263,2.088-4.119,2.088c-3.51,0-6.004-2.901-6.004-6.904
		c0-4.641,3.017-7.455,6.411-7.455c2.146,0,3.423,1.044,4.09,2.205h0.058l0.145-1.886H169.61z M165.926,61.46
		c0-0.319-0.029-0.667-0.116-0.957c-0.377-1.305-1.392-2.292-2.9-2.292c-2.001,0-3.481,1.74-3.481,4.612
		c0,2.408,1.218,4.351,3.452,4.351c1.334,0,2.495-0.87,2.901-2.146c0.087-0.377,0.145-0.87,0.145-1.276V61.46z"/>
	<path d="M190.402,61.257h-7.368V67h8.238v2.93h-11.806V50.379h11.371v2.93h-7.803v5.047h7.368V61.257z"/>
	<path d="M196.635,55.804l1.683,2.669c0.464,0.754,0.87,1.45,1.276,2.175h0.087c0.406-0.783,0.812-1.508,1.218-2.233l1.566-2.611
		h3.887l-4.728,6.788l4.815,7.339h-4.032l-1.74-2.813c-0.464-0.754-0.871-1.509-1.276-2.292h-0.058
		c-0.406,0.812-0.812,1.508-1.276,2.292l-1.625,2.813h-3.945l4.902-7.194l-4.729-6.933H196.635z"/>
	<path d="M208.582,60.503c0-1.856-0.058-3.365-0.116-4.699h3.133l0.174,2.176h0.058c1.044-1.596,2.698-2.495,4.844-2.495
		c3.249,0,5.946,2.785,5.946,7.193c0,5.105-3.22,7.571-6.439,7.571c-1.77,0-3.249-0.754-3.974-1.885h-0.058v7.31h-3.568V60.503z
		 M212.15,64.013c0,0.348,0.029,0.667,0.116,0.986c0.348,1.45,1.625,2.495,3.133,2.495c2.263,0,3.597-1.886,3.597-4.67
		c0-2.494-1.218-4.525-3.51-4.525c-1.479,0-2.842,1.073-3.19,2.64c-0.087,0.29-0.145,0.609-0.145,0.899V64.013z"/>
	<path d="M233.495,69.93l-0.232-1.566h-0.087c-0.871,1.102-2.35,1.885-4.177,1.885c-2.843,0-4.438-2.059-4.438-4.206
		c0-3.568,3.162-5.367,8.383-5.337v-0.232c0-0.928-0.377-2.466-2.872-2.466c-1.392,0-2.843,0.435-3.8,1.044l-0.696-2.321
		c1.044-0.638,2.872-1.247,5.105-1.247c4.525,0,5.83,2.872,5.83,5.946v5.105c0,1.276,0.058,2.524,0.203,3.394H233.495z
		 M233.031,63.026c-2.524-0.058-4.931,0.493-4.931,2.64c0,1.393,0.899,2.031,2.03,2.031c1.421,0,2.466-0.928,2.785-1.944
		c0.087-0.261,0.116-0.551,0.116-0.783V63.026z"/>
	<path d="M240.279,60.01c0-1.625-0.029-2.988-0.116-4.206h3.133l0.174,2.118h0.087c0.609-1.103,2.146-2.437,4.496-2.437
		c2.465,0,5.018,1.595,5.018,6.062v8.383h-3.568v-7.977c0-2.03-0.754-3.568-2.698-3.568c-1.421,0-2.408,1.016-2.785,2.089
		c-0.116,0.319-0.145,0.754-0.145,1.16v8.296h-3.597V60.01z"/>
	<path d="M269.89,49.335v16.621c0,1.451,0.059,3.017,0.117,3.974h-3.191l-0.145-2.233h-0.059c-0.841,1.566-2.553,2.552-4.611,2.552
		c-3.365,0-6.034-2.872-6.034-7.223c-0.028-4.728,2.93-7.542,6.323-7.542c1.943,0,3.336,0.812,3.975,1.856h0.058v-8.006H269.89z
		 M266.323,61.692c0-0.29-0.028-0.638-0.087-0.928c-0.318-1.393-1.45-2.524-3.074-2.524c-2.292,0-3.568,2.031-3.568,4.67
		c0,2.582,1.276,4.467,3.539,4.467c1.45,0,2.727-0.986,3.074-2.523c0.088-0.319,0.116-0.667,0.116-1.044V61.692z"/>
	<path d="M277.515,51.859c0,1.073-0.783,1.915-2.03,1.915c-1.189,0-1.973-0.841-1.973-1.915c0-1.103,0.812-1.943,2.001-1.943
		C276.732,49.916,277.486,50.756,277.515,51.859z M273.715,69.93V55.804h3.597V69.93H273.715z"/>
	<path d="M281.139,60.01c0-1.625-0.029-2.988-0.116-4.206h3.133l0.174,2.118h0.088c0.608-1.103,2.146-2.437,4.496-2.437
		c2.465,0,5.018,1.595,5.018,6.062v8.383h-3.568v-7.977c0-2.03-0.754-3.568-2.697-3.568c-1.422,0-2.408,1.016-2.785,2.089
		c-0.115,0.319-0.145,0.754-0.145,1.16v8.296h-3.597V60.01z"/>
	<path d="M310.634,55.804c-0.057,0.958-0.115,2.118-0.115,4.061v8.006c0,2.959-0.609,5.076-2.088,6.411
		c-1.48,1.305-3.51,1.711-5.453,1.711c-1.799,0-3.713-0.377-4.932-1.131l0.783-2.698c0.898,0.522,2.406,1.073,4.119,1.073
		c2.32,0,4.061-1.218,4.061-4.264v-1.218h-0.059c-0.812,1.247-2.262,2.088-4.119,2.088c-3.51,0-6.004-2.901-6.004-6.904
		c0-4.641,3.018-7.455,6.41-7.455c2.146,0,3.424,1.044,4.09,2.205h0.059l0.145-1.886H310.634z M306.951,61.46
		c0-0.319-0.029-0.667-0.115-0.957c-0.377-1.305-1.393-2.292-2.9-2.292c-2.002,0-3.482,1.74-3.482,4.612
		c0,2.408,1.219,4.351,3.453,4.351c1.334,0,2.494-0.87,2.9-2.146c0.088-0.377,0.145-0.87,0.145-1.276V61.46z"/>
	<path d="M322.611,69.93l-4.787-19.551h3.801l1.855,8.876c0.494,2.378,0.957,4.873,1.277,6.816h0.057
		c0.32-2.06,0.871-4.38,1.422-6.846l2.117-8.847h3.742l1.943,8.992c0.494,2.321,0.898,4.496,1.189,6.614h0.059
		c0.348-2.146,0.812-4.38,1.334-6.759l2.029-8.847h3.627l-5.25,19.551h-3.83l-2.029-9.195c-0.494-2.233-0.842-4.09-1.074-6.208
		h-0.057c-0.35,2.089-0.727,3.974-1.307,6.208l-2.262,9.195H322.611z"/>
	<path d="M347.666,51.859c0,1.073-0.783,1.915-2.031,1.915c-1.189,0-1.973-0.841-1.973-1.915c0-1.103,0.812-1.943,2.002-1.943
		C346.882,49.916,347.636,50.756,347.666,51.859z M343.865,69.93V55.804h3.598V69.93H343.865z"/>
	<path d="M351.289,60.01c0-1.625-0.027-2.988-0.115-4.206h3.133l0.174,2.118h0.088c0.609-1.103,2.146-2.437,4.496-2.437
		c2.465,0,5.018,1.595,5.018,6.062v8.383h-3.568v-7.977c0-2.03-0.754-3.568-2.697-3.568c-1.422,0-2.408,1.016-2.785,2.089
		c-0.115,0.319-0.145,0.754-0.145,1.16v8.296h-3.598V60.01z"/>
	<path d="M380.902,49.335v16.621c0,1.451,0.059,3.017,0.115,3.974h-3.189l-0.146-2.233h-0.057c-0.842,1.566-2.553,2.552-4.613,2.552
		c-3.365,0-6.033-2.872-6.033-7.223c-0.029-4.728,2.93-7.542,6.324-7.542c1.943,0,3.336,0.812,3.973,1.856h0.059v-8.006H380.902z
		 M377.333,61.692c0-0.29-0.029-0.638-0.086-0.928c-0.32-1.393-1.451-2.524-3.076-2.524c-2.291,0-3.568,2.031-3.568,4.67
		c0,2.582,1.277,4.467,3.539,4.467c1.451,0,2.727-0.986,3.076-2.523c0.086-0.319,0.115-0.667,0.115-1.044V61.692z"/>
	<path d="M398.156,62.736c0,5.192-3.654,7.513-7.252,7.513c-4.002,0-7.076-2.755-7.076-7.28c0-4.642,3.045-7.484,7.309-7.484
		C395.343,55.485,398.156,58.443,398.156,62.736z M387.511,62.881c0,2.727,1.334,4.786,3.51,4.786c2.029,0,3.451-2.001,3.451-4.844
		c0-2.204-0.986-4.728-3.422-4.728C388.527,58.095,387.511,60.532,387.511,62.881z"/>
	<path d="M402.996,55.804l1.48,6.411c0.318,1.508,0.639,3.046,0.898,4.583h0.059c0.291-1.537,0.754-3.104,1.16-4.554l1.828-6.439
		h2.9l1.77,6.266c0.436,1.653,0.812,3.191,1.131,4.728h0.059c0.232-1.537,0.551-3.075,0.928-4.728l1.566-6.266h3.51l-4.438,14.126
		h-3.307l-1.684-5.743c-0.436-1.479-0.754-2.814-1.072-4.525h-0.059c-0.289,1.741-0.668,3.133-1.072,4.525l-1.799,5.743h-3.336
		l-4.178-14.126H402.996z"/>
</g>
<path fill="#8CC63F" d="M86.303,468.892c0,0,0.012,0.346,0.036,1.017c0.021,0.671,0.041,1.668,0.196,2.955
	c0.268,2.568,0.913,6.362,2.703,10.865c1.819,4.474,4.864,9.621,9.543,14.471c4.651,4.857,10.879,9.407,18.393,12.864
	c7.5,3.472,16.267,5.844,25.709,6.673c9.425,0.741,19.596-0.023,29.492-3.095c9.868-3.019,19.594-8.276,27.156-16.15
	c3.725-3.956,6.917-8.508,9.087-13.562c2.236-5.022,3.335-10.537,3.361-16.037c-0.074-5.508-1.218-10.989-3.489-15.98
	c-2.206-5.019-5.422-9.521-9.161-13.425c-7.538-7.81-17.187-13.097-27.024-16.118c-9.862-3.079-19.987-3.916-29.414-3.215
	c-9.435,0.775-18.207,3.118-25.718,6.566c-7.526,3.438-13.733,8.021-18.386,12.871c-4.679,4.849-7.723,9.995-9.544,14.467
	c-1.792,4.503-2.439,8.294-2.708,10.864c-0.156,1.289-0.177,2.284-0.197,2.954C86.316,468.547,86.303,468.892,86.303,468.892z
	 M86.204,468.894c0,0,0.01-0.348,0.029-1.02c0.016-0.672,0.03-1.67,0.178-2.964c0.253-2.58,0.876-6.39,2.647-10.926
	c1.824-4.49,4.748-9.741,9.402-14.703c4.614-4.967,10.823-9.681,18.383-13.267c7.54-3.604,16.403-6.12,25.968-6.877
	c4.795-0.373,9.711-0.337,14.729,0.169c2.507,0.231,5.02,0.649,7.545,1.122c2.512,0.54,5.039,1.143,7.528,1.951
	c9.959,3.115,19.738,8.507,27.349,16.502c3.763,4.006,6.988,8.618,9.18,13.744c2.258,5.089,3.368,10.698,3.385,16.267
	c-0.064,5.576-1.22,11.152-3.513,16.21c-2.228,5.091-5.479,9.654-9.254,13.607c-1.912,1.958-3.934,3.789-6.057,5.477
	c-2.134,1.675-4.381,3.176-6.674,4.568c-4.632,2.706-9.505,4.876-14.487,6.425c-4.97,1.586-10.025,2.604-15.021,3.122
	c-5.002,0.53-9.92,0.589-14.703,0.241c-9.557-0.704-18.426-3.192-25.977-6.771c-7.573-3.566-13.761-8.314-18.376-13.274
	c-4.654-4.96-7.577-10.21-9.403-14.698c-1.772-4.535-2.397-8.343-2.651-10.925c-0.148-1.296-0.163-2.292-0.179-2.963
	C86.213,469.24,86.204,468.894,86.204,468.894z"/>
<path fill="#FF7BAC" d="M304.303,466.892c0,0,0.019,0.505,0.054,1.485c0.019,0.489,0.04,1.098,0.066,1.821
	c0.039,0.722,0.153,1.552,0.245,2.494c0.452,3.742,1.437,9.302,4.351,15.765c2.832,6.477,7.727,13.732,14.859,20.52
	c7.124,6.785,16.511,13.035,27.674,17.728c5.576,2.352,11.586,4.324,17.935,5.826c6.348,1.49,13.02,2.62,19.94,3.117
	c13.813,0.993,28.647-0.068,43.237-4.177c0.91-0.261,1.821-0.522,2.735-0.784c0.903-0.297,1.809-0.594,2.715-0.891
	c1.825-0.563,3.598-1.297,5.406-1.951c3.555-1.462,7.124-2.988,10.548-4.856c3.438-1.832,6.819-3.839,10.028-6.13
	c3.222-2.266,6.347-4.724,9.202-7.495c5.781-5.456,10.723-11.925,14.248-19.151c3.525-7.221,5.407-15.271,5.433-23.31
	c-0.073-8.084-2-16.072-5.559-23.268c-3.56-7.188-8.522-13.606-14.314-19.01c-2.87-2.732-5.959-5.21-9.171-7.471
	c-3.193-2.293-6.56-4.302-9.984-6.138c-3.41-1.873-6.968-3.405-10.512-4.873c-1.803-0.658-3.57-1.395-5.391-1.961
	c-0.904-0.299-1.807-0.598-2.708-0.896c-0.911-0.264-1.82-0.527-2.729-0.79c-14.561-4.139-29.364-5.231-43.18-4.271
	c-13.826,1.031-26.715,4.199-37.868,8.887c-11.16,4.686-20.561,10.916-27.675,17.71c-7.128,6.794-11.979,14.065-14.834,20.523
	c-2.924,6.453-3.918,12.008-4.377,15.75c-0.094,0.942-0.209,1.773-0.25,2.494c-0.027,0.723-0.051,1.33-0.069,1.819
	C304.323,466.388,304.303,466.892,304.303,466.892z M304.204,466.894c0,0,0.016-0.507,0.045-1.488c0.016-0.49,0.034-1.1,0.056-1.824
	c0.035-0.724,0.145-1.557,0.23-2.503c0.432-3.755,1.387-9.337,4.274-15.844c2.817-6.51,7.639-13.86,14.758-20.75
	c7.102-6.892,16.493-13.265,27.691-18.091c11.182-4.84,24.158-8.181,38.105-9.15c13.919-0.953,28.832,0.16,43.506,4.348
	c0.915,0.266,1.832,0.532,2.751,0.799c0.907,0.302,1.817,0.604,2.729,0.906c1.834,0.573,3.616,1.317,5.434,1.982
	c3.574,1.484,7.16,3.034,10.601,4.927c3.455,1.856,6.852,3.889,10.076,6.207c3.238,2.292,6.371,4.785,9.249,7.577
	c5.82,5.503,10.8,12.032,14.353,19.334c3.553,7.291,5.45,15.442,5.465,23.56c-0.062,8.162-2.005,16.252-5.591,23.518
	c-3.587,7.264-8.588,13.742-14.419,19.192c-2.893,2.753-5.989,5.266-9.218,7.553c-3.208,2.319-6.59,4.354-10.032,6.216
	c-3.427,1.896-7.001,3.452-10.563,4.942c-1.812,0.668-3.59,1.416-5.419,1.992c-0.909,0.305-1.817,0.608-2.723,0.912
	c-0.917,0.269-1.831,0.537-2.744,0.805c-7.308,2.131-14.71,3.438-22,4.144c-7.3,0.701-14.477,0.771-21.448,0.298
	c-13.94-0.929-26.918-4.261-38.098-9.092c-11.196-4.82-20.601-11.174-27.693-18.073c-7.113-6.897-11.892-14.264-14.732-20.755
	c-2.897-6.497-3.862-12.074-4.301-15.829c-0.088-0.946-0.198-1.78-0.234-2.503c-0.023-0.724-0.044-1.332-0.06-1.822
	C304.22,467.4,304.204,466.894,304.204,466.894z"/>
</svg>
