<?xml version="1.0" encoding="utf-8"?>
<!-- Generator: Adobe Illustrator 16.0.0, SVG Export Plug-In . SVG Version: 6.00 Build 0)  -->
<!DOCTYPE svg PUBLIC "-//W3C//DTD SVG 1.1//EN" "http://www.w3.org/Graphics/SVG/1.1/DTD/svg11.dtd">
<svg version="1.1" id="Layer_1" xmlns="http://www.w3.org/2000/svg" xmlns:xlink="http://www.w3.org/1999/xlink" x="0px" y="0px"
	 width="539.496px" height="86.555px" viewBox="0 0 539.496 86.555" enable-background="new 0 0 539.496 86.555"
	 xml:space="preserve">
<g>
	<g>
		<g>
			<polygon fill="#BF00BF" points="93.277,62.09 510.83,62.09 510.83,73.659 533.614,60.504 510.83,47.35 510.83,58.917 
				93.277,58.917 			"/>
		</g>
	</g>
</g>
<g>
	<g>
		<g>
			<polygon fill="#BF00BF" points="456.302,58.918 24.465,58.918 24.465,47.35 1.681,60.504 24.465,73.659 24.465,62.091 
				456.302,62.091 			"/>
		</g>
	</g>
</g>
<rect x="152.782" y="6.883" fill="none" width="237.814" height="39.496"/>
<text transform="matrix(1 0 0 1 173.3477 21.7927)" font-family="'MyriadPro-Regular'" font-size="21">Users Fantasy Fandom </text>
<circle fill="#1C75BC" cx="96.219" cy="60.084" r="12.185"/>
<circle fill="#1C75BC" cx="59.664" cy="59.664" r="12.185"/>
<circle fill="#1C75BC" cx="140.757" cy="60.924" r="12.185"/>
<circle fill="#1C75BC" cx="231.513" cy="61.765" r="12.185"/>
<circle fill="#1C75BC" cx="285.295" cy="61.765" r="12.185"/>
<circle fill="#1C75BC" cx="328.152" cy="62.605" r="12.185"/>
<circle fill="#1C75BC" cx="394.539" cy="60.605" r="12.185"/>
<circle fill="#1C75BC" cx="462.605" cy="60.445" r="12.185"/>
</svg>
