<?xml version="1.0" encoding="utf-8"?>
<!-- Generator: Adobe Illustrator 16.0.0, SVG Export Plug-In . SVG Version: 6.00 Build 0)  -->
<!DOCTYPE svg PUBLIC "-//W3C//DTD SVG 1.1//EN" "http://www.w3.org/Graphics/SVG/1.1/DTD/svg11.dtd">
<svg version="1.1" id="Layer_1" xmlns="http://www.w3.org/2000/svg" xmlns:xlink="http://www.w3.org/1999/xlink" x="0px" y="0px"
	 width="385.578px" height="131.179px" viewBox="0 0 385.578 131.179" enable-background="new 0 0 385.578 131.179"
	 xml:space="preserve">
<g>
	<g>
		<rect x="0.5" y="0.5" fill="#EE2A7B" width="64.271" height="65.63"/>
		<path fill="#FFFFFF" d="M65.271,66.63H0V0h65.271V66.63z M1,65.63h63.271V1H1V65.63z"/>
	</g>
	<g>
		<path d="M20.62,9.693c-0.242,0.121-0.725,0.241-1.344,0.241c-1.435,0-2.515-0.906-2.515-2.575c0-1.594,1.08-2.674,2.659-2.674
			c0.634,0,1.035,0.136,1.208,0.227l-0.159,0.536c-0.249-0.121-0.604-0.211-1.027-0.211c-1.193,0-1.986,0.763-1.986,2.1
			c0,1.246,0.718,2.047,1.956,2.047c0.4,0,0.809-0.083,1.073-0.212L20.62,9.693z"/>
		<path d="M24.649,8.001c0,1.353-0.937,1.941-1.82,1.941c-0.99,0-1.752-0.725-1.752-1.881c0-1.224,0.801-1.941,1.812-1.941
			C23.939,6.12,24.649,6.884,24.649,8.001z M21.749,8.039c0,0.801,0.46,1.405,1.11,1.405c0.635,0,1.11-0.597,1.11-1.42
			c0-0.62-0.31-1.405-1.095-1.405C22.089,6.619,21.749,7.344,21.749,8.039z"/>
		<path d="M25.49,7.193c0-0.378-0.007-0.688-0.03-0.989h0.589l0.038,0.604h0.015c0.181-0.347,0.604-0.688,1.208-0.688
			c0.506,0,1.292,0.303,1.292,1.557v2.183h-0.665V7.752c0-0.589-0.219-1.08-0.846-1.08c-0.438,0-0.778,0.31-0.892,0.68
			c-0.03,0.083-0.045,0.196-0.045,0.31v2.198H25.49V7.193z"/>
		<path d="M30.456,5.153v1.051h0.952V6.71h-0.952v1.971c0,0.453,0.128,0.71,0.499,0.71c0.174,0,0.302-0.022,0.385-0.045l0.03,0.499
			c-0.128,0.053-0.333,0.09-0.589,0.09c-0.31,0-0.559-0.098-0.717-0.279c-0.189-0.196-0.257-0.521-0.257-0.951V6.71h-0.567V6.204
			h0.567V5.327L30.456,5.153z"/>
		<path d="M34.181,9.859l-0.053-0.461h-0.023c-0.204,0.287-0.597,0.544-1.118,0.544c-0.74,0-1.118-0.521-1.118-1.05
			c0-0.884,0.786-1.367,2.198-1.359V7.457c0-0.302-0.083-0.846-0.831-0.846c-0.34,0-0.695,0.106-0.952,0.272l-0.151-0.438
			c0.302-0.196,0.74-0.325,1.201-0.325c1.118,0,1.39,0.764,1.39,1.496v1.367c0,0.317,0.015,0.627,0.06,0.876H34.181z M34.083,7.994
			c-0.725-0.016-1.548,0.113-1.548,0.823c0,0.431,0.287,0.634,0.627,0.634c0.476,0,0.778-0.302,0.883-0.611
			c0.023-0.068,0.038-0.144,0.038-0.212V7.994z"/>
		<path d="M36.54,5.177c0.008,0.227-0.159,0.407-0.423,0.407c-0.234,0-0.4-0.181-0.4-0.407c0-0.234,0.174-0.416,0.416-0.416
			C36.381,4.761,36.54,4.942,36.54,5.177z M35.799,9.859V6.204h0.665v3.655H35.799z"/>
		<path d="M37.568,7.193c0-0.378-0.007-0.688-0.03-0.989h0.589l0.038,0.604h0.015c0.181-0.347,0.604-0.688,1.208-0.688
			c0.506,0,1.292,0.303,1.292,1.557v2.183h-0.665V7.752c0-0.589-0.219-1.08-0.846-1.08c-0.438,0-0.778,0.31-0.892,0.68
			c-0.03,0.083-0.045,0.196-0.045,0.31v2.198h-0.665V7.193z"/>
		<path d="M42.133,8.152c0.015,0.898,0.589,1.269,1.254,1.269c0.476,0,0.763-0.083,1.012-0.188l0.113,0.476
			c-0.234,0.106-0.635,0.227-1.216,0.227c-1.125,0-1.797-0.74-1.797-1.843s0.649-1.972,1.714-1.972c1.193,0,1.511,1.051,1.511,1.723
			c0,0.136-0.015,0.241-0.022,0.31H42.133z M44.082,7.677c0.008-0.423-0.174-1.08-0.921-1.08c-0.672,0-0.967,0.619-1.02,1.08H44.082
			z"/>
		<path d="M45.549,7.344c0-0.43-0.007-0.8-0.03-1.14h0.582l0.023,0.717h0.03c0.166-0.49,0.566-0.801,1.012-0.801
			c0.075,0,0.128,0.008,0.188,0.023v0.627c-0.068-0.016-0.136-0.023-0.227-0.023c-0.468,0-0.8,0.355-0.891,0.854
			c-0.015,0.091-0.03,0.197-0.03,0.311v1.948h-0.657V7.344z"/>
	</g>
	<g>
		<path fill="#F1F2F2" d="M20.522,17.091c-0.046-0.853-0.1-1.876-0.091-2.638h-0.027c-0.208,0.716-0.462,1.478-0.771,2.32
			l-1.078,2.964h-0.599l-0.987-2.909c-0.29-0.861-0.535-1.65-0.707-2.375h-0.019c-0.018,0.762-0.063,1.785-0.118,2.701l-0.163,2.619
			H15.21l0.426-6.109h1.007l1.042,2.955c0.254,0.752,0.462,1.423,0.616,2.058h0.027c0.154-0.616,0.371-1.287,0.644-2.058
			l1.088-2.955h1.006l0.381,6.109h-0.771L20.522,17.091z"/>
		<path fill="#F1F2F2" d="M25.122,19.773l-0.063-0.553h-0.027c-0.244,0.345-0.716,0.652-1.341,0.652
			c-0.889,0-1.342-0.625-1.342-1.26c0-1.061,0.942-1.641,2.638-1.632v-0.09c0-0.363-0.1-1.016-0.997-1.016
			c-0.408,0-0.834,0.127-1.142,0.326l-0.182-0.525c0.362-0.235,0.889-0.39,1.441-0.39c1.341,0,1.667,0.915,1.667,1.794v1.641
			c0,0.381,0.019,0.753,0.073,1.052H25.122z M25.004,17.535c-0.87-0.019-1.858,0.136-1.858,0.987c0,0.517,0.345,0.762,0.752,0.762
			c0.571,0,0.934-0.362,1.061-0.734c0.027-0.082,0.046-0.172,0.046-0.254V17.535z"/>
		<path fill="#F1F2F2" d="M27.064,16.818c0-0.562-0.018-1.015-0.036-1.432h0.716l0.037,0.752h0.018
			c0.326-0.534,0.843-0.852,1.559-0.852c1.061,0,1.858,0.897,1.858,2.229c0,1.577-0.961,2.356-1.994,2.356
			c-0.58,0-1.088-0.254-1.351-0.688h-0.018v2.384h-0.789V16.818z M27.853,17.988c0,0.117,0.018,0.227,0.036,0.326
			c0.145,0.553,0.625,0.934,1.196,0.934c0.843,0,1.332-0.689,1.332-1.695c0-0.879-0.462-1.632-1.305-1.632
			c-0.544,0-1.052,0.391-1.206,0.988c-0.026,0.1-0.054,0.218-0.054,0.326V17.988z"/>
		<path fill="#F1F2F2" d="M34.963,14.335h-1.858v-0.671h4.523v0.671h-1.867v5.438h-0.798V14.335z"/>
		<path fill="#F1F2F2" d="M40.132,19.773l-0.063-0.553h-0.027c-0.245,0.345-0.716,0.652-1.342,0.652
			c-0.888,0-1.341-0.625-1.341-1.26c0-1.061,0.942-1.641,2.637-1.632v-0.09c0-0.363-0.1-1.016-0.996-1.016
			c-0.408,0-0.834,0.127-1.143,0.326l-0.182-0.525c0.363-0.235,0.889-0.39,1.441-0.39c1.342,0,1.668,0.915,1.668,1.794v1.641
			c0,0.381,0.018,0.753,0.072,1.052H40.132z M40.014,17.535c-0.87-0.019-1.858,0.136-1.858,0.987c0,0.517,0.345,0.762,0.753,0.762
			c0.57,0,0.934-0.362,1.061-0.734c0.026-0.082,0.045-0.172,0.045-0.254V17.535z"/>
		<path fill="#F1F2F2" d="M41.965,18.958c0.236,0.153,0.653,0.317,1.052,0.317c0.58,0,0.852-0.29,0.852-0.653
			c0-0.381-0.227-0.589-0.815-0.807c-0.788-0.28-1.16-0.716-1.16-1.241c0-0.707,0.571-1.287,1.514-1.287
			c0.444,0,0.834,0.127,1.079,0.271l-0.2,0.58c-0.172-0.108-0.489-0.254-0.896-0.254c-0.472,0-0.734,0.272-0.734,0.599
			c0,0.362,0.263,0.525,0.834,0.743c0.761,0.29,1.15,0.671,1.15,1.323c0,0.771-0.598,1.314-1.641,1.314
			c-0.479,0-0.924-0.118-1.232-0.299L41.965,18.958z"/>
		<path fill="#F1F2F2" d="M46.455,17.398h0.018c0.109-0.153,0.263-0.344,0.39-0.498l1.287-1.514h0.961l-1.694,1.804l1.93,2.583
			h-0.97l-1.514-2.103l-0.407,0.453v1.649h-0.789v-6.436h0.789V17.398z"/>
	</g>
	<g>
		<path fill="#FFFFFF" d="M16.192,34.751v0.589h-2.239v-0.589H16.192z"/>
		<path fill="#FFFFFF" d="M22.621,31.605v0.526l-2.565,5.365h-0.825l2.556-5.212v-0.018h-2.882v-0.662H22.621z"/>
		<path fill="#FFFFFF" d="M26.811,32.168c-0.163-0.01-0.372,0-0.598,0.036c-1.251,0.208-1.913,1.124-2.048,2.094h0.027
			c0.281-0.372,0.771-0.68,1.423-0.68c1.042,0,1.776,0.752,1.776,1.903c0,1.078-0.734,2.075-1.958,2.075
			c-1.26,0-2.084-0.979-2.084-2.511c0-1.16,0.417-2.075,0.997-2.655c0.489-0.48,1.142-0.779,1.885-0.87
			c0.236-0.036,0.435-0.046,0.58-0.046V32.168z M26.584,35.566c0-0.843-0.48-1.351-1.214-1.351c-0.48,0-0.925,0.299-1.142,0.726
			c-0.055,0.091-0.091,0.208-0.091,0.354c0.018,0.97,0.462,1.686,1.296,1.686C26.122,36.98,26.584,36.409,26.584,35.566z"/>
		<path fill="#FFFFFF" d="M28.028,36.002c0-0.743,0.444-1.27,1.169-1.577l-0.009-0.027c-0.653-0.309-0.934-0.816-0.934-1.323
			c0-0.934,0.789-1.568,1.822-1.568c1.142,0,1.713,0.716,1.713,1.45c0,0.499-0.245,1.033-0.97,1.378v0.027
			c0.734,0.29,1.188,0.807,1.188,1.522c0,1.024-0.879,1.713-2.003,1.713C28.771,37.597,28.028,36.862,28.028,36.002z M31.201,35.965
			c0-0.716-0.499-1.06-1.296-1.286c-0.689,0.199-1.061,0.652-1.061,1.214c-0.027,0.599,0.426,1.124,1.179,1.124
			C30.738,37.017,31.201,36.572,31.201,35.965z M29.007,33.02c0,0.589,0.444,0.906,1.124,1.088c0.508-0.173,0.897-0.535,0.897-1.069
			c0-0.472-0.281-0.961-0.997-0.961C29.37,32.077,29.007,32.512,29.007,33.02z"/>
		<path fill="#FFFFFF" d="M38.182,34.814c-0.045-0.853-0.1-1.876-0.09-2.638h-0.027c-0.208,0.716-0.462,1.478-0.771,2.32
			l-1.079,2.964h-0.598l-0.988-2.909c-0.29-0.861-0.535-1.65-0.707-2.375h-0.018c-0.018,0.762-0.063,1.785-0.118,2.701l-0.163,2.619
			h-0.752l0.426-6.109h1.006l1.042,2.955c0.254,0.752,0.462,1.423,0.616,2.058h0.027c0.154-0.616,0.372-1.287,0.644-2.058
			l1.088-2.955h1.006l0.381,6.109h-0.771L38.182,34.814z"/>
		<path fill="#FFFFFF" d="M40.326,31.47c0.344-0.072,0.888-0.127,1.441-0.127c0.789,0,1.296,0.136,1.677,0.444
			c0.317,0.235,0.508,0.598,0.508,1.078c0,0.59-0.39,1.106-1.033,1.342v0.018c0.58,0.146,1.26,0.626,1.26,1.532
			c0,0.525-0.208,0.925-0.517,1.224c-0.426,0.39-1.115,0.571-2.112,0.571c-0.544,0-0.961-0.036-1.224-0.073V31.47z M41.115,33.972
			h0.716c0.834,0,1.323-0.436,1.323-1.024c0-0.716-0.544-0.997-1.341-0.997c-0.363,0-0.571,0.027-0.698,0.055V33.972z
			 M41.115,36.898c0.154,0.027,0.38,0.037,0.662,0.037c0.815,0,1.568-0.3,1.568-1.188c0-0.834-0.716-1.179-1.577-1.179h-0.652
			V36.898z"/>
		<path fill="#FFFFFF" d="M16.192,45.635v0.589h-2.239v-0.589H16.192z"/>
		<path fill="#FFFFFF" d="M20.527,43.232h-0.018l-1.024,0.553l-0.154-0.606l1.287-0.689h0.68v5.892h-0.771V43.232z"/>
		<path fill="#FFFFFF" d="M25.933,43.994l0.861,2.465c0.145,0.399,0.263,0.762,0.354,1.124h0.027c0.1-0.362,0.227-0.725,0.372-1.124
			l0.852-2.465h0.834l-1.722,4.387h-0.761l-1.668-4.387H25.933z"/>
		<path fill="#FFFFFF" d="M34.284,48.182c-0.29,0.145-0.87,0.29-1.613,0.29c-1.722,0-3.019-1.088-3.019-3.091
			c0-1.912,1.296-3.209,3.19-3.209c0.762,0,1.242,0.163,1.45,0.272l-0.19,0.644c-0.299-0.146-0.725-0.254-1.232-0.254
			c-1.432,0-2.384,0.915-2.384,2.52c0,1.495,0.861,2.456,2.348,2.456c0.48,0,0.97-0.1,1.287-0.254L34.284,48.182z"/>
		<path fill="#FFFFFF" d="M39.118,46.151c0,1.622-1.124,2.329-2.184,2.329c-1.188,0-2.103-0.87-2.103-2.257
			c0-1.469,0.961-2.329,2.175-2.329C38.266,43.895,39.118,44.81,39.118,46.151z M35.637,46.196c0,0.961,0.553,1.687,1.333,1.687
			c0.761,0,1.333-0.717,1.333-1.704c0-0.743-0.372-1.687-1.314-1.687C36.045,44.492,35.637,45.362,35.637,46.196z"/>
		<path fill="#FFFFFF" d="M40.127,45.362c0-0.517-0.009-0.96-0.036-1.368h0.698l0.027,0.861h0.036
			c0.199-0.59,0.68-0.961,1.214-0.961c0.091,0,0.154,0.009,0.227,0.027v0.752c-0.082-0.019-0.164-0.027-0.272-0.027
			c-0.562,0-0.961,0.426-1.07,1.024c-0.018,0.108-0.036,0.235-0.036,0.371v2.339h-0.789V45.362z"/>
		<path fill="#FFFFFF" d="M43.446,46.332c0.018,1.079,0.707,1.523,1.504,1.523c0.571,0,0.916-0.1,1.214-0.227l0.136,0.57
			c-0.281,0.127-0.761,0.272-1.459,0.272c-1.351,0-2.157-0.889-2.157-2.212s0.78-2.365,2.058-2.365c1.432,0,1.813,1.26,1.813,2.066
			c0,0.163-0.019,0.29-0.027,0.371H43.446z M45.785,45.762c0.009-0.508-0.208-1.296-1.106-1.296c-0.807,0-1.16,0.743-1.224,1.296
			H45.785z"/>
	</g>
</g>
<g>
	<g>
		<rect x="0.407" y="65.766" fill="#EE2A7B" width="64.272" height="65.63"/>
		<path fill="#FFFFFF" d="M65.179,131.896H-0.093v-66.63h65.272V131.896z M0.907,130.896h63.272v-64.63H0.907V130.896z"/>
	</g>
	<g>
		<path d="M20.527,74.958c-0.242,0.121-0.725,0.241-1.344,0.241c-1.435,0-2.515-0.906-2.515-2.575c0-1.594,1.08-2.674,2.659-2.674
			c0.634,0,1.035,0.136,1.208,0.227l-0.159,0.536c-0.249-0.121-0.604-0.211-1.027-0.211c-1.193,0-1.986,0.763-1.986,2.1
			c0,1.246,0.718,2.047,1.956,2.047c0.4,0,0.809-0.083,1.073-0.212L20.527,74.958z"/>
		<path d="M24.557,73.266c0,1.353-0.937,1.941-1.82,1.941c-0.99,0-1.752-0.725-1.752-1.881c0-1.224,0.801-1.941,1.812-1.941
			C23.846,71.385,24.557,72.148,24.557,73.266z M21.656,73.304c0,0.801,0.46,1.405,1.11,1.405c0.635,0,1.11-0.597,1.11-1.42
			c0-0.62-0.31-1.405-1.095-1.405C21.996,71.884,21.656,72.608,21.656,73.304z"/>
		<path d="M25.397,72.458c0-0.378-0.007-0.688-0.03-0.989h0.589l0.038,0.604h0.015c0.181-0.347,0.604-0.688,1.208-0.688
			c0.506,0,1.292,0.303,1.292,1.557v2.183h-0.665v-2.107c0-0.589-0.219-1.08-0.846-1.08c-0.438,0-0.778,0.31-0.892,0.68
			c-0.03,0.083-0.045,0.196-0.045,0.31v2.198h-0.665V72.458z"/>
		<path d="M30.363,70.418v1.051h0.952v0.506h-0.952v1.971c0,0.454,0.128,0.71,0.499,0.71c0.174,0,0.302-0.022,0.385-0.045
			l0.03,0.499c-0.128,0.053-0.333,0.09-0.589,0.09c-0.31,0-0.559-0.098-0.717-0.279c-0.189-0.196-0.257-0.521-0.257-0.951v-1.994
			h-0.567v-0.506h0.567v-0.877L30.363,70.418z"/>
		<path d="M34.088,75.124l-0.053-0.461h-0.023c-0.204,0.287-0.597,0.544-1.118,0.544c-0.74,0-1.118-0.521-1.118-1.05
			c0-0.884,0.786-1.367,2.198-1.359v-0.076c0-0.302-0.083-0.846-0.831-0.846c-0.34,0-0.695,0.105-0.952,0.272l-0.151-0.438
			c0.302-0.196,0.74-0.325,1.201-0.325c1.118,0,1.39,0.764,1.39,1.496v1.367c0,0.317,0.015,0.627,0.06,0.876H34.088z M33.99,73.259
			c-0.725-0.016-1.548,0.113-1.548,0.823c0,0.431,0.287,0.634,0.627,0.634c0.476,0,0.778-0.302,0.883-0.611
			c0.023-0.068,0.038-0.144,0.038-0.212V73.259z"/>
		<path d="M36.447,70.441c0.008,0.227-0.159,0.407-0.423,0.407c-0.234,0-0.4-0.181-0.4-0.407c0-0.234,0.174-0.416,0.416-0.416
			C36.288,70.025,36.447,70.207,36.447,70.441z M35.707,75.124v-3.655h0.665v3.655H35.707z"/>
		<path d="M37.475,72.458c0-0.378-0.007-0.688-0.03-0.989h0.589l0.038,0.604h0.015c0.181-0.347,0.604-0.688,1.208-0.688
			c0.506,0,1.292,0.303,1.292,1.557v2.183h-0.665v-2.107c0-0.589-0.219-1.08-0.846-1.08c-0.438,0-0.778,0.31-0.892,0.68
			c-0.03,0.083-0.045,0.196-0.045,0.31v2.198h-0.665V72.458z"/>
		<path d="M42.04,73.417c0.015,0.898,0.589,1.269,1.254,1.269c0.476,0,0.763-0.083,1.012-0.188l0.113,0.476
			c-0.234,0.106-0.635,0.227-1.216,0.227c-1.125,0-1.797-0.74-1.797-1.843s0.649-1.972,1.714-1.972c1.193,0,1.511,1.051,1.511,1.723
			c0,0.136-0.015,0.241-0.022,0.31H42.04z M43.989,72.941c0.008-0.423-0.174-1.08-0.921-1.08c-0.672,0-0.967,0.619-1.02,1.08H43.989
			z"/>
		<path d="M45.457,72.608c0-0.43-0.007-0.8-0.03-1.14h0.582l0.023,0.717h0.03c0.166-0.49,0.566-0.801,1.012-0.801
			c0.075,0,0.128,0.008,0.188,0.023v0.627c-0.068-0.016-0.136-0.023-0.227-0.023c-0.468,0-0.8,0.355-0.891,0.854
			c-0.015,0.091-0.03,0.197-0.03,0.311v1.948h-0.657V72.608z"/>
	</g>
	<g>
		<path fill="#F1F2F2" d="M20.429,82.356c-0.045-0.853-0.1-1.876-0.09-2.638h-0.027c-0.208,0.716-0.462,1.478-0.771,2.32
			l-1.079,2.964h-0.598l-0.988-2.909c-0.29-0.861-0.535-1.65-0.707-2.375h-0.018c-0.018,0.762-0.063,1.785-0.118,2.701l-0.163,2.619
			h-0.752l0.426-6.109h1.006l1.042,2.955c0.254,0.752,0.462,1.423,0.616,2.058h0.027c0.154-0.616,0.372-1.287,0.644-2.058
			l1.088-2.955h1.006l0.381,6.109h-0.771L20.429,82.356z"/>
		<path fill="#F1F2F2" d="M25.029,85.039l-0.063-0.553h-0.027c-0.245,0.345-0.716,0.652-1.341,0.652
			c-0.888,0-1.341-0.625-1.341-1.26c0-1.061,0.942-1.641,2.637-1.632v-0.09c0-0.363-0.1-1.016-0.997-1.016
			c-0.408,0-0.834,0.127-1.142,0.326l-0.182-0.525c0.363-0.235,0.888-0.39,1.441-0.39c1.341,0,1.667,0.915,1.667,1.794v1.641
			c0,0.381,0.018,0.753,0.073,1.052H25.029z M24.911,82.801c-0.87-0.019-1.858,0.136-1.858,0.987c0,0.517,0.345,0.762,0.752,0.762
			c0.571,0,0.934-0.362,1.061-0.734c0.027-0.082,0.045-0.172,0.045-0.254V82.801z"/>
		<path fill="#F1F2F2" d="M26.971,82.084c0-0.562-0.018-1.015-0.036-1.432h0.716l0.036,0.752h0.019
			c0.326-0.534,0.843-0.852,1.559-0.852c1.061,0,1.858,0.897,1.858,2.229c0,1.577-0.961,2.356-1.994,2.356
			c-0.58,0-1.088-0.254-1.351-0.688H27.76v2.384h-0.789V82.084z M27.76,83.254c0,0.117,0.018,0.227,0.036,0.326
			c0.145,0.553,0.625,0.934,1.197,0.934c0.843,0,1.332-0.689,1.332-1.695c0-0.879-0.462-1.632-1.305-1.632
			c-0.544,0-1.051,0.391-1.206,0.988c-0.027,0.1-0.054,0.218-0.054,0.326V83.254z"/>
		<path fill="#F1F2F2" d="M34.871,79.601h-1.858V78.93h4.523v0.671h-1.867v5.438h-0.797V79.601z"/>
		<path fill="#F1F2F2" d="M40.039,85.039l-0.063-0.553h-0.027c-0.245,0.345-0.716,0.652-1.341,0.652
			c-0.888,0-1.341-0.625-1.341-1.26c0-1.061,0.942-1.641,2.637-1.632v-0.09c0-0.363-0.1-1.016-0.997-1.016
			c-0.408,0-0.833,0.127-1.142,0.326l-0.182-0.525c0.363-0.235,0.889-0.39,1.441-0.39c1.341,0,1.667,0.915,1.667,1.794v1.641
			c0,0.381,0.018,0.753,0.073,1.052H40.039z M39.921,82.801c-0.87-0.019-1.858,0.136-1.858,0.987c0,0.517,0.345,0.762,0.752,0.762
			c0.571,0,0.934-0.362,1.061-0.734c0.027-0.082,0.045-0.172,0.045-0.254V82.801z"/>
		<path fill="#F1F2F2" d="M41.873,84.224c0.236,0.153,0.653,0.317,1.052,0.317c0.58,0,0.852-0.29,0.852-0.653
			c0-0.381-0.227-0.589-0.815-0.807c-0.789-0.28-1.16-0.716-1.16-1.241c0-0.707,0.571-1.287,1.514-1.287
			c0.444,0,0.834,0.127,1.079,0.271l-0.2,0.58c-0.172-0.108-0.489-0.254-0.897-0.254c-0.472,0-0.734,0.272-0.734,0.599
			c0,0.362,0.263,0.525,0.834,0.743c0.761,0.29,1.151,0.671,1.151,1.323c0,0.771-0.598,1.314-1.641,1.314
			c-0.48,0-0.924-0.118-1.232-0.299L41.873,84.224z"/>
		<path fill="#F1F2F2" d="M46.361,82.664h0.018c0.109-0.153,0.263-0.344,0.39-0.498l1.287-1.514h0.961l-1.695,1.804l1.93,2.583
			h-0.97l-1.514-2.103l-0.408,0.453v1.649h-0.789v-6.436h0.789V82.664z"/>
	</g>
	<g>
		<path fill="#FFFFFF" d="M16.099,100.017v0.589H13.86v-0.589H16.099z"/>
		<path fill="#FFFFFF" d="M22.528,96.871v0.526l-2.565,5.365h-0.825l2.556-5.212v-0.018h-2.882v-0.662H22.528z"/>
		<path fill="#FFFFFF" d="M26.718,97.434c-0.163-0.01-0.372,0-0.598,0.036c-1.251,0.208-1.913,1.124-2.048,2.094h0.027
			c0.281-0.372,0.771-0.68,1.423-0.68c1.042,0,1.776,0.752,1.776,1.903c0,1.078-0.734,2.075-1.958,2.075
			c-1.26,0-2.084-0.979-2.084-2.511c0-1.16,0.417-2.075,0.997-2.655c0.489-0.48,1.142-0.779,1.885-0.87
			c0.236-0.036,0.435-0.046,0.58-0.046V97.434z M26.492,100.832c0-0.843-0.48-1.351-1.214-1.351c-0.48,0-0.925,0.299-1.142,0.726
			c-0.055,0.091-0.091,0.208-0.091,0.354c0.018,0.97,0.462,1.686,1.296,1.686C26.029,102.246,26.492,101.675,26.492,100.832z"/>
		<path fill="#FFFFFF" d="M27.936,101.268c0-0.743,0.444-1.27,1.169-1.577l-0.009-0.027c-0.653-0.309-0.934-0.816-0.934-1.323
			c0-0.934,0.789-1.568,1.822-1.568c1.142,0,1.713,0.716,1.713,1.45c0,0.499-0.245,1.033-0.97,1.378v0.027
			c0.734,0.29,1.188,0.807,1.188,1.522c0,1.024-0.879,1.713-2.003,1.713C28.679,102.862,27.936,102.128,27.936,101.268z
			 M31.108,101.23c0-0.716-0.499-1.06-1.296-1.286c-0.689,0.199-1.061,0.652-1.061,1.214c-0.027,0.599,0.426,1.124,1.179,1.124
			C30.646,102.282,31.108,101.838,31.108,101.23z M28.915,98.285c0,0.589,0.444,0.906,1.124,1.088
			c0.508-0.173,0.897-0.535,0.897-1.069c0-0.472-0.281-0.961-0.997-0.961C29.277,97.343,28.915,97.777,28.915,98.285z"/>
		<path fill="#FFFFFF" d="M40.012,100.08c-0.045-0.853-0.1-1.876-0.09-2.638h-0.027c-0.208,0.716-0.462,1.478-0.771,2.32
			l-1.079,2.964h-0.598l-0.988-2.909c-0.29-0.861-0.535-1.65-0.707-2.375h-0.018c-0.018,0.762-0.063,1.785-0.118,2.701l-0.163,2.619
			h-0.752l0.426-6.109h1.006l1.042,2.955c0.254,0.752,0.462,1.423,0.616,2.058h0.027c0.154-0.616,0.372-1.287,0.644-2.058
			l1.088-2.955h1.006l0.381,6.109h-0.771L40.012,100.08z"/>
		<path fill="#FFFFFF" d="M42.156,96.735c0.344-0.072,0.888-0.127,1.441-0.127c0.789,0,1.296,0.136,1.677,0.444
			c0.317,0.235,0.508,0.598,0.508,1.078c0,0.59-0.39,1.106-1.033,1.342v0.018c0.58,0.146,1.26,0.626,1.26,1.532
			c0,0.525-0.208,0.925-0.517,1.224c-0.426,0.39-1.115,0.571-2.112,0.571c-0.544,0-0.961-0.036-1.224-0.073V96.735z M42.945,99.237
			h0.716c0.834,0,1.323-0.436,1.323-1.024c0-0.716-0.544-0.997-1.341-0.997c-0.363,0-0.571,0.027-0.698,0.055V99.237z
			 M42.945,102.164c0.154,0.027,0.38,0.037,0.662,0.037c0.815,0,1.568-0.3,1.568-1.188c0-0.834-0.716-1.179-1.577-1.179h-0.652
			V102.164z"/>
		<path fill="#FFFFFF" d="M16.099,110.9v0.589H13.86V110.9H16.099z"/>
		<path fill="#FFFFFF" d="M20.435,108.498h-0.018l-1.024,0.553l-0.154-0.606l1.287-0.689h0.68v5.892h-0.771V108.498z"/>
		<path fill="#FFFFFF" d="M25.84,109.26l0.861,2.465c0.145,0.399,0.263,0.762,0.354,1.124h0.027c0.1-0.362,0.227-0.725,0.372-1.124
			l0.852-2.465h0.834l-1.722,4.387h-0.761l-1.668-4.387H25.84z"/>
		<path fill="#FFFFFF" d="M34.191,113.447c-0.29,0.145-0.87,0.29-1.613,0.29c-1.722,0-3.019-1.088-3.019-3.091
			c0-1.912,1.296-3.209,3.19-3.209c0.762,0,1.242,0.163,1.45,0.272l-0.19,0.644c-0.299-0.146-0.725-0.254-1.232-0.254
			c-1.432,0-2.384,0.915-2.384,2.52c0,1.495,0.861,2.456,2.348,2.456c0.48,0,0.97-0.1,1.287-0.254L34.191,113.447z"/>
		<path fill="#FFFFFF" d="M39.025,111.417c0,1.622-1.124,2.329-2.184,2.329c-1.188,0-2.103-0.87-2.103-2.257
			c0-1.469,0.961-2.329,2.175-2.329C38.173,109.16,39.025,110.075,39.025,111.417z M35.544,111.462c0,0.961,0.553,1.687,1.333,1.687
			c0.761,0,1.333-0.717,1.333-1.704c0-0.743-0.372-1.687-1.314-1.687C35.953,109.758,35.544,110.628,35.544,111.462z"/>
		<path fill="#FFFFFF" d="M40.034,110.628c0-0.517-0.009-0.96-0.036-1.368h0.698l0.027,0.861h0.036
			c0.199-0.59,0.68-0.961,1.214-0.961c0.091,0,0.154,0.009,0.227,0.027v0.752c-0.082-0.019-0.164-0.027-0.272-0.027
			c-0.562,0-0.961,0.426-1.07,1.024c-0.018,0.108-0.036,0.235-0.036,0.371v2.339h-0.789V110.628z"/>
		<path fill="#FFFFFF" d="M43.354,111.598c0.018,1.079,0.707,1.523,1.504,1.523c0.571,0,0.916-0.1,1.214-0.227l0.136,0.57
			c-0.281,0.127-0.761,0.272-1.459,0.272c-1.351,0-2.157-0.889-2.157-2.212s0.78-2.365,2.058-2.365c1.432,0,1.813,1.26,1.813,2.066
			c0,0.163-0.019,0.29-0.027,0.371H43.354z M45.692,111.027c0.009-0.508-0.208-1.296-1.106-1.296c-0.807,0-1.16,0.743-1.224,1.296
			H45.692z"/>
	</g>
</g>
<g>
	<g>
		<rect x="64.324" y="0.683" fill="#EE2A7B" width="64.272" height="65.631"/>
		<path fill="#FFFFFF" d="M129.096,66.813H63.824V0.183h65.272V66.813z M64.824,65.813h63.272V1.183H64.824V65.813z"/>
	</g>
	<g>
		<path d="M84.361,10.042c-0.242,0.121-0.725,0.241-1.344,0.241c-1.435,0-2.515-0.906-2.515-2.575c0-1.594,1.08-2.674,2.659-2.674
			c0.634,0,1.035,0.136,1.208,0.227L84.21,5.796c-0.249-0.121-0.604-0.211-1.027-0.211c-1.193,0-1.986,0.763-1.986,2.1
			c0,1.246,0.718,2.047,1.956,2.047c0.4,0,0.809-0.083,1.073-0.212L84.361,10.042z"/>
		<path d="M88.39,8.349c0,1.353-0.937,1.941-1.82,1.941c-0.99,0-1.752-0.725-1.752-1.881c0-1.224,0.801-1.941,1.812-1.941
			C87.68,6.468,88.39,7.232,88.39,8.349z M85.49,8.387c0,0.801,0.46,1.405,1.11,1.405c0.635,0,1.11-0.597,1.11-1.42
			c0-0.62-0.31-1.405-1.095-1.405C85.83,6.967,85.49,7.692,85.49,8.387z"/>
		<path d="M89.231,7.542c0-0.378-0.007-0.688-0.03-0.989h0.589l0.038,0.604h0.015c0.181-0.347,0.604-0.688,1.208-0.688
			c0.506,0,1.292,0.303,1.292,1.557v2.183h-0.665V8.1c0-0.589-0.219-1.08-0.846-1.08c-0.438,0-0.778,0.31-0.892,0.68
			c-0.03,0.083-0.045,0.196-0.045,0.31v2.198h-0.665V7.542z"/>
		<path d="M94.196,5.501v1.051h0.952v0.506h-0.952v1.971c0,0.454,0.128,0.71,0.499,0.71c0.174,0,0.302-0.022,0.385-0.045l0.03,0.499
			c-0.128,0.053-0.333,0.09-0.589,0.09c-0.31,0-0.559-0.098-0.717-0.279c-0.189-0.196-0.257-0.521-0.257-0.951V7.058H92.98V6.552
			h0.567V5.675L94.196,5.501z"/>
		<path d="M97.921,10.208l-0.053-0.461h-0.023c-0.204,0.287-0.597,0.544-1.118,0.544c-0.74,0-1.118-0.521-1.118-1.05
			c0-0.884,0.786-1.367,2.198-1.359V7.805c0-0.302-0.083-0.846-0.831-0.846c-0.34,0-0.695,0.105-0.952,0.272l-0.151-0.438
			c0.302-0.196,0.74-0.325,1.201-0.325c1.118,0,1.39,0.764,1.39,1.496v1.367c0,0.317,0.015,0.627,0.06,0.876H97.921z M97.823,8.342
			c-0.725-0.016-1.548,0.113-1.548,0.823c0,0.431,0.287,0.634,0.627,0.634c0.476,0,0.778-0.302,0.883-0.611
			c0.023-0.068,0.038-0.144,0.038-0.212V8.342z"/>
		<path d="M100.28,5.525c0.008,0.227-0.159,0.407-0.423,0.407c-0.234,0-0.4-0.181-0.4-0.407c0-0.234,0.174-0.416,0.416-0.416
			C100.122,5.109,100.28,5.291,100.28,5.525z M99.54,10.208V6.552h0.665v3.655H99.54z"/>
		<path d="M101.309,7.542c0-0.378-0.007-0.688-0.03-0.989h0.589l0.038,0.604h0.015c0.181-0.347,0.604-0.688,1.208-0.688
			c0.506,0,1.292,0.303,1.292,1.557v2.183h-0.665V8.1c0-0.589-0.219-1.08-0.846-1.08c-0.438,0-0.778,0.31-0.892,0.68
			c-0.03,0.083-0.045,0.196-0.045,0.31v2.198h-0.665V7.542z"/>
		<path d="M105.874,8.5c0.015,0.898,0.589,1.269,1.254,1.269c0.476,0,0.763-0.083,1.012-0.188l0.113,0.476
			c-0.234,0.106-0.635,0.227-1.216,0.227c-1.125,0-1.797-0.74-1.797-1.843s0.649-1.972,1.714-1.972c1.193,0,1.511,1.051,1.511,1.723
			c0,0.136-0.015,0.241-0.022,0.31H105.874z M107.822,8.025c0.008-0.423-0.174-1.08-0.921-1.08c-0.672,0-0.967,0.619-1.02,1.08
			H107.822z"/>
		<path d="M109.29,7.692c0-0.43-0.007-0.8-0.03-1.14h0.582l0.023,0.717h0.03c0.166-0.49,0.566-0.801,1.012-0.801
			c0.075,0,0.128,0.008,0.188,0.023v0.627c-0.068-0.016-0.136-0.023-0.227-0.023c-0.468,0-0.8,0.355-0.891,0.854
			c-0.015,0.091-0.03,0.197-0.03,0.311v1.948h-0.657V7.692z"/>
	</g>
	<g>
		<path fill="#F1F2F2" d="M84.262,17.44c-0.045-0.853-0.1-1.876-0.09-2.638h-0.027c-0.208,0.716-0.462,1.478-0.771,2.32
			l-1.079,2.964h-0.598l-0.988-2.909c-0.29-0.861-0.535-1.65-0.707-2.375h-0.018c-0.018,0.762-0.063,1.785-0.118,2.701l-0.163,2.619
			h-0.752l0.426-6.109h1.006l1.042,2.955c0.254,0.752,0.462,1.423,0.616,2.058h0.027c0.154-0.616,0.372-1.287,0.644-2.058
			l1.088-2.955h1.006l0.381,6.109h-0.771L84.262,17.44z"/>
		<path fill="#F1F2F2" d="M88.862,20.123l-0.063-0.553h-0.027c-0.245,0.345-0.716,0.652-1.341,0.652
			c-0.888,0-1.341-0.625-1.341-1.26c0-1.061,0.942-1.641,2.637-1.632v-0.09c0-0.363-0.1-1.016-0.997-1.016
			c-0.408,0-0.834,0.127-1.142,0.326l-0.182-0.525c0.363-0.235,0.888-0.39,1.441-0.39c1.341,0,1.667,0.915,1.667,1.794v1.641
			c0,0.381,0.018,0.753,0.073,1.052H88.862z M88.744,17.884c-0.87-0.019-1.858,0.136-1.858,0.987c0,0.517,0.345,0.762,0.752,0.762
			c0.571,0,0.934-0.362,1.061-0.734c0.027-0.082,0.045-0.172,0.045-0.254V17.884z"/>
		<path fill="#F1F2F2" d="M90.805,17.167c0-0.562-0.018-1.015-0.036-1.432h0.716l0.036,0.752h0.019
			c0.326-0.534,0.843-0.852,1.559-0.852c1.061,0,1.858,0.897,1.858,2.229c0,1.577-0.961,2.356-1.994,2.356
			c-0.58,0-1.088-0.254-1.351-0.688h-0.018v2.384h-0.789V17.167z M91.593,18.337c0,0.117,0.018,0.227,0.036,0.326
			c0.145,0.553,0.625,0.934,1.197,0.934c0.843,0,1.332-0.689,1.332-1.695c0-0.879-0.462-1.632-1.305-1.632
			c-0.544,0-1.051,0.391-1.206,0.988c-0.027,0.1-0.054,0.218-0.054,0.326V18.337z"/>
		<path fill="#F1F2F2" d="M98.704,14.684h-1.858v-0.671h4.523v0.671h-1.867v5.438h-0.797V14.684z"/>
		<path fill="#F1F2F2" d="M103.873,20.123l-0.063-0.553h-0.027c-0.245,0.345-0.716,0.652-1.341,0.652
			c-0.888,0-1.341-0.625-1.341-1.26c0-1.061,0.942-1.641,2.637-1.632v-0.09c0-0.363-0.1-1.016-0.997-1.016
			c-0.408,0-0.833,0.127-1.142,0.326l-0.182-0.525c0.363-0.235,0.889-0.39,1.441-0.39c1.341,0,1.667,0.915,1.667,1.794v1.641
			c0,0.381,0.018,0.753,0.073,1.052H103.873z M103.755,17.884c-0.87-0.019-1.858,0.136-1.858,0.987c0,0.517,0.345,0.762,0.752,0.762
			c0.571,0,0.934-0.362,1.061-0.734c0.027-0.082,0.045-0.172,0.045-0.254V17.884z"/>
		<path fill="#F1F2F2" d="M105.706,19.307c0.236,0.153,0.653,0.317,1.052,0.317c0.58,0,0.852-0.29,0.852-0.653
			c0-0.381-0.227-0.589-0.815-0.807c-0.789-0.28-1.16-0.716-1.16-1.241c0-0.707,0.571-1.287,1.514-1.287
			c0.444,0,0.834,0.127,1.079,0.271l-0.2,0.58c-0.172-0.108-0.489-0.254-0.897-0.254c-0.472,0-0.734,0.272-0.734,0.599
			c0,0.362,0.263,0.525,0.834,0.743c0.761,0.29,1.151,0.671,1.151,1.323c0,0.771-0.598,1.314-1.641,1.314
			c-0.48,0-0.924-0.118-1.232-0.299L105.706,19.307z"/>
		<path fill="#F1F2F2" d="M110.195,17.748h0.018c0.109-0.153,0.263-0.344,0.39-0.498l1.287-1.514h0.961l-1.695,1.804l1.93,2.583
			h-0.97l-1.514-2.103l-0.408,0.453v1.649h-0.789v-6.436h0.789V17.748z"/>
	</g>
	<g>
		<path fill="#FFFFFF" d="M79.933,35.101v0.588h-2.239v-0.588H79.933z"/>
		<path fill="#FFFFFF" d="M86.362,31.954v0.527l-2.565,5.365h-0.825l2.556-5.213v-0.018h-2.882v-0.662H86.362z"/>
		<path fill="#FFFFFF" d="M90.552,32.517c-0.163-0.01-0.372,0-0.598,0.037c-1.251,0.207-1.913,1.123-2.048,2.094h0.027
			c0.281-0.373,0.771-0.68,1.423-0.68c1.042,0,1.776,0.752,1.776,1.902c0,1.078-0.734,2.076-1.958,2.076
			c-1.26,0-2.084-0.979-2.084-2.512c0-1.16,0.417-2.074,0.997-2.654c0.489-0.48,1.142-0.779,1.885-0.871
			c0.236-0.035,0.435-0.045,0.58-0.045V32.517z M90.325,35.915c0-0.842-0.48-1.35-1.214-1.35c-0.48,0-0.925,0.299-1.142,0.725
			c-0.055,0.092-0.091,0.209-0.091,0.354c0.018,0.971,0.462,1.686,1.296,1.686C89.863,37.329,90.325,36.759,90.325,35.915z"/>
		<path fill="#FFFFFF" d="M91.769,36.351c0-0.742,0.444-1.27,1.169-1.576l-0.009-0.027c-0.653-0.309-0.934-0.816-0.934-1.324
			c0-0.934,0.789-1.568,1.822-1.568c1.142,0,1.713,0.717,1.713,1.451c0,0.498-0.245,1.033-0.97,1.377v0.027
			c0.734,0.291,1.188,0.807,1.188,1.523c0,1.023-0.879,1.713-2.003,1.713C92.512,37.946,91.769,37.212,91.769,36.351z
			 M94.941,36.313c0-0.715-0.499-1.059-1.296-1.285c-0.689,0.199-1.061,0.652-1.061,1.213c-0.027,0.6,0.426,1.125,1.179,1.125
			C94.479,37.366,94.941,36.921,94.941,36.313z M92.748,33.368c0,0.59,0.444,0.906,1.124,1.088c0.508-0.172,0.897-0.535,0.897-1.068
			c0-0.473-0.281-0.961-0.997-0.961C93.11,32.427,92.748,32.86,92.748,33.368z"/>
		<path fill="#FFFFFF" d="M103.846,35.163c-0.045-0.852-0.1-1.875-0.09-2.637h-0.027c-0.208,0.715-0.462,1.477-0.771,2.32
			l-1.079,2.963h-0.598l-0.988-2.908c-0.29-0.861-0.535-1.65-0.707-2.375h-0.018c-0.018,0.762-0.063,1.785-0.118,2.701l-0.163,2.619
			h-0.752l0.426-6.109h1.006l1.042,2.955c0.254,0.752,0.462,1.422,0.616,2.057h0.027c0.154-0.615,0.372-1.287,0.644-2.057
			l1.088-2.955h1.006l0.381,6.109H104L103.846,35.163z"/>
		<path fill="#FFFFFF" d="M105.99,31.819c0.344-0.072,0.888-0.127,1.441-0.127c0.789,0,1.296,0.135,1.677,0.443
			c0.317,0.236,0.508,0.598,0.508,1.078c0,0.59-0.39,1.107-1.033,1.342v0.018c0.58,0.146,1.26,0.627,1.26,1.533
			c0,0.525-0.208,0.924-0.517,1.223c-0.426,0.391-1.115,0.572-2.112,0.572c-0.544,0-0.961-0.037-1.224-0.074V31.819z
			 M106.778,34.321h0.716c0.834,0,1.323-0.436,1.323-1.025c0-0.715-0.544-0.996-1.341-0.996c-0.363,0-0.571,0.027-0.698,0.055
			V34.321z M106.778,37.247c0.154,0.027,0.38,0.037,0.662,0.037c0.815,0,1.568-0.299,1.568-1.188c0-0.834-0.716-1.178-1.577-1.178
			h-0.652V37.247z"/>
		<path fill="#FFFFFF" d="M79.933,45.983v0.59h-2.239v-0.59H79.933z"/>
		<path fill="#FFFFFF" d="M84.268,43.581H84.25l-1.024,0.553l-0.154-0.605l1.287-0.689h0.68v5.891h-0.771V43.581z"/>
		<path fill="#FFFFFF" d="M89.674,44.343l0.861,2.465c0.145,0.4,0.263,0.762,0.354,1.125h0.027c0.1-0.363,0.227-0.725,0.372-1.125
			l0.852-2.465h0.834l-1.722,4.387H90.49l-1.668-4.387H89.674z"/>
		<path fill="#FFFFFF" d="M98.024,48.53c-0.29,0.145-0.87,0.291-1.613,0.291c-1.722,0-3.019-1.088-3.019-3.092
			c0-1.912,1.296-3.209,3.19-3.209c0.762,0,1.242,0.164,1.45,0.273l-0.19,0.643c-0.299-0.145-0.725-0.254-1.232-0.254
			c-1.432,0-2.384,0.916-2.384,2.52c0,1.496,0.861,2.457,2.348,2.457c0.48,0,0.97-0.1,1.287-0.254L98.024,48.53z"/>
		<path fill="#FFFFFF" d="M102.858,46.501c0,1.621-1.124,2.328-2.184,2.328c-1.188,0-2.103-0.869-2.103-2.256
			c0-1.469,0.961-2.33,2.175-2.33C102.007,44.243,102.858,45.159,102.858,46.501z M99.378,46.546c0,0.961,0.553,1.686,1.333,1.686
			c0.761,0,1.333-0.717,1.333-1.703c0-0.744-0.372-1.688-1.314-1.688C99.786,44.841,99.378,45.712,99.378,46.546z"/>
		<path fill="#FFFFFF" d="M103.868,45.712c0-0.518-0.009-0.961-0.036-1.369h0.698l0.027,0.861h0.036
			c0.199-0.59,0.68-0.961,1.214-0.961c0.091,0,0.154,0.01,0.227,0.027v0.752c-0.082-0.018-0.164-0.027-0.272-0.027
			c-0.562,0-0.961,0.426-1.07,1.025c-0.018,0.107-0.036,0.234-0.036,0.371v2.338h-0.789V45.712z"/>
		<path fill="#FFFFFF" d="M107.187,46.681c0.018,1.08,0.707,1.523,1.504,1.523c0.571,0,0.916-0.1,1.214-0.227l0.136,0.57
			c-0.281,0.127-0.761,0.273-1.459,0.273c-1.351,0-2.157-0.889-2.157-2.213c0-1.322,0.78-2.365,2.058-2.365
			c1.432,0,1.813,1.26,1.813,2.066c0,0.164-0.019,0.291-0.027,0.371H107.187z M109.525,46.11c0.009-0.508-0.208-1.295-1.106-1.295
			c-0.807,0-1.16,0.742-1.224,1.295H109.525z"/>
	</g>
</g>
<g>
	<g>
		<rect x="64.407" y="65.766" fill="#EE2A7B" width="64.272" height="65.63"/>
		<path fill="#FFFFFF" d="M129.179,131.896H63.907v-66.63h65.272V131.896z M64.907,130.896h63.272v-64.63H64.907V130.896z"/>
	</g>
	<g>
		<path d="M84.527,74.958c-0.242,0.121-0.725,0.241-1.344,0.241c-1.435,0-2.515-0.906-2.515-2.575c0-1.594,1.08-2.674,2.659-2.674
			c0.634,0,1.035,0.136,1.208,0.227l-0.159,0.536c-0.249-0.121-0.604-0.211-1.027-0.211c-1.193,0-1.986,0.763-1.986,2.1
			c0,1.246,0.718,2.047,1.956,2.047c0.4,0,0.809-0.083,1.073-0.212L84.527,74.958z"/>
		<path d="M88.557,73.266c0,1.353-0.937,1.941-1.82,1.941c-0.99,0-1.752-0.725-1.752-1.881c0-1.224,0.801-1.941,1.812-1.941
			C87.846,71.385,88.557,72.148,88.557,73.266z M85.656,73.304c0,0.801,0.46,1.405,1.11,1.405c0.635,0,1.11-0.597,1.11-1.42
			c0-0.62-0.31-1.405-1.095-1.405C85.996,71.884,85.656,72.608,85.656,73.304z"/>
		<path d="M89.397,72.458c0-0.378-0.007-0.688-0.03-0.989h0.589l0.038,0.604h0.015c0.181-0.347,0.604-0.688,1.208-0.688
			c0.506,0,1.292,0.303,1.292,1.557v2.183h-0.665v-2.107c0-0.589-0.219-1.08-0.846-1.08c-0.438,0-0.778,0.31-0.892,0.68
			c-0.03,0.083-0.045,0.196-0.045,0.31v2.198h-0.665V72.458z"/>
		<path d="M94.363,70.418v1.051h0.952v0.506h-0.952v1.971c0,0.454,0.128,0.71,0.499,0.71c0.174,0,0.302-0.022,0.385-0.045
			l0.03,0.499c-0.128,0.053-0.333,0.09-0.589,0.09c-0.31,0-0.559-0.098-0.717-0.279c-0.189-0.196-0.257-0.521-0.257-0.951v-1.994
			h-0.567v-0.506h0.567v-0.877L94.363,70.418z"/>
		<path d="M98.088,75.124l-0.053-0.461h-0.023c-0.204,0.287-0.597,0.544-1.118,0.544c-0.74,0-1.118-0.521-1.118-1.05
			c0-0.884,0.786-1.367,2.198-1.359v-0.076c0-0.302-0.083-0.846-0.831-0.846c-0.34,0-0.695,0.105-0.952,0.272l-0.151-0.438
			c0.302-0.196,0.74-0.325,1.201-0.325c1.118,0,1.39,0.764,1.39,1.496v1.367c0,0.317,0.015,0.627,0.06,0.876H98.088z M97.99,73.259
			c-0.725-0.016-1.548,0.113-1.548,0.823c0,0.431,0.287,0.634,0.627,0.634c0.476,0,0.778-0.302,0.883-0.611
			c0.023-0.068,0.038-0.144,0.038-0.212V73.259z"/>
		<path d="M100.447,70.441c0.008,0.227-0.159,0.407-0.423,0.407c-0.234,0-0.4-0.181-0.4-0.407c0-0.234,0.174-0.416,0.416-0.416
			C100.288,70.025,100.447,70.207,100.447,70.441z M99.707,75.124v-3.655h0.665v3.655H99.707z"/>
		<path d="M101.475,72.458c0-0.378-0.007-0.688-0.03-0.989h0.589l0.038,0.604h0.015c0.181-0.347,0.604-0.688,1.208-0.688
			c0.506,0,1.292,0.303,1.292,1.557v2.183h-0.665v-2.107c0-0.589-0.219-1.08-0.846-1.08c-0.438,0-0.778,0.31-0.892,0.68
			c-0.03,0.083-0.045,0.196-0.045,0.31v2.198h-0.665V72.458z"/>
		<path d="M106.04,73.417c0.015,0.898,0.589,1.269,1.254,1.269c0.476,0,0.763-0.083,1.012-0.188l0.113,0.476
			c-0.234,0.106-0.635,0.227-1.216,0.227c-1.125,0-1.797-0.74-1.797-1.843s0.649-1.972,1.714-1.972c1.193,0,1.511,1.051,1.511,1.723
			c0,0.136-0.015,0.241-0.022,0.31H106.04z M107.989,72.941c0.008-0.423-0.174-1.08-0.921-1.08c-0.672,0-0.967,0.619-1.02,1.08
			H107.989z"/>
		<path d="M109.457,72.608c0-0.43-0.007-0.8-0.03-1.14h0.582l0.023,0.717h0.03c0.166-0.49,0.566-0.801,1.012-0.801
			c0.075,0,0.128,0.008,0.188,0.023v0.627c-0.068-0.016-0.136-0.023-0.227-0.023c-0.468,0-0.8,0.355-0.891,0.854
			c-0.015,0.091-0.03,0.197-0.03,0.311v1.948h-0.657V72.608z"/>
	</g>
	<g>
		<path fill="#F1F2F2" d="M84.429,82.356c-0.045-0.853-0.1-1.876-0.09-2.638h-0.027c-0.208,0.716-0.462,1.478-0.771,2.32
			l-1.079,2.964h-0.598l-0.988-2.909c-0.29-0.861-0.535-1.65-0.707-2.375h-0.018c-0.018,0.762-0.063,1.785-0.118,2.701l-0.163,2.619
			h-0.752l0.426-6.109h1.006l1.042,2.955c0.254,0.752,0.462,1.423,0.616,2.058h0.027c0.154-0.616,0.372-1.287,0.644-2.058
			l1.088-2.955h1.006l0.381,6.109h-0.771L84.429,82.356z"/>
		<path fill="#F1F2F2" d="M89.029,85.039l-0.063-0.553h-0.027c-0.245,0.345-0.716,0.652-1.341,0.652
			c-0.888,0-1.341-0.625-1.341-1.26c0-1.061,0.942-1.641,2.637-1.632v-0.09c0-0.363-0.1-1.016-0.997-1.016
			c-0.408,0-0.834,0.127-1.142,0.326l-0.182-0.525c0.363-0.235,0.888-0.39,1.441-0.39c1.341,0,1.667,0.915,1.667,1.794v1.641
			c0,0.381,0.018,0.753,0.073,1.052H89.029z M88.911,82.801c-0.87-0.019-1.858,0.136-1.858,0.987c0,0.517,0.345,0.762,0.752,0.762
			c0.571,0,0.934-0.362,1.061-0.734c0.027-0.082,0.045-0.172,0.045-0.254V82.801z"/>
		<path fill="#F1F2F2" d="M90.971,82.084c0-0.562-0.018-1.015-0.036-1.432h0.716l0.036,0.752h0.019
			c0.326-0.534,0.843-0.852,1.559-0.852c1.061,0,1.858,0.897,1.858,2.229c0,1.577-0.961,2.356-1.994,2.356
			c-0.58,0-1.088-0.254-1.351-0.688H91.76v2.384h-0.789V82.084z M91.76,83.254c0,0.117,0.018,0.227,0.036,0.326
			c0.145,0.553,0.625,0.934,1.197,0.934c0.843,0,1.332-0.689,1.332-1.695c0-0.879-0.462-1.632-1.305-1.632
			c-0.544,0-1.051,0.391-1.206,0.988c-0.027,0.1-0.054,0.218-0.054,0.326V83.254z"/>
		<path fill="#F1F2F2" d="M98.871,79.601h-1.858V78.93h4.523v0.671h-1.867v5.438h-0.797V79.601z"/>
		<path fill="#F1F2F2" d="M104.039,85.039l-0.063-0.553h-0.027c-0.245,0.345-0.716,0.652-1.341,0.652
			c-0.888,0-1.341-0.625-1.341-1.26c0-1.061,0.942-1.641,2.637-1.632v-0.09c0-0.363-0.1-1.016-0.997-1.016
			c-0.408,0-0.833,0.127-1.142,0.326l-0.182-0.525c0.363-0.235,0.889-0.39,1.441-0.39c1.341,0,1.667,0.915,1.667,1.794v1.641
			c0,0.381,0.018,0.753,0.073,1.052H104.039z M103.921,82.801c-0.87-0.019-1.858,0.136-1.858,0.987c0,0.517,0.345,0.762,0.752,0.762
			c0.571,0,0.934-0.362,1.061-0.734c0.027-0.082,0.045-0.172,0.045-0.254V82.801z"/>
		<path fill="#F1F2F2" d="M105.873,84.224c0.236,0.153,0.653,0.317,1.052,0.317c0.58,0,0.852-0.29,0.852-0.653
			c0-0.381-0.227-0.589-0.815-0.807c-0.789-0.28-1.16-0.716-1.16-1.241c0-0.707,0.571-1.287,1.514-1.287
			c0.444,0,0.834,0.127,1.079,0.271l-0.2,0.58c-0.172-0.108-0.489-0.254-0.897-0.254c-0.472,0-0.734,0.272-0.734,0.599
			c0,0.362,0.263,0.525,0.834,0.743c0.761,0.29,1.151,0.671,1.151,1.323c0,0.771-0.598,1.314-1.641,1.314
			c-0.48,0-0.924-0.118-1.232-0.299L105.873,84.224z"/>
		<path fill="#F1F2F2" d="M110.361,82.664h0.018c0.109-0.153,0.263-0.344,0.39-0.498l1.287-1.514h0.961l-1.695,1.804l1.93,2.583
			h-0.97l-1.514-2.103l-0.408,0.453v1.649h-0.789v-6.436h0.789V82.664z"/>
	</g>
	<g>
		<path fill="#FFFFFF" d="M80.099,100.017v0.589H77.86v-0.589H80.099z"/>
		<path fill="#FFFFFF" d="M86.528,96.871v0.526l-2.565,5.365h-0.825l2.556-5.212v-0.018h-2.882v-0.662H86.528z"/>
		<path fill="#FFFFFF" d="M90.718,97.434c-0.163-0.01-0.372,0-0.598,0.036c-1.251,0.208-1.913,1.124-2.048,2.094h0.027
			c0.281-0.372,0.771-0.68,1.423-0.68c1.042,0,1.776,0.752,1.776,1.903c0,1.078-0.734,2.075-1.958,2.075
			c-1.26,0-2.084-0.979-2.084-2.511c0-1.16,0.417-2.075,0.997-2.655c0.489-0.48,1.142-0.779,1.885-0.87
			c0.236-0.036,0.435-0.046,0.58-0.046V97.434z M90.492,100.832c0-0.843-0.48-1.351-1.214-1.351c-0.48,0-0.925,0.299-1.142,0.726
			c-0.055,0.091-0.091,0.208-0.091,0.354c0.018,0.97,0.462,1.686,1.296,1.686C90.029,102.246,90.492,101.675,90.492,100.832z"/>
		<path fill="#FFFFFF" d="M91.936,101.268c0-0.743,0.444-1.27,1.169-1.577l-0.009-0.027c-0.653-0.309-0.934-0.816-0.934-1.323
			c0-0.934,0.789-1.568,1.822-1.568c1.142,0,1.713,0.716,1.713,1.45c0,0.499-0.245,1.033-0.97,1.378v0.027
			c0.734,0.29,1.188,0.807,1.188,1.522c0,1.024-0.879,1.713-2.003,1.713C92.679,102.862,91.936,102.128,91.936,101.268z
			 M95.108,101.23c0-0.716-0.499-1.06-1.296-1.286c-0.689,0.199-1.061,0.652-1.061,1.214c-0.027,0.599,0.426,1.124,1.179,1.124
			C94.646,102.282,95.108,101.838,95.108,101.23z M92.915,98.285c0,0.589,0.444,0.906,1.124,1.088
			c0.508-0.173,0.897-0.535,0.897-1.069c0-0.472-0.281-0.961-0.997-0.961C93.277,97.343,92.915,97.777,92.915,98.285z"/>
		<path fill="#FFFFFF" d="M104.012,100.08c-0.045-0.853-0.1-1.876-0.09-2.638h-0.027c-0.208,0.716-0.462,1.478-0.771,2.32
			l-1.079,2.964h-0.598l-0.988-2.909c-0.29-0.861-0.535-1.65-0.707-2.375h-0.018c-0.018,0.762-0.063,1.785-0.118,2.701l-0.163,2.619
			h-0.752l0.426-6.109h1.006l1.042,2.955c0.254,0.752,0.462,1.423,0.616,2.058h0.027c0.154-0.616,0.372-1.287,0.644-2.058
			l1.088-2.955h1.006l0.381,6.109h-0.771L104.012,100.08z"/>
		<path fill="#FFFFFF" d="M106.156,96.735c0.344-0.072,0.888-0.127,1.441-0.127c0.789,0,1.296,0.136,1.677,0.444
			c0.317,0.235,0.508,0.598,0.508,1.078c0,0.59-0.39,1.106-1.033,1.342v0.018c0.58,0.146,1.26,0.626,1.26,1.532
			c0,0.525-0.208,0.925-0.517,1.224c-0.426,0.39-1.115,0.571-2.112,0.571c-0.544,0-0.961-0.036-1.224-0.073V96.735z M106.945,99.237
			h0.716c0.834,0,1.323-0.436,1.323-1.024c0-0.716-0.544-0.997-1.341-0.997c-0.363,0-0.571,0.027-0.698,0.055V99.237z
			 M106.945,102.164c0.154,0.027,0.38,0.037,0.662,0.037c0.815,0,1.568-0.3,1.568-1.188c0-0.834-0.716-1.179-1.577-1.179h-0.652
			V102.164z"/>
		<path fill="#FFFFFF" d="M80.099,110.9v0.589H77.86V110.9H80.099z"/>
		<path fill="#FFFFFF" d="M84.435,108.498h-0.018l-1.024,0.553l-0.154-0.606l1.287-0.689h0.68v5.892h-0.771V108.498z"/>
		<path fill="#FFFFFF" d="M89.84,109.26l0.861,2.465c0.145,0.399,0.263,0.762,0.354,1.124h0.027c0.1-0.362,0.227-0.725,0.372-1.124
			l0.852-2.465h0.834l-1.722,4.387h-0.761l-1.668-4.387H89.84z"/>
		<path fill="#FFFFFF" d="M98.191,113.447c-0.29,0.145-0.87,0.29-1.613,0.29c-1.722,0-3.019-1.088-3.019-3.091
			c0-1.912,1.296-3.209,3.19-3.209c0.762,0,1.242,0.163,1.45,0.272l-0.19,0.644c-0.299-0.146-0.725-0.254-1.232-0.254
			c-1.432,0-2.384,0.915-2.384,2.52c0,1.495,0.861,2.456,2.348,2.456c0.48,0,0.97-0.1,1.287-0.254L98.191,113.447z"/>
		<path fill="#FFFFFF" d="M103.025,111.417c0,1.622-1.124,2.329-2.184,2.329c-1.188,0-2.103-0.87-2.103-2.257
			c0-1.469,0.961-2.329,2.175-2.329C102.173,109.16,103.025,110.075,103.025,111.417z M99.544,111.462
			c0,0.961,0.553,1.687,1.333,1.687c0.761,0,1.333-0.717,1.333-1.704c0-0.743-0.372-1.687-1.314-1.687
			C99.953,109.758,99.544,110.628,99.544,111.462z"/>
		<path fill="#FFFFFF" d="M104.034,110.628c0-0.517-0.009-0.96-0.036-1.368h0.698l0.027,0.861h0.036
			c0.199-0.59,0.68-0.961,1.214-0.961c0.091,0,0.154,0.009,0.227,0.027v0.752c-0.082-0.019-0.164-0.027-0.272-0.027
			c-0.562,0-0.961,0.426-1.07,1.024c-0.018,0.108-0.036,0.235-0.036,0.371v2.339h-0.789V110.628z"/>
		<path fill="#FFFFFF" d="M107.354,111.598c0.018,1.079,0.707,1.523,1.504,1.523c0.571,0,0.916-0.1,1.214-0.227l0.136,0.57
			c-0.281,0.127-0.761,0.272-1.459,0.272c-1.351,0-2.157-0.889-2.157-2.212s0.78-2.365,2.058-2.365c1.432,0,1.813,1.26,1.813,2.066
			c0,0.163-0.019,0.29-0.027,0.371H107.354z M109.692,111.027c0.009-0.508-0.208-1.296-1.106-1.296c-0.807,0-1.16,0.743-1.224,1.296
			H109.692z"/>
	</g>
</g>
<g>
	<g>
		<rect x="256.916" y="0.705" fill="#A7A9AC" width="64.272" height="130.38"/>
		<path fill="#FFFFFF" d="M321.688,131.585h-65.272V0.205h65.272V131.585z M257.416,130.585h63.272V1.205h-63.272V130.585z"/>
	</g>
	<g>
		<path d="M277.037,9.898c-0.242,0.121-0.726,0.241-1.345,0.241c-1.435,0-2.515-0.906-2.515-2.575c0-1.594,1.08-2.674,2.658-2.674
			c0.635,0,1.035,0.136,1.209,0.227l-0.159,0.536c-0.249-0.121-0.604-0.211-1.027-0.211c-1.193,0-1.986,0.763-1.986,2.1
			c0,1.246,0.718,2.047,1.956,2.047c0.4,0,0.809-0.083,1.072-0.212L277.037,9.898z"/>
		<path d="M281.066,8.206c0,1.353-0.938,1.941-1.82,1.941c-0.99,0-1.753-0.725-1.753-1.881c0-1.224,0.801-1.941,1.812-1.941
			C280.355,6.325,281.066,7.088,281.066,8.206z M278.166,8.244c0,0.801,0.46,1.405,1.109,1.405c0.635,0,1.11-0.597,1.11-1.42
			c0-0.62-0.31-1.405-1.095-1.405S278.166,7.548,278.166,8.244z"/>
		<path d="M281.906,7.398c0-0.378-0.007-0.688-0.029-0.989h0.589l0.038,0.604h0.015c0.181-0.347,0.604-0.688,1.208-0.688
			c0.507,0,1.292,0.303,1.292,1.557v2.183h-0.665V7.957c0-0.589-0.219-1.08-0.846-1.08c-0.438,0-0.777,0.31-0.891,0.68
			c-0.031,0.083-0.046,0.196-0.046,0.31v2.198h-0.665V7.398z"/>
		<path d="M286.872,5.358v1.051h0.952v0.506h-0.952v1.971c0,0.453,0.128,0.71,0.499,0.71c0.174,0,0.302-0.022,0.385-0.045
			l0.03,0.499c-0.128,0.053-0.333,0.09-0.589,0.09c-0.311,0-0.56-0.098-0.718-0.279c-0.188-0.196-0.257-0.521-0.257-0.951V6.915
			h-0.566V6.409h0.566V5.532L286.872,5.358z"/>
		<path d="M290.597,10.064l-0.053-0.461h-0.023c-0.204,0.287-0.597,0.544-1.117,0.544c-0.74,0-1.119-0.521-1.119-1.05
			c0-0.884,0.786-1.367,2.199-1.359V7.662c0-0.302-0.084-0.846-0.832-0.846c-0.34,0-0.694,0.106-0.951,0.272l-0.15-0.438
			c0.302-0.196,0.74-0.325,1.2-0.325c1.118,0,1.39,0.764,1.39,1.496v1.367c0,0.317,0.016,0.627,0.061,0.876H290.597z M290.499,8.199
			c-0.726-0.016-1.548,0.113-1.548,0.823c0,0.431,0.286,0.634,0.627,0.634c0.475,0,0.777-0.302,0.883-0.611
			c0.023-0.068,0.038-0.144,0.038-0.212V8.199z"/>
		<path d="M292.956,5.381c0.008,0.227-0.159,0.407-0.423,0.407c-0.234,0-0.4-0.181-0.4-0.407c0-0.234,0.174-0.416,0.416-0.416
			C292.796,4.965,292.956,5.147,292.956,5.381z M292.215,10.064V6.409h0.665v3.655H292.215z"/>
		<path d="M293.984,7.398c0-0.378-0.008-0.688-0.03-0.989h0.589l0.038,0.604h0.015c0.182-0.347,0.605-0.688,1.209-0.688
			c0.506,0,1.291,0.303,1.291,1.557v2.183h-0.664V7.957c0-0.589-0.219-1.08-0.846-1.08c-0.438,0-0.778,0.31-0.892,0.68
			c-0.03,0.083-0.046,0.196-0.046,0.31v2.198h-0.664V7.398z"/>
		<path d="M298.548,8.357c0.016,0.898,0.59,1.269,1.254,1.269c0.477,0,0.764-0.083,1.013-0.188l0.113,0.476
			c-0.234,0.106-0.635,0.227-1.216,0.227c-1.125,0-1.798-0.74-1.798-1.843s0.649-1.972,1.714-1.972c1.193,0,1.512,1.051,1.512,1.723
			c0,0.136-0.016,0.241-0.023,0.31H298.548z M300.498,7.881c0.008-0.423-0.174-1.08-0.922-1.08c-0.672,0-0.967,0.619-1.02,1.08
			H300.498z"/>
		<path d="M301.965,7.548c0-0.43-0.008-0.8-0.03-1.14h0.582l0.022,0.717h0.03c0.166-0.49,0.566-0.801,1.012-0.801
			c0.076,0,0.129,0.008,0.189,0.023v0.627c-0.068-0.016-0.137-0.023-0.227-0.023c-0.469,0-0.801,0.355-0.892,0.854
			c-0.016,0.091-0.03,0.197-0.03,0.311v1.948h-0.657V7.548z"/>
	</g>
	<g>
		<path fill="#FFFFFF" d="M272.608,34.956v0.588h-2.239v-0.588H272.608z"/>
		<path fill="#FFFFFF" d="M276.943,32.554h-0.018l-1.024,0.553l-0.154-0.607l1.287-0.689h0.681v5.893h-0.771V32.554z"/>
		<path fill="#FFFFFF" d="M283.381,32.481h-2.248l-0.227,1.514c0.136-0.02,0.263-0.037,0.48-0.037c0.453,0,0.906,0.1,1.269,0.318
			c0.463,0.262,0.844,0.77,0.844,1.514c0,1.15-0.916,2.012-2.193,2.012c-0.645,0-1.188-0.182-1.469-0.363l0.199-0.607
			c0.244,0.146,0.725,0.326,1.26,0.326c0.752,0,1.396-0.488,1.396-1.277c-0.01-0.762-0.518-1.305-1.695-1.305
			c-0.336,0-0.599,0.035-0.816,0.062l0.381-2.828h2.819V32.481z"/>
		<path fill="#FFFFFF" d="M284.707,36.786c0.227,0.145,0.753,0.371,1.306,0.371c1.024,0,1.341-0.652,1.333-1.141
			c-0.01-0.826-0.753-1.18-1.523-1.18h-0.443v-0.598h0.443c0.58,0,1.314-0.299,1.314-0.996c0-0.473-0.299-0.889-1.033-0.889
			c-0.472,0-0.925,0.209-1.178,0.389l-0.209-0.58c0.309-0.227,0.906-0.453,1.541-0.453c1.16,0,1.686,0.689,1.686,1.406
			c0,0.607-0.363,1.123-1.088,1.387v0.018c0.725,0.145,1.314,0.689,1.314,1.514c0,0.943-0.734,1.768-2.148,1.768
			c-0.661,0-1.241-0.209-1.531-0.398L284.707,36.786z"/>
		<path fill="#FFFFFF" d="M292.532,32.372c-0.163-0.01-0.372,0-0.599,0.037c-1.25,0.207-1.912,1.123-2.048,2.094h0.026
			c0.281-0.373,0.771-0.68,1.424-0.68c1.042,0,1.776,0.752,1.776,1.902c0,1.078-0.734,2.076-1.958,2.076
			c-1.26,0-2.084-0.979-2.084-2.512c0-1.16,0.416-2.074,0.996-2.654c0.49-0.48,1.143-0.779,1.886-0.871
			c0.235-0.035,0.435-0.045,0.58-0.045V32.372z M292.305,35.771c0-0.842-0.48-1.35-1.214-1.35c-0.48,0-0.926,0.299-1.143,0.725
			c-0.055,0.092-0.091,0.209-0.091,0.354c0.019,0.971,0.462,1.686,1.296,1.686C291.843,37.185,292.305,36.614,292.305,35.771z"/>
		<path fill="#FFFFFF" d="M301.173,35.019c-0.045-0.852-0.1-1.875-0.09-2.637h-0.027c-0.209,0.715-0.463,1.477-0.771,2.32
			l-1.078,2.963h-0.598l-0.988-2.908c-0.29-0.861-0.535-1.65-0.707-2.375h-0.018c-0.019,0.762-0.064,1.785-0.119,2.701l-0.162,2.619
			h-0.752l0.426-6.109h1.006l1.042,2.955c0.254,0.752,0.462,1.422,0.616,2.057h0.027c0.154-0.615,0.371-1.287,0.644-2.057
			l1.088-2.955h1.006l0.381,6.109h-0.771L301.173,35.019z"/>
		<path fill="#FFFFFF" d="M303.317,31.675c0.345-0.072,0.889-0.127,1.441-0.127c0.789,0,1.296,0.135,1.677,0.443
			c0.317,0.236,0.508,0.598,0.508,1.078c0,0.59-0.39,1.107-1.033,1.342v0.018c0.58,0.146,1.26,0.627,1.26,1.533
			c0,0.525-0.209,0.924-0.517,1.223c-0.426,0.391-1.115,0.572-2.112,0.572c-0.544,0-0.96-0.037-1.224-0.074V31.675z M304.106,34.177
			h0.716c0.834,0,1.323-0.436,1.323-1.025c0-0.715-0.544-0.996-1.341-0.996c-0.363,0-0.571,0.027-0.698,0.055V34.177z
			 M304.106,37.103c0.154,0.027,0.381,0.037,0.661,0.037c0.816,0,1.568-0.299,1.568-1.188c0-0.834-0.716-1.178-1.577-1.178h-0.652
			V37.103z"/>
		<path fill="#FFFFFF" d="M272.608,45.839v0.59h-2.239v-0.59H272.608z"/>
		<path fill="#FFFFFF" d="M276.943,43.437h-0.018l-1.024,0.553l-0.154-0.605l1.287-0.689h0.681v5.891h-0.771V43.437z"/>
		<path fill="#FFFFFF" d="M282.349,44.198l0.861,2.465c0.145,0.4,0.263,0.762,0.354,1.125h0.027c0.1-0.363,0.227-0.725,0.371-1.125
			l0.852-2.465h0.834l-1.722,4.387h-0.761l-1.668-4.387H282.349z"/>
		<path fill="#FFFFFF" d="M290.7,48.386c-0.29,0.145-0.87,0.291-1.613,0.291c-1.722,0-3.019-1.088-3.019-3.092
			c0-1.912,1.297-3.209,3.19-3.209c0.762,0,1.241,0.164,1.45,0.273l-0.19,0.643c-0.299-0.145-0.726-0.254-1.232-0.254
			c-1.433,0-2.384,0.916-2.384,2.52c0,1.496,0.861,2.457,2.348,2.457c0.48,0,0.97-0.1,1.287-0.254L290.7,48.386z"/>
		<path fill="#FFFFFF" d="M295.534,46.356c0,1.621-1.124,2.328-2.185,2.328c-1.188,0-2.103-0.869-2.103-2.256
			c0-1.469,0.961-2.33,2.175-2.33C294.682,44.099,295.534,45.015,295.534,46.356z M292.053,46.401c0,0.961,0.554,1.686,1.333,1.686
			c0.761,0,1.332-0.717,1.332-1.703c0-0.744-0.371-1.688-1.314-1.688C292.461,44.696,292.053,45.567,292.053,46.401z"/>
		<path fill="#FFFFFF" d="M296.542,45.567c0-0.518-0.009-0.961-0.035-1.369h0.697l0.027,0.861h0.036
			c0.199-0.59,0.68-0.961,1.214-0.961c0.092,0,0.154,0.01,0.228,0.027v0.752c-0.082-0.018-0.163-0.027-0.272-0.027
			c-0.562,0-0.961,0.426-1.069,1.025c-0.019,0.107-0.036,0.234-0.036,0.371v2.338h-0.789V45.567z"/>
		<path fill="#FFFFFF" d="M299.863,46.536c0.018,1.08,0.706,1.523,1.504,1.523c0.571,0,0.915-0.1,1.215-0.227l0.136,0.57
			c-0.281,0.127-0.762,0.273-1.46,0.273c-1.35,0-2.156-0.889-2.156-2.213c0-1.322,0.779-2.365,2.057-2.365
			c1.433,0,1.813,1.26,1.813,2.066c0,0.164-0.019,0.291-0.027,0.371H299.863z M302.201,45.966c0.009-0.508-0.209-1.295-1.105-1.295
			c-0.807,0-1.16,0.742-1.225,1.295H302.201z"/>
	</g>
	<g>
		<path fill="#F1F2F2" d="M268.278,18.057l-0.634,1.922h-0.816l2.076-6.109h0.951l2.084,6.109h-0.842l-0.652-1.922H268.278z
			 M270.281,17.44l-0.598-1.758c-0.137-0.399-0.227-0.762-0.317-1.115h-0.019c-0.09,0.362-0.189,0.734-0.309,1.105l-0.598,1.768
			H270.281z"/>
		<path fill="#F1F2F2" d="M272.787,17.023c0-0.562-0.019-1.015-0.037-1.432h0.717l0.035,0.752h0.02
			c0.326-0.534,0.842-0.852,1.559-0.852c1.061,0,1.857,0.897,1.857,2.229c0,1.577-0.961,2.356-1.994,2.356
			c-0.58,0-1.088-0.254-1.35-0.688h-0.019v2.384h-0.788V17.023z M273.575,18.193c0,0.117,0.019,0.227,0.036,0.326
			c0.145,0.553,0.625,0.934,1.197,0.934c0.842,0,1.332-0.689,1.332-1.695c0-0.879-0.463-1.632-1.306-1.632
			c-0.544,0-1.052,0.391-1.206,0.988c-0.026,0.1-0.054,0.218-0.054,0.326V18.193z"/>
		<path fill="#F1F2F2" d="M277.947,17.023c0-0.562-0.018-1.015-0.036-1.432h0.716l0.037,0.752h0.018
			c0.326-0.534,0.843-0.852,1.559-0.852c1.061,0,1.858,0.897,1.858,2.229c0,1.577-0.961,2.356-1.994,2.356
			c-0.58,0-1.088-0.254-1.351-0.688h-0.018v2.384h-0.789V17.023z M278.736,18.193c0,0.117,0.018,0.227,0.035,0.326
			c0.146,0.553,0.626,0.934,1.197,0.934c0.843,0,1.332-0.689,1.332-1.695c0-0.879-0.463-1.632-1.305-1.632
			c-0.545,0-1.052,0.391-1.206,0.988c-0.026,0.1-0.054,0.218-0.054,0.326V18.193z"/>
		<path fill="#F1F2F2" d="M290.206,17.296c-0.046-0.853-0.1-1.876-0.091-2.638h-0.027c-0.208,0.716-0.462,1.478-0.77,2.32
			l-1.079,2.964h-0.599l-0.987-2.909c-0.29-0.861-0.534-1.65-0.707-2.375h-0.019c-0.018,0.762-0.062,1.785-0.117,2.701l-0.164,2.619
			h-0.752l0.426-6.109h1.006l1.043,2.955c0.254,0.752,0.463,1.423,0.616,2.058h0.027c0.154-0.616,0.372-1.287,0.644-2.058
			l1.088-2.955h1.006l0.381,6.109h-0.771L290.206,17.296z"/>
		<path fill="#F1F2F2" d="M294.806,19.979l-0.063-0.553h-0.027c-0.245,0.345-0.716,0.652-1.341,0.652
			c-0.889,0-1.342-0.625-1.342-1.26c0-1.061,0.942-1.641,2.637-1.632v-0.09c0-0.363-0.1-1.016-0.996-1.016
			c-0.408,0-0.834,0.127-1.143,0.326l-0.182-0.525c0.363-0.235,0.889-0.39,1.441-0.39c1.342,0,1.668,0.915,1.668,1.794v1.641
			c0,0.381,0.018,0.753,0.072,1.052H294.806z M294.689,17.74c-0.871-0.019-1.859,0.136-1.859,0.987c0,0.517,0.346,0.762,0.753,0.762
			c0.571,0,0.934-0.362,1.061-0.734c0.026-0.082,0.046-0.172,0.046-0.254V17.74z"/>
		<path fill="#F1F2F2" d="M296.64,19.163c0.235,0.153,0.652,0.317,1.051,0.317c0.58,0,0.852-0.29,0.852-0.653
			c0-0.381-0.227-0.589-0.814-0.807c-0.789-0.28-1.16-0.716-1.16-1.241c0-0.707,0.57-1.287,1.514-1.287
			c0.443,0,0.834,0.127,1.078,0.271l-0.199,0.58c-0.172-0.108-0.49-0.254-0.898-0.254c-0.471,0-0.732,0.272-0.732,0.599
			c0,0.362,0.262,0.525,0.832,0.743c0.762,0.29,1.152,0.671,1.152,1.323c0,0.771-0.598,1.314-1.641,1.314
			c-0.48,0-0.925-0.118-1.232-0.299L296.64,19.163z"/>
		<path fill="#F1F2F2" d="M301.3,14.332v1.26h1.143v0.607H301.3v2.365c0,0.544,0.154,0.853,0.6,0.853
			c0.207,0,0.361-0.027,0.461-0.055l0.037,0.598c-0.154,0.063-0.398,0.109-0.707,0.109c-0.371,0-0.67-0.118-0.861-0.336
			c-0.227-0.235-0.309-0.625-0.309-1.142v-2.393h-0.68v-0.607h0.68V14.54L301.3,14.332z"/>
		<path fill="#F1F2F2" d="M303.732,17.93c0.018,1.079,0.707,1.523,1.504,1.523c0.572,0,0.916-0.1,1.215-0.227l0.137,0.57
			c-0.281,0.127-0.762,0.272-1.459,0.272c-1.352,0-2.158-0.889-2.158-2.212s0.779-2.365,2.059-2.365c1.432,0,1.812,1.26,1.812,2.066
			c0,0.163-0.02,0.29-0.027,0.371H303.732z M306.07,17.359c0.01-0.508-0.209-1.296-1.105-1.296c-0.807,0-1.16,0.743-1.223,1.296
			H306.07z"/>
		<path fill="#F1F2F2" d="M307.832,16.96c0-0.517-0.01-0.96-0.037-1.368h0.699l0.027,0.861h0.035c0.199-0.59,0.68-0.961,1.215-0.961
			c0.092,0,0.154,0.009,0.227,0.027v0.752c-0.082-0.019-0.162-0.027-0.271-0.027c-0.562,0-0.961,0.426-1.07,1.024
			c-0.018,0.108-0.035,0.235-0.035,0.371v2.339h-0.789V16.96z"/>
	</g>
</g>
<g>
	<g>
		<rect x="321.305" y="81.55" fill="#EF4136" width="64.272" height="49.629"/>
		<path fill="#FFFFFF" d="M386.078,131.679h-65.272V81.05h65.272V131.679z M321.805,130.679h63.272V82.05h-63.272V130.679z"/>
	</g>
	<g>
		<path d="M334.501,87.171c0,2.104-1.278,3.218-2.837,3.218c-1.613,0-2.747-1.251-2.747-3.1c0-1.939,1.206-3.209,2.838-3.209
			C333.423,84.08,334.501,85.358,334.501,87.171z M329.761,87.271c0,1.306,0.707,2.475,1.948,2.475c1.251,0,1.958-1.151,1.958-2.538
			c0-1.214-0.635-2.483-1.949-2.483C330.414,84.724,329.761,85.93,329.761,87.271z"/>
		<path d="M335.421,89.328c0.354,0.218,0.869,0.399,1.414,0.399c0.807,0,1.277-0.427,1.277-1.043c0-0.57-0.326-0.897-1.15-1.214
			c-0.998-0.354-1.614-0.87-1.614-1.731c0-0.952,0.788-1.659,1.976-1.659c0.626,0,1.079,0.146,1.352,0.3l-0.219,0.644
			c-0.199-0.109-0.606-0.29-1.16-0.29c-0.833,0-1.15,0.498-1.15,0.915c0,0.571,0.371,0.852,1.215,1.179
			c1.033,0.398,1.559,0.896,1.559,1.794c0,0.942-0.697,1.759-2.139,1.759c-0.59,0-1.232-0.173-1.559-0.39L335.421,89.328z"/>
		<path d="M344.226,85.467v2.13h2.049v0.544h-2.049v2.148h-0.58v-2.148h-2.049v-0.544h2.049v-2.13H344.226z"/>
		<path d="M350.041,84.18v2.557h2.955V84.18h0.797v6.109h-0.797v-2.864h-2.955v2.864h-0.789V84.18H350.041z"/>
		<path d="M357.567,90.289l-0.063-0.553h-0.027c-0.244,0.345-0.716,0.652-1.342,0.652c-0.888,0-1.341-0.625-1.341-1.26
			c0-1.061,0.942-1.641,2.638-1.632v-0.09c0-0.363-0.1-1.016-0.997-1.016c-0.408,0-0.834,0.127-1.142,0.326l-0.182-0.525
			c0.362-0.235,0.888-0.39,1.441-0.39c1.341,0,1.667,0.915,1.667,1.794v1.641c0,0.381,0.019,0.753,0.073,1.052H357.567z
			 M357.449,88.051c-0.87-0.019-1.857,0.136-1.857,0.987c0,0.517,0.344,0.762,0.752,0.762c0.57,0,0.934-0.362,1.061-0.734
			c0.027-0.082,0.045-0.172,0.045-0.254V88.051z"/>
		<path d="M363.298,83.854v5.303c0,0.39,0.009,0.834,0.035,1.133h-0.715l-0.037-0.762h-0.018c-0.245,0.49-0.779,0.861-1.496,0.861
			c-1.061,0-1.876-0.897-1.876-2.229c-0.009-1.459,0.897-2.356,1.967-2.356c0.671,0,1.124,0.317,1.323,0.671h0.019v-2.62H363.298z
			 M362.5,87.688c0-0.1-0.009-0.235-0.036-0.335c-0.118-0.508-0.553-0.925-1.151-0.925c-0.825,0-1.314,0.726-1.314,1.695
			c0,0.888,0.435,1.622,1.296,1.622c0.535,0,1.024-0.354,1.17-0.951c0.027-0.109,0.036-0.218,0.036-0.345V87.688z"/>
		<path d="M368.594,88.06c0,1.622-1.124,2.329-2.185,2.329c-1.188,0-2.103-0.87-2.103-2.257c0-1.469,0.961-2.329,2.175-2.329
			C367.743,85.803,368.594,86.718,368.594,88.06z M365.114,88.104c0,0.961,0.554,1.687,1.333,1.687c0.761,0,1.332-0.717,1.332-1.704
			c0-0.743-0.371-1.687-1.314-1.687C365.522,86.4,365.114,87.271,365.114,88.104z"/>
		<path d="M373.574,88.06c0,1.622-1.124,2.329-2.185,2.329c-1.188,0-2.103-0.87-2.103-2.257c0-1.469,0.961-2.329,2.175-2.329
			C372.722,85.803,373.574,86.718,373.574,88.06z M370.093,88.104c0,0.961,0.553,1.687,1.332,1.687c0.762,0,1.332-0.717,1.332-1.704
			c0-0.743-0.371-1.687-1.314-1.687C370.501,86.4,370.093,87.271,370.093,88.104z"/>
		<path d="M374.583,87.334c0-0.562-0.019-1.015-0.036-1.432h0.716l0.036,0.752h0.019c0.326-0.534,0.843-0.852,1.559-0.852
			c1.061,0,1.858,0.897,1.858,2.229c0,1.577-0.961,2.356-1.994,2.356c-0.58,0-1.088-0.254-1.351-0.688h-0.019v2.384h-0.788V87.334z
			 M375.371,88.504c0,0.117,0.019,0.227,0.037,0.326c0.145,0.553,0.625,0.934,1.196,0.934c0.843,0,1.332-0.689,1.332-1.695
			c0-0.879-0.462-1.632-1.306-1.632c-0.543,0-1.051,0.391-1.205,0.988c-0.027,0.1-0.055,0.218-0.055,0.326V88.504z"/>
	</g>
	<g>
		<path fill="#FFFFFF" d="M336.692,98.001v0.589h-2.239v-0.589H336.692z"/>
		<path fill="#FFFFFF" d="M342.813,95.526h-2.248l-0.227,1.514c0.136-0.019,0.263-0.036,0.48-0.036c0.453,0,0.906,0.1,1.269,0.317
			c0.463,0.263,0.844,0.771,0.844,1.514c0,1.15-0.916,2.012-2.193,2.012c-0.645,0-1.188-0.182-1.469-0.362l0.199-0.607
			c0.244,0.146,0.725,0.326,1.26,0.326c0.752,0,1.396-0.489,1.396-1.278c-0.01-0.761-0.518-1.305-1.695-1.305
			c-0.336,0-0.599,0.036-0.816,0.063l0.381-2.828h2.819V95.526z"/>
		<path fill="#FFFFFF" d="M345.679,95.599h-0.018l-1.024,0.553l-0.154-0.606l1.287-0.689h0.681v5.892h-0.771V95.599z"/>
		<path fill="#FFFFFF" d="M348.601,100.747v-0.489l0.625-0.607c1.505-1.432,2.185-2.193,2.193-3.082c0-0.598-0.29-1.15-1.169-1.15
			c-0.535,0-0.979,0.271-1.251,0.498l-0.254-0.562c0.408-0.345,0.988-0.599,1.668-0.599c1.27,0,1.804,0.87,1.804,1.713
			c0,1.088-0.788,1.967-2.03,3.163l-0.472,0.436v0.018h2.647v0.662H348.601z"/>
		<path fill="#FFFFFF" d="M358.682,98.064c-0.046-0.853-0.1-1.876-0.091-2.638h-0.027c-0.208,0.716-0.462,1.478-0.77,2.32
			l-1.079,2.964h-0.599l-0.987-2.909c-0.29-0.861-0.534-1.65-0.707-2.375h-0.019c-0.018,0.762-0.062,1.785-0.117,2.701l-0.164,2.619
			h-0.752l0.426-6.109h1.007l1.042,2.955c0.254,0.752,0.463,1.423,0.616,2.058h0.027c0.154-0.616,0.372-1.287,0.644-2.058
			l1.088-2.955h1.006l0.381,6.109h-0.771L358.682,98.064z"/>
		<path fill="#FFFFFF" d="M360.826,94.72c0.345-0.072,0.889-0.127,1.441-0.127c0.789,0,1.297,0.136,1.677,0.444
			c0.317,0.235,0.508,0.598,0.508,1.078c0,0.59-0.39,1.106-1.033,1.342v0.018c0.58,0.146,1.26,0.626,1.26,1.532
			c0,0.525-0.208,0.925-0.517,1.224c-0.426,0.39-1.115,0.571-2.111,0.571c-0.545,0-0.961-0.036-1.225-0.073V94.72z M361.615,97.222
			h0.716c0.834,0,1.323-0.436,1.323-1.024c0-0.716-0.544-0.997-1.342-0.997c-0.362,0-0.57,0.027-0.697,0.055V97.222z
			 M361.615,100.148c0.154,0.027,0.381,0.037,0.662,0.037c0.814,0,1.567-0.3,1.567-1.188c0-0.834-0.716-1.179-1.577-1.179h-0.652
			V100.148z"/>
		<path fill="#FFFFFF" d="M336.692,108.885v0.589h-2.239v-0.589H336.692z"/>
		<path fill="#FFFFFF" d="M346.433,107.244l0.861,2.465c0.145,0.399,0.263,0.762,0.354,1.124h0.027
			c0.1-0.362,0.227-0.725,0.371-1.124l0.852-2.465h0.834l-1.722,4.387h-0.761l-1.668-4.387H346.433z"/>
		<path fill="#FFFFFF" d="M354.784,111.432c-0.29,0.145-0.87,0.29-1.613,0.29c-1.722,0-3.019-1.088-3.019-3.091
			c0-1.912,1.297-3.209,3.19-3.209c0.762,0,1.241,0.163,1.45,0.272l-0.19,0.644c-0.299-0.146-0.726-0.254-1.232-0.254
			c-1.433,0-2.384,0.915-2.384,2.52c0,1.495,0.861,2.456,2.348,2.456c0.48,0,0.97-0.1,1.287-0.254L354.784,111.432z"/>
		<path fill="#FFFFFF" d="M359.618,109.401c0,1.622-1.124,2.329-2.185,2.329c-1.188,0-2.103-0.87-2.103-2.257
			c0-1.469,0.961-2.329,2.175-2.329C358.766,107.145,359.618,108.06,359.618,109.401z M356.137,109.446
			c0,0.961,0.554,1.687,1.333,1.687c0.761,0,1.332-0.717,1.332-1.704c0-0.743-0.371-1.687-1.314-1.687
			C356.545,107.742,356.137,108.612,356.137,109.446z"/>
		<path fill="#FFFFFF" d="M360.626,108.612c0-0.517-0.009-0.96-0.035-1.368h0.697l0.027,0.861h0.036
			c0.199-0.59,0.68-0.961,1.214-0.961c0.092,0,0.154,0.009,0.228,0.027v0.752c-0.082-0.019-0.163-0.027-0.272-0.027
			c-0.562,0-0.961,0.426-1.069,1.024c-0.019,0.108-0.036,0.235-0.036,0.371v2.339h-0.789V108.612z"/>
		<path fill="#FFFFFF" d="M363.947,109.582c0.018,1.079,0.706,1.523,1.504,1.523c0.57,0,0.916-0.1,1.215-0.227l0.136,0.57
			c-0.281,0.127-0.761,0.272-1.46,0.272c-1.35,0-2.156-0.889-2.156-2.212s0.779-2.365,2.057-2.365c1.433,0,1.813,1.26,1.813,2.066
			c0,0.163-0.019,0.29-0.027,0.371H363.947z M366.285,109.012c0.009-0.508-0.209-1.296-1.105-1.296c-0.807,0-1.16,0.743-1.225,1.296
			H366.285z"/>
		<path fill="#FFFFFF" d="M339.355,111.896v-0.489l0.625-0.607c1.505-1.432,2.185-2.193,2.193-3.082c0-0.598-0.29-1.15-1.169-1.15
			c-0.535,0-0.979,0.271-1.251,0.498l-0.254-0.562c0.408-0.345,0.988-0.599,1.668-0.599c1.27,0,1.804,0.87,1.804,1.713
			c0,1.088-0.788,1.967-2.03,3.163l-0.472,0.436v0.018h2.647v0.662H339.355z"/>
		<path d="M331.522,66.396v-0.489l0.625-0.607c1.505-1.432,2.185-2.193,2.193-3.082c0-0.598-0.29-1.15-1.169-1.15
			c-0.535,0-0.979,0.271-1.251,0.498l-0.254-0.562c0.408-0.345,0.988-0.599,1.668-0.599c1.27,0,1.804,0.87,1.804,1.713
			c0,1.088-0.788,1.967-2.03,3.163l-0.472,0.436v0.018h2.647v0.662H331.522z"/>
		<path d="M329.512,61.432h-0.018l-1.024,0.553l-0.154-0.606l1.287-0.689h0.681v5.892h-0.771V61.432z"/>
	</g>
</g>
<g>
	<g>
		<rect x="128.666" y="0.705" fill="#27AAE1" width="64.272" height="130.63"/>
		<path fill="#FFFFFF" d="M193.438,131.835h-65.272V0.205h65.272V131.835z M129.166,130.835h63.272V1.205h-63.272V130.835z"/>
	</g>
	<g>
		<path d="M148.786,9.898c-0.242,0.121-0.725,0.241-1.344,0.241c-1.435,0-2.515-0.906-2.515-2.575c0-1.594,1.08-2.674,2.659-2.674
			c0.634,0,1.035,0.136,1.208,0.227l-0.159,0.536c-0.249-0.121-0.604-0.211-1.027-0.211c-1.193,0-1.986,0.763-1.986,2.1
			c0,1.246,0.718,2.047,1.956,2.047c0.4,0,0.809-0.083,1.073-0.212L148.786,9.898z"/>
		<path d="M152.815,8.206c0,1.353-0.937,1.941-1.82,1.941c-0.99,0-1.752-0.725-1.752-1.881c0-1.224,0.801-1.941,1.812-1.941
			C152.105,6.325,152.815,7.088,152.815,8.206z M149.915,8.244c0,0.801,0.46,1.405,1.11,1.405c0.635,0,1.11-0.597,1.11-1.42
			c0-0.62-0.31-1.405-1.095-1.405C150.255,6.824,149.915,7.548,149.915,8.244z"/>
		<path d="M153.656,7.398c0-0.378-0.007-0.688-0.03-0.989h0.589l0.038,0.604h0.015c0.181-0.347,0.604-0.688,1.208-0.688
			c0.506,0,1.292,0.303,1.292,1.557v2.183h-0.665V7.957c0-0.589-0.219-1.08-0.846-1.08c-0.438,0-0.778,0.31-0.892,0.68
			c-0.03,0.083-0.045,0.196-0.045,0.31v2.198h-0.665V7.398z"/>
		<path d="M158.622,5.358v1.051h0.952v0.506h-0.952v1.971c0,0.453,0.128,0.71,0.499,0.71c0.174,0,0.302-0.022,0.385-0.045
			l0.03,0.499c-0.128,0.053-0.333,0.09-0.589,0.09c-0.31,0-0.559-0.098-0.717-0.279c-0.189-0.196-0.257-0.521-0.257-0.951V6.915
			h-0.567V6.409h0.567V5.532L158.622,5.358z"/>
		<path d="M162.347,10.064l-0.053-0.461h-0.023c-0.204,0.287-0.597,0.544-1.118,0.544c-0.74,0-1.118-0.521-1.118-1.05
			c0-0.884,0.786-1.367,2.198-1.359V7.662c0-0.302-0.083-0.846-0.831-0.846c-0.34,0-0.695,0.106-0.952,0.272L160.3,6.65
			c0.302-0.196,0.74-0.325,1.201-0.325c1.118,0,1.39,0.764,1.39,1.496v1.367c0,0.317,0.015,0.627,0.06,0.876H162.347z
			 M162.249,8.199c-0.725-0.016-1.548,0.113-1.548,0.823c0,0.431,0.287,0.634,0.627,0.634c0.476,0,0.778-0.302,0.883-0.611
			c0.023-0.068,0.038-0.144,0.038-0.212V8.199z"/>
		<path d="M164.706,5.381c0.008,0.227-0.159,0.407-0.423,0.407c-0.234,0-0.4-0.181-0.4-0.407c0-0.234,0.174-0.416,0.416-0.416
			C164.547,4.965,164.706,5.147,164.706,5.381z M163.965,10.064V6.409h0.665v3.655H163.965z"/>
		<path d="M165.734,7.398c0-0.378-0.007-0.688-0.03-0.989h0.589l0.038,0.604h0.015c0.181-0.347,0.604-0.688,1.208-0.688
			c0.506,0,1.292,0.303,1.292,1.557v2.183h-0.665V7.957c0-0.589-0.219-1.08-0.846-1.08c-0.438,0-0.778,0.31-0.892,0.68
			c-0.03,0.083-0.045,0.196-0.045,0.31v2.198h-0.665V7.398z"/>
		<path d="M170.299,8.357c0.015,0.898,0.589,1.269,1.254,1.269c0.476,0,0.763-0.083,1.012-0.188l0.113,0.476
			c-0.234,0.106-0.635,0.227-1.216,0.227c-1.125,0-1.797-0.74-1.797-1.843s0.649-1.972,1.714-1.972c1.193,0,1.511,1.051,1.511,1.723
			c0,0.136-0.015,0.241-0.022,0.31H170.299z M172.248,7.881c0.008-0.423-0.174-1.08-0.921-1.08c-0.672,0-0.967,0.619-1.02,1.08
			H172.248z"/>
		<path d="M173.715,7.548c0-0.43-0.008-0.8-0.03-1.14h0.582l0.022,0.717h0.03c0.166-0.49,0.566-0.801,1.012-0.801
			c0.076,0,0.129,0.008,0.189,0.023v0.627c-0.068-0.016-0.137-0.023-0.227-0.023c-0.469,0-0.801,0.355-0.892,0.854
			c-0.016,0.091-0.03,0.197-0.03,0.311v1.948h-0.657V7.548z"/>
	</g>
	<g>
		<path fill="#F1F2F2" d="M139.54,13.951c0.398-0.082,0.97-0.127,1.514-0.127c0.843,0,1.387,0.154,1.767,0.499
			c0.308,0.271,0.48,0.688,0.48,1.16c0,0.807-0.507,1.341-1.151,1.559v0.027c0.471,0.163,0.752,0.598,0.897,1.232
			c0.2,0.852,0.345,1.441,0.472,1.677h-0.816c-0.1-0.172-0.236-0.698-0.408-1.459c-0.181-0.843-0.508-1.16-1.224-1.188h-0.743v2.646
			h-0.789V13.951z M140.329,16.733h0.807c0.843,0,1.377-0.462,1.377-1.16c0-0.788-0.571-1.133-1.405-1.142
			c-0.381,0-0.652,0.036-0.779,0.072V16.733z"/>
		<path fill="#F1F2F2" d="M144.873,17.93c0.018,1.079,0.707,1.523,1.504,1.523c0.571,0,0.916-0.1,1.214-0.227l0.136,0.57
			c-0.281,0.127-0.761,0.272-1.459,0.272c-1.351,0-2.157-0.889-2.157-2.212s0.78-2.365,2.058-2.365c1.432,0,1.813,1.26,1.813,2.066
			c0,0.163-0.019,0.29-0.027,0.371H144.873z M147.211,17.359c0.009-0.508-0.208-1.296-1.106-1.296c-0.807,0-1.16,0.743-1.224,1.296
			H147.211z"/>
		<path fill="#F1F2F2" d="M152.761,13.543v5.303c0,0.39,0.009,0.834,0.036,1.133h-0.716l-0.036-0.762h-0.018
			c-0.245,0.49-0.78,0.861-1.496,0.861c-1.061,0-1.876-0.897-1.876-2.229c-0.009-1.459,0.897-2.356,1.967-2.356
			c0.671,0,1.124,0.317,1.324,0.671h0.018v-2.62H152.761z M151.963,17.377c0-0.1-0.009-0.235-0.037-0.335
			c-0.118-0.508-0.553-0.925-1.151-0.925c-0.825,0-1.314,0.726-1.314,1.695c0,0.888,0.435,1.622,1.296,1.622
			c0.535,0,1.024-0.354,1.169-0.951c0.027-0.109,0.037-0.218,0.037-0.345V17.377z"/>
		<path fill="#F1F2F2" d="M157.758,18.782c0,0.453,0.009,0.852,0.036,1.196h-0.707l-0.045-0.716h-0.018
			c-0.208,0.354-0.67,0.815-1.45,0.815c-0.688,0-1.514-0.381-1.514-1.922v-2.564h0.798v2.429c0,0.834,0.254,1.396,0.979,1.396
			c0.535,0,0.906-0.372,1.051-0.726c0.045-0.118,0.072-0.263,0.072-0.408v-2.691h0.798V18.782z"/>
		<path fill="#F1F2F2" d="M162.211,19.815c-0.208,0.108-0.67,0.254-1.26,0.254c-1.323,0-2.185-0.897-2.185-2.239
			c0-1.351,0.925-2.329,2.357-2.329c0.471,0,0.888,0.118,1.105,0.227l-0.181,0.616c-0.19-0.108-0.489-0.208-0.924-0.208
			c-1.006,0-1.55,0.743-1.55,1.658c0,1.016,0.653,1.641,1.523,1.641c0.453,0,0.752-0.118,0.979-0.218L162.211,19.815z"/>
		<path fill="#F1F2F2" d="M163.538,17.93c0.018,1.079,0.707,1.523,1.504,1.523c0.571,0,0.916-0.1,1.214-0.227l0.136,0.57
			c-0.281,0.127-0.761,0.272-1.459,0.272c-1.351,0-2.157-0.889-2.157-2.212s0.78-2.365,2.058-2.365c1.432,0,1.813,1.26,1.813,2.066
			c0,0.163-0.019,0.29-0.027,0.371H163.538z M165.876,17.359c0.009-0.508-0.208-1.296-1.106-1.296c-0.807,0-1.16,0.743-1.224,1.296
			H165.876z"/>
		<path fill="#F1F2F2" d="M170.376,14.54h-1.858v-0.671h4.523v0.671h-1.867v5.438h-0.798V14.54z"/>
		<path fill="#F1F2F2" d="M175.544,19.979l-0.063-0.553h-0.027c-0.245,0.345-0.716,0.652-1.342,0.652
			c-0.888,0-1.341-0.625-1.341-1.26c0-1.061,0.942-1.641,2.638-1.632v-0.09c0-0.363-0.1-1.016-0.997-1.016
			c-0.408,0-0.834,0.127-1.143,0.326l-0.181-0.525c0.362-0.235,0.888-0.39,1.44-0.39c1.342,0,1.668,0.915,1.668,1.794v1.641
			c0,0.381,0.019,0.753,0.072,1.052H175.544z M175.426,17.74c-0.87-0.019-1.857,0.136-1.857,0.987c0,0.517,0.344,0.762,0.752,0.762
			c0.571,0,0.934-0.362,1.061-0.734c0.027-0.082,0.045-0.172,0.045-0.254V17.74z"/>
		<path fill="#F1F2F2" d="M177.377,19.163c0.235,0.153,0.652,0.317,1.052,0.317c0.58,0,0.852-0.29,0.852-0.653
			c0-0.381-0.227-0.589-0.815-0.807c-0.789-0.28-1.16-0.716-1.16-1.241c0-0.707,0.571-1.287,1.514-1.287
			c0.444,0,0.834,0.127,1.078,0.271l-0.199,0.58c-0.172-0.108-0.489-0.254-0.897-0.254c-0.471,0-0.733,0.272-0.733,0.599
			c0,0.362,0.263,0.525,0.833,0.743c0.762,0.29,1.151,0.671,1.151,1.323c0,0.771-0.598,1.314-1.641,1.314
			c-0.48,0-0.924-0.118-1.232-0.299L177.377,19.163z"/>
		<path fill="#F1F2F2" d="M181.866,17.604h0.019c0.108-0.153,0.263-0.344,0.39-0.498l1.287-1.514h0.96l-1.694,1.804l1.931,2.583
			h-0.97l-1.514-2.103l-0.408,0.453v1.649h-0.788v-6.436h0.788V17.604z"/>
	</g>
	<g>
		<path fill="#FFFFFF" d="M144.358,34.956v0.588h-2.239v-0.588H144.358z"/>
		<path fill="#FFFFFF" d="M148.693,32.554h-0.018l-1.024,0.553l-0.154-0.607l1.287-0.689h0.68v5.893h-0.771V32.554z"/>
		<path fill="#FFFFFF" d="M155.131,32.481h-2.248l-0.227,1.514c0.136-0.02,0.263-0.037,0.48-0.037c0.453,0,0.906,0.1,1.269,0.318
			c0.462,0.262,0.843,0.77,0.843,1.514c0,1.15-0.916,2.012-2.193,2.012c-0.644,0-1.188-0.182-1.468-0.363l0.199-0.607
			c0.245,0.146,0.725,0.326,1.26,0.326c0.752,0,1.396-0.488,1.396-1.277c-0.009-0.762-0.517-1.305-1.695-1.305
			c-0.335,0-0.599,0.035-0.816,0.062l0.381-2.828h2.819V32.481z"/>
		<path fill="#FFFFFF" d="M156.457,36.786c0.227,0.145,0.752,0.371,1.305,0.371c1.024,0,1.341-0.652,1.333-1.141
			c-0.009-0.826-0.752-1.18-1.523-1.18h-0.444v-0.598h0.444c0.58,0,1.314-0.299,1.314-0.996c0-0.473-0.299-0.889-1.033-0.889
			c-0.472,0-0.925,0.209-1.178,0.389l-0.208-0.58c0.308-0.227,0.906-0.453,1.541-0.453c1.16,0,1.686,0.689,1.686,1.406
			c0,0.607-0.363,1.123-1.088,1.387v0.018c0.725,0.145,1.314,0.689,1.314,1.514c0,0.943-0.734,1.768-2.148,1.768
			c-0.662,0-1.242-0.209-1.532-0.398L156.457,36.786z"/>
		<path fill="#FFFFFF" d="M164.282,32.372c-0.163-0.01-0.372,0-0.598,0.037c-1.251,0.207-1.913,1.123-2.048,2.094h0.027
			c0.281-0.373,0.771-0.68,1.423-0.68c1.042,0,1.776,0.752,1.776,1.902c0,1.078-0.734,2.076-1.958,2.076
			c-1.26,0-2.084-0.979-2.084-2.512c0-1.16,0.417-2.074,0.997-2.654c0.489-0.48,1.142-0.779,1.885-0.871
			c0.236-0.035,0.435-0.045,0.58-0.045V32.372z M164.055,35.771c0-0.842-0.48-1.35-1.214-1.35c-0.48,0-0.925,0.299-1.142,0.725
			c-0.055,0.092-0.091,0.209-0.091,0.354c0.018,0.971,0.462,1.686,1.296,1.686C163.593,37.185,164.055,36.614,164.055,35.771z"/>
		<path fill="#FFFFFF" d="M171,35.019c-0.045-0.852-0.1-1.875-0.09-2.637h-0.027c-0.208,0.715-0.462,1.477-0.771,2.32l-1.079,2.963
			h-0.598l-0.988-2.908c-0.29-0.861-0.535-1.65-0.707-2.375h-0.018c-0.018,0.762-0.063,1.785-0.118,2.701l-0.163,2.619h-0.752
			l0.426-6.109h1.006l1.042,2.955c0.254,0.752,0.462,1.422,0.616,2.057h0.027c0.154-0.615,0.372-1.287,0.644-2.057l1.088-2.955
			h1.006l0.381,6.109h-0.771L171,35.019z"/>
		<path fill="#FFFFFF" d="M173.145,31.675c0.344-0.072,0.888-0.127,1.441-0.127c0.789,0,1.296,0.135,1.677,0.443
			c0.317,0.236,0.508,0.598,0.508,1.078c0,0.59-0.39,1.107-1.033,1.342v0.018c0.58,0.146,1.26,0.627,1.26,1.533
			c0,0.525-0.209,0.924-0.517,1.223c-0.426,0.391-1.115,0.572-2.112,0.572c-0.544,0-0.96-0.037-1.223-0.074V31.675z M173.933,34.177
			h0.716c0.834,0,1.323-0.436,1.323-1.025c0-0.715-0.544-0.996-1.342-0.996c-0.362,0-0.57,0.027-0.697,0.055V34.177z
			 M173.933,37.103c0.154,0.027,0.381,0.037,0.661,0.037c0.816,0,1.568-0.299,1.568-1.188c0-0.834-0.716-1.178-1.577-1.178h-0.652
			V37.103z"/>
		<path fill="#FFFFFF" d="M144.358,45.839v0.59h-2.239v-0.59H144.358z"/>
		<path fill="#FFFFFF" d="M148.693,43.437h-0.018l-1.024,0.553l-0.154-0.605l1.287-0.689h0.68v5.891h-0.771V43.437z"/>
		<path fill="#FFFFFF" d="M154.099,44.198l0.861,2.465c0.145,0.4,0.263,0.762,0.354,1.125h0.027c0.1-0.363,0.227-0.725,0.372-1.125
			l0.852-2.465h0.834l-1.722,4.387h-0.761l-1.668-4.387H154.099z"/>
		<path fill="#FFFFFF" d="M162.45,48.386c-0.29,0.145-0.87,0.291-1.613,0.291c-1.722,0-3.019-1.088-3.019-3.092
			c0-1.912,1.296-3.209,3.19-3.209c0.762,0,1.242,0.164,1.45,0.273l-0.19,0.643c-0.299-0.145-0.725-0.254-1.232-0.254
			c-1.432,0-2.384,0.916-2.384,2.52c0,1.496,0.861,2.457,2.348,2.457c0.48,0,0.97-0.1,1.287-0.254L162.45,48.386z"/>
		<path fill="#FFFFFF" d="M167.284,46.356c0,1.621-1.124,2.328-2.184,2.328c-1.188,0-2.103-0.869-2.103-2.256
			c0-1.469,0.961-2.33,2.175-2.33C166.432,44.099,167.284,45.015,167.284,46.356z M163.803,46.401c0,0.961,0.553,1.686,1.333,1.686
			c0.761,0,1.333-0.717,1.333-1.703c0-0.744-0.372-1.688-1.314-1.688C164.211,44.696,163.803,45.567,163.803,46.401z"/>
		<path fill="#FFFFFF" d="M168.293,45.567c0-0.518-0.009-0.961-0.036-1.369h0.698l0.027,0.861h0.036
			c0.199-0.59,0.68-0.961,1.214-0.961c0.091,0,0.154,0.01,0.227,0.027v0.752c-0.082-0.018-0.164-0.027-0.272-0.027
			c-0.562,0-0.961,0.426-1.07,1.025c-0.018,0.107-0.036,0.234-0.036,0.371v2.338h-0.789V45.567z"/>
		<path fill="#FFFFFF" d="M171.612,46.536c0.018,1.08,0.707,1.523,1.504,1.523c0.571,0,0.915-0.1,1.215-0.227l0.136,0.57
			c-0.281,0.127-0.762,0.273-1.459,0.273c-1.351,0-2.157-0.889-2.157-2.213c0-1.322,0.78-2.365,2.058-2.365
			c1.432,0,1.813,1.26,1.813,2.066c0,0.164-0.019,0.291-0.027,0.371H171.612z M173.951,45.966c0.009-0.508-0.209-1.295-1.106-1.295
			c-0.807,0-1.16,0.742-1.224,1.295H173.951z"/>
	</g>
</g>
<g>
	<g>
		<g>
			<rect x="192.916" y="0.705" fill="#27AAE1" width="64.272" height="130.63"/>
			<path fill="#FFFFFF" d="M257.688,131.835h-65.272V0.205h65.272V131.835z M193.416,130.835h63.272V1.205h-63.272V130.835z"/>
		</g>
		<g>
			<path d="M213.037,9.898c-0.242,0.121-0.726,0.241-1.345,0.241c-1.435,0-2.515-0.906-2.515-2.575c0-1.594,1.08-2.674,2.659-2.674
				c0.635,0,1.035,0.136,1.209,0.227l-0.159,0.536c-0.249-0.121-0.604-0.211-1.027-0.211c-1.193,0-1.986,0.763-1.986,2.1
				c0,1.246,0.718,2.047,1.956,2.047c0.4,0,0.809-0.083,1.072-0.212L213.037,9.898z"/>
			<path d="M217.066,8.206c0,1.353-0.938,1.941-1.82,1.941c-0.99,0-1.753-0.725-1.753-1.881c0-1.224,0.801-1.941,1.812-1.941
				C216.355,6.325,217.066,7.088,217.066,8.206z M214.166,8.244c0,0.801,0.46,1.405,1.109,1.405c0.635,0,1.11-0.597,1.11-1.42
				c0-0.62-0.31-1.405-1.095-1.405S214.166,7.548,214.166,8.244z"/>
			<path d="M217.906,7.398c0-0.378-0.007-0.688-0.029-0.989h0.589l0.038,0.604h0.015c0.181-0.347,0.604-0.688,1.208-0.688
				c0.507,0,1.292,0.303,1.292,1.557v2.183h-0.665V7.957c0-0.589-0.219-1.08-0.846-1.08c-0.438,0-0.777,0.31-0.891,0.68
				c-0.031,0.083-0.046,0.196-0.046,0.31v2.198h-0.665V7.398z"/>
			<path d="M222.872,5.358v1.051h0.952v0.506h-0.952v1.971c0,0.453,0.128,0.71,0.499,0.71c0.174,0,0.302-0.022,0.385-0.045
				l0.03,0.499c-0.128,0.053-0.333,0.09-0.589,0.09c-0.311,0-0.56-0.098-0.718-0.279c-0.188-0.196-0.257-0.521-0.257-0.951V6.915
				h-0.566V6.409h0.566V5.532L222.872,5.358z"/>
			<path d="M226.597,10.064l-0.053-0.461h-0.023c-0.204,0.287-0.597,0.544-1.117,0.544c-0.74,0-1.119-0.521-1.119-1.05
				c0-0.884,0.786-1.367,2.199-1.359V7.662c0-0.302-0.084-0.846-0.832-0.846c-0.34,0-0.694,0.106-0.951,0.272l-0.15-0.438
				c0.302-0.196,0.74-0.325,1.2-0.325c1.118,0,1.39,0.764,1.39,1.496v1.367c0,0.317,0.016,0.627,0.061,0.876H226.597z
				 M226.499,8.199c-0.726-0.016-1.548,0.113-1.548,0.823c0,0.431,0.286,0.634,0.627,0.634c0.475,0,0.777-0.302,0.883-0.611
				c0.023-0.068,0.038-0.144,0.038-0.212V8.199z"/>
			<path d="M228.956,5.381c0.008,0.227-0.159,0.407-0.423,0.407c-0.234,0-0.4-0.181-0.4-0.407c0-0.234,0.174-0.416,0.416-0.416
				C228.796,4.965,228.956,5.147,228.956,5.381z M228.215,10.064V6.409h0.665v3.655H228.215z"/>
			<path d="M229.984,7.398c0-0.378-0.008-0.688-0.03-0.989h0.589l0.038,0.604h0.015c0.182-0.347,0.605-0.688,1.209-0.688
				c0.506,0,1.291,0.303,1.291,1.557v2.183h-0.664V7.957c0-0.589-0.219-1.08-0.846-1.08c-0.438,0-0.778,0.31-0.892,0.68
				c-0.03,0.083-0.046,0.196-0.046,0.31v2.198h-0.664V7.398z"/>
			<path d="M234.548,8.357c0.016,0.898,0.59,1.269,1.254,1.269c0.477,0,0.764-0.083,1.013-0.188l0.113,0.476
				c-0.234,0.106-0.635,0.227-1.216,0.227c-1.125,0-1.798-0.74-1.798-1.843s0.649-1.972,1.714-1.972
				c1.193,0,1.512,1.051,1.512,1.723c0,0.136-0.016,0.241-0.023,0.31H234.548z M236.498,7.881c0.008-0.423-0.174-1.08-0.922-1.08
				c-0.672,0-0.967,0.619-1.02,1.08H236.498z"/>
			<path d="M237.965,7.548c0-0.43-0.008-0.8-0.03-1.14h0.582l0.022,0.717h0.03c0.166-0.49,0.566-0.801,1.012-0.801
				c0.076,0,0.129,0.008,0.189,0.023v0.627c-0.068-0.016-0.137-0.023-0.227-0.023c-0.469,0-0.801,0.355-0.892,0.854
				c-0.016,0.091-0.03,0.197-0.03,0.311v1.948h-0.657V7.548z"/>
		</g>
		<g>
			<path fill="#FFFFFF" d="M208.608,34.956v0.588h-2.239v-0.588H208.608z"/>
			<path fill="#FFFFFF" d="M212.943,32.554h-0.018l-1.024,0.553l-0.154-0.607l1.287-0.689h0.681v5.893h-0.771V32.554z"/>
			<path fill="#FFFFFF" d="M219.381,32.481h-2.248l-0.227,1.514c0.136-0.02,0.263-0.037,0.48-0.037c0.453,0,0.906,0.1,1.269,0.318
				c0.463,0.262,0.844,0.77,0.844,1.514c0,1.15-0.916,2.012-2.193,2.012c-0.645,0-1.188-0.182-1.469-0.363l0.199-0.607
				c0.244,0.146,0.725,0.326,1.26,0.326c0.752,0,1.396-0.488,1.396-1.277c-0.01-0.762-0.518-1.305-1.695-1.305
				c-0.336,0-0.599,0.035-0.816,0.062l0.381-2.828h2.819V32.481z"/>
			<path fill="#FFFFFF" d="M220.707,36.786c0.227,0.145,0.753,0.371,1.306,0.371c1.024,0,1.341-0.652,1.333-1.141
				c-0.01-0.826-0.753-1.18-1.523-1.18h-0.443v-0.598h0.443c0.58,0,1.314-0.299,1.314-0.996c0-0.473-0.299-0.889-1.033-0.889
				c-0.472,0-0.925,0.209-1.178,0.389l-0.209-0.58c0.309-0.227,0.906-0.453,1.541-0.453c1.16,0,1.686,0.689,1.686,1.406
				c0,0.607-0.363,1.123-1.088,1.387v0.018c0.725,0.145,1.314,0.689,1.314,1.514c0,0.943-0.734,1.768-2.148,1.768
				c-0.661,0-1.241-0.209-1.531-0.398L220.707,36.786z"/>
			<path fill="#FFFFFF" d="M228.532,32.372c-0.163-0.01-0.372,0-0.599,0.037c-1.25,0.207-1.912,1.123-2.048,2.094h0.026
				c0.281-0.373,0.771-0.68,1.424-0.68c1.042,0,1.776,0.752,1.776,1.902c0,1.078-0.734,2.076-1.958,2.076
				c-1.26,0-2.084-0.979-2.084-2.512c0-1.16,0.416-2.074,0.996-2.654c0.49-0.48,1.143-0.779,1.886-0.871
				c0.235-0.035,0.435-0.045,0.58-0.045V32.372z M228.305,35.771c0-0.842-0.48-1.35-1.214-1.35c-0.48,0-0.926,0.299-1.143,0.725
				c-0.055,0.092-0.091,0.209-0.091,0.354c0.019,0.971,0.462,1.686,1.296,1.686C227.843,37.185,228.305,36.614,228.305,35.771z"/>
			<path fill="#FFFFFF" d="M237.173,35.019c-0.045-0.852-0.1-1.875-0.09-2.637h-0.027c-0.209,0.715-0.463,1.477-0.771,2.32
				l-1.078,2.963h-0.598l-0.988-2.908c-0.29-0.861-0.535-1.65-0.707-2.375h-0.018c-0.019,0.762-0.064,1.785-0.119,2.701
				l-0.162,2.619h-0.752l0.426-6.109h1.006l1.042,2.955c0.254,0.752,0.462,1.422,0.616,2.057h0.027
				c0.154-0.615,0.371-1.287,0.644-2.057l1.088-2.955h1.006l0.381,6.109h-0.771L237.173,35.019z"/>
			<path fill="#FFFFFF" d="M239.317,31.675c0.345-0.072,0.889-0.127,1.441-0.127c0.789,0,1.296,0.135,1.677,0.443
				c0.317,0.236,0.508,0.598,0.508,1.078c0,0.59-0.39,1.107-1.033,1.342v0.018c0.58,0.146,1.26,0.627,1.26,1.533
				c0,0.525-0.209,0.924-0.517,1.223c-0.426,0.391-1.115,0.572-2.112,0.572c-0.544,0-0.96-0.037-1.224-0.074V31.675z
				 M240.106,34.177h0.716c0.834,0,1.323-0.436,1.323-1.025c0-0.715-0.544-0.996-1.341-0.996c-0.363,0-0.571,0.027-0.698,0.055
				V34.177z M240.106,37.103c0.154,0.027,0.381,0.037,0.661,0.037c0.816,0,1.568-0.299,1.568-1.188c0-0.834-0.716-1.178-1.577-1.178
				h-0.652V37.103z"/>
			<path fill="#FFFFFF" d="M208.608,45.839v0.59h-2.239v-0.59H208.608z"/>
			<path fill="#FFFFFF" d="M212.943,43.437h-0.018l-1.024,0.553l-0.154-0.605l1.287-0.689h0.681v5.891h-0.771V43.437z"/>
			<path fill="#FFFFFF" d="M218.349,44.198l0.861,2.465c0.145,0.4,0.263,0.762,0.354,1.125h0.027c0.1-0.363,0.227-0.725,0.371-1.125
				l0.852-2.465h0.834l-1.722,4.387h-0.761l-1.668-4.387H218.349z"/>
			<path fill="#FFFFFF" d="M226.7,48.386c-0.29,0.145-0.87,0.291-1.613,0.291c-1.722,0-3.019-1.088-3.019-3.092
				c0-1.912,1.297-3.209,3.19-3.209c0.762,0,1.241,0.164,1.45,0.273l-0.19,0.643c-0.299-0.145-0.726-0.254-1.232-0.254
				c-1.433,0-2.384,0.916-2.384,2.52c0,1.496,0.861,2.457,2.348,2.457c0.48,0,0.97-0.1,1.287-0.254L226.7,48.386z"/>
			<path fill="#FFFFFF" d="M231.534,46.356c0,1.621-1.124,2.328-2.185,2.328c-1.188,0-2.103-0.869-2.103-2.256
				c0-1.469,0.961-2.33,2.175-2.33C230.682,44.099,231.534,45.015,231.534,46.356z M228.053,46.401c0,0.961,0.554,1.686,1.333,1.686
				c0.761,0,1.332-0.717,1.332-1.703c0-0.744-0.371-1.688-1.314-1.688C228.461,44.696,228.053,45.567,228.053,46.401z"/>
			<path fill="#FFFFFF" d="M232.542,45.567c0-0.518-0.009-0.961-0.035-1.369h0.697l0.027,0.861h0.036
				c0.199-0.59,0.68-0.961,1.214-0.961c0.092,0,0.154,0.01,0.228,0.027v0.752c-0.082-0.018-0.163-0.027-0.272-0.027
				c-0.562,0-0.961,0.426-1.069,1.025c-0.019,0.107-0.036,0.234-0.036,0.371v2.338h-0.789V45.567z"/>
			<path fill="#FFFFFF" d="M235.863,46.536c0.018,1.08,0.706,1.523,1.504,1.523c0.571,0,0.915-0.1,1.215-0.227l0.136,0.57
				c-0.281,0.127-0.762,0.273-1.46,0.273c-1.35,0-2.156-0.889-2.156-2.213c0-1.322,0.779-2.365,2.057-2.365
				c1.433,0,1.813,1.26,1.813,2.066c0,0.164-0.019,0.291-0.027,0.371H235.863z M238.201,45.966c0.009-0.508-0.209-1.295-1.105-1.295
				c-0.807,0-1.16,0.742-1.225,1.295H238.201z"/>
		</g>
		<g>
			<path fill="#F1F2F2" d="M203.29,13.951c0.398-0.082,0.97-0.127,1.514-0.127c0.843,0,1.387,0.154,1.767,0.499
				c0.308,0.271,0.48,0.688,0.48,1.16c0,0.807-0.507,1.341-1.151,1.559v0.027c0.471,0.163,0.752,0.598,0.897,1.232
				c0.2,0.852,0.345,1.441,0.472,1.677h-0.816c-0.1-0.172-0.236-0.698-0.408-1.459c-0.181-0.843-0.508-1.16-1.224-1.188h-0.743
				v2.646h-0.789V13.951z M204.079,16.733h0.807c0.843,0,1.377-0.462,1.377-1.16c0-0.788-0.571-1.133-1.405-1.142
				c-0.381,0-0.652,0.036-0.779,0.072V16.733z"/>
			<path fill="#F1F2F2" d="M208.623,17.93c0.018,1.079,0.707,1.523,1.504,1.523c0.571,0,0.916-0.1,1.214-0.227l0.136,0.57
				c-0.281,0.127-0.761,0.272-1.459,0.272c-1.351,0-2.157-0.889-2.157-2.212s0.78-2.365,2.058-2.365c1.432,0,1.813,1.26,1.813,2.066
				c0,0.163-0.019,0.29-0.027,0.371H208.623z M210.961,17.359c0.009-0.508-0.208-1.296-1.106-1.296c-0.807,0-1.16,0.743-1.224,1.296
				H210.961z"/>
			<path fill="#F1F2F2" d="M216.511,13.543v5.303c0,0.39,0.009,0.834,0.035,1.133h-0.715l-0.037-0.762h-0.018
				c-0.245,0.49-0.779,0.861-1.496,0.861c-1.061,0-1.876-0.897-1.876-2.229c-0.009-1.459,0.897-2.356,1.967-2.356
				c0.671,0,1.124,0.317,1.323,0.671h0.019v-2.62H216.511z M215.713,17.377c0-0.1-0.009-0.235-0.036-0.335
				c-0.118-0.508-0.553-0.925-1.151-0.925c-0.825,0-1.314,0.726-1.314,1.695c0,0.888,0.435,1.622,1.296,1.622
				c0.535,0,1.024-0.354,1.17-0.951c0.027-0.109,0.036-0.218,0.036-0.345V17.377z"/>
			<path fill="#F1F2F2" d="M221.508,18.782c0,0.453,0.009,0.852,0.036,1.196h-0.707l-0.045-0.716h-0.019
				c-0.208,0.354-0.671,0.815-1.45,0.815c-0.688,0-1.514-0.381-1.514-1.922v-2.564h0.798v2.429c0,0.834,0.254,1.396,0.979,1.396
				c0.534,0,0.906-0.372,1.051-0.726c0.045-0.118,0.072-0.263,0.072-0.408v-2.691h0.798V18.782z"/>
			<path fill="#F1F2F2" d="M225.961,19.815c-0.208,0.108-0.671,0.254-1.26,0.254c-1.323,0-2.185-0.897-2.185-2.239
				c0-1.351,0.925-2.329,2.357-2.329c0.471,0,0.888,0.118,1.105,0.227l-0.182,0.616c-0.19-0.108-0.489-0.208-0.924-0.208
				c-1.007,0-1.551,0.743-1.551,1.658c0,1.016,0.652,1.641,1.523,1.641c0.453,0,0.752-0.118,0.979-0.218L225.961,19.815z"/>
			<path fill="#F1F2F2" d="M227.288,17.93c0.019,1.079,0.706,1.523,1.505,1.523c0.57,0,0.915-0.1,1.214-0.227l0.136,0.57
				c-0.281,0.127-0.761,0.272-1.459,0.272c-1.351,0-2.157-0.889-2.157-2.212s0.78-2.365,2.058-2.365c1.432,0,1.812,1.26,1.812,2.066
				c0,0.163-0.018,0.29-0.027,0.371H227.288z M229.626,17.359c0.008-0.508-0.209-1.296-1.106-1.296c-0.807,0-1.16,0.743-1.224,1.296
				H229.626z"/>
			<path fill="#F1F2F2" d="M234.126,14.54h-1.859v-0.671h4.523v0.671h-1.867v5.438h-0.797V14.54z"/>
			<path fill="#F1F2F2" d="M239.294,19.979l-0.064-0.553h-0.027c-0.244,0.345-0.715,0.652-1.342,0.652
				c-0.887,0-1.34-0.625-1.34-1.26c0-1.061,0.941-1.641,2.637-1.632v-0.09c0-0.363-0.1-1.016-0.996-1.016
				c-0.408,0-0.834,0.127-1.143,0.326l-0.182-0.525c0.363-0.235,0.889-0.39,1.441-0.39c1.342,0,1.668,0.915,1.668,1.794v1.641
				c0,0.381,0.018,0.753,0.072,1.052H239.294z M239.175,17.74c-0.869-0.019-1.857,0.136-1.857,0.987
				c0,0.517,0.344,0.762,0.752,0.762c0.572,0,0.934-0.362,1.061-0.734c0.027-0.082,0.045-0.172,0.045-0.254V17.74z"/>
			<path fill="#F1F2F2" d="M241.126,19.163c0.236,0.153,0.652,0.317,1.053,0.317c0.58,0,0.852-0.29,0.852-0.653
				c0-0.381-0.227-0.589-0.816-0.807c-0.789-0.28-1.16-0.716-1.16-1.241c0-0.707,0.572-1.287,1.514-1.287
				c0.445,0,0.834,0.127,1.078,0.271l-0.199,0.58c-0.172-0.108-0.488-0.254-0.896-0.254c-0.471,0-0.734,0.272-0.734,0.599
				c0,0.362,0.264,0.525,0.834,0.743c0.762,0.29,1.15,0.671,1.15,1.323c0,0.771-0.598,1.314-1.641,1.314
				c-0.48,0-0.924-0.118-1.232-0.299L241.126,19.163z"/>
			<path fill="#F1F2F2" d="M245.617,17.604h0.018c0.109-0.153,0.264-0.344,0.391-0.498l1.287-1.514h0.959l-1.693,1.804l1.93,2.583
				h-0.969l-1.514-2.103l-0.408,0.453v1.649h-0.789v-6.436h0.789V17.604z"/>
		</g>
	</g>
</g>
<g>
	<path d="M329.289,19.344h-3.143v2.915h3.502v0.875h-4.546v-8.083h4.366v0.875h-3.322v2.555h3.143V19.344z"/>
	<path d="M331.462,17.33l0.827,1.247c0.217,0.324,0.396,0.624,0.588,0.948h0.036c0.192-0.348,0.384-0.648,0.576-0.959l0.815-1.235
		h1.139l-1.979,2.806l2.039,2.999h-1.199l-0.852-1.307c-0.229-0.336-0.42-0.66-0.624-1.008h-0.023
		c-0.192,0.348-0.396,0.66-0.612,1.008l-0.839,1.307h-1.164l2.063-2.962l-1.968-2.842H331.462z"/>
	<path d="M339.741,23.134l-0.084-0.731h-0.036c-0.324,0.456-0.947,0.863-1.775,0.863c-1.175,0-1.774-0.828-1.774-1.667
		c0-1.403,1.247-2.171,3.49-2.159v-0.12c0-0.479-0.132-1.343-1.319-1.343c-0.54,0-1.104,0.168-1.512,0.432l-0.239-0.695
		c0.479-0.312,1.175-0.516,1.906-0.516c1.775,0,2.207,1.211,2.207,2.375v2.171c0,0.503,0.024,0.995,0.096,1.391H339.741z
		 M339.584,20.172c-1.151-0.024-2.458,0.18-2.458,1.307c0,0.684,0.455,1.008,0.995,1.008c0.756,0,1.235-0.48,1.403-0.972
		c0.036-0.108,0.06-0.228,0.06-0.336V20.172z"/>
	<path d="M342.311,18.9c0-0.6-0.013-1.091-0.049-1.571h0.924l0.048,0.936h0.036c0.324-0.552,0.863-1.067,1.823-1.067
		c0.791,0,1.391,0.479,1.643,1.163h0.024c0.18-0.324,0.407-0.576,0.647-0.755c0.348-0.264,0.731-0.408,1.283-0.408
		c0.768,0,1.907,0.503,1.907,2.519v3.418h-1.031v-3.286c0-1.115-0.408-1.787-1.26-1.787c-0.6,0-1.067,0.444-1.247,0.959
		c-0.048,0.144-0.084,0.336-0.084,0.528v3.586h-1.031v-3.478c0-0.923-0.408-1.595-1.212-1.595c-0.659,0-1.139,0.528-1.307,1.056
		c-0.061,0.156-0.084,0.335-0.084,0.516v3.502h-1.031V18.9z"/>
	<path d="M352.319,19.225c0-0.744-0.024-1.343-0.049-1.895h0.948l0.048,0.995h0.023c0.432-0.708,1.115-1.127,2.063-1.127
		c1.403,0,2.458,1.187,2.458,2.95c0,2.087-1.271,3.118-2.639,3.118c-0.768,0-1.438-0.336-1.786-0.912h-0.024v3.154h-1.043V19.225z
		 M353.362,20.771c0,0.156,0.024,0.3,0.048,0.432c0.192,0.732,0.828,1.235,1.583,1.235c1.115,0,1.764-0.911,1.764-2.243
		c0-1.163-0.612-2.159-1.728-2.159c-0.72,0-1.392,0.516-1.595,1.307c-0.036,0.132-0.072,0.288-0.072,0.432V20.771z"/>
	<path d="M359.147,14.619h1.055v8.515h-1.055V14.619z"/>
	<path d="M362.566,20.424c0.024,1.427,0.936,2.015,1.991,2.015c0.756,0,1.211-0.132,1.607-0.3l0.18,0.756
		c-0.372,0.168-1.008,0.36-1.931,0.36c-1.787,0-2.854-1.175-2.854-2.927c0-1.751,1.031-3.13,2.723-3.13
		c1.895,0,2.398,1.667,2.398,2.734c0,0.216-0.024,0.384-0.036,0.492H362.566z M365.661,19.668c0.012-0.671-0.276-1.715-1.463-1.715
		c-1.067,0-1.535,0.983-1.619,1.715H365.661z"/>
	<path d="M325.102,29.559c0.636-0.097,1.392-0.168,2.219-0.168c1.5,0,2.567,0.348,3.274,1.007c0.72,0.66,1.14,1.596,1.14,2.902
		c0,1.32-0.408,2.399-1.163,3.143c-0.756,0.756-2.003,1.164-3.574,1.164c-0.744,0-1.367-0.036-1.896-0.097V29.559z M326.146,36.706
		c0.264,0.049,0.647,0.061,1.056,0.061c2.23,0,3.441-1.247,3.441-3.43c0.013-1.907-1.067-3.119-3.273-3.119
		c-0.54,0-0.948,0.049-1.224,0.108V36.706z"/>
	<path d="M336.273,37.534l-0.084-0.731h-0.036c-0.323,0.456-0.947,0.863-1.775,0.863c-1.175,0-1.774-0.827-1.774-1.667
		c0-1.403,1.247-2.171,3.49-2.158V33.72c0-0.479-0.132-1.343-1.319-1.343c-0.54,0-1.104,0.168-1.512,0.432l-0.239-0.695
		c0.479-0.312,1.175-0.516,1.906-0.516c1.775,0,2.207,1.211,2.207,2.374v2.172c0,0.503,0.024,0.995,0.096,1.391H336.273z
		 M336.117,34.571c-1.151-0.023-2.458,0.181-2.458,1.308c0,0.684,0.455,1.008,0.995,1.008c0.756,0,1.235-0.479,1.403-0.972
		c0.036-0.107,0.06-0.229,0.06-0.336V34.571z"/>
	<path d="M340.066,30.062v1.667h1.512v0.803h-1.512v3.131c0,0.72,0.204,1.127,0.792,1.127c0.275,0,0.479-0.035,0.611-0.071
		l0.048,0.791c-0.203,0.084-0.527,0.145-0.936,0.145c-0.491,0-0.887-0.156-1.139-0.444c-0.3-0.312-0.408-0.827-0.408-1.511v-3.167
		h-0.899v-0.803h0.899v-1.392L340.066,30.062z"/>
	<path d="M345.981,37.534l-0.084-0.731h-0.036c-0.324,0.456-0.947,0.863-1.775,0.863c-1.175,0-1.774-0.827-1.774-1.667
		c0-1.403,1.247-2.171,3.49-2.158V33.72c0-0.479-0.132-1.343-1.319-1.343c-0.54,0-1.104,0.168-1.512,0.432l-0.239-0.695
		c0.479-0.312,1.175-0.516,1.906-0.516c1.775,0,2.207,1.211,2.207,2.374v2.172c0,0.503,0.024,0.995,0.096,1.391H345.981z
		 M345.825,34.571c-1.151-0.023-2.458,0.181-2.458,1.308c0,0.684,0.455,1.008,0.995,1.008c0.756,0,1.235-0.479,1.403-0.972
		c0.036-0.107,0.06-0.229,0.06-0.336V34.571z"/>
	<path d="M348.586,37.534V29.45h1.14l2.591,4.09c0.6,0.947,1.067,1.799,1.451,2.627l0.023-0.012
		c-0.096-1.08-0.119-2.062-0.119-3.322V29.45h0.983v8.084H353.6l-2.566-4.102c-0.563-0.9-1.104-1.823-1.512-2.699l-0.036,0.013
		c0.061,1.019,0.084,1.991,0.084,3.334v3.454H348.586z"/>
	<path d="M361.7,34.584c0,2.146-1.487,3.082-2.891,3.082c-1.571,0-2.782-1.151-2.782-2.986c0-1.942,1.271-3.082,2.878-3.082
		C360.572,31.598,361.7,32.809,361.7,34.584z M357.094,34.644c0,1.271,0.731,2.23,1.763,2.23c1.008,0,1.763-0.947,1.763-2.254
		c0-0.984-0.491-2.23-1.738-2.23C357.633,32.39,357.094,33.54,357.094,34.644z"/>
	<path d="M368.047,29.019v7.017c0,0.516,0.012,1.104,0.048,1.499h-0.947l-0.048-1.008h-0.024c-0.323,0.648-1.031,1.14-1.979,1.14
		c-1.403,0-2.482-1.188-2.482-2.95c-0.013-1.932,1.188-3.118,2.603-3.118c0.888,0,1.487,0.419,1.751,0.888h0.023v-3.467H368.047z
		 M366.992,34.093c0-0.133-0.012-0.312-0.048-0.444c-0.155-0.672-0.731-1.224-1.522-1.224c-1.092,0-1.739,0.959-1.739,2.243
		c0,1.175,0.575,2.146,1.715,2.146c0.708,0,1.355-0.468,1.547-1.259c0.036-0.145,0.048-0.288,0.048-0.456V34.093z"/>
	<path d="M370.389,34.823c0.024,1.428,0.936,2.016,1.991,2.016c0.756,0,1.211-0.133,1.607-0.301l0.18,0.756
		c-0.372,0.168-1.008,0.36-1.931,0.36c-1.787,0-2.854-1.176-2.854-2.927s1.031-3.13,2.723-3.13c1.895,0,2.398,1.667,2.398,2.734
		c0,0.216-0.024,0.384-0.036,0.491H370.389z M373.484,34.067c0.012-0.671-0.276-1.715-1.463-1.715c-1.067,0-1.535,0.984-1.619,1.715
		H373.484z"/>
</g>
<g>
	<path d="M327.209,51.187v0.648h-2.469v-0.648H327.209z"/>
	<path d="M330.001,52.565c0-0.82,0.489-1.399,1.289-1.739l-0.01-0.03c-0.72-0.34-1.029-0.899-1.029-1.459
		c0-1.029,0.869-1.729,2.009-1.729c1.259,0,1.889,0.789,1.889,1.599c0,0.55-0.27,1.14-1.069,1.519v0.031
		c0.81,0.319,1.31,0.889,1.31,1.679c0,1.13-0.97,1.889-2.209,1.889C330.821,54.324,330.001,53.515,330.001,52.565z M333.5,52.525
		c0-0.79-0.55-1.169-1.43-1.419c-0.76,0.22-1.169,0.719-1.169,1.339c-0.03,0.659,0.47,1.239,1.299,1.239
		C332.99,53.685,333.5,53.194,333.5,52.525z M331.081,49.276c0,0.65,0.489,1,1.239,1.2c0.56-0.19,0.989-0.59,0.989-1.18
		c0-0.52-0.31-1.06-1.1-1.06C331.48,48.237,331.081,48.718,331.081,49.276z"/>
	<path d="M342.768,53.915c-0.39,0.14-1.159,0.369-2.068,0.369c-1.02,0-1.859-0.26-2.52-0.889c-0.579-0.561-0.939-1.46-0.939-2.51
		c0.011-2.008,1.39-3.478,3.648-3.478c0.779,0,1.39,0.17,1.679,0.31l-0.21,0.71c-0.359-0.16-0.81-0.29-1.488-0.29
		c-1.64,0-2.709,1.02-2.709,2.709c0,1.709,1.029,2.719,2.599,2.719c0.569,0,0.959-0.08,1.159-0.181v-2.009h-1.369v-0.699h2.219
		V53.915z"/>
	<path d="M344.101,47.567c0.38-0.079,0.979-0.139,1.589-0.139c0.869,0,1.43,0.149,1.849,0.489c0.351,0.26,0.561,0.659,0.561,1.188
		c0,0.65-0.431,1.221-1.14,1.48v0.02c0.64,0.16,1.389,0.689,1.389,1.689c0,0.579-0.229,1.02-0.569,1.349
		c-0.47,0.43-1.229,0.63-2.329,0.63c-0.6,0-1.059-0.04-1.349-0.08V47.567z M344.97,50.327h0.79c0.919,0,1.459-0.48,1.459-1.13
		c0-0.79-0.6-1.1-1.479-1.1c-0.399,0-0.63,0.03-0.77,0.06V50.327z M344.97,53.555c0.17,0.03,0.42,0.04,0.729,0.04
		c0.899,0,1.729-0.33,1.729-1.309c0-0.92-0.79-1.3-1.739-1.3h-0.72V53.555z"/>
	<path d="M352.67,47.987v1.39h1.259v0.67h-1.259v2.608c0,0.6,0.17,0.939,0.659,0.939c0.23,0,0.4-0.029,0.51-0.061l0.04,0.66
		c-0.17,0.07-0.439,0.12-0.779,0.12c-0.41,0-0.739-0.13-0.949-0.37c-0.25-0.26-0.34-0.689-0.34-1.26v-2.638h-0.75v-0.67h0.75v-1.159
		L352.67,47.987z"/>
	<path d="M359.239,51.756c0,1.789-1.239,2.568-2.409,2.568c-1.309,0-2.318-0.96-2.318-2.489c0-1.618,1.06-2.568,2.398-2.568
		C358.299,49.267,359.239,50.276,359.239,51.756z M355.401,51.806c0,1.06,0.609,1.859,1.469,1.859c0.84,0,1.47-0.79,1.47-1.879
		c0-0.82-0.41-1.859-1.449-1.859C355.85,49.927,355.401,50.886,355.401,51.806z"/>
	<path d="M361.411,47.987v1.39h1.259v0.67h-1.259v2.608c0,0.6,0.17,0.939,0.659,0.939c0.23,0,0.4-0.029,0.51-0.061l0.04,0.66
		c-0.17,0.07-0.439,0.12-0.779,0.12c-0.41,0-0.739-0.13-0.949-0.37c-0.25-0.26-0.34-0.689-0.34-1.26v-2.638h-0.75v-0.67h0.75v-1.159
		L361.411,47.987z"/>
	<path d="M366.339,54.214l-0.07-0.609h-0.029c-0.271,0.38-0.79,0.72-1.479,0.72c-0.979,0-1.479-0.689-1.479-1.39
		c0-1.169,1.04-1.809,2.908-1.799v-0.1c0-0.4-0.109-1.119-1.099-1.119c-0.45,0-0.92,0.14-1.26,0.359l-0.2-0.58
		c0.4-0.26,0.979-0.43,1.59-0.43c1.479,0,1.839,1.01,1.839,1.979v1.81c0,0.419,0.02,0.829,0.08,1.158H366.339z M366.209,51.745
		c-0.96-0.02-2.049,0.15-2.049,1.09c0,0.57,0.38,0.84,0.829,0.84c0.63,0,1.029-0.4,1.17-0.81c0.029-0.09,0.05-0.19,0.05-0.28V51.745
		z"/>
	<path d="M368.481,47.118h0.88v7.096h-0.88V47.118z"/>
	<path d="M327.209,63.187v0.648h-2.469v-0.648H327.209z"/>
	<path d="M341.059,66.034c-0.229,0.12-0.739,0.28-1.39,0.28c-1.459,0-2.408-0.989-2.408-2.469c0-1.489,1.02-2.569,2.599-2.569
		c0.52,0,0.979,0.131,1.219,0.25l-0.199,0.68c-0.21-0.119-0.54-0.229-1.02-0.229c-1.109,0-1.709,0.819-1.709,1.829
		c0,1.119,0.72,1.809,1.679,1.809c0.5,0,0.83-0.129,1.079-0.239L341.059,66.034z"/>
	<path d="M346.409,63.756c0,1.789-1.239,2.568-2.409,2.568c-1.309,0-2.318-0.96-2.318-2.489c0-1.618,1.06-2.568,2.398-2.568
		C345.469,61.267,346.409,62.276,346.409,63.756z M342.571,63.806c0,1.06,0.609,1.859,1.469,1.859c0.84,0,1.47-0.79,1.47-1.879
		c0-0.82-0.41-1.859-1.449-1.859C343.02,61.927,342.571,62.886,342.571,63.806z"/>
	<path d="M347.521,62.886c0-0.569-0.01-1.059-0.04-1.509h0.77l0.03,0.95h0.04c0.22-0.65,0.749-1.061,1.339-1.061
		c0.101,0,0.17,0.01,0.25,0.03v0.829c-0.09-0.02-0.18-0.029-0.3-0.029c-0.619,0-1.06,0.47-1.18,1.129
		c-0.02,0.12-0.04,0.26-0.04,0.41v2.578h-0.869V62.886z"/>
	<path d="M351.18,63.956c0.02,1.189,0.779,1.679,1.659,1.679c0.629,0,1.009-0.11,1.339-0.25l0.149,0.63
		c-0.31,0.14-0.839,0.3-1.608,0.3c-1.489,0-2.379-0.979-2.379-2.438s0.859-2.609,2.269-2.609c1.579,0,1.999,1.39,1.999,2.279
		c0,0.18-0.02,0.32-0.03,0.41H351.18z M353.758,63.326c0.01-0.56-0.229-1.43-1.22-1.43c-0.889,0-1.279,0.819-1.349,1.43H353.758z"/>
	<path d="M355.58,65.315c0.26,0.17,0.72,0.35,1.159,0.35c0.64,0,0.94-0.32,0.94-0.721c0-0.419-0.25-0.648-0.9-0.889
		c-0.869-0.311-1.279-0.789-1.279-1.369c0-0.779,0.63-1.42,1.67-1.42c0.489,0,0.919,0.141,1.188,0.301l-0.22,0.639
		c-0.189-0.119-0.539-0.279-0.989-0.279c-0.52,0-0.81,0.3-0.81,0.66c0,0.399,0.29,0.579,0.92,0.818
		c0.839,0.32,1.269,0.74,1.269,1.46c0,0.85-0.659,1.449-1.809,1.449c-0.529,0-1.02-0.13-1.359-0.33L355.58,65.315z"/>
	<path d="M362.839,59.987v1.39h1.259v0.67h-1.259v2.608c0,0.6,0.17,0.939,0.659,0.939c0.23,0,0.4-0.029,0.51-0.061l0.04,0.66
		c-0.17,0.07-0.439,0.12-0.779,0.12c-0.41,0-0.739-0.13-0.949-0.37c-0.25-0.26-0.34-0.689-0.34-1.26v-2.638h-0.75v-0.67h0.75v-1.159
		L362.839,59.987z"/>
	<path d="M369.408,63.756c0,1.789-1.239,2.568-2.409,2.568c-1.309,0-2.318-0.96-2.318-2.489c0-1.618,1.06-2.568,2.398-2.568
		C368.468,61.267,369.408,62.276,369.408,63.756z M365.57,63.806c0,1.06,0.609,1.859,1.469,1.859c0.84,0,1.47-0.79,1.47-1.879
		c0-0.82-0.41-1.859-1.449-1.859C366.019,61.927,365.57,62.886,365.57,63.806z"/>
	<path d="M371.58,59.987v1.39h1.259v0.67h-1.259v2.608c0,0.6,0.17,0.939,0.659,0.939c0.23,0,0.4-0.029,0.51-0.061l0.04,0.66
		c-0.17,0.07-0.439,0.12-0.779,0.12c-0.41,0-0.739-0.13-0.949-0.37c-0.25-0.26-0.34-0.689-0.34-1.26v-2.638h-0.75v-0.67h0.75v-1.159
		L371.58,59.987z"/>
	<path d="M376.508,66.214l-0.07-0.609h-0.029c-0.271,0.38-0.79,0.72-1.479,0.72c-0.979,0-1.479-0.689-1.479-1.39
		c0-1.169,1.04-1.809,2.908-1.799v-0.1c0-0.4-0.109-1.119-1.099-1.119c-0.45,0-0.92,0.14-1.26,0.359l-0.2-0.58
		c0.4-0.26,0.979-0.43,1.59-0.43c1.479,0,1.839,1.01,1.839,1.979v1.81c0,0.419,0.02,0.829,0.08,1.158H376.508z M376.378,63.745
		c-0.96-0.02-2.049,0.15-2.049,1.09c0,0.57,0.38,0.84,0.829,0.84c0.63,0,1.029-0.4,1.17-0.81c0.029-0.09,0.05-0.19,0.05-0.28V63.745
		z"/>
	<path d="M378.65,59.118h0.88v7.096h-0.88V59.118z"/>
</g>
</svg>
