<?xml version="1.0" encoding="utf-8"?>
<!-- Generator: Adobe Illustrator 16.0.0, SVG Export Plug-In . SVG Version: 6.00 Build 0)  -->
<!DOCTYPE svg PUBLIC "-//W3C//DTD SVG 1.1//EN" "http://www.w3.org/Graphics/SVG/1.1/DTD/svg11.dtd">
<svg version="1.1" id="Layer_1" xmlns="http://www.w3.org/2000/svg" xmlns:xlink="http://www.w3.org/1999/xlink" x="0px" y="0px"
	 width="385.578px" height="131.18px" viewBox="0 0 385.578 131.18" enable-background="new 0 0 385.578 131.18"
	 xml:space="preserve">
<g>
	<g>
		<rect x="0.5" y="0.5" fill="#EE2A7B" width="64.271" height="65.63"/>
		<path fill="#FFFFFF" d="M65.271,66.63H0V0h65.271V66.63z M1,65.63h63.271V1H1V65.63z"/>
	</g>
	<g>
		<path d="M20.62,9.693c-0.242,0.121-0.725,0.241-1.344,0.241c-1.435,0-2.515-0.906-2.515-2.575c0-1.594,1.08-2.674,2.659-2.674
			c0.634,0,1.035,0.136,1.208,0.227l-0.159,0.536c-0.249-0.121-0.604-0.211-1.027-0.211c-1.193,0-1.986,0.763-1.986,2.1
			c0,1.246,0.718,2.047,1.956,2.047c0.4,0,0.809-0.083,1.073-0.212L20.62,9.693z"/>
		<path d="M24.649,8.001c0,1.354-0.937,1.941-1.82,1.941c-0.99,0-1.752-0.726-1.752-1.881c0-1.225,0.801-1.941,1.812-1.941
			C23.939,6.12,24.649,6.884,24.649,8.001z M21.749,8.039c0,0.801,0.46,1.405,1.11,1.405c0.635,0,1.11-0.597,1.11-1.42
			c0-0.62-0.31-1.405-1.095-1.405S21.749,7.344,21.749,8.039z"/>
		<path d="M25.49,7.193c0-0.378-0.007-0.688-0.03-0.989h0.589l0.038,0.604h0.015c0.181-0.348,0.604-0.688,1.208-0.688
			c0.506,0,1.292,0.303,1.292,1.557V9.86h-0.665V7.752c0-0.589-0.219-1.08-0.846-1.08c-0.438,0-0.778,0.311-0.892,0.681
			c-0.03,0.083-0.045,0.195-0.045,0.31V9.86H25.49V7.193z"/>
		<path d="M30.456,5.153v1.051h0.952V6.71h-0.952v1.972c0,0.452,0.128,0.71,0.499,0.71c0.174,0,0.302-0.022,0.385-0.045l0.03,0.498
			c-0.128,0.054-0.333,0.091-0.589,0.091c-0.31,0-0.559-0.099-0.717-0.279c-0.189-0.196-0.257-0.521-0.257-0.951V6.71H29.24V6.204
			h0.567V5.327L30.456,5.153z"/>
		<path d="M34.181,9.859l-0.053-0.461h-0.023c-0.204,0.287-0.597,0.544-1.118,0.544c-0.74,0-1.118-0.521-1.118-1.05
			c0-0.885,0.786-1.367,2.198-1.359V7.457c0-0.302-0.083-0.846-0.831-0.846c-0.34,0-0.695,0.105-0.952,0.271l-0.151-0.438
			c0.302-0.196,0.74-0.325,1.201-0.325c1.118,0,1.39,0.764,1.39,1.496v1.367c0,0.316,0.015,0.627,0.06,0.876H34.181z M34.083,7.994
			c-0.725-0.016-1.548,0.113-1.548,0.823c0,0.431,0.287,0.634,0.627,0.634c0.476,0,0.778-0.302,0.883-0.611
			c0.023-0.067,0.038-0.144,0.038-0.212V7.994z"/>
		<path d="M36.54,5.177c0.008,0.228-0.159,0.407-0.423,0.407c-0.234,0-0.4-0.181-0.4-0.407c0-0.233,0.174-0.416,0.416-0.416
			C36.381,4.76,36.54,4.942,36.54,5.177z M35.799,9.859V6.204h0.665v3.655H35.799z"/>
		<path d="M37.568,7.193c0-0.378-0.007-0.688-0.03-0.989h0.589l0.038,0.604h0.015c0.181-0.348,0.604-0.688,1.208-0.688
			c0.506,0,1.292,0.303,1.292,1.557V9.86h-0.665V7.752c0-0.589-0.219-1.08-0.846-1.08c-0.438,0-0.778,0.311-0.892,0.681
			c-0.03,0.083-0.045,0.195-0.045,0.31V9.86h-0.665L37.568,7.193L37.568,7.193z"/>
		<path d="M42.133,8.152c0.015,0.897,0.589,1.269,1.254,1.269c0.476,0,0.763-0.083,1.012-0.188l0.113,0.476
			c-0.234,0.106-0.635,0.228-1.216,0.228c-1.125,0-1.797-0.74-1.797-1.844c0-1.103,0.649-1.972,1.714-1.972
			c1.193,0,1.511,1.051,1.511,1.723c0,0.137-0.015,0.241-0.022,0.311h-2.569V8.152z M44.082,7.677
			c0.008-0.423-0.174-1.079-0.921-1.079c-0.672,0-0.967,0.618-1.02,1.079H44.082z"/>
		<path d="M45.549,7.344c0-0.43-0.007-0.8-0.03-1.14h0.582l0.023,0.717h0.03C46.32,6.431,46.72,6.12,47.166,6.12
			c0.075,0,0.128,0.008,0.188,0.023V6.77c-0.068-0.017-0.136-0.023-0.227-0.023c-0.468,0-0.8,0.355-0.891,0.854
			c-0.015,0.091-0.03,0.196-0.03,0.311V9.86h-0.657V7.344z"/>
	</g>
	<g>
		<path fill="#F1F2F2" d="M20.522,17.091c-0.046-0.853-0.1-1.876-0.091-2.638h-0.027c-0.208,0.716-0.462,1.479-0.771,2.32
			l-1.078,2.964h-0.599l-0.987-2.909c-0.29-0.861-0.535-1.65-0.707-2.375h-0.019c-0.018,0.762-0.063,1.785-0.118,2.701l-0.163,2.619
			H15.21l0.426-6.109h1.007l1.042,2.955c0.254,0.752,0.462,1.423,0.616,2.058h0.027c0.154-0.615,0.371-1.286,0.644-2.058
			l1.088-2.955h1.006l0.381,6.109h-0.771L20.522,17.091z"/>
		<path fill="#F1F2F2" d="M25.122,19.773l-0.063-0.554h-0.027c-0.244,0.346-0.716,0.652-1.341,0.652
			c-0.889,0-1.342-0.625-1.342-1.26c0-1.062,0.942-1.641,2.638-1.632v-0.09c0-0.363-0.1-1.017-0.997-1.017
			c-0.408,0-0.834,0.127-1.142,0.326l-0.182-0.525c0.362-0.234,0.889-0.39,1.441-0.39c1.341,0,1.667,0.915,1.667,1.794v1.641
			c0,0.382,0.019,0.754,0.073,1.053L25.122,19.773L25.122,19.773z M25.004,17.535c-0.87-0.019-1.858,0.136-1.858,0.987
			c0,0.517,0.345,0.762,0.752,0.762c0.571,0,0.934-0.362,1.061-0.734c0.027-0.082,0.046-0.172,0.046-0.254L25.004,17.535
			L25.004,17.535z"/>
		<path fill="#F1F2F2" d="M27.064,16.818c0-0.562-0.018-1.016-0.036-1.433h0.716l0.037,0.753h0.018
			c0.326-0.534,0.843-0.853,1.559-0.853c1.061,0,1.858,0.897,1.858,2.229c0,1.576-0.961,2.355-1.994,2.355
			c-0.58,0-1.088-0.254-1.351-0.688h-0.018v2.384h-0.789V16.818z M27.853,17.988c0,0.117,0.018,0.227,0.036,0.326
			c0.145,0.553,0.625,0.934,1.196,0.934c0.843,0,1.332-0.688,1.332-1.695c0-0.879-0.462-1.632-1.305-1.632
			c-0.544,0-1.052,0.392-1.206,0.988c-0.026,0.1-0.054,0.218-0.054,0.326L27.853,17.988L27.853,17.988z"/>
		<path fill="#F1F2F2" d="M34.963,14.335h-1.858v-0.671h4.523v0.671h-1.867v5.438h-0.798V14.335z"/>
		<path fill="#F1F2F2" d="M40.132,19.773l-0.063-0.554h-0.027c-0.245,0.346-0.716,0.652-1.342,0.652
			c-0.888,0-1.341-0.625-1.341-1.26c0-1.062,0.942-1.641,2.637-1.632v-0.09c0-0.363-0.1-1.017-0.996-1.017
			c-0.408,0-0.834,0.127-1.143,0.326l-0.182-0.525c0.363-0.234,0.889-0.39,1.441-0.39c1.342,0,1.668,0.915,1.668,1.794v1.641
			c0,0.382,0.018,0.754,0.072,1.053L40.132,19.773L40.132,19.773z M40.014,17.535c-0.87-0.019-1.858,0.136-1.858,0.987
			c0,0.517,0.345,0.762,0.753,0.762c0.57,0,0.934-0.362,1.061-0.734c0.026-0.082,0.045-0.172,0.045-0.254L40.014,17.535
			L40.014,17.535z"/>
		<path fill="#F1F2F2" d="M41.965,18.958c0.236,0.153,0.653,0.317,1.052,0.317c0.58,0,0.852-0.29,0.852-0.653
			c0-0.381-0.227-0.589-0.815-0.807c-0.788-0.28-1.16-0.716-1.16-1.241c0-0.707,0.571-1.287,1.514-1.287
			c0.444,0,0.834,0.127,1.079,0.271l-0.2,0.58c-0.172-0.108-0.489-0.255-0.896-0.255c-0.472,0-0.734,0.272-0.734,0.6
			c0,0.361,0.263,0.524,0.834,0.743c0.761,0.29,1.15,0.671,1.15,1.322c0,0.771-0.598,1.314-1.641,1.314
			c-0.479,0-0.924-0.118-1.232-0.299L41.965,18.958z"/>
		<path fill="#F1F2F2" d="M46.455,17.398h0.018c0.109-0.153,0.263-0.344,0.39-0.498l1.287-1.515h0.961l-1.694,1.805l1.93,2.583
			h-0.97l-1.514-2.104l-0.407,0.453v1.649h-0.789v-6.437h0.789L46.455,17.398L46.455,17.398z"/>
	</g>
	<g>
		<path fill="#FFFFFF" d="M16.192,34.751v0.589h-2.239v-0.589H16.192z"/>
		<path fill="#FFFFFF" d="M22.621,31.605v0.525l-2.565,5.365h-0.825l2.556-5.212v-0.018h-2.882v-0.662L22.621,31.605L22.621,31.605z
			"/>
		<path fill="#FFFFFF" d="M26.811,32.168c-0.163-0.01-0.372,0-0.598,0.036c-1.251,0.208-1.913,1.124-2.048,2.094h0.027
			c0.281-0.372,0.771-0.68,1.423-0.68c1.042,0,1.776,0.752,1.776,1.903c0,1.078-0.734,2.075-1.958,2.075
			c-1.26,0-2.084-0.979-2.084-2.512c0-1.16,0.417-2.075,0.997-2.654c0.489-0.48,1.142-0.779,1.885-0.87
			c0.236-0.036,0.435-0.046,0.58-0.046V32.168z M26.584,35.566c0-0.843-0.48-1.352-1.214-1.352c-0.48,0-0.925,0.3-1.142,0.727
			c-0.055,0.091-0.091,0.208-0.091,0.354c0.018,0.971,0.462,1.687,1.296,1.687C26.122,36.98,26.584,36.409,26.584,35.566z"/>
		<path fill="#FFFFFF" d="M28.028,36.002c0-0.743,0.444-1.27,1.169-1.577l-0.009-0.026c-0.653-0.31-0.934-0.816-0.934-1.323
			c0-0.934,0.789-1.568,1.822-1.568c1.142,0,1.713,0.717,1.713,1.45c0,0.499-0.245,1.033-0.97,1.378v0.027
			c0.734,0.29,1.188,0.807,1.188,1.521c0,1.024-0.879,1.714-2.003,1.714C28.771,37.597,28.028,36.862,28.028,36.002z M31.201,35.965
			c0-0.716-0.499-1.06-1.296-1.285c-0.689,0.198-1.061,0.651-1.061,1.214c-0.027,0.599,0.426,1.124,1.179,1.124
			C30.738,37.017,31.201,36.572,31.201,35.965z M29.007,33.02c0,0.589,0.444,0.905,1.124,1.088c0.508-0.173,0.897-0.535,0.897-1.069
			c0-0.472-0.281-0.961-0.997-0.961C29.37,32.077,29.007,32.512,29.007,33.02z"/>
		<path fill="#FFFFFF" d="M38.182,34.814c-0.045-0.854-0.1-1.876-0.09-2.639h-0.027c-0.208,0.717-0.462,1.479-0.771,2.32
			l-1.079,2.964h-0.598l-0.988-2.909c-0.29-0.86-0.535-1.649-0.707-2.375h-0.018c-0.018,0.763-0.063,1.785-0.118,2.701l-0.163,2.619
			h-0.752l0.426-6.108h1.006l1.042,2.954c0.254,0.752,0.462,1.424,0.616,2.059h0.027c0.154-0.616,0.372-1.287,0.644-2.059
			l1.088-2.954h1.006l0.381,6.108h-0.771L38.182,34.814z"/>
		<path fill="#FFFFFF" d="M40.326,31.469c0.344-0.071,0.888-0.127,1.441-0.127c0.789,0,1.296,0.137,1.677,0.444
			c0.317,0.235,0.508,0.598,0.508,1.078c0,0.59-0.39,1.106-1.033,1.342v0.019c0.58,0.146,1.26,0.626,1.26,1.531
			c0,0.525-0.208,0.926-0.517,1.225c-0.426,0.39-1.115,0.57-2.112,0.57c-0.544,0-0.961-0.035-1.224-0.072V31.469z M41.115,33.972
			h0.716c0.834,0,1.323-0.437,1.323-1.024c0-0.716-0.544-0.997-1.341-0.997c-0.363,0-0.571,0.027-0.698,0.055V33.972z
			 M41.115,36.898c0.154,0.026,0.38,0.037,0.662,0.037c0.815,0,1.568-0.301,1.568-1.188c0-0.834-0.716-1.179-1.577-1.179h-0.652
			L41.115,36.898L41.115,36.898z"/>
		<path fill="#FFFFFF" d="M16.192,45.635v0.59h-2.239v-0.59H16.192z"/>
		<path fill="#FFFFFF" d="M25.933,43.994l0.861,2.465c0.145,0.399,0.263,0.763,0.354,1.124h0.027c0.1-0.361,0.227-0.725,0.372-1.124
			l0.852-2.465h0.834l-1.722,4.387H26.75l-1.668-4.387H25.933z"/>
		<path fill="#FFFFFF" d="M34.284,48.182c-0.29,0.145-0.87,0.29-1.613,0.29c-1.722,0-3.019-1.089-3.019-3.092
			c0-1.912,1.296-3.209,3.19-3.209c0.762,0,1.242,0.163,1.45,0.272l-0.19,0.644c-0.299-0.146-0.725-0.254-1.232-0.254
			c-1.432,0-2.384,0.915-2.384,2.521c0,1.495,0.861,2.456,2.348,2.456c0.48,0,0.97-0.101,1.287-0.254L34.284,48.182z"/>
		<path fill="#FFFFFF" d="M39.118,46.151c0,1.622-1.124,2.329-2.184,2.329c-1.188,0-2.103-0.87-2.103-2.257
			c0-1.47,0.961-2.329,2.175-2.329C38.266,43.895,39.118,44.81,39.118,46.151z M35.637,46.196c0,0.961,0.553,1.687,1.333,1.687
			c0.761,0,1.333-0.717,1.333-1.703c0-0.743-0.372-1.688-1.314-1.688C36.045,44.492,35.637,45.362,35.637,46.196z"/>
		<path fill="#FFFFFF" d="M40.127,45.362c0-0.518-0.009-0.96-0.036-1.368h0.698l0.027,0.861h0.036
			c0.199-0.59,0.68-0.961,1.214-0.961c0.091,0,0.154,0.009,0.227,0.026v0.752c-0.082-0.019-0.164-0.026-0.272-0.026
			c-0.562,0-0.961,0.426-1.07,1.023c-0.018,0.108-0.036,0.235-0.036,0.371v2.339h-0.789L40.127,45.362L40.127,45.362z"/>
		<path fill="#FFFFFF" d="M43.446,46.332c0.018,1.079,0.707,1.523,1.504,1.523c0.571,0,0.916-0.101,1.214-0.228l0.136,0.57
			c-0.281,0.127-0.761,0.271-1.459,0.271c-1.351,0-2.157-0.889-2.157-2.212c0-1.322,0.78-2.364,2.058-2.364
			c1.432,0,1.813,1.26,1.813,2.065c0,0.163-0.019,0.29-0.027,0.371h-3.082V46.332z M45.785,45.762
			c0.009-0.509-0.208-1.297-1.106-1.297c-0.807,0-1.16,0.743-1.224,1.297H45.785z"/>
		<path fill="#FFFFFF" d="M19.355,48.646v-0.489l0.625-0.607c1.505-1.432,2.185-2.192,2.192-3.082c0-0.598-0.29-1.149-1.169-1.149
			c-0.535,0-0.979,0.271-1.251,0.498l-0.254-0.562c0.408-0.345,0.988-0.599,1.668-0.599c1.27,0,1.804,0.87,1.804,1.713
			c0,1.088-0.788,1.967-2.029,3.163l-0.473,0.436v0.019h2.647v0.662L19.355,48.646L19.355,48.646z"/>
	</g>
</g>
<g>
	<g>
		<rect x="0.407" y="65.766" fill="#EE2A7B" width="64.272" height="65.63"/>
		<path fill="#FFFFFF" d="M65.179,131.896H-0.093v-66.63h65.272V131.896z M0.907,130.896h63.272v-64.63H0.907V130.896z"/>
	</g>
	<g>
		<path d="M20.527,74.958c-0.242,0.121-0.725,0.241-1.344,0.241c-1.435,0-2.515-0.906-2.515-2.575c0-1.594,1.08-2.674,2.659-2.674
			c0.634,0,1.035,0.136,1.208,0.227l-0.159,0.536c-0.249-0.121-0.604-0.211-1.027-0.211c-1.193,0-1.986,0.764-1.986,2.101
			c0,1.246,0.718,2.047,1.956,2.047c0.4,0,0.809-0.083,1.073-0.212L20.527,74.958z"/>
		<path d="M24.557,73.266c0,1.353-0.937,1.94-1.82,1.94c-0.99,0-1.752-0.725-1.752-1.881c0-1.224,0.801-1.941,1.812-1.941
			C23.846,71.385,24.557,72.148,24.557,73.266z M21.656,73.304c0,0.801,0.46,1.404,1.11,1.404c0.635,0,1.11-0.597,1.11-1.42
			c0-0.62-0.31-1.405-1.095-1.405C21.996,71.884,21.656,72.608,21.656,73.304z"/>
		<path d="M25.397,72.458c0-0.378-0.007-0.688-0.03-0.989h0.589l0.038,0.604h0.015c0.181-0.347,0.604-0.688,1.208-0.688
			c0.506,0,1.292,0.304,1.292,1.558v2.183h-0.665v-2.106c0-0.589-0.219-1.08-0.846-1.08c-0.438,0-0.778,0.31-0.892,0.68
			c-0.03,0.083-0.045,0.196-0.045,0.31v2.198h-0.665L25.397,72.458L25.397,72.458z"/>
		<path d="M30.363,70.418v1.051h0.952v0.507h-0.952v1.971c0,0.454,0.128,0.71,0.499,0.71c0.174,0,0.302-0.022,0.385-0.045
			l0.03,0.499c-0.128,0.053-0.333,0.09-0.589,0.09c-0.31,0-0.559-0.098-0.717-0.279c-0.189-0.195-0.257-0.521-0.257-0.951v-1.993
			h-0.567v-0.507h0.567v-0.877L30.363,70.418z"/>
		<path d="M34.088,75.124l-0.053-0.461h-0.023c-0.204,0.287-0.597,0.544-1.118,0.544c-0.74,0-1.118-0.521-1.118-1.05
			c0-0.884,0.786-1.367,2.198-1.359v-0.075c0-0.303-0.083-0.847-0.831-0.847c-0.34,0-0.695,0.105-0.952,0.272L32.04,71.71
			c0.302-0.195,0.74-0.325,1.201-0.325c1.118,0,1.39,0.765,1.39,1.496v1.367c0,0.317,0.015,0.627,0.06,0.876H34.088z M33.99,73.259
			c-0.725-0.016-1.548,0.113-1.548,0.823c0,0.432,0.287,0.634,0.627,0.634c0.476,0,0.778-0.302,0.883-0.61
			c0.023-0.068,0.038-0.145,0.038-0.212V73.259z"/>
		<path d="M36.447,70.441c0.008,0.227-0.159,0.407-0.423,0.407c-0.234,0-0.4-0.182-0.4-0.407c0-0.234,0.174-0.416,0.416-0.416
			C36.288,70.025,36.447,70.207,36.447,70.441z M35.707,75.124v-3.655h0.665v3.655H35.707z"/>
		<path d="M37.475,72.458c0-0.378-0.007-0.688-0.03-0.989h0.589l0.038,0.604h0.015c0.181-0.347,0.604-0.688,1.208-0.688
			c0.506,0,1.292,0.304,1.292,1.558v2.183h-0.665v-2.106c0-0.589-0.219-1.08-0.846-1.08c-0.438,0-0.778,0.31-0.892,0.68
			c-0.03,0.083-0.045,0.196-0.045,0.31v2.198h-0.665L37.475,72.458L37.475,72.458z"/>
		<path d="M42.04,73.417c0.015,0.898,0.589,1.27,1.254,1.27c0.476,0,0.763-0.083,1.012-0.188l0.113,0.477
			c-0.234,0.105-0.635,0.227-1.216,0.227c-1.125,0-1.797-0.74-1.797-1.843c0-1.104,0.649-1.973,1.714-1.973
			c1.193,0,1.511,1.052,1.511,1.724c0,0.136-0.015,0.241-0.022,0.31H42.04V73.417z M43.989,72.941
			c0.008-0.423-0.174-1.08-0.921-1.08c-0.672,0-0.967,0.619-1.02,1.08H43.989z"/>
		<path d="M45.457,72.608c0-0.431-0.007-0.8-0.03-1.141h0.582l0.023,0.718h0.03c0.166-0.49,0.566-0.802,1.012-0.802
			c0.075,0,0.128,0.009,0.188,0.023v0.627c-0.068-0.016-0.136-0.023-0.227-0.023c-0.468,0-0.8,0.355-0.891,0.854
			c-0.015,0.091-0.03,0.197-0.03,0.311v1.948h-0.657V72.608z"/>
	</g>
	<g>
		<path fill="#F1F2F2" d="M20.429,82.356c-0.045-0.854-0.1-1.876-0.09-2.639h-0.027c-0.208,0.717-0.462,1.479-0.771,2.32
			l-1.079,2.964h-0.598l-0.988-2.909c-0.29-0.86-0.535-1.649-0.707-2.375h-0.018c-0.018,0.763-0.063,1.785-0.118,2.701l-0.163,2.619
			h-0.752l0.426-6.108h1.006l1.042,2.954c0.254,0.752,0.462,1.424,0.616,2.059h0.027c0.154-0.616,0.372-1.287,0.644-2.059
			l1.088-2.954h1.006l0.381,6.108h-0.771L20.429,82.356z"/>
		<path fill="#F1F2F2" d="M25.029,85.039l-0.063-0.553h-0.027c-0.245,0.345-0.716,0.652-1.341,0.652
			c-0.888,0-1.341-0.625-1.341-1.261c0-1.061,0.942-1.641,2.637-1.632v-0.09c0-0.363-0.1-1.016-0.997-1.016
			c-0.408,0-0.834,0.127-1.142,0.325l-0.182-0.524c0.363-0.235,0.888-0.391,1.441-0.391c1.341,0,1.667,0.915,1.667,1.794v1.642
			c0,0.381,0.018,0.753,0.073,1.052L25.029,85.039L25.029,85.039z M24.911,82.801c-0.87-0.019-1.858,0.137-1.858,0.987
			c0,0.518,0.345,0.762,0.752,0.762c0.571,0,0.934-0.361,1.061-0.733c0.027-0.082,0.045-0.172,0.045-0.254V82.801z"/>
		<path fill="#F1F2F2" d="M26.971,82.084c0-0.562-0.018-1.015-0.036-1.432h0.716l0.036,0.752h0.019
			c0.326-0.534,0.843-0.853,1.559-0.853c1.061,0,1.858,0.897,1.858,2.229c0,1.577-0.961,2.356-1.994,2.356
			c-0.58,0-1.088-0.255-1.351-0.688H27.76v2.384h-0.789V82.084z M27.76,83.254c0,0.117,0.018,0.228,0.036,0.326
			c0.145,0.553,0.625,0.935,1.197,0.935c0.843,0,1.332-0.689,1.332-1.695c0-0.879-0.462-1.632-1.305-1.632
			c-0.544,0-1.051,0.391-1.206,0.987c-0.027,0.101-0.054,0.219-0.054,0.326V83.254z"/>
		<path fill="#F1F2F2" d="M34.871,79.601h-1.858V78.93h4.523v0.671h-1.867v5.438h-0.797L34.871,79.601L34.871,79.601z"/>
		<path fill="#F1F2F2" d="M40.039,85.039l-0.063-0.553h-0.027c-0.245,0.345-0.716,0.652-1.341,0.652
			c-0.888,0-1.341-0.625-1.341-1.261c0-1.061,0.942-1.641,2.637-1.632v-0.09c0-0.363-0.1-1.016-0.997-1.016
			c-0.408,0-0.833,0.127-1.142,0.325l-0.182-0.524c0.363-0.235,0.889-0.391,1.441-0.391c1.341,0,1.667,0.915,1.667,1.794v1.642
			c0,0.381,0.018,0.753,0.073,1.052L40.039,85.039L40.039,85.039z M39.921,82.801c-0.87-0.019-1.858,0.137-1.858,0.987
			c0,0.518,0.345,0.762,0.752,0.762c0.571,0,0.934-0.361,1.061-0.733c0.027-0.082,0.045-0.172,0.045-0.254V82.801z"/>
		<path fill="#F1F2F2" d="M41.873,84.224c0.236,0.152,0.653,0.316,1.052,0.316c0.58,0,0.852-0.29,0.852-0.652
			c0-0.382-0.227-0.59-0.815-0.808c-0.789-0.28-1.16-0.716-1.16-1.241c0-0.707,0.571-1.287,1.514-1.287
			c0.444,0,0.834,0.128,1.079,0.271l-0.2,0.58c-0.172-0.108-0.489-0.254-0.897-0.254c-0.472,0-0.734,0.271-0.734,0.599
			c0,0.362,0.263,0.525,0.834,0.743c0.761,0.29,1.151,0.671,1.151,1.323c0,0.771-0.598,1.313-1.641,1.313
			c-0.48,0-0.924-0.118-1.232-0.299L41.873,84.224z"/>
		<path fill="#F1F2F2" d="M46.361,82.664h0.018c0.109-0.153,0.263-0.344,0.39-0.498l1.287-1.514h0.961l-1.695,1.804l1.93,2.583
			h-0.97l-1.514-2.103l-0.408,0.453v1.648h-0.789v-6.436h0.789L46.361,82.664L46.361,82.664z"/>
	</g>
	<g>
		<path fill="#FFFFFF" d="M16.099,100.017v0.589H13.86v-0.589H16.099z"/>
		<path fill="#FFFFFF" d="M22.528,96.871v0.526l-2.565,5.365h-0.825l2.556-5.213v-0.018h-2.882V96.87L22.528,96.871L22.528,96.871z"
			/>
		<path fill="#FFFFFF" d="M26.718,97.434c-0.163-0.011-0.372,0-0.598,0.035c-1.251,0.208-1.913,1.124-2.048,2.095h0.027
			c0.281-0.372,0.771-0.681,1.423-0.681c1.042,0,1.776,0.752,1.776,1.903c0,1.078-0.734,2.075-1.958,2.075
			c-1.26,0-2.084-0.979-2.084-2.511c0-1.16,0.417-2.075,0.997-2.655c0.489-0.48,1.142-0.779,1.885-0.87
			c0.236-0.036,0.435-0.046,0.58-0.046V97.434z M26.492,100.832c0-0.843-0.48-1.351-1.214-1.351c-0.48,0-0.925,0.299-1.142,0.726
			c-0.055,0.091-0.091,0.208-0.091,0.354c0.018,0.97,0.462,1.686,1.296,1.686C26.029,102.246,26.492,101.675,26.492,100.832z"/>
		<path fill="#FFFFFF" d="M27.936,101.268c0-0.743,0.444-1.271,1.169-1.577l-0.009-0.027c-0.653-0.309-0.934-0.815-0.934-1.323
			c0-0.934,0.789-1.567,1.822-1.567c1.142,0,1.713,0.716,1.713,1.45c0,0.499-0.245,1.032-0.97,1.378v0.026
			c0.734,0.29,1.188,0.808,1.188,1.522c0,1.023-0.879,1.713-2.003,1.713C28.679,102.862,27.936,102.128,27.936,101.268z
			 M31.108,101.23c0-0.716-0.499-1.061-1.296-1.286c-0.689,0.199-1.061,0.652-1.061,1.214c-0.027,0.599,0.426,1.124,1.179,1.124
			C30.646,102.282,31.108,101.838,31.108,101.23z M28.915,98.285c0,0.589,0.444,0.906,1.124,1.088
			c0.508-0.173,0.897-0.535,0.897-1.068c0-0.473-0.281-0.962-0.997-0.962C29.277,97.343,28.915,97.777,28.915,98.285z"/>
		<path fill="#FFFFFF" d="M40.012,100.08c-0.045-0.853-0.1-1.876-0.09-2.638h-0.027c-0.208,0.716-0.462,1.478-0.771,2.32
			l-1.079,2.964h-0.598l-0.988-2.909c-0.29-0.861-0.535-1.65-0.707-2.375h-0.018c-0.018,0.762-0.063,1.785-0.118,2.701l-0.163,2.619
			h-0.752l0.426-6.109h1.006l1.042,2.955c0.254,0.752,0.462,1.423,0.616,2.058h0.027c0.154-0.616,0.372-1.287,0.644-2.058
			l1.088-2.955h1.006l0.381,6.109h-0.771L40.012,100.08z"/>
		<path fill="#FFFFFF" d="M42.156,96.735c0.344-0.072,0.888-0.127,1.441-0.127c0.789,0,1.296,0.136,1.677,0.443
			c0.317,0.235,0.508,0.599,0.508,1.078c0,0.59-0.39,1.106-1.033,1.343v0.018c0.58,0.146,1.26,0.626,1.26,1.532
			c0,0.524-0.208,0.925-0.517,1.224c-0.426,0.39-1.115,0.571-2.112,0.571c-0.544,0-0.961-0.036-1.224-0.073V96.735z M42.945,99.237
			h0.716c0.834,0,1.323-0.437,1.323-1.024c0-0.716-0.544-0.997-1.341-0.997c-0.363,0-0.571,0.027-0.698,0.056V99.237z
			 M42.945,102.164c0.154,0.027,0.38,0.037,0.662,0.037c0.815,0,1.568-0.3,1.568-1.188c0-0.834-0.716-1.18-1.577-1.18h-0.652
			L42.945,102.164L42.945,102.164z"/>
		<path fill="#FFFFFF" d="M16.099,110.9v0.589H13.86V110.9H16.099z"/>
		<path fill="#FFFFFF" d="M20.435,108.498h-0.018l-1.024,0.553l-0.154-0.605l1.287-0.689h0.68v5.893h-0.771V108.498z"/>
		<path fill="#FFFFFF" d="M25.84,109.26l0.861,2.466c0.145,0.398,0.263,0.762,0.354,1.124h0.027c0.1-0.362,0.227-0.726,0.372-1.124
			l0.852-2.466h0.834l-1.722,4.388h-0.761l-1.668-4.388H25.84z"/>
		<path fill="#FFFFFF" d="M34.191,113.447c-0.29,0.145-0.87,0.29-1.613,0.29c-1.722,0-3.019-1.088-3.019-3.091
			c0-1.912,1.296-3.209,3.19-3.209c0.762,0,1.242,0.163,1.45,0.271l-0.19,0.645c-0.299-0.146-0.725-0.254-1.232-0.254
			c-1.432,0-2.384,0.915-2.384,2.52c0,1.495,0.861,2.456,2.348,2.456c0.48,0,0.97-0.1,1.287-0.254L34.191,113.447z"/>
		<path fill="#FFFFFF" d="M39.025,111.417c0,1.622-1.124,2.329-2.184,2.329c-1.188,0-2.103-0.87-2.103-2.257
			c0-1.469,0.961-2.329,2.175-2.329C38.173,109.16,39.025,110.075,39.025,111.417z M35.544,111.462c0,0.961,0.553,1.688,1.333,1.688
			c0.761,0,1.333-0.717,1.333-1.704c0-0.743-0.372-1.688-1.314-1.688C35.953,109.758,35.544,110.628,35.544,111.462z"/>
		<path fill="#FFFFFF" d="M40.034,110.628c0-0.517-0.009-0.96-0.036-1.368h0.698l0.027,0.861h0.036
			c0.199-0.59,0.68-0.961,1.214-0.961c0.091,0,0.154,0.009,0.227,0.027v0.752c-0.082-0.02-0.164-0.027-0.272-0.027
			c-0.562,0-0.961,0.426-1.07,1.024c-0.018,0.107-0.036,0.234-0.036,0.371v2.339h-0.789L40.034,110.628L40.034,110.628z"/>
		<path fill="#FFFFFF" d="M43.354,111.598c0.018,1.078,0.707,1.522,1.504,1.522c0.571,0,0.916-0.1,1.214-0.227l0.136,0.569
			c-0.281,0.127-0.761,0.272-1.459,0.272c-1.351,0-2.157-0.889-2.157-2.212s0.78-2.365,2.058-2.365c1.432,0,1.813,1.26,1.813,2.066
			c0,0.163-0.019,0.29-0.027,0.371h-3.082V111.598z M45.692,111.027c0.009-0.508-0.208-1.296-1.106-1.296
			c-0.807,0-1.16,0.743-1.224,1.296H45.692z"/>
	</g>
</g>
<g>
	<g>
		<rect x="64.324" y="0.683" fill="#EE2A7B" width="64.272" height="65.631"/>
		<path fill="#FFFFFF" d="M129.096,66.813H63.824V0.183h65.272V66.813L129.096,66.813z M64.824,65.813h63.272V1.183H64.824V65.813z"
			/>
	</g>
	<g>
		<path d="M84.361,10.042c-0.242,0.121-0.725,0.241-1.344,0.241c-1.435,0-2.515-0.906-2.515-2.575c0-1.594,1.08-2.674,2.659-2.674
			c0.634,0,1.035,0.136,1.208,0.227L84.21,5.796c-0.249-0.121-0.604-0.211-1.027-0.211c-1.193,0-1.986,0.764-1.986,2.101
			c0,1.246,0.718,2.047,1.956,2.047c0.4,0,0.809-0.083,1.073-0.212L84.361,10.042z"/>
		<path d="M88.39,8.349c0,1.353-0.937,1.94-1.82,1.94c-0.99,0-1.752-0.725-1.752-1.881c0-1.224,0.801-1.941,1.812-1.941
			C87.68,6.468,88.39,7.232,88.39,8.349z M85.49,8.387c0,0.801,0.46,1.404,1.11,1.404c0.635,0,1.11-0.597,1.11-1.42
			c0-0.62-0.31-1.405-1.095-1.405C85.83,6.967,85.49,7.692,85.49,8.387z"/>
		<path d="M89.231,7.542c0-0.378-0.007-0.688-0.03-0.989h0.589l0.038,0.604h0.015c0.181-0.347,0.604-0.688,1.208-0.688
			c0.506,0,1.292,0.304,1.292,1.558v2.183h-0.665V8.1c0-0.59-0.219-1.08-0.846-1.08c-0.438,0-0.778,0.31-0.892,0.68
			c-0.03,0.083-0.045,0.196-0.045,0.31v2.198H89.23L89.231,7.542L89.231,7.542z"/>
		<path d="M94.196,5.501v1.051h0.952v0.507h-0.952v1.971c0,0.454,0.128,0.71,0.499,0.71c0.174,0,0.302-0.022,0.385-0.045l0.03,0.499
			c-0.128,0.053-0.333,0.09-0.589,0.09c-0.31,0-0.559-0.098-0.717-0.279c-0.189-0.195-0.257-0.521-0.257-0.951V7.058H92.98V6.552
			h0.567V5.675L94.196,5.501z"/>
		<path d="M97.921,10.208l-0.053-0.461h-0.023c-0.204,0.287-0.597,0.544-1.118,0.544c-0.74,0-1.118-0.521-1.118-1.05
			c0-0.884,0.786-1.367,2.198-1.359V7.805c0-0.303-0.083-0.847-0.831-0.847c-0.34,0-0.695,0.105-0.952,0.272l-0.151-0.438
			c0.302-0.195,0.74-0.325,1.201-0.325c1.118,0,1.39,0.765,1.39,1.496v1.367c0,0.317,0.015,0.627,0.06,0.876L97.921,10.208
			L97.921,10.208z M97.823,8.342c-0.725-0.016-1.548,0.113-1.548,0.823c0,0.432,0.287,0.634,0.627,0.634
			c0.476,0,0.778-0.302,0.883-0.61c0.023-0.068,0.038-0.145,0.038-0.212V8.342z"/>
		<path d="M100.28,5.525c0.008,0.227-0.159,0.407-0.423,0.407c-0.234,0-0.4-0.182-0.4-0.407c0-0.234,0.174-0.416,0.416-0.416
			C100.122,5.109,100.28,5.291,100.28,5.525z M99.54,10.208V6.552h0.665v3.655L99.54,10.208L99.54,10.208z"/>
		<path d="M101.309,7.542c0-0.378-0.007-0.688-0.03-0.989h0.589l0.038,0.604h0.015c0.181-0.347,0.604-0.688,1.208-0.688
			c0.506,0,1.292,0.304,1.292,1.558v2.183h-0.665V8.1c0-0.59-0.219-1.08-0.846-1.08c-0.438,0-0.778,0.31-0.892,0.68
			c-0.03,0.083-0.045,0.196-0.045,0.31v2.198h-0.665L101.309,7.542L101.309,7.542z"/>
		<path d="M105.874,8.5c0.015,0.898,0.589,1.27,1.254,1.27c0.476,0,0.763-0.083,1.012-0.188l0.113,0.477
			c-0.234,0.105-0.635,0.227-1.216,0.227c-1.125,0-1.797-0.74-1.797-1.843c0-1.104,0.649-1.973,1.714-1.973
			c1.193,0,1.511,1.052,1.511,1.724c0,0.136-0.015,0.241-0.022,0.31h-2.569V8.5z M107.822,8.025c0.008-0.423-0.174-1.08-0.921-1.08
			c-0.672,0-0.967,0.619-1.02,1.08H107.822z"/>
		<path d="M109.29,7.692c0-0.43-0.007-0.8-0.03-1.141h0.582l0.023,0.718h0.03c0.166-0.49,0.566-0.802,1.012-0.802
			c0.075,0,0.128,0.009,0.188,0.023v0.627c-0.068-0.016-0.136-0.023-0.227-0.023c-0.468,0-0.8,0.355-0.891,0.854
			c-0.015,0.091-0.03,0.197-0.03,0.311v1.948h-0.657V7.692L109.29,7.692z"/>
	</g>
	<g>
		<path fill="#F1F2F2" d="M84.262,17.44c-0.045-0.854-0.1-1.876-0.09-2.639h-0.027c-0.208,0.717-0.462,1.479-0.771,2.32
			l-1.079,2.964h-0.598l-0.988-2.909c-0.29-0.86-0.535-1.649-0.707-2.375h-0.018c-0.018,0.763-0.063,1.785-0.118,2.701l-0.163,2.619
			h-0.752l0.426-6.108h1.006l1.042,2.954c0.254,0.752,0.462,1.424,0.616,2.059h0.027c0.154-0.616,0.372-1.287,0.644-2.059
			l1.088-2.954h1.006l0.381,6.108h-0.771L84.262,17.44z"/>
		<path fill="#F1F2F2" d="M88.862,20.123l-0.063-0.553h-0.027c-0.245,0.345-0.716,0.652-1.341,0.652
			c-0.888,0-1.341-0.625-1.341-1.261c0-1.061,0.942-1.641,2.637-1.632v-0.09c0-0.363-0.1-1.016-0.997-1.016
			c-0.408,0-0.834,0.127-1.142,0.325l-0.182-0.524c0.363-0.235,0.888-0.391,1.441-0.391c1.341,0,1.667,0.915,1.667,1.795v1.641
			c0,0.381,0.018,0.753,0.073,1.052L88.862,20.123L88.862,20.123z M88.744,17.884c-0.87-0.019-1.858,0.137-1.858,0.987
			c0,0.518,0.345,0.762,0.752,0.762c0.571,0,0.934-0.361,1.061-0.733c0.027-0.082,0.045-0.172,0.045-0.254V17.884z"/>
		<path fill="#F1F2F2" d="M90.805,17.167c0-0.562-0.018-1.015-0.036-1.432h0.716l0.036,0.752h0.019
			c0.326-0.534,0.843-0.853,1.559-0.853c1.061,0,1.858,0.897,1.858,2.229c0,1.577-0.961,2.355-1.994,2.355
			c-0.58,0-1.088-0.254-1.351-0.688h-0.018v2.384h-0.789V17.167z M91.593,18.337c0,0.117,0.018,0.228,0.036,0.326
			c0.145,0.553,0.625,0.935,1.197,0.935c0.843,0,1.332-0.689,1.332-1.695c0-0.879-0.462-1.632-1.305-1.632
			c-0.544,0-1.051,0.391-1.206,0.987c-0.027,0.101-0.054,0.219-0.054,0.326V18.337z"/>
		<path fill="#F1F2F2" d="M98.704,14.684h-1.858v-0.671h4.523v0.671h-1.867v5.438h-0.797L98.704,14.684L98.704,14.684z"/>
		<path fill="#F1F2F2" d="M103.873,20.123l-0.063-0.553h-0.027c-0.245,0.345-0.716,0.652-1.341,0.652
			c-0.888,0-1.341-0.625-1.341-1.261c0-1.061,0.942-1.641,2.637-1.632v-0.09c0-0.363-0.1-1.016-0.997-1.016
			c-0.408,0-0.833,0.127-1.142,0.325l-0.182-0.524c0.363-0.235,0.889-0.391,1.441-0.391c1.341,0,1.667,0.915,1.667,1.795v1.641
			c0,0.381,0.018,0.753,0.073,1.052L103.873,20.123L103.873,20.123z M103.755,17.884c-0.87-0.019-1.858,0.137-1.858,0.987
			c0,0.518,0.345,0.762,0.752,0.762c0.571,0,0.934-0.361,1.061-0.733c0.027-0.082,0.045-0.172,0.045-0.254V17.884z"/>
		<path fill="#F1F2F2" d="M105.706,19.307c0.236,0.152,0.653,0.316,1.052,0.316c0.58,0,0.852-0.29,0.852-0.652
			c0-0.382-0.227-0.59-0.815-0.808c-0.789-0.28-1.16-0.716-1.16-1.241c0-0.707,0.571-1.287,1.514-1.287
			c0.444,0,0.834,0.128,1.079,0.271l-0.2,0.58c-0.172-0.108-0.489-0.254-0.897-0.254c-0.472,0-0.734,0.271-0.734,0.599
			c0,0.362,0.263,0.525,0.834,0.743c0.761,0.29,1.151,0.671,1.151,1.323c0,0.771-0.598,1.313-1.641,1.313
			c-0.48,0-0.924-0.118-1.232-0.299L105.706,19.307z"/>
		<path fill="#F1F2F2" d="M110.195,17.748h0.018c0.109-0.153,0.263-0.344,0.39-0.498l1.287-1.514h0.961l-1.695,1.804l1.93,2.583
			h-0.97l-1.514-2.103l-0.408,0.453v1.648h-0.789v-6.436h0.789L110.195,17.748L110.195,17.748z"/>
	</g>
	<g>
		<path fill="#FFFFFF" d="M79.933,35.101v0.588h-2.239v-0.588H79.933z"/>
		<path fill="#FFFFFF" d="M86.362,31.954v0.527l-2.565,5.365h-0.825l2.556-5.214v-0.018h-2.882v-0.662L86.362,31.954L86.362,31.954z
			"/>
		<path fill="#FFFFFF" d="M90.552,32.517c-0.163-0.011-0.372,0-0.598,0.037c-1.251,0.206-1.913,1.122-2.048,2.094h0.027
			c0.281-0.373,0.771-0.681,1.423-0.681c1.042,0,1.776,0.752,1.776,1.902c0,1.078-0.734,2.076-1.958,2.076
			c-1.26,0-2.084-0.979-2.084-2.512c0-1.16,0.417-2.074,0.997-2.654c0.489-0.48,1.142-0.779,1.885-0.871
			c0.236-0.035,0.435-0.045,0.58-0.045C90.552,31.864,90.552,32.517,90.552,32.517z M90.325,35.915c0-0.842-0.48-1.35-1.214-1.35
			c-0.48,0-0.925,0.299-1.142,0.725c-0.055,0.092-0.091,0.209-0.091,0.354c0.018,0.971,0.462,1.686,1.296,1.686
			C89.863,37.329,90.325,36.759,90.325,35.915z"/>
		<path fill="#FFFFFF" d="M91.769,36.351c0-0.742,0.444-1.271,1.169-1.576l-0.009-0.027c-0.653-0.309-0.934-0.815-0.934-1.324
			c0-0.934,0.789-1.567,1.822-1.567c1.142,0,1.713,0.717,1.713,1.451c0,0.498-0.245,1.032-0.97,1.377v0.026
			c0.734,0.291,1.188,0.808,1.188,1.523c0,1.022-0.879,1.713-2.003,1.713C92.512,37.946,91.769,37.212,91.769,36.351z
			 M94.941,36.313c0-0.715-0.499-1.06-1.296-1.285c-0.689,0.199-1.061,0.652-1.061,1.213c-0.027,0.6,0.426,1.125,1.179,1.125
			C94.479,37.366,94.941,36.921,94.941,36.313z M92.748,33.368c0,0.59,0.444,0.906,1.124,1.088c0.508-0.172,0.897-0.535,0.897-1.067
			c0-0.474-0.281-0.962-0.997-0.962C93.11,32.427,92.748,32.86,92.748,33.368z"/>
		<path fill="#FFFFFF" d="M103.846,35.163c-0.045-0.852-0.1-1.875-0.09-2.637h-0.027c-0.208,0.715-0.462,1.477-0.771,2.32
			l-1.079,2.963h-0.598l-0.988-2.908c-0.29-0.861-0.535-1.65-0.707-2.375h-0.018c-0.018,0.762-0.063,1.785-0.118,2.701l-0.163,2.619
			h-0.752l0.426-6.109h1.006l1.042,2.955c0.254,0.752,0.462,1.422,0.616,2.057h0.027c0.154-0.615,0.372-1.287,0.644-2.057
			l1.088-2.955h1.006l0.381,6.109H104L103.846,35.163z"/>
		<path fill="#FFFFFF" d="M105.99,31.819c0.344-0.072,0.888-0.127,1.441-0.127c0.789,0,1.296,0.135,1.677,0.442
			c0.317,0.236,0.508,0.599,0.508,1.078c0,0.59-0.39,1.107-1.033,1.343v0.018c0.58,0.146,1.26,0.627,1.26,1.533
			c0,0.524-0.208,0.924-0.517,1.223c-0.426,0.391-1.115,0.572-2.112,0.572c-0.544,0-0.961-0.037-1.224-0.074V31.819L105.99,31.819z
			 M106.778,34.321h0.716c0.834,0,1.323-0.437,1.323-1.025c0-0.715-0.544-0.996-1.341-0.996c-0.363,0-0.571,0.027-0.698,0.056
			V34.321z M106.778,37.247c0.154,0.027,0.38,0.037,0.662,0.037c0.815,0,1.568-0.299,1.568-1.188c0-0.834-0.716-1.179-1.577-1.179
			h-0.652L106.778,37.247L106.778,37.247z"/>
		<path fill="#FFFFFF" d="M79.933,45.983v0.59h-2.239v-0.59H79.933z"/>
		<path fill="#FFFFFF" d="M89.674,44.343l0.861,2.466c0.145,0.399,0.263,0.762,0.354,1.125h0.027c0.1-0.363,0.227-0.726,0.372-1.125
			l0.852-2.466h0.834l-1.722,4.388H90.49l-1.668-4.388H89.674z"/>
		<path fill="#FFFFFF" d="M98.024,48.53c-0.29,0.145-0.87,0.291-1.613,0.291c-1.722,0-3.019-1.088-3.019-3.092
			c0-1.912,1.296-3.209,3.19-3.209c0.762,0,1.242,0.164,1.45,0.272l-0.19,0.644c-0.299-0.146-0.725-0.254-1.232-0.254
			c-1.432,0-2.384,0.916-2.384,2.52c0,1.496,0.861,2.457,2.348,2.457c0.48,0,0.97-0.1,1.287-0.254L98.024,48.53z"/>
		<path fill="#FFFFFF" d="M102.858,46.501c0,1.621-1.124,2.328-2.184,2.328c-1.188,0-2.103-0.869-2.103-2.256
			c0-1.469,0.961-2.33,2.175-2.33C102.007,44.243,102.858,45.159,102.858,46.501z M99.378,46.546c0,0.961,0.553,1.687,1.333,1.687
			c0.761,0,1.333-0.717,1.333-1.703c0-0.744-0.372-1.688-1.314-1.688C99.786,44.841,99.378,45.712,99.378,46.546z"/>
		<path fill="#FFFFFF" d="M103.868,45.712c0-0.518-0.009-0.961-0.036-1.369h0.698l0.027,0.861h0.036
			c0.199-0.59,0.68-0.961,1.214-0.961c0.091,0,0.154,0.01,0.227,0.027v0.752c-0.082-0.019-0.164-0.027-0.272-0.027
			c-0.562,0-0.961,0.426-1.07,1.025c-0.018,0.106-0.036,0.233-0.036,0.371v2.338h-0.789L103.868,45.712L103.868,45.712z"/>
		<path fill="#FFFFFF" d="M107.187,46.681c0.018,1.079,0.707,1.522,1.504,1.522c0.571,0,0.916-0.1,1.214-0.227l0.136,0.569
			c-0.281,0.127-0.761,0.273-1.459,0.273c-1.351,0-2.157-0.889-2.157-2.213c0-1.322,0.78-2.365,2.058-2.365
			c1.432,0,1.813,1.26,1.813,2.066c0,0.164-0.019,0.291-0.027,0.371h-3.082V46.681z M109.525,46.11
			c0.009-0.508-0.208-1.295-1.106-1.295c-0.807,0-1.16,0.742-1.224,1.295H109.525z"/>
	</g>
</g>
<g>
	<g>
		<rect x="64.407" y="65.766" fill="#EE2A7B" width="64.272" height="65.63"/>
		<path fill="#FFFFFF" d="M129.179,131.896H63.907v-66.63h65.272V131.896z M64.907,130.896h63.272v-64.63H64.907V130.896z"/>
	</g>
	<g>
		<path d="M84.527,74.958c-0.242,0.121-0.725,0.241-1.344,0.241c-1.435,0-2.515-0.906-2.515-2.575c0-1.594,1.08-2.674,2.659-2.674
			c0.634,0,1.035,0.136,1.208,0.227l-0.159,0.536c-0.249-0.121-0.604-0.211-1.027-0.211c-1.193,0-1.986,0.764-1.986,2.101
			c0,1.246,0.718,2.047,1.956,2.047c0.4,0,0.809-0.083,1.073-0.212L84.527,74.958z"/>
		<path d="M88.557,73.266c0,1.353-0.937,1.94-1.82,1.94c-0.99,0-1.752-0.725-1.752-1.881c0-1.224,0.801-1.941,1.812-1.941
			C87.846,71.385,88.557,72.148,88.557,73.266z M85.656,73.304c0,0.801,0.46,1.404,1.11,1.404c0.635,0,1.11-0.597,1.11-1.42
			c0-0.62-0.31-1.405-1.095-1.405C85.996,71.884,85.656,72.608,85.656,73.304z"/>
		<path d="M89.397,72.458c0-0.378-0.007-0.688-0.03-0.989h0.589l0.038,0.604h0.015c0.181-0.347,0.604-0.688,1.208-0.688
			c0.506,0,1.292,0.304,1.292,1.558v2.183h-0.665v-2.106c0-0.589-0.219-1.08-0.846-1.08c-0.438,0-0.778,0.31-0.892,0.68
			c-0.03,0.083-0.045,0.196-0.045,0.31v2.198h-0.665L89.397,72.458L89.397,72.458z"/>
		<path d="M94.363,70.418v1.051h0.952v0.507h-0.952v1.971c0,0.454,0.128,0.71,0.499,0.71c0.174,0,0.302-0.022,0.385-0.045
			l0.03,0.499c-0.128,0.053-0.333,0.09-0.589,0.09c-0.31,0-0.559-0.098-0.717-0.279c-0.189-0.195-0.257-0.521-0.257-0.951v-1.993
			h-0.567v-0.507h0.567v-0.877L94.363,70.418z"/>
		<path d="M98.088,75.124l-0.053-0.461h-0.023c-0.204,0.287-0.597,0.544-1.118,0.544c-0.74,0-1.118-0.521-1.118-1.05
			c0-0.884,0.786-1.367,2.198-1.359v-0.075c0-0.303-0.083-0.847-0.831-0.847c-0.34,0-0.695,0.105-0.952,0.272L96.04,71.71
			c0.302-0.195,0.74-0.325,1.201-0.325c1.118,0,1.39,0.765,1.39,1.496v1.367c0,0.317,0.015,0.627,0.06,0.876H98.088z M97.99,73.259
			c-0.725-0.016-1.548,0.113-1.548,0.823c0,0.432,0.287,0.634,0.627,0.634c0.476,0,0.778-0.302,0.883-0.61
			c0.023-0.068,0.038-0.145,0.038-0.212V73.259z"/>
		<path d="M100.447,70.441c0.008,0.227-0.159,0.407-0.423,0.407c-0.234,0-0.4-0.182-0.4-0.407c0-0.234,0.174-0.416,0.416-0.416
			C100.288,70.025,100.447,70.207,100.447,70.441z M99.707,75.124v-3.655h0.665v3.655H99.707z"/>
		<path d="M101.475,72.458c0-0.378-0.007-0.688-0.03-0.989h0.589l0.038,0.604h0.015c0.181-0.347,0.604-0.688,1.208-0.688
			c0.506,0,1.292,0.304,1.292,1.558v2.183h-0.665v-2.106c0-0.589-0.219-1.08-0.846-1.08c-0.438,0-0.778,0.31-0.892,0.68
			c-0.03,0.083-0.045,0.196-0.045,0.31v2.198h-0.665L101.475,72.458L101.475,72.458z"/>
		<path d="M106.04,73.417c0.015,0.898,0.589,1.27,1.254,1.27c0.476,0,0.763-0.083,1.012-0.188l0.113,0.477
			c-0.234,0.105-0.635,0.227-1.216,0.227c-1.125,0-1.797-0.74-1.797-1.843c0-1.104,0.649-1.973,1.714-1.973
			c1.193,0,1.511,1.052,1.511,1.724c0,0.136-0.015,0.241-0.022,0.31h-2.569V73.417z M107.989,72.941
			c0.008-0.423-0.174-1.08-0.921-1.08c-0.672,0-0.967,0.619-1.02,1.08H107.989z"/>
		<path d="M109.457,72.608c0-0.431-0.007-0.8-0.03-1.141h0.582l0.023,0.718h0.03c0.166-0.49,0.566-0.802,1.012-0.802
			c0.075,0,0.128,0.009,0.188,0.023v0.627c-0.068-0.016-0.136-0.023-0.227-0.023c-0.468,0-0.8,0.355-0.891,0.854
			c-0.015,0.091-0.03,0.197-0.03,0.311v1.948h-0.657V72.608L109.457,72.608z"/>
	</g>
	<g>
		<path fill="#F1F2F2" d="M84.429,82.356c-0.045-0.854-0.1-1.876-0.09-2.639h-0.027c-0.208,0.717-0.462,1.479-0.771,2.32
			l-1.079,2.964h-0.598l-0.988-2.909c-0.29-0.86-0.535-1.649-0.707-2.375h-0.018c-0.018,0.763-0.063,1.785-0.118,2.701l-0.163,2.619
			h-0.752l0.426-6.108h1.006l1.042,2.954c0.254,0.752,0.462,1.424,0.616,2.059h0.027c0.154-0.616,0.372-1.287,0.644-2.059
			l1.088-2.954h1.006l0.381,6.108h-0.771L84.429,82.356z"/>
		<path fill="#F1F2F2" d="M89.029,85.039l-0.063-0.553h-0.027c-0.245,0.345-0.716,0.652-1.341,0.652
			c-0.888,0-1.341-0.625-1.341-1.261c0-1.061,0.942-1.641,2.637-1.632v-0.09c0-0.363-0.1-1.016-0.997-1.016
			c-0.408,0-0.834,0.127-1.142,0.325l-0.182-0.524c0.363-0.235,0.888-0.391,1.441-0.391c1.341,0,1.667,0.915,1.667,1.794v1.642
			c0,0.381,0.018,0.753,0.073,1.052L89.029,85.039L89.029,85.039z M88.911,82.801c-0.87-0.019-1.858,0.137-1.858,0.987
			c0,0.518,0.345,0.762,0.752,0.762c0.571,0,0.934-0.361,1.061-0.733c0.027-0.082,0.045-0.172,0.045-0.254V82.801z"/>
		<path fill="#F1F2F2" d="M90.971,82.084c0-0.562-0.018-1.015-0.036-1.432h0.716l0.036,0.752h0.019
			c0.326-0.534,0.843-0.853,1.559-0.853c1.061,0,1.858,0.897,1.858,2.229c0,1.577-0.961,2.356-1.994,2.356
			c-0.58,0-1.088-0.255-1.351-0.688H91.76v2.384h-0.789V82.084z M91.76,83.254c0,0.117,0.018,0.228,0.036,0.326
			c0.145,0.553,0.625,0.935,1.197,0.935c0.843,0,1.332-0.689,1.332-1.695c0-0.879-0.462-1.632-1.305-1.632
			c-0.544,0-1.051,0.391-1.206,0.987c-0.027,0.101-0.054,0.219-0.054,0.326V83.254z"/>
		<path fill="#F1F2F2" d="M98.871,79.601h-1.858V78.93h4.523v0.671h-1.867v5.438h-0.797L98.871,79.601L98.871,79.601z"/>
		<path fill="#F1F2F2" d="M104.039,85.039l-0.063-0.553h-0.027c-0.245,0.345-0.716,0.652-1.341,0.652
			c-0.888,0-1.341-0.625-1.341-1.261c0-1.061,0.942-1.641,2.637-1.632v-0.09c0-0.363-0.1-1.016-0.997-1.016
			c-0.408,0-0.833,0.127-1.142,0.325l-0.182-0.524c0.363-0.235,0.889-0.391,1.441-0.391c1.341,0,1.667,0.915,1.667,1.794v1.642
			c0,0.381,0.018,0.753,0.073,1.052L104.039,85.039L104.039,85.039z M103.921,82.801c-0.87-0.019-1.858,0.137-1.858,0.987
			c0,0.518,0.345,0.762,0.752,0.762c0.571,0,0.934-0.361,1.061-0.733c0.027-0.082,0.045-0.172,0.045-0.254V82.801z"/>
		<path fill="#F1F2F2" d="M105.873,84.224c0.236,0.152,0.653,0.316,1.052,0.316c0.58,0,0.852-0.29,0.852-0.652
			c0-0.382-0.227-0.59-0.815-0.808c-0.789-0.28-1.16-0.716-1.16-1.241c0-0.707,0.571-1.287,1.514-1.287
			c0.444,0,0.834,0.128,1.079,0.271l-0.2,0.58c-0.172-0.108-0.489-0.254-0.897-0.254c-0.472,0-0.734,0.271-0.734,0.599
			c0,0.362,0.263,0.525,0.834,0.743c0.761,0.29,1.151,0.671,1.151,1.323c0,0.771-0.598,1.313-1.641,1.313
			c-0.48,0-0.924-0.118-1.232-0.299L105.873,84.224z"/>
		<path fill="#F1F2F2" d="M110.361,82.664h0.018c0.109-0.153,0.263-0.344,0.39-0.498l1.287-1.514h0.961l-1.695,1.804l1.93,2.583
			h-0.97l-1.514-2.103l-0.408,0.453v1.648h-0.789v-6.436h0.789L110.361,82.664L110.361,82.664z"/>
	</g>
	<g>
		<path fill="#FFFFFF" d="M80.099,100.017v0.589H77.86v-0.589H80.099z"/>
		<path fill="#FFFFFF" d="M86.528,96.871v0.526l-2.565,5.365h-0.825l2.556-5.213v-0.018h-2.882V96.87L86.528,96.871L86.528,96.871z"
			/>
		<path fill="#FFFFFF" d="M90.718,97.434c-0.163-0.011-0.372,0-0.598,0.035c-1.251,0.208-1.913,1.124-2.048,2.095h0.027
			c0.281-0.372,0.771-0.681,1.423-0.681c1.042,0,1.776,0.752,1.776,1.903c0,1.078-0.734,2.075-1.958,2.075
			c-1.26,0-2.084-0.979-2.084-2.511c0-1.16,0.417-2.075,0.997-2.655c0.489-0.48,1.142-0.779,1.885-0.87
			c0.236-0.036,0.435-0.046,0.58-0.046V97.434z M90.492,100.832c0-0.843-0.48-1.351-1.214-1.351c-0.48,0-0.925,0.299-1.142,0.726
			c-0.055,0.091-0.091,0.208-0.091,0.354c0.018,0.97,0.462,1.686,1.296,1.686C90.029,102.246,90.492,101.675,90.492,100.832z"/>
		<path fill="#FFFFFF" d="M91.936,101.268c0-0.743,0.444-1.271,1.169-1.577l-0.009-0.027c-0.653-0.309-0.934-0.815-0.934-1.323
			c0-0.934,0.789-1.567,1.822-1.567c1.142,0,1.713,0.716,1.713,1.45c0,0.499-0.245,1.032-0.97,1.378v0.026
			c0.734,0.29,1.188,0.808,1.188,1.522c0,1.023-0.879,1.713-2.003,1.713C92.679,102.862,91.936,102.128,91.936,101.268z
			 M95.108,101.23c0-0.716-0.499-1.061-1.296-1.286c-0.689,0.199-1.061,0.652-1.061,1.214c-0.027,0.599,0.426,1.124,1.179,1.124
			C94.646,102.282,95.108,101.838,95.108,101.23z M92.915,98.285c0,0.589,0.444,0.906,1.124,1.088
			c0.508-0.173,0.897-0.535,0.897-1.068c0-0.473-0.281-0.962-0.997-0.962C93.277,97.343,92.915,97.777,92.915,98.285z"/>
		<path fill="#FFFFFF" d="M104.012,100.08c-0.045-0.853-0.1-1.876-0.09-2.638h-0.027c-0.208,0.716-0.462,1.478-0.771,2.32
			l-1.079,2.964h-0.598l-0.988-2.909c-0.29-0.861-0.535-1.65-0.707-2.375h-0.018c-0.018,0.762-0.063,1.785-0.118,2.701l-0.163,2.619
			h-0.752l0.426-6.109h1.006l1.042,2.955c0.254,0.752,0.462,1.423,0.616,2.058h0.027c0.154-0.616,0.372-1.287,0.644-2.058
			l1.088-2.955h1.006l0.381,6.109h-0.771L104.012,100.08z"/>
		<path fill="#FFFFFF" d="M106.156,96.735c0.344-0.072,0.888-0.127,1.441-0.127c0.789,0,1.296,0.136,1.677,0.443
			c0.317,0.235,0.508,0.599,0.508,1.078c0,0.59-0.39,1.106-1.033,1.343v0.018c0.58,0.146,1.26,0.626,1.26,1.532
			c0,0.524-0.208,0.925-0.517,1.224c-0.426,0.39-1.115,0.571-2.112,0.571c-0.544,0-0.961-0.036-1.224-0.073L106.156,96.735
			L106.156,96.735z M106.945,99.237h0.716c0.834,0,1.323-0.437,1.323-1.024c0-0.716-0.544-0.997-1.341-0.997
			c-0.363,0-0.571,0.027-0.698,0.056V99.237z M106.945,102.164c0.154,0.027,0.38,0.037,0.662,0.037c0.815,0,1.568-0.3,1.568-1.188
			c0-0.834-0.716-1.18-1.577-1.18h-0.652L106.945,102.164L106.945,102.164z"/>
		<path fill="#FFFFFF" d="M80.099,110.9v0.589H77.86V110.9H80.099z"/>
		<path fill="#FFFFFF" d="M84.435,108.498h-0.018l-1.024,0.553l-0.154-0.605l1.287-0.689h0.68v5.893h-0.771V108.498z"/>
		<path fill="#FFFFFF" d="M89.84,109.26l0.861,2.466c0.145,0.398,0.263,0.762,0.354,1.124h0.027c0.1-0.362,0.227-0.726,0.372-1.124
			l0.852-2.466h0.834l-1.722,4.388h-0.761l-1.668-4.388H89.84z"/>
		<path fill="#FFFFFF" d="M98.191,113.447c-0.29,0.145-0.87,0.29-1.613,0.29c-1.722,0-3.019-1.088-3.019-3.091
			c0-1.912,1.296-3.209,3.19-3.209c0.762,0,1.242,0.163,1.45,0.271l-0.19,0.645c-0.299-0.146-0.725-0.254-1.232-0.254
			c-1.432,0-2.384,0.915-2.384,2.52c0,1.495,0.861,2.456,2.348,2.456c0.48,0,0.97-0.1,1.287-0.254L98.191,113.447z"/>
		<path fill="#FFFFFF" d="M103.025,111.417c0,1.622-1.124,2.329-2.184,2.329c-1.188,0-2.103-0.87-2.103-2.257
			c0-1.469,0.961-2.329,2.175-2.329C102.173,109.16,103.025,110.075,103.025,111.417z M99.544,111.462
			c0,0.961,0.553,1.688,1.333,1.688c0.761,0,1.333-0.717,1.333-1.704c0-0.743-0.372-1.688-1.314-1.688
			C99.953,109.758,99.544,110.628,99.544,111.462z"/>
		<path fill="#FFFFFF" d="M104.034,110.628c0-0.517-0.009-0.96-0.036-1.368h0.698l0.027,0.861h0.036
			c0.199-0.59,0.68-0.961,1.214-0.961c0.091,0,0.154,0.009,0.227,0.027v0.752c-0.082-0.02-0.164-0.027-0.272-0.027
			c-0.562,0-0.961,0.426-1.07,1.024c-0.018,0.107-0.036,0.234-0.036,0.371v2.339h-0.789L104.034,110.628L104.034,110.628z"/>
		<path fill="#FFFFFF" d="M107.354,111.598c0.018,1.078,0.707,1.522,1.504,1.522c0.571,0,0.916-0.1,1.214-0.227l0.136,0.569
			c-0.281,0.127-0.761,0.272-1.459,0.272c-1.351,0-2.157-0.889-2.157-2.212s0.78-2.365,2.058-2.365c1.432,0,1.813,1.26,1.813,2.066
			c0,0.163-0.019,0.29-0.027,0.371h-3.082V111.598z M109.692,111.027c0.009-0.508-0.208-1.296-1.106-1.296
			c-0.807,0-1.16,0.743-1.224,1.296H109.692z"/>
	</g>
</g>
<g>
	<g>
		<rect x="256.916" y="0.705" fill="#A7A9AC" width="64.271" height="130.38"/>
		<path fill="#FFFFFF" d="M321.688,131.585h-65.271V0.205h65.271V131.585z M257.416,130.585h63.271V1.205h-63.271V130.585z"/>
	</g>
	<g>
		<path d="M277.037,9.898c-0.242,0.121-0.727,0.241-1.346,0.241c-1.435,0-2.515-0.906-2.515-2.575c0-1.595,1.08-2.674,2.658-2.674
			c0.635,0,1.035,0.136,1.209,0.227l-0.159,0.536c-0.249-0.121-0.604-0.211-1.027-0.211c-1.192,0-1.985,0.763-1.985,2.1
			c0,1.246,0.718,2.047,1.956,2.047c0.4,0,0.809-0.083,1.072-0.212L277.037,9.898z"/>
		<path d="M281.066,8.206c0,1.354-0.938,1.941-1.82,1.941c-0.99,0-1.753-0.726-1.753-1.881c0-1.225,0.801-1.941,1.812-1.941
			C280.355,6.325,281.066,7.088,281.066,8.206z M278.166,8.244c0,0.801,0.46,1.405,1.109,1.405c0.635,0,1.109-0.598,1.109-1.42
			c0-0.62-0.31-1.405-1.095-1.405S278.166,7.548,278.166,8.244z"/>
		<path d="M281.906,7.398c0-0.378-0.008-0.688-0.029-0.989h0.589l0.038,0.604h0.016c0.181-0.348,0.604-0.688,1.207-0.688
			c0.508,0,1.293,0.303,1.293,1.557v2.184h-0.666V7.957c0-0.589-0.219-1.08-0.846-1.08c-0.438,0-0.777,0.311-0.891,0.681
			c-0.031,0.083-0.047,0.195-0.047,0.31v2.198h-0.664V7.398z"/>
		<path d="M286.872,5.358v1.051h0.952v0.506h-0.952v1.971c0,0.453,0.128,0.711,0.499,0.711c0.174,0,0.302-0.022,0.385-0.046
			l0.03,0.499c-0.128,0.054-0.333,0.091-0.589,0.091c-0.311,0-0.561-0.099-0.719-0.279c-0.188-0.196-0.256-0.521-0.256-0.951V6.915
			h-0.566V6.409h0.566V5.532L286.872,5.358z"/>
		<path d="M290.598,10.064l-0.054-0.461h-0.022c-0.205,0.287-0.598,0.544-1.117,0.544c-0.74,0-1.119-0.521-1.119-1.05
			c0-0.885,0.785-1.367,2.199-1.359V7.662c0-0.302-0.084-0.846-0.832-0.846c-0.34,0-0.694,0.105-0.951,0.271l-0.15-0.438
			c0.303-0.196,0.74-0.325,1.2-0.325c1.118,0,1.39,0.764,1.39,1.496v1.367c0,0.316,0.017,0.627,0.062,0.876H290.598z M290.499,8.199
			c-0.726-0.016-1.548,0.113-1.548,0.823c0,0.431,0.285,0.634,0.627,0.634c0.475,0,0.777-0.302,0.883-0.611
			c0.023-0.067,0.038-0.144,0.038-0.212V8.199z"/>
		<path d="M292.956,5.381c0.008,0.228-0.159,0.407-0.423,0.407c-0.234,0-0.4-0.181-0.4-0.407c0-0.233,0.174-0.416,0.416-0.416
			C292.796,4.965,292.956,5.147,292.956,5.381z M292.215,10.064V6.409h0.665v3.655H292.215z"/>
		<path d="M293.984,7.398c0-0.378-0.008-0.688-0.03-0.989h0.589l0.038,0.604h0.015c0.182-0.348,0.605-0.688,1.209-0.688
			c0.506,0,1.291,0.303,1.291,1.557v2.184h-0.664V7.957c0-0.589-0.219-1.08-0.846-1.08c-0.438,0-0.777,0.311-0.893,0.681
			c-0.029,0.083-0.045,0.195-0.045,0.31v2.198h-0.664V7.398z"/>
		<path d="M298.548,8.357c0.017,0.897,0.591,1.269,1.254,1.269c0.478,0,0.765-0.083,1.013-0.188l0.113,0.476
			c-0.234,0.106-0.635,0.228-1.216,0.228c-1.125,0-1.798-0.74-1.798-1.844c0-1.103,0.648-1.972,1.714-1.972
			c1.192,0,1.513,1.051,1.513,1.723c0,0.137-0.017,0.241-0.023,0.311h-2.569V8.357z M300.498,7.881
			c0.008-0.423-0.174-1.08-0.922-1.08c-0.672,0-0.967,0.619-1.02,1.08H300.498z"/>
		<path d="M301.965,7.548c0-0.43-0.008-0.8-0.029-1.14h0.582l0.021,0.717h0.029c0.166-0.49,0.566-0.801,1.013-0.801
			c0.076,0,0.129,0.008,0.188,0.023v0.627c-0.067-0.017-0.137-0.023-0.227-0.023c-0.469,0-0.801,0.355-0.893,0.854
			c-0.016,0.091-0.029,0.196-0.029,0.311v1.948h-0.657L301.965,7.548L301.965,7.548z"/>
	</g>
	<g>
		<path fill="#FFFFFF" d="M272.607,34.956v0.588h-2.238v-0.588H272.607z"/>
		<path fill="#FFFFFF" d="M276.943,32.554h-0.019l-1.024,0.553l-0.153-0.607l1.287-0.688h0.681v5.893h-0.771V32.554L276.943,32.554z
			"/>
		<path fill="#FFFFFF" d="M283.381,32.481h-2.248l-0.227,1.514c0.136-0.02,0.263-0.037,0.48-0.037c0.452,0,0.905,0.101,1.269,0.318
			c0.463,0.262,0.844,0.77,0.844,1.514c0,1.15-0.916,2.012-2.192,2.012c-0.646,0-1.188-0.182-1.47-0.362l0.199-0.607
			c0.244,0.146,0.726,0.326,1.26,0.326c0.752,0,1.396-0.488,1.396-1.277c-0.01-0.762-0.518-1.305-1.694-1.305
			c-0.336,0-0.599,0.035-0.815,0.062l0.381-2.828h2.818V32.481L283.381,32.481z"/>
		<path fill="#FFFFFF" d="M284.707,36.786c0.227,0.146,0.753,0.371,1.307,0.371c1.023,0,1.34-0.652,1.332-1.141
			c-0.01-0.826-0.753-1.181-1.522-1.181h-0.443v-0.598h0.443c0.579,0,1.313-0.299,1.313-0.996c0-0.473-0.299-0.889-1.033-0.889
			c-0.472,0-0.924,0.209-1.178,0.389l-0.209-0.58c0.309-0.227,0.906-0.453,1.541-0.453c1.16,0,1.686,0.689,1.686,1.406
			c0,0.607-0.362,1.123-1.088,1.387v0.019c0.726,0.145,1.314,0.688,1.314,1.514c0,0.943-0.734,1.768-2.148,1.768
			c-0.66,0-1.24-0.209-1.531-0.397L284.707,36.786z"/>
		<path fill="#FFFFFF" d="M292.532,32.372c-0.163-0.01-0.372,0-0.599,0.037c-1.25,0.207-1.912,1.123-2.049,2.094h0.026
			c0.28-0.373,0.771-0.68,1.424-0.68c1.042,0,1.776,0.752,1.776,1.902c0,1.077-0.734,2.075-1.959,2.075
			c-1.26,0-2.084-0.979-2.084-2.512c0-1.16,0.416-2.074,0.996-2.654c0.49-0.479,1.144-0.778,1.887-0.87
			c0.234-0.035,0.435-0.046,0.58-0.046L292.532,32.372L292.532,32.372z M292.305,35.771c0-0.842-0.479-1.351-1.214-1.351
			c-0.479,0-0.926,0.299-1.143,0.726c-0.056,0.092-0.091,0.209-0.091,0.354c0.019,0.972,0.461,1.687,1.295,1.687
			C291.843,37.185,292.305,36.614,292.305,35.771z"/>
		<path fill="#FFFFFF" d="M301.173,35.019c-0.045-0.853-0.1-1.875-0.09-2.638h-0.026c-0.209,0.716-0.464,1.478-0.771,2.32
			l-1.078,2.963h-0.598l-0.988-2.908c-0.29-0.86-0.535-1.649-0.707-2.375h-0.018c-0.02,0.763-0.064,1.785-0.119,2.701l-0.162,2.619
			h-0.752l0.426-6.109h1.006l1.042,2.955c0.254,0.752,0.462,1.422,0.616,2.058h0.027c0.153-0.615,0.371-1.287,0.644-2.058
			l1.088-2.955h1.007l0.381,6.109h-0.771L301.173,35.019z"/>
		<path fill="#FFFFFF" d="M303.316,31.675c0.346-0.071,0.89-0.127,1.441-0.127c0.789,0,1.296,0.136,1.677,0.443
			c0.317,0.236,0.509,0.598,0.509,1.078c0,0.59-0.391,1.106-1.033,1.342v0.019c0.58,0.146,1.26,0.627,1.26,1.532
			c0,0.525-0.209,0.924-0.517,1.224c-0.427,0.391-1.115,0.571-2.112,0.571c-0.544,0-0.96-0.037-1.225-0.073V31.675L303.316,31.675z
			 M304.105,34.177h0.717c0.834,0,1.322-0.436,1.322-1.024c0-0.715-0.543-0.996-1.34-0.996c-0.363,0-0.572,0.027-0.699,0.055V34.177
			z M304.105,37.103c0.154,0.026,0.381,0.037,0.662,0.037c0.815,0,1.567-0.3,1.567-1.188c0-0.834-0.716-1.178-1.577-1.178h-0.652
			V37.103z"/>
		<path fill="#FFFFFF" d="M272.607,45.839v0.591h-2.238v-0.591H272.607z"/>
		<path fill="#FFFFFF" d="M276.943,43.437h-0.019L275.9,43.99l-0.153-0.605l1.287-0.688h0.681v5.891h-0.771V43.437L276.943,43.437z"
			/>
		<path fill="#FFFFFF" d="M282.35,44.198l0.86,2.465c0.146,0.4,0.263,0.762,0.354,1.125h0.026c0.101-0.363,0.228-0.725,0.371-1.125
			l0.853-2.465h0.834l-1.723,4.387h-0.761l-1.668-4.387H282.35z"/>
		<path fill="#FFFFFF" d="M290.7,48.385c-0.29,0.146-0.87,0.291-1.613,0.291c-1.722,0-3.019-1.088-3.019-3.092
			c0-1.912,1.297-3.209,3.189-3.209c0.762,0,1.241,0.164,1.45,0.273l-0.19,0.643c-0.299-0.145-0.726-0.254-1.231-0.254
			c-1.433,0-2.384,0.916-2.384,2.521c0,1.496,0.861,2.457,2.348,2.457c0.48,0,0.971-0.101,1.287-0.255L290.7,48.385z"/>
		<path fill="#FFFFFF" d="M295.534,46.356c0,1.621-1.124,2.328-2.185,2.328c-1.188,0-2.104-0.869-2.104-2.257
			c0-1.469,0.961-2.329,2.175-2.329C294.682,44.099,295.534,45.015,295.534,46.356z M292.053,46.401
			c0,0.961,0.555,1.686,1.334,1.686c0.76,0,1.331-0.717,1.331-1.703c0-0.743-0.37-1.688-1.313-1.688S292.053,45.567,292.053,46.401z
			"/>
		<path fill="#FFFFFF" d="M296.542,45.567c0-0.519-0.009-0.961-0.035-1.369h0.697l0.026,0.861h0.037
			c0.198-0.591,0.68-0.961,1.213-0.961c0.093,0,0.154,0.01,0.229,0.026v0.752c-0.082-0.018-0.163-0.026-0.271-0.026
			c-0.562,0-0.961,0.426-1.069,1.024c-0.019,0.107-0.036,0.234-0.036,0.371v2.338h-0.789L296.542,45.567L296.542,45.567z"/>
		<path fill="#FFFFFF" d="M299.863,46.536c0.018,1.08,0.705,1.523,1.504,1.523c0.57,0,0.915-0.101,1.215-0.228l0.136,0.57
			c-0.28,0.127-0.762,0.272-1.46,0.272c-1.35,0-2.156-0.889-2.156-2.213c0-1.321,0.779-2.364,2.058-2.364
			c1.433,0,1.813,1.26,1.813,2.065c0,0.164-0.02,0.291-0.027,0.371h-3.082V46.536z M302.201,45.966
			c0.009-0.508-0.209-1.295-1.105-1.295c-0.807,0-1.16,0.742-1.225,1.295H302.201z"/>
	</g>
	<g>
		<path fill="#F1F2F2" d="M268.277,18.057l-0.633,1.922h-0.816l2.076-6.109h0.951l2.084,6.109h-0.842l-0.652-1.922H268.277z
			 M270.281,17.44l-0.598-1.758c-0.138-0.399-0.228-0.763-0.317-1.115h-0.019c-0.091,0.362-0.189,0.733-0.31,1.104l-0.599,1.769
			H270.281z"/>
		<path fill="#F1F2F2" d="M272.787,17.023c0-0.562-0.02-1.016-0.037-1.433h0.717l0.035,0.752h0.02
			c0.326-0.533,0.843-0.852,1.56-0.852c1.062,0,1.856,0.897,1.856,2.229c0,1.577-0.961,2.356-1.994,2.356
			c-0.579,0-1.088-0.254-1.35-0.688h-0.019v2.384h-0.788V17.023z M273.575,18.193c0,0.117,0.019,0.227,0.036,0.326
			c0.145,0.553,0.625,0.934,1.197,0.934c0.842,0,1.332-0.688,1.332-1.695c0-0.879-0.464-1.632-1.307-1.632
			c-0.544,0-1.052,0.392-1.206,0.988c-0.026,0.1-0.054,0.218-0.054,0.326L273.575,18.193L273.575,18.193z"/>
		<path fill="#F1F2F2" d="M277.947,17.023c0-0.562-0.018-1.016-0.036-1.433h0.716l0.037,0.752h0.018
			c0.326-0.533,0.844-0.852,1.56-0.852c1.061,0,1.858,0.897,1.858,2.229c0,1.577-0.961,2.356-1.994,2.356
			c-0.58,0-1.088-0.254-1.352-0.688h-0.018v2.384h-0.789V17.023L277.947,17.023z M278.736,18.193c0,0.117,0.018,0.227,0.035,0.326
			c0.146,0.553,0.625,0.934,1.196,0.934c0.843,0,1.332-0.688,1.332-1.695c0-0.879-0.463-1.632-1.305-1.632
			c-0.545,0-1.052,0.392-1.206,0.988c-0.025,0.1-0.055,0.218-0.055,0.326v0.753H278.736z"/>
		<path fill="#F1F2F2" d="M290.206,17.296c-0.046-0.853-0.101-1.876-0.091-2.638h-0.027c-0.208,0.716-0.462,1.478-0.77,2.32
			l-1.08,2.964h-0.598l-0.988-2.909c-0.289-0.861-0.533-1.65-0.707-2.375h-0.019c-0.018,0.762-0.062,1.785-0.116,2.701l-0.164,2.619
			h-0.752l0.426-6.109h1.006l1.043,2.955c0.254,0.752,0.463,1.423,0.615,2.058h0.027c0.154-0.615,0.372-1.287,0.645-2.058
			l1.088-2.955h1.006l0.381,6.109h-0.771L290.206,17.296z"/>
		<path fill="#F1F2F2" d="M294.807,19.979l-0.063-0.554h-0.027c-0.245,0.346-0.716,0.652-1.341,0.652
			c-0.889,0-1.342-0.625-1.342-1.26c0-1.062,0.941-1.642,2.637-1.632v-0.09c0-0.363-0.1-1.017-0.996-1.017
			c-0.408,0-0.834,0.127-1.143,0.326l-0.182-0.525c0.362-0.234,0.889-0.39,1.44-0.39c1.342,0,1.668,0.915,1.668,1.794v1.641
			c0,0.382,0.019,0.754,0.071,1.053L294.807,19.979L294.807,19.979z M294.689,17.74c-0.871-0.019-1.859,0.136-1.859,0.987
			c0,0.517,0.346,0.762,0.753,0.762c0.571,0,0.935-0.362,1.062-0.734c0.025-0.082,0.045-0.172,0.045-0.254V17.74L294.689,17.74z"/>
		<path fill="#F1F2F2" d="M296.641,19.163c0.234,0.153,0.651,0.317,1.051,0.317c0.58,0,0.852-0.29,0.852-0.653
			c0-0.381-0.227-0.589-0.814-0.807c-0.789-0.28-1.16-0.716-1.16-1.241c0-0.707,0.57-1.287,1.515-1.287
			c0.442,0,0.834,0.127,1.078,0.271l-0.199,0.579c-0.172-0.107-0.489-0.254-0.897-0.254c-0.472,0-0.732,0.272-0.732,0.6
			c0,0.361,0.262,0.524,0.832,0.743c0.762,0.29,1.152,0.671,1.152,1.322c0,0.771-0.599,1.314-1.642,1.314
			c-0.479,0-0.925-0.118-1.231-0.299L296.641,19.163z"/>
		<path fill="#F1F2F2" d="M301.3,14.332v1.26h1.144v0.607H301.3v2.365c0,0.544,0.154,0.853,0.601,0.853
			c0.207,0,0.36-0.026,0.461-0.055l0.037,0.598c-0.154,0.063-0.398,0.109-0.707,0.109c-0.371,0-0.67-0.118-0.861-0.336
			c-0.227-0.235-0.309-0.625-0.309-1.143v-2.393h-0.681v-0.607h0.681V14.54L301.3,14.332z"/>
		<path fill="#F1F2F2" d="M303.732,17.93c0.018,1.078,0.707,1.522,1.504,1.522c0.572,0,0.916-0.1,1.215-0.227l0.137,0.569
			c-0.281,0.127-0.762,0.272-1.459,0.272c-1.352,0-2.158-0.889-2.158-2.212s0.779-2.365,2.059-2.365c1.433,0,1.812,1.26,1.812,2.066
			c0,0.162-0.02,0.29-0.026,0.37h-3.083V17.93z M306.07,17.359c0.01-0.508-0.209-1.296-1.105-1.296c-0.807,0-1.16,0.743-1.223,1.296
			H306.07z"/>
		<path fill="#F1F2F2" d="M307.832,16.96c0-0.517-0.01-0.96-0.037-1.368h0.699l0.027,0.861h0.034
			c0.199-0.59,0.681-0.961,1.216-0.961c0.092,0,0.153,0.009,0.227,0.027v0.752c-0.082-0.02-0.162-0.027-0.271-0.027
			c-0.562,0-0.961,0.426-1.069,1.024c-0.019,0.107-0.035,0.234-0.035,0.371v2.339h-0.789L307.832,16.96L307.832,16.96z"/>
	</g>
</g>
<g>
	<g>
		<rect x="321.305" y="81.55" fill="#EF4136" width="64.272" height="49.63"/>
		<path fill="#FFFFFF" d="M386.078,131.679h-65.272V81.05h65.272V131.679z M321.805,130.679h63.272V82.05h-63.272V130.679z"/>
	</g>
	<g>
		<path d="M334.501,87.171c0,2.104-1.278,3.219-2.837,3.219c-1.613,0-2.747-1.251-2.747-3.101c0-1.938,1.206-3.209,2.838-3.209
			C333.423,84.08,334.501,85.358,334.501,87.171z M329.761,87.271c0,1.306,0.707,2.475,1.948,2.475c1.251,0,1.958-1.151,1.958-2.538
			c0-1.214-0.635-2.482-1.949-2.482C330.414,84.724,329.761,85.93,329.761,87.271z"/>
		<path d="M335.421,89.328c0.354,0.218,0.869,0.399,1.414,0.399c0.807,0,1.277-0.428,1.277-1.043c0-0.57-0.326-0.897-1.15-1.214
			c-0.998-0.354-1.614-0.87-1.614-1.731c0-0.952,0.788-1.659,1.977-1.659c0.626,0,1.079,0.146,1.352,0.3l-0.219,0.645
			c-0.199-0.109-0.606-0.29-1.16-0.29c-0.833,0-1.149,0.498-1.149,0.915c0,0.571,0.37,0.852,1.215,1.179
			c1.032,0.398,1.559,0.896,1.559,1.794c0,0.942-0.697,1.759-2.139,1.759c-0.59,0-1.232-0.173-1.56-0.39L335.421,89.328z"/>
		<path d="M344.226,85.467v2.131h2.05v0.544h-2.05v2.147h-0.579v-2.147h-2.05v-0.544h2.05v-2.131H344.226z"/>
		<path d="M350.041,84.18v2.557h2.955V84.18h0.797v6.108h-0.797v-2.864h-2.955v2.864h-0.789V84.18H350.041z"/>
		<path d="M357.567,90.289l-0.063-0.553h-0.027c-0.243,0.345-0.716,0.652-1.342,0.652c-0.888,0-1.341-0.625-1.341-1.261
			c0-1.061,0.942-1.641,2.638-1.632v-0.09c0-0.363-0.1-1.016-0.997-1.016c-0.407,0-0.834,0.127-1.142,0.325l-0.182-0.524
			c0.361-0.235,0.888-0.391,1.44-0.391c1.341,0,1.667,0.915,1.667,1.794v1.642c0,0.381,0.02,0.753,0.073,1.052L357.567,90.289
			L357.567,90.289z M357.449,88.051c-0.87-0.019-1.857,0.137-1.857,0.987c0,0.518,0.344,0.762,0.752,0.762
			c0.57,0,0.935-0.361,1.062-0.733c0.026-0.082,0.045-0.172,0.045-0.254L357.449,88.051L357.449,88.051z"/>
		<path d="M363.298,83.854v5.303c0,0.39,0.009,0.834,0.035,1.133h-0.715l-0.037-0.762h-0.018c-0.245,0.49-0.779,0.861-1.496,0.861
			c-1.062,0-1.876-0.897-1.876-2.229c-0.01-1.459,0.896-2.355,1.967-2.355c0.671,0,1.124,0.316,1.323,0.671h0.019v-2.62
			L363.298,83.854L363.298,83.854z M362.5,87.688c0-0.101-0.009-0.235-0.036-0.335c-0.118-0.509-0.553-0.926-1.151-0.926
			c-0.824,0-1.313,0.727-1.313,1.695c0,0.888,0.435,1.622,1.296,1.622c0.535,0,1.024-0.354,1.17-0.951
			c0.027-0.108,0.036-0.218,0.036-0.345L362.5,87.688L362.5,87.688z"/>
		<path d="M368.594,88.06c0,1.622-1.124,2.329-2.185,2.329c-1.188,0-2.104-0.87-2.104-2.258c0-1.469,0.961-2.329,2.176-2.329
			C367.743,85.802,368.594,86.718,368.594,88.06z M365.114,88.104c0,0.961,0.554,1.687,1.333,1.687c0.761,0,1.332-0.717,1.332-1.704
			c0-0.743-0.371-1.687-1.314-1.687C365.522,86.4,365.114,87.271,365.114,88.104z"/>
		<path d="M373.574,88.06c0,1.622-1.124,2.329-2.186,2.329c-1.188,0-2.103-0.87-2.103-2.258c0-1.469,0.961-2.329,2.175-2.329
			C372.722,85.802,373.574,86.718,373.574,88.06z M370.093,88.104c0,0.961,0.554,1.687,1.332,1.687c0.762,0,1.332-0.717,1.332-1.704
			c0-0.743-0.371-1.687-1.313-1.687S370.093,87.271,370.093,88.104z"/>
		<path d="M374.583,87.334c0-0.562-0.019-1.015-0.036-1.432h0.716l0.036,0.752h0.02c0.325-0.534,0.843-0.853,1.559-0.853
			c1.062,0,1.858,0.897,1.858,2.229c0,1.577-0.961,2.356-1.994,2.356c-0.58,0-1.088-0.255-1.352-0.688h-0.019v2.384h-0.788V87.334z
			 M375.371,88.504c0,0.117,0.019,0.228,0.037,0.326c0.145,0.553,0.625,0.935,1.195,0.935c0.844,0,1.332-0.689,1.332-1.695
			c0-0.879-0.462-1.632-1.306-1.632c-0.543,0-1.051,0.391-1.205,0.987c-0.026,0.101-0.055,0.219-0.055,0.326L375.371,88.504
			L375.371,88.504z"/>
	</g>
	<g>
		<path fill="#FFFFFF" d="M336.692,98.001v0.589h-2.239v-0.589H336.692z"/>
		<path fill="#FFFFFF" d="M342.812,95.526h-2.247l-0.228,1.514c0.136-0.019,0.263-0.036,0.48-0.036c0.453,0,0.905,0.101,1.269,0.317
			c0.463,0.263,0.844,0.771,0.844,1.514c0,1.15-0.916,2.013-2.192,2.013c-0.646,0-1.188-0.183-1.469-0.362l0.198-0.607
			c0.244,0.146,0.726,0.326,1.261,0.326c0.752,0,1.396-0.489,1.396-1.278c-0.01-0.761-0.518-1.305-1.695-1.305
			c-0.336,0-0.599,0.036-0.815,0.063l0.381-2.828h2.819L342.812,95.526L342.812,95.526z"/>
		<path fill="#FFFFFF" d="M345.679,95.599h-0.018l-1.024,0.553l-0.153-0.606l1.286-0.688h0.682v5.892h-0.771L345.679,95.599
			L345.679,95.599z"/>
		<path fill="#FFFFFF" d="M348.601,100.747v-0.489l0.625-0.606c1.506-1.433,2.186-2.193,2.193-3.082c0-0.598-0.29-1.15-1.169-1.15
			c-0.535,0-0.979,0.271-1.251,0.498l-0.254-0.562c0.408-0.346,0.988-0.6,1.668-0.6c1.27,0,1.804,0.87,1.804,1.713
			c0,1.089-0.788,1.968-2.03,3.163l-0.472,0.437v0.018h2.647v0.662L348.601,100.747L348.601,100.747z"/>
		<path fill="#FFFFFF" d="M358.682,98.064c-0.046-0.854-0.1-1.876-0.091-2.639h-0.026c-0.208,0.717-0.463,1.479-0.771,2.32
			l-1.079,2.964h-0.599l-0.987-2.909c-0.29-0.86-0.534-1.649-0.707-2.375h-0.019c-0.019,0.763-0.062,1.785-0.117,2.701l-0.164,2.619
			h-0.752l0.426-6.108h1.007l1.042,2.954c0.254,0.752,0.463,1.424,0.616,2.059h0.027c0.153-0.616,0.372-1.287,0.644-2.059
			l1.088-2.954h1.006l0.382,6.108h-0.771L358.682,98.064z"/>
		<path fill="#FFFFFF" d="M360.826,94.719c0.345-0.071,0.889-0.127,1.44-0.127c0.789,0,1.298,0.137,1.678,0.444
			c0.316,0.235,0.508,0.598,0.508,1.078c0,0.59-0.391,1.106-1.033,1.342v0.019c0.58,0.146,1.26,0.626,1.26,1.531
			c0,0.525-0.208,0.926-0.517,1.225c-0.426,0.39-1.115,0.57-2.111,0.57c-0.545,0-0.961-0.035-1.225-0.072V94.719L360.826,94.719z
			 M361.615,97.222h0.716c0.834,0,1.323-0.437,1.323-1.024c0-0.716-0.544-0.997-1.343-0.997c-0.361,0-0.569,0.027-0.696,0.055
			V97.222z M361.615,100.148c0.153,0.026,0.381,0.037,0.662,0.037c0.813,0,1.566-0.301,1.566-1.188c0-0.834-0.716-1.179-1.577-1.179
			h-0.651V100.148L361.615,100.148z"/>
		<path fill="#FFFFFF" d="M336.692,108.885v0.59h-2.239v-0.59H336.692z"/>
		<path fill="#FFFFFF" d="M346.433,107.244l0.861,2.465c0.146,0.399,0.263,0.763,0.354,1.124h0.026
			c0.101-0.361,0.228-0.725,0.371-1.124l0.853-2.465h0.834l-1.723,4.387h-0.761l-1.668-4.387H346.433z"/>
		<path fill="#FFFFFF" d="M354.784,111.432c-0.29,0.145-0.87,0.29-1.613,0.29c-1.722,0-3.019-1.089-3.019-3.092
			c0-1.912,1.297-3.209,3.189-3.209c0.762,0,1.241,0.163,1.45,0.272l-0.19,0.644c-0.299-0.146-0.726-0.254-1.231-0.254
			c-1.434,0-2.384,0.915-2.384,2.521c0,1.495,0.86,2.456,2.348,2.456c0.48,0,0.97-0.101,1.287-0.254L354.784,111.432z"/>
		<path fill="#FFFFFF" d="M359.618,109.401c0,1.622-1.124,2.329-2.186,2.329c-1.188,0-2.103-0.87-2.103-2.257
			c0-1.47,0.961-2.329,2.175-2.329C358.766,107.145,359.618,108.06,359.618,109.401z M356.137,109.446
			c0,0.961,0.555,1.687,1.333,1.687c0.762,0,1.332-0.717,1.332-1.703c0-0.743-0.371-1.688-1.313-1.688
			C356.545,107.742,356.137,108.612,356.137,109.446z"/>
		<path fill="#FFFFFF" d="M360.626,108.612c0-0.518-0.009-0.96-0.035-1.368h0.697l0.027,0.861h0.035
			c0.199-0.59,0.681-0.961,1.215-0.961c0.092,0,0.153,0.009,0.228,0.026v0.752c-0.082-0.019-0.163-0.026-0.271-0.026
			c-0.562,0-0.962,0.426-1.069,1.023c-0.02,0.108-0.036,0.235-0.036,0.371v2.339h-0.789L360.626,108.612L360.626,108.612z"/>
		<path fill="#FFFFFF" d="M363.947,109.582c0.018,1.079,0.706,1.523,1.504,1.523c0.57,0,0.916-0.101,1.215-0.228l0.136,0.57
			c-0.281,0.127-0.761,0.272-1.46,0.272c-1.35,0-2.156-0.89-2.156-2.213c0-1.322,0.779-2.364,2.058-2.364
			c1.433,0,1.812,1.26,1.812,2.065c0,0.163-0.019,0.29-0.026,0.371h-3.082V109.582z M366.285,109.012
			c0.009-0.509-0.209-1.297-1.105-1.297c-0.807,0-1.16,0.743-1.225,1.297H366.285z"/>
		<path fill="#FFFFFF" d="M339.355,111.896v-0.489l0.625-0.607c1.505-1.432,2.185-2.192,2.192-3.082c0-0.598-0.29-1.149-1.169-1.149
			c-0.535,0-0.979,0.271-1.251,0.498l-0.254-0.562c0.408-0.345,0.988-0.599,1.668-0.599c1.27,0,1.804,0.87,1.804,1.713
			c0,1.088-0.788,1.967-2.029,3.163l-0.473,0.436v0.019h2.647v0.662L339.355,111.896L339.355,111.896z"/>
		<path d="M331.522,66.396v-0.489l0.625-0.607c1.505-1.432,2.185-2.192,2.192-3.082c0-0.598-0.29-1.149-1.169-1.149
			c-0.535,0-0.979,0.271-1.251,0.498l-0.254-0.562c0.408-0.345,0.988-0.599,1.668-0.599c1.27,0,1.804,0.87,1.804,1.713
			c0,1.088-0.788,1.967-2.029,3.163l-0.473,0.436v0.019h2.647v0.662L331.522,66.396L331.522,66.396z"/>
		<path d="M329.512,61.432h-0.018l-1.024,0.553l-0.153-0.606l1.286-0.688h0.682v5.892h-0.771L329.512,61.432L329.512,61.432z"/>
	</g>
</g>
<g>
	<g>
		<rect x="128.666" y="0.705" fill="#27AAE1" width="64.272" height="130.63"/>
		<path fill="#FFFFFF" d="M193.438,131.835h-65.271V0.205h65.271V131.835z M129.166,130.835h63.272V1.205h-63.272V130.835z"/>
	</g>
	<g>
		<path d="M148.786,9.898c-0.242,0.121-0.725,0.241-1.344,0.241c-1.435,0-2.515-0.906-2.515-2.575c0-1.595,1.08-2.674,2.659-2.674
			c0.634,0,1.035,0.136,1.208,0.227l-0.159,0.536c-0.249-0.121-0.604-0.211-1.027-0.211c-1.193,0-1.986,0.763-1.986,2.1
			c0,1.246,0.718,2.047,1.956,2.047c0.4,0,0.809-0.083,1.073-0.212L148.786,9.898z"/>
		<path d="M152.815,8.206c0,1.354-0.937,1.941-1.82,1.941c-0.99,0-1.752-0.726-1.752-1.881c0-1.225,0.801-1.941,1.812-1.941
			C152.105,6.325,152.815,7.088,152.815,8.206z M149.915,8.244c0,0.801,0.46,1.405,1.11,1.405c0.635,0,1.11-0.598,1.11-1.42
			c0-0.62-0.31-1.405-1.095-1.405S149.915,7.548,149.915,8.244z"/>
		<path d="M153.656,7.398c0-0.378-0.007-0.688-0.03-0.989h0.589l0.038,0.604h0.015c0.181-0.348,0.604-0.688,1.208-0.688
			c0.506,0,1.292,0.303,1.292,1.557v2.184h-0.665V7.957c0-0.589-0.219-1.08-0.846-1.08c-0.438,0-0.778,0.311-0.892,0.681
			c-0.03,0.083-0.045,0.195-0.045,0.31v2.198h-0.665L153.656,7.398L153.656,7.398z"/>
		<path d="M158.622,5.358v1.051h0.952v0.506h-0.952v1.971c0,0.453,0.128,0.711,0.499,0.711c0.174,0,0.302-0.022,0.385-0.046
			l0.03,0.499c-0.128,0.054-0.333,0.091-0.589,0.091c-0.31,0-0.559-0.099-0.717-0.279c-0.189-0.196-0.257-0.521-0.257-0.951V6.915
			h-0.567V6.409h0.567V5.532L158.622,5.358z"/>
		<path d="M162.347,10.064l-0.053-0.461h-0.023c-0.204,0.287-0.597,0.544-1.118,0.544c-0.74,0-1.118-0.521-1.118-1.05
			c0-0.885,0.786-1.367,2.198-1.359V7.662c0-0.302-0.083-0.846-0.831-0.846c-0.34,0-0.695,0.105-0.952,0.271L160.3,6.65
			c0.302-0.196,0.74-0.325,1.201-0.325c1.118,0,1.39,0.764,1.39,1.496v1.367c0,0.316,0.015,0.627,0.06,0.876H162.347z
			 M162.249,8.199c-0.725-0.016-1.548,0.113-1.548,0.823c0,0.431,0.287,0.634,0.627,0.634c0.476,0,0.778-0.302,0.883-0.611
			c0.023-0.067,0.038-0.144,0.038-0.212V8.199L162.249,8.199z"/>
		<path d="M164.706,5.381c0.008,0.228-0.159,0.407-0.423,0.407c-0.234,0-0.4-0.181-0.4-0.407c0-0.233,0.174-0.416,0.416-0.416
			C164.547,4.965,164.706,5.147,164.706,5.381z M163.965,10.064V6.409h0.665v3.655H163.965z"/>
		<path d="M165.734,7.398c0-0.378-0.007-0.688-0.03-0.989h0.589l0.038,0.604h0.015c0.181-0.348,0.604-0.688,1.208-0.688
			c0.506,0,1.292,0.303,1.292,1.557v2.184h-0.665V7.957c0-0.589-0.219-1.08-0.846-1.08c-0.438,0-0.778,0.311-0.892,0.681
			c-0.03,0.083-0.045,0.195-0.045,0.31v2.198h-0.665L165.734,7.398L165.734,7.398z"/>
		<path d="M170.299,8.357c0.015,0.897,0.589,1.269,1.254,1.269c0.476,0,0.763-0.083,1.012-0.188l0.113,0.476
			c-0.234,0.106-0.635,0.228-1.216,0.228c-1.125,0-1.797-0.74-1.797-1.844c0-1.103,0.649-1.972,1.714-1.972
			c1.193,0,1.511,1.051,1.511,1.723c0,0.137-0.015,0.241-0.022,0.311h-2.569V8.357z M172.248,7.881
			c0.008-0.423-0.174-1.08-0.921-1.08c-0.672,0-0.967,0.619-1.02,1.08H172.248z"/>
		<path d="M173.715,7.548c0-0.43-0.008-0.8-0.03-1.14h0.582l0.022,0.717h0.03c0.166-0.49,0.566-0.801,1.012-0.801
			c0.076,0,0.129,0.008,0.189,0.023v0.627c-0.068-0.017-0.137-0.023-0.227-0.023c-0.469,0-0.801,0.355-0.892,0.854
			c-0.016,0.091-0.03,0.196-0.03,0.311v1.948h-0.657L173.715,7.548L173.715,7.548z"/>
	</g>
	<g>
		<path fill="#F1F2F2" d="M139.54,13.951c0.398-0.082,0.97-0.127,1.514-0.127c0.843,0,1.387,0.154,1.767,0.499
			c0.308,0.271,0.48,0.688,0.48,1.16c0,0.807-0.507,1.341-1.151,1.559v0.027c0.471,0.163,0.752,0.598,0.897,1.231
			c0.2,0.853,0.345,1.441,0.472,1.678h-0.816c-0.1-0.172-0.236-0.698-0.408-1.459c-0.181-0.844-0.508-1.16-1.224-1.188h-0.743v2.646
			h-0.789L139.54,13.951L139.54,13.951z M140.329,16.733h0.807c0.843,0,1.377-0.462,1.377-1.16c0-0.788-0.571-1.133-1.405-1.142
			c-0.381,0-0.652,0.035-0.779,0.071V16.733z"/>
		<path fill="#F1F2F2" d="M144.873,17.93c0.018,1.078,0.707,1.522,1.504,1.522c0.571,0,0.916-0.1,1.214-0.227l0.136,0.569
			c-0.281,0.127-0.761,0.272-1.459,0.272c-1.351,0-2.157-0.889-2.157-2.212s0.78-2.365,2.058-2.365c1.432,0,1.813,1.26,1.813,2.066
			c0,0.162-0.019,0.29-0.027,0.37h-3.082V17.93z M147.211,17.359c0.009-0.508-0.208-1.296-1.106-1.296
			c-0.807,0-1.16,0.743-1.224,1.296H147.211z"/>
		<path fill="#F1F2F2" d="M152.761,13.543v5.304c0,0.39,0.009,0.834,0.036,1.133h-0.716l-0.036-0.763h-0.018
			c-0.245,0.49-0.78,0.861-1.496,0.861c-1.061,0-1.876-0.896-1.876-2.229c-0.009-1.459,0.897-2.356,1.967-2.356
			c0.671,0,1.124,0.317,1.324,0.671h0.018v-2.62L152.761,13.543L152.761,13.543z M151.963,17.377c0-0.1-0.009-0.234-0.037-0.335
			c-0.118-0.508-0.553-0.925-1.151-0.925c-0.825,0-1.314,0.726-1.314,1.695c0,0.888,0.435,1.622,1.296,1.622
			c0.535,0,1.024-0.354,1.169-0.951c0.027-0.109,0.037-0.218,0.037-0.345V17.377L151.963,17.377z"/>
		<path fill="#F1F2F2" d="M157.758,18.782c0,0.453,0.009,0.852,0.036,1.196h-0.707l-0.045-0.716h-0.018
			c-0.208,0.354-0.67,0.814-1.45,0.814c-0.688,0-1.514-0.381-1.514-1.922v-2.564h0.798v2.43c0,0.834,0.254,1.396,0.979,1.396
			c0.535,0,0.906-0.372,1.051-0.726c0.045-0.118,0.072-0.264,0.072-0.408v-2.691h0.798V18.782z"/>
		<path fill="#F1F2F2" d="M162.211,19.815c-0.208,0.107-0.67,0.254-1.26,0.254c-1.323,0-2.185-0.897-2.185-2.239
			c0-1.351,0.925-2.329,2.357-2.329c0.471,0,0.888,0.118,1.105,0.228l-0.181,0.615c-0.19-0.107-0.489-0.208-0.924-0.208
			c-1.006,0-1.55,0.743-1.55,1.658c0,1.017,0.653,1.642,1.523,1.642c0.453,0,0.752-0.118,0.979-0.219L162.211,19.815z"/>
		<path fill="#F1F2F2" d="M163.538,17.93c0.018,1.078,0.707,1.522,1.504,1.522c0.571,0,0.916-0.1,1.214-0.227l0.136,0.569
			c-0.281,0.127-0.761,0.272-1.459,0.272c-1.351,0-2.157-0.889-2.157-2.212s0.78-2.365,2.058-2.365c1.432,0,1.813,1.26,1.813,2.066
			c0,0.162-0.019,0.29-0.027,0.37h-3.082V17.93z M165.876,17.359c0.009-0.508-0.208-1.296-1.106-1.296
			c-0.807,0-1.16,0.743-1.224,1.296H165.876z"/>
		<path fill="#F1F2F2" d="M170.376,14.54h-1.858v-0.671h4.523v0.671h-1.867v5.438h-0.798V14.54L170.376,14.54z"/>
		<path fill="#F1F2F2" d="M175.544,19.979l-0.063-0.554h-0.027c-0.245,0.346-0.716,0.652-1.342,0.652
			c-0.888,0-1.341-0.625-1.341-1.26c0-1.062,0.942-1.642,2.638-1.632v-0.09c0-0.363-0.1-1.017-0.997-1.017
			c-0.408,0-0.834,0.127-1.143,0.326l-0.181-0.525c0.362-0.234,0.888-0.39,1.44-0.39c1.342,0,1.668,0.915,1.668,1.794v1.641
			c0,0.382,0.019,0.754,0.072,1.053L175.544,19.979L175.544,19.979z M175.426,17.74c-0.87-0.019-1.857,0.136-1.857,0.987
			c0,0.517,0.344,0.762,0.752,0.762c0.571,0,0.934-0.362,1.061-0.734c0.027-0.082,0.045-0.172,0.045-0.254L175.426,17.74
			L175.426,17.74z"/>
		<path fill="#F1F2F2" d="M177.377,19.163c0.235,0.153,0.652,0.317,1.052,0.317c0.58,0,0.852-0.29,0.852-0.653
			c0-0.381-0.227-0.589-0.815-0.807c-0.789-0.28-1.16-0.716-1.16-1.241c0-0.707,0.571-1.287,1.514-1.287
			c0.444,0,0.834,0.127,1.078,0.271l-0.199,0.579c-0.172-0.107-0.489-0.254-0.897-0.254c-0.471,0-0.733,0.272-0.733,0.6
			c0,0.361,0.263,0.524,0.833,0.743c0.762,0.29,1.151,0.671,1.151,1.322c0,0.771-0.598,1.314-1.641,1.314
			c-0.48,0-0.924-0.118-1.232-0.299L177.377,19.163z"/>
		<path fill="#F1F2F2" d="M181.866,17.604h0.019c0.108-0.153,0.263-0.345,0.39-0.498l1.287-1.515h0.96l-1.694,1.805l1.931,2.583
			h-0.97l-1.514-2.104l-0.408,0.453v1.649h-0.788v-6.437h0.788L181.866,17.604L181.866,17.604z"/>
	</g>
	<g>
		<path fill="#FFFFFF" d="M144.358,34.956v0.588h-2.239v-0.588H144.358z"/>
		<path fill="#FFFFFF" d="M148.693,32.554h-0.018l-1.024,0.553l-0.154-0.607l1.287-0.688h0.68v5.893h-0.771V32.554L148.693,32.554z"
			/>
		<path fill="#FFFFFF" d="M155.131,32.481h-2.248l-0.227,1.514c0.136-0.02,0.263-0.037,0.48-0.037c0.453,0,0.906,0.101,1.269,0.318
			c0.462,0.262,0.843,0.77,0.843,1.514c0,1.15-0.916,2.012-2.193,2.012c-0.644,0-1.188-0.182-1.468-0.362l0.199-0.607
			c0.245,0.146,0.725,0.326,1.26,0.326c0.752,0,1.396-0.488,1.396-1.277c-0.009-0.762-0.517-1.305-1.695-1.305
			c-0.335,0-0.599,0.035-0.816,0.062l0.381-2.828h2.819V32.481L155.131,32.481z"/>
		<path fill="#FFFFFF" d="M156.457,36.786c0.227,0.146,0.752,0.371,1.305,0.371c1.024,0,1.341-0.652,1.333-1.141
			c-0.009-0.826-0.752-1.181-1.523-1.181h-0.444v-0.598h0.444c0.58,0,1.314-0.299,1.314-0.996c0-0.473-0.299-0.889-1.033-0.889
			c-0.472,0-0.925,0.209-1.178,0.389l-0.208-0.58c0.308-0.227,0.906-0.453,1.541-0.453c1.16,0,1.686,0.689,1.686,1.406
			c0,0.607-0.363,1.123-1.088,1.387v0.019c0.725,0.145,1.314,0.688,1.314,1.514c0,0.943-0.734,1.768-2.148,1.768
			c-0.662,0-1.242-0.209-1.532-0.397L156.457,36.786z"/>
		<path fill="#FFFFFF" d="M164.282,32.372c-0.163-0.01-0.372,0-0.598,0.037c-1.251,0.207-1.913,1.123-2.048,2.094h0.027
			c0.281-0.373,0.771-0.68,1.423-0.68c1.042,0,1.776,0.752,1.776,1.902c0,1.077-0.734,2.075-1.958,2.075
			c-1.26,0-2.084-0.979-2.084-2.512c0-1.16,0.417-2.074,0.997-2.654c0.489-0.479,1.142-0.778,1.885-0.87
			c0.236-0.035,0.435-0.046,0.58-0.046V32.372L164.282,32.372z M164.055,35.771c0-0.842-0.48-1.351-1.214-1.351
			c-0.48,0-0.925,0.299-1.142,0.726c-0.055,0.092-0.091,0.209-0.091,0.354c0.018,0.972,0.462,1.687,1.296,1.687
			C163.593,37.185,164.055,36.614,164.055,35.771z"/>
		<path fill="#FFFFFF" d="M171,35.019c-0.045-0.853-0.1-1.875-0.09-2.638h-0.027c-0.208,0.716-0.462,1.478-0.771,2.32l-1.079,2.963
			h-0.598l-0.988-2.908c-0.29-0.86-0.535-1.649-0.707-2.375h-0.018c-0.018,0.763-0.063,1.785-0.118,2.701l-0.163,2.619h-0.752
			l0.426-6.109h1.006l1.042,2.955c0.254,0.752,0.462,1.422,0.616,2.058h0.027c0.154-0.615,0.372-1.287,0.644-2.058l1.088-2.955
			h1.006l0.381,6.109h-0.771L171,35.019z"/>
		<path fill="#FFFFFF" d="M173.145,31.675c0.344-0.071,0.888-0.127,1.441-0.127c0.789,0,1.296,0.136,1.677,0.443
			c0.317,0.236,0.508,0.598,0.508,1.078c0,0.59-0.39,1.106-1.033,1.342v0.019c0.58,0.146,1.26,0.627,1.26,1.532
			c0,0.525-0.209,0.924-0.517,1.224c-0.426,0.391-1.115,0.571-2.112,0.571c-0.544,0-0.96-0.037-1.223-0.073L173.145,31.675
			L173.145,31.675z M173.933,34.177h0.716c0.834,0,1.323-0.436,1.323-1.024c0-0.715-0.544-0.996-1.342-0.996
			c-0.362,0-0.57,0.027-0.697,0.055V34.177z M173.933,37.103c0.154,0.026,0.381,0.037,0.661,0.037c0.816,0,1.568-0.3,1.568-1.188
			c0-0.834-0.716-1.178-1.577-1.178h-0.652V37.103z"/>
		<path fill="#FFFFFF" d="M144.358,45.839v0.591h-2.239v-0.591H144.358z"/>
		<path fill="#FFFFFF" d="M154.099,44.198l0.861,2.465c0.145,0.4,0.263,0.762,0.354,1.125h0.027c0.1-0.363,0.227-0.725,0.372-1.125
			l0.852-2.465h0.834l-1.722,4.387h-0.761l-1.668-4.387H154.099z"/>
		<path fill="#FFFFFF" d="M162.45,48.385c-0.29,0.146-0.87,0.291-1.613,0.291c-1.722,0-3.019-1.088-3.019-3.092
			c0-1.912,1.296-3.209,3.19-3.209c0.762,0,1.242,0.164,1.45,0.273l-0.19,0.643c-0.299-0.145-0.725-0.254-1.232-0.254
			c-1.432,0-2.384,0.916-2.384,2.521c0,1.496,0.861,2.457,2.348,2.457c0.48,0,0.97-0.101,1.287-0.255L162.45,48.385z"/>
		<path fill="#FFFFFF" d="M167.284,46.356c0,1.621-1.124,2.328-2.184,2.328c-1.188,0-2.103-0.869-2.103-2.257
			c0-1.469,0.961-2.329,2.175-2.329C166.432,44.099,167.284,45.015,167.284,46.356z M163.803,46.401
			c0,0.961,0.553,1.686,1.333,1.686c0.761,0,1.333-0.717,1.333-1.703c0-0.743-0.372-1.688-1.314-1.688
			C164.211,44.696,163.803,45.567,163.803,46.401z"/>
		<path fill="#FFFFFF" d="M168.293,45.567c0-0.519-0.009-0.961-0.036-1.369h0.698l0.027,0.861h0.036
			c0.199-0.591,0.68-0.961,1.214-0.961c0.091,0,0.154,0.01,0.227,0.026v0.752c-0.082-0.018-0.164-0.026-0.272-0.026
			c-0.562,0-0.961,0.426-1.07,1.024c-0.018,0.107-0.036,0.234-0.036,0.371v2.338h-0.789L168.293,45.567L168.293,45.567z"/>
		<path fill="#FFFFFF" d="M171.612,46.536c0.018,1.08,0.707,1.523,1.504,1.523c0.571,0,0.915-0.101,1.215-0.228l0.136,0.57
			c-0.281,0.127-0.762,0.272-1.459,0.272c-1.351,0-2.157-0.889-2.157-2.213c0-1.321,0.78-2.364,2.058-2.364
			c1.432,0,1.813,1.26,1.813,2.065c0,0.164-0.019,0.291-0.027,0.371h-3.083V46.536z M173.951,45.966
			c0.009-0.508-0.209-1.295-1.106-1.295c-0.807,0-1.16,0.742-1.224,1.295H173.951z"/>
	</g>
</g>
<g>
	<g>
		<g>
			<rect x="192.916" y="0.705" fill="#27AAE1" width="64.271" height="130.63"/>
			<path fill="#FFFFFF" d="M257.688,131.835h-65.271V0.205h65.271V131.835z M193.416,130.835h63.271V1.205h-63.271V130.835
				L193.416,130.835z"/>
		</g>
		<g>
			<path d="M213.037,9.898c-0.242,0.121-0.727,0.241-1.346,0.241c-1.435,0-2.515-0.906-2.515-2.575c0-1.595,1.08-2.674,2.659-2.674
				c0.635,0,1.035,0.136,1.209,0.227l-0.158,0.536c-0.25-0.121-0.604-0.211-1.027-0.211c-1.193,0-1.986,0.763-1.986,2.1
				c0,1.246,0.718,2.047,1.956,2.047c0.399,0,0.81-0.083,1.071-0.212L213.037,9.898z"/>
			<path d="M217.066,8.206c0,1.354-0.938,1.941-1.82,1.941c-0.99,0-1.753-0.726-1.753-1.881c0-1.225,0.801-1.941,1.812-1.941
				C216.355,6.325,217.066,7.088,217.066,8.206z M214.166,8.244c0,0.801,0.46,1.405,1.109,1.405c0.635,0,1.109-0.598,1.109-1.42
				c0-0.62-0.31-1.405-1.095-1.405S214.166,7.548,214.166,8.244z"/>
			<path d="M217.906,7.398c0-0.378-0.008-0.688-0.029-0.989h0.589l0.038,0.604h0.016c0.181-0.348,0.604-0.688,1.207-0.688
				c0.508,0,1.293,0.303,1.293,1.557v2.184h-0.666V7.957c0-0.589-0.219-1.08-0.846-1.08c-0.438,0-0.777,0.311-0.891,0.681
				c-0.031,0.083-0.047,0.195-0.047,0.31v2.198h-0.664V7.398z"/>
			<path d="M222.872,5.358v1.051h0.952v0.506h-0.952v1.971c0,0.453,0.128,0.711,0.499,0.711c0.174,0,0.302-0.022,0.385-0.046
				l0.03,0.499c-0.128,0.054-0.333,0.091-0.589,0.091c-0.312,0-0.561-0.099-0.719-0.279c-0.188-0.196-0.256-0.521-0.256-0.951V6.915
				h-0.566V6.409h0.566V5.532L222.872,5.358z"/>
			<path d="M226.598,10.064l-0.054-0.461h-0.022c-0.205,0.287-0.598,0.544-1.117,0.544c-0.74,0-1.119-0.521-1.119-1.05
				c0-0.885,0.785-1.367,2.199-1.359V7.662c0-0.302-0.084-0.846-0.832-0.846c-0.34,0-0.694,0.105-0.951,0.271l-0.15-0.438
				c0.303-0.196,0.74-0.325,1.2-0.325c1.118,0,1.39,0.764,1.39,1.496v1.367c0,0.316,0.017,0.627,0.062,0.876H226.598z
				 M226.499,8.199c-0.726-0.016-1.548,0.113-1.548,0.823c0,0.431,0.285,0.634,0.627,0.634c0.475,0,0.777-0.302,0.883-0.611
				c0.023-0.067,0.038-0.144,0.038-0.212V8.199L226.499,8.199z"/>
			<path d="M228.956,5.381c0.008,0.228-0.159,0.407-0.423,0.407c-0.234,0-0.4-0.181-0.4-0.407c0-0.233,0.174-0.416,0.416-0.416
				C228.796,4.965,228.956,5.147,228.956,5.381z M228.215,10.064V6.409h0.665v3.655H228.215z"/>
			<path d="M229.984,7.398c0-0.378-0.008-0.688-0.03-0.989h0.589l0.038,0.604h0.015c0.182-0.348,0.605-0.688,1.209-0.688
				c0.506,0,1.291,0.303,1.291,1.557v2.184h-0.664V7.957c0-0.589-0.219-1.08-0.846-1.08c-0.438,0-0.777,0.311-0.893,0.681
				c-0.029,0.083-0.045,0.195-0.045,0.31v2.198h-0.664V7.398z"/>
			<path d="M234.548,8.357c0.017,0.897,0.591,1.269,1.254,1.269c0.478,0,0.765-0.083,1.013-0.188l0.113,0.476
				c-0.234,0.106-0.635,0.228-1.216,0.228c-1.125,0-1.798-0.74-1.798-1.844c0-1.103,0.648-1.972,1.714-1.972
				c1.192,0,1.513,1.051,1.513,1.723c0,0.137-0.017,0.241-0.023,0.311h-2.569V8.357z M236.498,7.881
				c0.008-0.423-0.174-1.08-0.922-1.08c-0.672,0-0.967,0.619-1.02,1.08H236.498z"/>
			<path d="M237.965,7.548c0-0.43-0.008-0.8-0.029-1.14h0.582l0.021,0.717h0.029c0.166-0.49,0.566-0.801,1.013-0.801
				c0.076,0,0.129,0.008,0.188,0.023v0.627c-0.067-0.017-0.137-0.023-0.227-0.023c-0.469,0-0.801,0.355-0.893,0.854
				c-0.016,0.091-0.029,0.196-0.029,0.311v1.948h-0.657L237.965,7.548L237.965,7.548z"/>
		</g>
		<g>
			<path fill="#FFFFFF" d="M208.607,34.956v0.588h-2.238v-0.588H208.607z"/>
			<path fill="#FFFFFF" d="M212.943,32.554h-0.019l-1.024,0.553l-0.153-0.607l1.287-0.688h0.681v5.893h-0.771V32.554L212.943,32.554
				z"/>
			<path fill="#FFFFFF" d="M219.381,32.481h-2.248l-0.227,1.514c0.136-0.02,0.263-0.037,0.479-0.037
				c0.453,0,0.906,0.101,1.269,0.318c0.464,0.262,0.845,0.77,0.845,1.514c0,1.15-0.916,2.012-2.192,2.012
				c-0.646,0-1.188-0.182-1.47-0.362l0.199-0.607c0.243,0.146,0.726,0.326,1.26,0.326c0.752,0,1.396-0.488,1.396-1.277
				c-0.01-0.762-0.518-1.305-1.694-1.305c-0.336,0-0.599,0.035-0.815,0.062l0.381-2.828h2.818V32.481L219.381,32.481z"/>
			<path fill="#FFFFFF" d="M220.707,36.786c0.227,0.146,0.753,0.371,1.307,0.371c1.023,0,1.34-0.652,1.332-1.141
				c-0.01-0.826-0.753-1.181-1.522-1.181h-0.443v-0.598h0.443c0.579,0,1.313-0.299,1.313-0.996c0-0.473-0.299-0.889-1.033-0.889
				c-0.472,0-0.924,0.209-1.178,0.389l-0.209-0.58c0.309-0.227,0.906-0.453,1.541-0.453c1.16,0,1.686,0.689,1.686,1.406
				c0,0.607-0.362,1.123-1.088,1.387v0.019c0.726,0.145,1.314,0.688,1.314,1.514c0,0.943-0.734,1.768-2.148,1.768
				c-0.66,0-1.24-0.209-1.53-0.397L220.707,36.786z"/>
			<path fill="#FFFFFF" d="M228.532,32.372c-0.163-0.01-0.372,0-0.599,0.037c-1.25,0.207-1.912,1.123-2.049,2.094h0.026
				c0.28-0.373,0.771-0.68,1.424-0.68c1.042,0,1.776,0.752,1.776,1.902c0,1.077-0.734,2.075-1.959,2.075
				c-1.26,0-2.084-0.979-2.084-2.512c0-1.16,0.416-2.074,0.996-2.654c0.49-0.479,1.144-0.778,1.887-0.87
				c0.234-0.035,0.436-0.046,0.58-0.046L228.532,32.372L228.532,32.372z M228.305,35.771c0-0.842-0.479-1.351-1.214-1.351
				c-0.479,0-0.926,0.299-1.144,0.726c-0.055,0.092-0.09,0.209-0.09,0.354c0.019,0.972,0.461,1.687,1.295,1.687
				C227.843,37.185,228.305,36.614,228.305,35.771z"/>
			<path fill="#FFFFFF" d="M237.173,35.019c-0.045-0.853-0.1-1.875-0.09-2.638h-0.026c-0.209,0.716-0.464,1.478-0.771,2.32
				l-1.078,2.963h-0.598l-0.988-2.908c-0.29-0.86-0.535-1.649-0.707-2.375h-0.018c-0.02,0.763-0.064,1.785-0.119,2.701l-0.162,2.619
				h-0.752l0.426-6.109h1.006l1.042,2.955c0.254,0.752,0.462,1.422,0.616,2.058h0.027c0.153-0.615,0.371-1.287,0.644-2.058
				l1.088-2.955h1.006l0.382,6.109h-0.771L237.173,35.019z"/>
			<path fill="#FFFFFF" d="M239.316,31.675c0.346-0.071,0.89-0.127,1.441-0.127c0.789,0,1.297,0.136,1.678,0.443
				c0.316,0.236,0.508,0.598,0.508,1.078c0,0.59-0.391,1.106-1.033,1.342v0.019c0.58,0.146,1.26,0.627,1.26,1.532
				c0,0.525-0.209,0.924-0.518,1.224c-0.426,0.391-1.114,0.571-2.111,0.571c-0.544,0-0.96-0.037-1.225-0.073V31.675L239.316,31.675z
				 M240.105,34.177h0.717c0.834,0,1.322-0.436,1.322-1.024c0-0.715-0.543-0.996-1.34-0.996c-0.363,0-0.572,0.027-0.699,0.055
				V34.177z M240.105,37.103c0.154,0.026,0.381,0.037,0.662,0.037c0.815,0,1.567-0.3,1.567-1.188c0-0.834-0.716-1.178-1.577-1.178
				h-0.652V37.103z"/>
			<path fill="#FFFFFF" d="M208.607,45.839v0.591h-2.238v-0.591H208.607z"/>
			<path fill="#FFFFFF" d="M212.943,43.437h-0.019L211.9,43.99l-0.153-0.605l1.287-0.688h0.681v5.891h-0.771V43.437L212.943,43.437z
				"/>
			<path fill="#FFFFFF" d="M218.35,44.198l0.86,2.465c0.146,0.4,0.263,0.762,0.354,1.125h0.026c0.101-0.363,0.228-0.725,0.371-1.125
				l0.853-2.465h0.834l-1.723,4.387h-0.761l-1.668-4.387H218.35z"/>
			<path fill="#FFFFFF" d="M226.7,48.385c-0.29,0.146-0.87,0.291-1.613,0.291c-1.722,0-3.019-1.088-3.019-3.092
				c0-1.912,1.297-3.209,3.189-3.209c0.762,0,1.241,0.164,1.45,0.273l-0.19,0.643c-0.299-0.145-0.726-0.254-1.231-0.254
				c-1.433,0-2.384,0.916-2.384,2.521c0,1.496,0.861,2.457,2.348,2.457c0.48,0,0.971-0.101,1.287-0.255L226.7,48.385z"/>
			<path fill="#FFFFFF" d="M231.534,46.356c0,1.621-1.124,2.328-2.185,2.328c-1.188,0-2.104-0.869-2.104-2.257
				c0-1.469,0.961-2.329,2.175-2.329C230.682,44.099,231.534,45.015,231.534,46.356z M228.053,46.401
				c0,0.961,0.555,1.686,1.333,1.686c0.761,0,1.332-0.717,1.332-1.703c0-0.743-0.37-1.688-1.313-1.688
				S228.053,45.567,228.053,46.401z"/>
			<path fill="#FFFFFF" d="M232.542,45.567c0-0.519-0.009-0.961-0.035-1.369h0.697l0.026,0.861h0.037
				c0.198-0.591,0.68-0.961,1.213-0.961c0.093,0,0.154,0.01,0.229,0.026v0.752c-0.082-0.018-0.163-0.026-0.271-0.026
				c-0.562,0-0.961,0.426-1.069,1.024c-0.019,0.107-0.036,0.234-0.036,0.371v2.338h-0.789L232.542,45.567L232.542,45.567z"/>
			<path fill="#FFFFFF" d="M235.863,46.536c0.018,1.08,0.705,1.523,1.504,1.523c0.57,0,0.915-0.101,1.215-0.228l0.136,0.57
				c-0.28,0.127-0.762,0.272-1.46,0.272c-1.35,0-2.156-0.889-2.156-2.213c0-1.321,0.779-2.364,2.058-2.364
				c1.433,0,1.813,1.26,1.813,2.065c0,0.164-0.02,0.291-0.027,0.371h-3.082V46.536z M238.201,45.966
				c0.009-0.508-0.209-1.295-1.105-1.295c-0.807,0-1.16,0.742-1.225,1.295H238.201z"/>
		</g>
		<g>
			<path fill="#F1F2F2" d="M203.29,13.951c0.397-0.082,0.97-0.127,1.515-0.127c0.842,0,1.387,0.154,1.766,0.499
				c0.309,0.271,0.48,0.688,0.48,1.16c0,0.807-0.507,1.341-1.15,1.559v0.027c0.471,0.163,0.752,0.598,0.896,1.231
				c0.2,0.853,0.346,1.441,0.473,1.678h-0.816c-0.1-0.172-0.236-0.698-0.408-1.459c-0.182-0.844-0.508-1.16-1.225-1.188h-0.742
				v2.646h-0.789L203.29,13.951L203.29,13.951z M204.079,16.733h0.808c0.842,0,1.377-0.462,1.377-1.16
				c0-0.788-0.572-1.133-1.406-1.142c-0.381,0-0.651,0.035-0.778,0.071V16.733z"/>
			<path fill="#F1F2F2" d="M208.623,17.93c0.018,1.078,0.707,1.522,1.504,1.522c0.571,0,0.916-0.1,1.214-0.227l0.136,0.569
				c-0.281,0.127-0.761,0.272-1.459,0.272c-1.351,0-2.156-0.889-2.156-2.212s0.779-2.365,2.058-2.365
				c1.433,0,1.813,1.26,1.813,2.066c0,0.162-0.02,0.29-0.027,0.37h-3.082V17.93z M210.961,17.359
				c0.01-0.508-0.208-1.296-1.105-1.296c-0.808,0-1.16,0.743-1.225,1.296H210.961z"/>
			<path fill="#F1F2F2" d="M216.512,13.543v5.304c0,0.39,0.008,0.834,0.034,1.133h-0.715l-0.037-0.763h-0.019
				c-0.244,0.49-0.778,0.861-1.496,0.861c-1.061,0-1.875-0.896-1.875-2.229c-0.01-1.459,0.896-2.356,1.967-2.356
				c0.671,0,1.124,0.317,1.322,0.671h0.02v-2.62L216.512,13.543L216.512,13.543z M215.713,17.377c0-0.1-0.009-0.234-0.036-0.335
				c-0.118-0.508-0.553-0.925-1.151-0.925c-0.824,0-1.313,0.726-1.313,1.695c0,0.888,0.435,1.622,1.296,1.622
				c0.535,0,1.024-0.354,1.17-0.951c0.027-0.109,0.036-0.218,0.036-0.345L215.713,17.377L215.713,17.377z"/>
			<path fill="#F1F2F2" d="M221.508,18.782c0,0.453,0.01,0.852,0.036,1.196h-0.707l-0.045-0.716h-0.019
				c-0.209,0.354-0.672,0.814-1.45,0.814c-0.688,0-1.515-0.381-1.515-1.922v-2.564h0.799v2.43c0,0.834,0.254,1.396,0.979,1.396
				c0.534,0,0.906-0.372,1.051-0.726c0.045-0.118,0.072-0.264,0.072-0.408v-2.691h0.798L221.508,18.782L221.508,18.782z"/>
			<path fill="#F1F2F2" d="M225.961,19.815c-0.208,0.107-0.671,0.254-1.26,0.254c-1.323,0-2.186-0.897-2.186-2.239
				c0-1.351,0.926-2.329,2.357-2.329c0.471,0,0.889,0.118,1.105,0.228l-0.183,0.615c-0.19-0.107-0.489-0.208-0.924-0.208
				c-1.007,0-1.552,0.743-1.552,1.658c0,1.017,0.652,1.642,1.523,1.642c0.453,0,0.752-0.118,0.979-0.219L225.961,19.815z"/>
			<path fill="#F1F2F2" d="M227.288,17.93c0.019,1.078,0.706,1.522,1.505,1.522c0.57,0,0.915-0.1,1.214-0.227l0.136,0.569
				c-0.281,0.127-0.761,0.272-1.459,0.272c-1.351,0-2.156-0.889-2.156-2.212s0.779-2.365,2.058-2.365
				c1.433,0,1.812,1.26,1.812,2.066c0,0.162-0.018,0.29-0.026,0.37h-3.082V17.93z M229.626,17.359
				c0.008-0.508-0.209-1.296-1.106-1.296c-0.807,0-1.16,0.743-1.224,1.296H229.626z"/>
			<path fill="#F1F2F2" d="M234.126,14.54h-1.858v-0.671h4.522v0.671h-1.867v5.438h-0.797V14.54z"/>
			<path fill="#F1F2F2" d="M239.294,19.979l-0.063-0.554h-0.027c-0.244,0.346-0.715,0.652-1.342,0.652
				c-0.887,0-1.34-0.625-1.34-1.26c0-1.062,0.94-1.642,2.637-1.632v-0.09c0-0.363-0.1-1.017-0.996-1.017
				c-0.408,0-0.834,0.127-1.143,0.326l-0.183-0.525c0.363-0.234,0.89-0.39,1.44-0.39c1.343,0,1.668,0.915,1.668,1.794v1.641
				c0,0.382,0.019,0.754,0.072,1.053L239.294,19.979L239.294,19.979z M239.175,17.74c-0.868-0.019-1.856,0.136-1.856,0.987
				c0,0.517,0.344,0.762,0.752,0.762c0.572,0,0.934-0.362,1.061-0.734c0.027-0.082,0.045-0.172,0.045-0.254L239.175,17.74
				L239.175,17.74z"/>
			<path fill="#F1F2F2" d="M241.126,19.163c0.235,0.153,0.651,0.317,1.054,0.317c0.579,0,0.852-0.29,0.852-0.653
				c0-0.381-0.227-0.589-0.816-0.807c-0.789-0.28-1.16-0.716-1.16-1.241c0-0.707,0.572-1.287,1.514-1.287
				c0.445,0,0.834,0.127,1.078,0.271l-0.198,0.579c-0.173-0.107-0.488-0.254-0.896-0.254c-0.472,0-0.734,0.272-0.734,0.6
				c0,0.361,0.264,0.524,0.834,0.743c0.762,0.29,1.15,0.671,1.15,1.322c0,0.771-0.599,1.314-1.642,1.314
				c-0.479,0-0.925-0.118-1.231-0.299L241.126,19.163z"/>
			<path fill="#F1F2F2" d="M245.617,17.604h0.018c0.109-0.153,0.264-0.345,0.391-0.498l1.287-1.515h0.959l-1.692,1.805l1.93,2.583
				h-0.969l-1.515-2.104l-0.407,0.453v1.649h-0.789v-6.437h0.789L245.617,17.604L245.617,17.604z"/>
		</g>
	</g>
</g>
<g>
	<path d="M329.289,19.344h-3.143v2.915h3.502v0.875h-4.547v-8.083h4.366v0.875h-3.321v2.556h3.143V19.344L329.289,19.344z"/>
	<path d="M331.462,17.33l0.827,1.247c0.217,0.324,0.396,0.624,0.588,0.948h0.036c0.192-0.349,0.384-0.648,0.576-0.959l0.814-1.235
		h1.14l-1.979,2.807l2.039,2.998h-1.199l-0.852-1.307c-0.229-0.336-0.42-0.66-0.624-1.008h-0.023
		c-0.191,0.348-0.396,0.66-0.611,1.008l-0.839,1.307h-1.164l2.062-2.962l-1.968-2.842h1.177V17.33z"/>
	<path d="M339.741,23.134l-0.084-0.73h-0.036c-0.324,0.456-0.947,0.863-1.775,0.863c-1.175,0-1.773-0.828-1.773-1.667
		c0-1.403,1.247-2.172,3.489-2.159v-0.12c0-0.479-0.132-1.343-1.318-1.343c-0.54,0-1.104,0.168-1.512,0.432l-0.239-0.695
		c0.479-0.312,1.175-0.516,1.906-0.516c1.774,0,2.207,1.211,2.207,2.375v2.171c0,0.503,0.023,0.995,0.096,1.391L339.741,23.134
		L339.741,23.134z M339.584,20.172c-1.151-0.023-2.458,0.181-2.458,1.308c0,0.684,0.455,1.008,0.995,1.008
		c0.756,0,1.235-0.48,1.403-0.972c0.035-0.108,0.06-0.229,0.06-0.336V20.172z"/>
	<path d="M342.311,18.9c0-0.601-0.013-1.091-0.049-1.571h0.924l0.049,0.937h0.035c0.324-0.553,0.863-1.067,1.823-1.067
		c0.791,0,1.392,0.479,1.644,1.163h0.023c0.181-0.324,0.407-0.576,0.647-0.755c0.348-0.265,0.73-0.408,1.283-0.408
		c0.768,0,1.906,0.503,1.906,2.519v3.418h-1.03v-3.285c0-1.115-0.408-1.787-1.261-1.787c-0.6,0-1.066,0.443-1.247,0.959
		c-0.048,0.144-0.084,0.336-0.084,0.527v3.586h-1.03v-3.478c0-0.923-0.408-1.595-1.212-1.595c-0.659,0-1.14,0.527-1.308,1.056
		c-0.061,0.156-0.084,0.335-0.084,0.516v3.502h-1.031L342.311,18.9L342.311,18.9z"/>
	<path d="M352.319,19.225c0-0.744-0.024-1.344-0.05-1.896h0.948l0.048,0.995h0.023c0.432-0.708,1.115-1.127,2.062-1.127
		c1.403,0,2.458,1.187,2.458,2.95c0,2.087-1.271,3.118-2.639,3.118c-0.768,0-1.438-0.336-1.786-0.912h-0.023v3.153h-1.043
		L352.319,19.225L352.319,19.225z M353.362,20.771c0,0.155,0.023,0.3,0.048,0.432c0.191,0.732,0.828,1.235,1.583,1.235
		c1.115,0,1.764-0.911,1.764-2.243c0-1.163-0.612-2.159-1.728-2.159c-0.721,0-1.393,0.516-1.596,1.307
		c-0.035,0.133-0.071,0.288-0.071,0.433V20.771L353.362,20.771z"/>
	<path d="M359.147,14.619h1.055v8.515h-1.055V14.619z"/>
	<path d="M362.566,20.424c0.023,1.428,0.936,2.016,1.99,2.016c0.757,0,1.211-0.132,1.607-0.3l0.18,0.756
		c-0.372,0.168-1.008,0.359-1.931,0.359c-1.787,0-2.854-1.175-2.854-2.927c0-1.751,1.031-3.13,2.724-3.13
		c1.895,0,2.397,1.667,2.397,2.734c0,0.216-0.023,0.384-0.036,0.491H362.566z M365.661,19.668c0.012-0.671-0.276-1.715-1.463-1.715
		c-1.067,0-1.535,0.983-1.619,1.715H365.661z"/>
	<path d="M325.102,29.559c0.637-0.098,1.393-0.168,2.22-0.168c1.5,0,2.566,0.348,3.273,1.007c0.721,0.66,1.141,1.596,1.141,2.901
		c0,1.32-0.408,2.399-1.163,3.144c-0.756,0.756-2.003,1.164-3.574,1.164c-0.744,0-1.367-0.036-1.896-0.098V29.559z M326.146,36.706
		c0.264,0.049,0.646,0.062,1.056,0.062c2.229,0,3.44-1.247,3.44-3.431c0.014-1.906-1.066-3.119-3.272-3.119
		c-0.54,0-0.948,0.05-1.224,0.108V36.706z"/>
	<path d="M336.273,37.534l-0.084-0.731h-0.036c-0.323,0.456-0.947,0.863-1.775,0.863c-1.175,0-1.774-0.827-1.774-1.667
		c0-1.402,1.247-2.171,3.49-2.158v-0.121c0-0.479-0.132-1.343-1.318-1.343c-0.54,0-1.104,0.168-1.513,0.433l-0.238-0.695
		c0.479-0.312,1.175-0.516,1.905-0.516c1.775,0,2.207,1.211,2.207,2.374v2.172c0,0.503,0.024,0.995,0.097,1.391L336.273,37.534
		L336.273,37.534z M336.117,34.571c-1.151-0.023-2.458,0.181-2.458,1.308c0,0.685,0.455,1.009,0.995,1.009
		c0.756,0,1.234-0.479,1.402-0.973c0.036-0.106,0.061-0.229,0.061-0.336V34.571z"/>
	<path d="M340.066,30.062v1.667h1.512v0.803h-1.512v3.131c0,0.72,0.203,1.127,0.792,1.127c0.274,0,0.479-0.035,0.61-0.071
		l0.048,0.791c-0.202,0.084-0.526,0.146-0.936,0.146c-0.491,0-0.887-0.156-1.139-0.444c-0.301-0.312-0.408-0.827-0.408-1.511v-3.167
		h-0.899V31.73h0.899v-1.393L340.066,30.062z"/>
	<path d="M345.981,37.534l-0.085-0.731h-0.035c-0.324,0.456-0.947,0.863-1.775,0.863c-1.175,0-1.774-0.827-1.774-1.667
		c0-1.402,1.247-2.171,3.49-2.158v-0.121c0-0.479-0.132-1.343-1.318-1.343c-0.54,0-1.104,0.168-1.513,0.433l-0.238-0.695
		c0.479-0.312,1.175-0.516,1.905-0.516c1.775,0,2.207,1.211,2.207,2.374v2.172c0,0.503,0.024,0.995,0.097,1.391L345.981,37.534
		L345.981,37.534z M345.825,34.571c-1.151-0.023-2.458,0.181-2.458,1.308c0,0.685,0.455,1.009,0.995,1.009
		c0.756,0,1.234-0.479,1.402-0.973c0.036-0.106,0.061-0.229,0.061-0.336V34.571z"/>
	<path d="M348.586,37.534V29.45h1.14l2.592,4.09c0.6,0.947,1.066,1.799,1.45,2.627l0.023-0.012c-0.096-1.08-0.119-2.062-0.119-3.322
		V29.45h0.983v8.084H353.6l-2.565-4.102c-0.563-0.9-1.104-1.823-1.512-2.699l-0.036,0.013c0.061,1.02,0.084,1.991,0.084,3.334v3.454
		H348.586z"/>
	<path d="M361.7,34.584c0,2.146-1.487,3.082-2.892,3.082c-1.57,0-2.781-1.15-2.781-2.985c0-1.942,1.271-3.082,2.878-3.082
		C360.572,31.598,361.7,32.809,361.7,34.584z M357.094,34.644c0,1.271,0.731,2.229,1.764,2.229c1.008,0,1.763-0.947,1.763-2.254
		c0-0.984-0.491-2.229-1.738-2.229C357.633,32.39,357.094,33.54,357.094,34.644z"/>
	<path d="M368.047,29.019v7.017c0,0.516,0.012,1.104,0.048,1.499h-0.946l-0.049-1.008h-0.023c-0.323,0.647-1.031,1.14-1.979,1.14
		c-1.402,0-2.481-1.188-2.481-2.95c-0.014-1.932,1.188-3.117,2.603-3.117c0.889,0,1.487,0.419,1.751,0.888h0.023V29.02
		L368.047,29.019L368.047,29.019z M366.992,34.093c0-0.133-0.012-0.312-0.048-0.443c-0.155-0.672-0.731-1.225-1.522-1.225
		c-1.092,0-1.739,0.959-1.739,2.243c0,1.175,0.575,2.146,1.716,2.146c0.708,0,1.354-0.468,1.547-1.259
		c0.036-0.146,0.048-0.288,0.048-0.456L366.992,34.093L366.992,34.093z"/>
	<path d="M370.389,34.823c0.024,1.428,0.937,2.016,1.991,2.016c0.756,0,1.211-0.133,1.607-0.301l0.18,0.756
		c-0.372,0.168-1.008,0.36-1.931,0.36c-1.787,0-2.854-1.176-2.854-2.927s1.031-3.13,2.724-3.13c1.895,0,2.397,1.667,2.397,2.733
		c0,0.216-0.024,0.384-0.036,0.491L370.389,34.823L370.389,34.823z M373.484,34.067c0.012-0.671-0.276-1.715-1.463-1.715
		c-1.067,0-1.535,0.983-1.619,1.715H373.484z"/>
</g>
<g>
	<path d="M327.209,51.187v0.647h-2.469v-0.647H327.209z"/>
	<path d="M330.001,52.565c0-0.82,0.489-1.399,1.289-1.739l-0.01-0.03c-0.721-0.34-1.029-0.898-1.029-1.459
		c0-1.028,0.869-1.729,2.009-1.729c1.259,0,1.89,0.789,1.89,1.599c0,0.55-0.271,1.141-1.069,1.52v0.03
		c0.81,0.319,1.31,0.89,1.31,1.68c0,1.13-0.97,1.889-2.209,1.889C330.821,54.324,330.001,53.515,330.001,52.565z M333.5,52.525
		c0-0.79-0.55-1.169-1.43-1.419c-0.761,0.22-1.169,0.719-1.169,1.339c-0.03,0.659,0.47,1.239,1.299,1.239
		C332.99,53.685,333.5,53.194,333.5,52.525z M331.081,49.276c0,0.649,0.489,1,1.239,1.2c0.56-0.19,0.988-0.591,0.988-1.181
		c0-0.52-0.31-1.06-1.1-1.06C331.48,48.237,331.081,48.718,331.081,49.276z"/>
	<path d="M342.768,53.915c-0.39,0.141-1.158,0.369-2.067,0.369c-1.021,0-1.859-0.26-2.521-0.889
		c-0.579-0.562-0.938-1.46-0.938-2.511c0.011-2.008,1.39-3.478,3.647-3.478c0.779,0,1.391,0.17,1.68,0.31l-0.21,0.71
		c-0.359-0.159-0.811-0.289-1.488-0.289c-1.64,0-2.709,1.02-2.709,2.709c0,1.709,1.029,2.719,2.599,2.719
		c0.569,0,0.959-0.08,1.159-0.182v-2.009h-1.369v-0.699h2.219L342.768,53.915L342.768,53.915z"/>
	<path d="M344.101,47.567c0.381-0.079,0.979-0.14,1.59-0.14c0.868,0,1.43,0.149,1.849,0.489c0.351,0.26,0.561,0.659,0.561,1.188
		c0,0.649-0.431,1.221-1.14,1.479v0.021c0.64,0.16,1.389,0.688,1.389,1.688c0,0.579-0.229,1.021-0.568,1.35
		c-0.471,0.43-1.229,0.63-2.329,0.63c-0.601,0-1.06-0.04-1.35-0.08L344.101,47.567L344.101,47.567z M344.97,50.327h0.79
		c0.919,0,1.459-0.479,1.459-1.13c0-0.79-0.6-1.1-1.479-1.1c-0.399,0-0.63,0.029-0.771,0.06V50.327L344.97,50.327z M344.97,53.555
		c0.17,0.029,0.42,0.039,0.729,0.039c0.898,0,1.729-0.329,1.729-1.309c0-0.92-0.79-1.3-1.738-1.3h-0.721L344.97,53.555
		L344.97,53.555z"/>
	<path d="M352.67,47.987v1.39h1.259v0.67h-1.259v2.608c0,0.6,0.17,0.938,0.659,0.938c0.229,0,0.399-0.028,0.51-0.061l0.04,0.66
		c-0.17,0.07-0.438,0.12-0.779,0.12c-0.409,0-0.738-0.13-0.948-0.37c-0.25-0.26-0.341-0.689-0.341-1.26v-2.639h-0.75v-0.67h0.75
		v-1.159L352.67,47.987z"/>
	<path d="M359.239,51.756c0,1.789-1.239,2.568-2.409,2.568c-1.309,0-2.318-0.96-2.318-2.489c0-1.618,1.061-2.567,2.398-2.567
		C358.299,49.267,359.239,50.276,359.239,51.756z M355.401,51.806c0,1.06,0.608,1.858,1.469,1.858c0.84,0,1.47-0.79,1.47-1.879
		c0-0.82-0.41-1.859-1.449-1.859C355.85,49.927,355.401,50.885,355.401,51.806z"/>
	<path d="M361.411,47.987v1.39h1.259v0.67h-1.259v2.608c0,0.6,0.17,0.938,0.659,0.938c0.229,0,0.399-0.028,0.51-0.061l0.04,0.66
		c-0.17,0.07-0.439,0.12-0.779,0.12c-0.41,0-0.739-0.13-0.949-0.37c-0.25-0.26-0.34-0.689-0.34-1.26v-2.639h-0.75v-0.67h0.75v-1.159
		L361.411,47.987z"/>
	<path d="M366.339,54.214l-0.07-0.608h-0.028c-0.271,0.38-0.79,0.72-1.479,0.72c-0.979,0-1.479-0.689-1.479-1.39
		c0-1.169,1.04-1.81,2.908-1.8v-0.1c0-0.4-0.109-1.119-1.1-1.119c-0.45,0-0.92,0.141-1.26,0.359l-0.2-0.58
		c0.4-0.26,0.979-0.43,1.59-0.43c1.479,0,1.839,1.01,1.839,1.979v1.811c0,0.419,0.021,0.828,0.08,1.157L366.339,54.214
		L366.339,54.214z M366.209,51.745c-0.96-0.02-2.049,0.15-2.049,1.09c0,0.57,0.38,0.84,0.829,0.84c0.63,0,1.028-0.399,1.17-0.81
		c0.029-0.09,0.05-0.19,0.05-0.28V51.745z"/>
	<path d="M368.481,47.118h0.88v7.096h-0.88V47.118z"/>
	<path d="M327.209,63.187v0.647h-2.469v-0.647H327.209z"/>
	<path d="M341.059,66.034c-0.229,0.12-0.738,0.28-1.39,0.28c-1.459,0-2.408-0.989-2.408-2.47c0-1.488,1.021-2.568,2.6-2.568
		c0.52,0,0.979,0.131,1.219,0.25l-0.199,0.68c-0.21-0.119-0.54-0.229-1.02-0.229c-1.109,0-1.709,0.818-1.709,1.829
		c0,1.118,0.72,1.809,1.679,1.809c0.5,0,0.83-0.129,1.079-0.239L341.059,66.034z"/>
	<path d="M346.409,63.756c0,1.789-1.239,2.568-2.409,2.568c-1.309,0-2.318-0.96-2.318-2.489c0-1.618,1.061-2.567,2.398-2.567
		C345.469,61.267,346.409,62.276,346.409,63.756z M342.571,63.806c0,1.06,0.608,1.858,1.469,1.858c0.84,0,1.47-0.79,1.47-1.879
		c0-0.82-0.41-1.859-1.449-1.859C343.02,61.927,342.571,62.885,342.571,63.806z"/>
	<path d="M347.521,62.885c0-0.568-0.011-1.059-0.04-1.509h0.77l0.03,0.95h0.04c0.22-0.65,0.749-1.061,1.339-1.061
		c0.101,0,0.17,0.01,0.25,0.029v0.829c-0.09-0.02-0.18-0.028-0.3-0.028c-0.619,0-1.061,0.47-1.181,1.129
		c-0.02,0.119-0.04,0.26-0.04,0.409v2.578h-0.868V62.885z"/>
	<path d="M351.18,63.956c0.021,1.189,0.779,1.679,1.659,1.679c0.629,0,1.009-0.109,1.339-0.25l0.149,0.631
		c-0.311,0.14-0.839,0.3-1.608,0.3c-1.489,0-2.379-0.979-2.379-2.438s0.859-2.608,2.27-2.608c1.578,0,1.999,1.39,1.999,2.278
		c0,0.181-0.021,0.32-0.03,0.41L351.18,63.956L351.18,63.956z M353.758,63.326c0.01-0.56-0.229-1.43-1.22-1.43
		c-0.889,0-1.279,0.818-1.349,1.43H353.758z"/>
	<path d="M355.58,65.315c0.26,0.17,0.72,0.35,1.159,0.35c0.64,0,0.939-0.32,0.939-0.721c0-0.419-0.25-0.648-0.899-0.889
		c-0.869-0.312-1.279-0.789-1.279-1.369c0-0.779,0.63-1.42,1.67-1.42c0.489,0,0.919,0.141,1.188,0.301l-0.221,0.639
		c-0.188-0.119-0.539-0.279-0.988-0.279c-0.521,0-0.811,0.301-0.811,0.66c0,0.399,0.29,0.579,0.92,0.818
		c0.839,0.32,1.27,0.74,1.27,1.46c0,0.85-0.659,1.449-1.81,1.449c-0.528,0-1.02-0.13-1.358-0.33L355.58,65.315z"/>
	<path d="M362.839,59.987v1.39h1.259v0.67h-1.259v2.608c0,0.6,0.17,0.938,0.659,0.938c0.229,0,0.4-0.028,0.51-0.061l0.04,0.66
		c-0.17,0.07-0.438,0.12-0.779,0.12c-0.409,0-0.738-0.13-0.948-0.37c-0.25-0.26-0.34-0.689-0.34-1.26v-2.639h-0.75v-0.67h0.75
		v-1.159L362.839,59.987z"/>
	<path d="M369.408,63.756c0,1.789-1.239,2.568-2.409,2.568c-1.309,0-2.318-0.96-2.318-2.489c0-1.618,1.061-2.567,2.398-2.567
		C368.468,61.267,369.408,62.276,369.408,63.756z M365.57,63.806c0,1.06,0.608,1.858,1.469,1.858c0.84,0,1.47-0.79,1.47-1.879
		c0-0.82-0.41-1.859-1.449-1.859C366.019,61.927,365.57,62.885,365.57,63.806z"/>
	<path d="M371.58,59.987v1.39h1.259v0.67h-1.259v2.608c0,0.6,0.17,0.938,0.659,0.938c0.229,0,0.399-0.028,0.51-0.061l0.04,0.66
		c-0.17,0.07-0.439,0.12-0.779,0.12c-0.41,0-0.738-0.13-0.949-0.37c-0.25-0.26-0.34-0.689-0.34-1.26v-2.639h-0.75v-0.67h0.75v-1.159
		L371.58,59.987z"/>
	<path d="M376.508,66.214l-0.07-0.608h-0.028c-0.271,0.38-0.79,0.72-1.479,0.72c-0.979,0-1.479-0.689-1.479-1.39
		c0-1.169,1.04-1.81,2.908-1.8v-0.1c0-0.4-0.109-1.119-1.1-1.119c-0.45,0-0.92,0.141-1.26,0.359l-0.2-0.58
		c0.4-0.26,0.979-0.43,1.59-0.43c1.479,0,1.839,1.01,1.839,1.979v1.811c0,0.419,0.021,0.828,0.08,1.157L376.508,66.214
		L376.508,66.214z M376.378,63.745c-0.96-0.02-2.049,0.15-2.049,1.09c0,0.57,0.38,0.84,0.829,0.84c0.63,0,1.028-0.399,1.17-0.81
		c0.029-0.09,0.05-0.19,0.05-0.28V63.745z"/>
	<path d="M378.65,59.118h0.88v7.096h-0.88V59.118z"/>
</g>
<path fill="#FFFFFF" d="M82.414,49.186v-0.489l0.625-0.607c1.505-1.432,2.185-2.192,2.192-3.082c0-0.598-0.29-1.149-1.169-1.149
	c-0.535,0-0.979,0.271-1.251,0.498l-0.254-0.562c0.408-0.345,0.988-0.599,1.668-0.599c1.27,0,1.804,0.87,1.804,1.713
	c0,1.088-0.788,1.967-2.029,3.163l-0.473,0.436v0.019h2.647v0.662L82.414,49.186L82.414,49.186z"/>
<path fill="#FFFFFF" d="M147.453,48.455v-0.489l0.625-0.607c1.505-1.432,2.185-2.192,2.192-3.082c0-0.598-0.29-1.149-1.169-1.149
	c-0.535,0-0.979,0.271-1.251,0.498l-0.254-0.562c0.408-0.345,0.988-0.599,1.668-0.599c1.27,0,1.804,0.87,1.804,1.713
	c0,1.088-0.788,1.967-2.029,3.163l-0.473,0.436v0.019h2.647v0.662L147.453,48.455L147.453,48.455z"/>
</svg>
