<?xml version="1.0" encoding="utf-8"?>
<!-- Generator: Adobe Illustrator 16.0.0, SVG Export Plug-In . SVG Version: 6.00 Build 0)  -->
<!DOCTYPE svg PUBLIC "-//W3C//DTD SVG 1.1//EN" "http://www.w3.org/Graphics/SVG/1.1/DTD/svg11.dtd">
<svg version="1.1" id="Layer_1" xmlns="http://www.w3.org/2000/svg" xmlns:xlink="http://www.w3.org/1999/xlink" x="0px" y="0px"
	 width="257.441px" height="117.114px" viewBox="0 0 257.441 117.114" enable-background="new 0 0 257.441 117.114"
	 xml:space="preserve">
<g>
	<g>
		<rect x="0.5" y="0.5" fill="#EE2A7B" width="64.271" height="116.962"/>
		<path fill="#FFFFFF" d="M65.271,117.962H0V0h65.271V117.962z M1,116.962h63.271V1H1V116.962z"/>
	</g>
	<g>
		<path d="M20.62,31.693c-0.242,0.121-0.725,0.241-1.344,0.241c-1.435,0-2.515-0.906-2.515-2.575c0-1.594,1.08-2.674,2.659-2.674
			c0.634,0,1.035,0.136,1.208,0.227l-0.159,0.536c-0.249-0.121-0.604-0.211-1.027-0.211c-1.193,0-1.986,0.763-1.986,2.1
			c0,1.246,0.718,2.047,1.956,2.047c0.4,0,0.809-0.083,1.073-0.212L20.62,31.693z"/>
		<path d="M24.649,30.001c0,1.353-0.937,1.941-1.82,1.941c-0.99,0-1.752-0.725-1.752-1.881c0-1.224,0.801-1.941,1.812-1.941
			C23.939,28.12,24.649,28.884,24.649,30.001z M21.749,30.039c0,0.801,0.46,1.405,1.11,1.405c0.635,0,1.11-0.597,1.11-1.42
			c0-0.62-0.31-1.405-1.095-1.405C22.089,28.619,21.749,29.344,21.749,30.039z"/>
		<path d="M25.49,29.193c0-0.378-0.007-0.688-0.03-0.989h0.589l0.038,0.604h0.015c0.181-0.347,0.604-0.688,1.208-0.688
			c0.506,0,1.292,0.303,1.292,1.557v2.183h-0.665v-2.107c0-0.589-0.219-1.08-0.846-1.08c-0.438,0-0.778,0.31-0.892,0.68
			c-0.03,0.083-0.045,0.196-0.045,0.31v2.198H25.49V29.193z"/>
		<path d="M30.456,27.153v1.051h0.952v0.506h-0.952v1.971c0,0.453,0.128,0.71,0.499,0.71c0.174,0,0.302-0.022,0.385-0.045
			l0.03,0.499c-0.128,0.053-0.333,0.09-0.589,0.09c-0.31,0-0.559-0.098-0.717-0.279c-0.189-0.196-0.257-0.521-0.257-0.951V28.71
			h-0.567v-0.506h0.567v-0.877L30.456,27.153z"/>
		<path d="M34.181,31.859l-0.053-0.461h-0.023c-0.204,0.287-0.597,0.544-1.118,0.544c-0.74,0-1.118-0.521-1.118-1.05
			c0-0.884,0.786-1.367,2.198-1.359v-0.076c0-0.302-0.083-0.846-0.831-0.846c-0.34,0-0.695,0.106-0.952,0.272l-0.151-0.438
			c0.302-0.196,0.74-0.325,1.201-0.325c1.118,0,1.39,0.764,1.39,1.496v1.367c0,0.317,0.015,0.627,0.06,0.876H34.181z M34.083,29.994
			c-0.725-0.016-1.548,0.113-1.548,0.823c0,0.431,0.287,0.634,0.627,0.634c0.476,0,0.778-0.302,0.883-0.611
			c0.023-0.068,0.038-0.144,0.038-0.212V29.994z"/>
		<path d="M36.54,27.177c0.008,0.227-0.159,0.407-0.423,0.407c-0.234,0-0.4-0.181-0.4-0.407c0-0.234,0.174-0.416,0.416-0.416
			C36.381,26.761,36.54,26.942,36.54,27.177z M35.799,31.859v-3.655h0.665v3.655H35.799z"/>
		<path d="M37.568,29.193c0-0.378-0.007-0.688-0.03-0.989h0.589l0.038,0.604h0.015c0.181-0.347,0.604-0.688,1.208-0.688
			c0.506,0,1.292,0.303,1.292,1.557v2.183h-0.665v-2.107c0-0.589-0.219-1.08-0.846-1.08c-0.438,0-0.778,0.31-0.892,0.68
			c-0.03,0.083-0.045,0.196-0.045,0.31v2.198h-0.665V29.193z"/>
		<path d="M42.133,30.152c0.015,0.898,0.589,1.269,1.254,1.269c0.476,0,0.763-0.083,1.012-0.188l0.113,0.476
			c-0.234,0.106-0.635,0.227-1.216,0.227c-1.125,0-1.797-0.74-1.797-1.843s0.649-1.972,1.714-1.972c1.193,0,1.511,1.051,1.511,1.723
			c0,0.136-0.015,0.241-0.022,0.31H42.133z M44.082,29.677c0.008-0.423-0.174-1.08-0.921-1.08c-0.672,0-0.967,0.619-1.02,1.08
			H44.082z"/>
		<path d="M45.549,29.344c0-0.43-0.007-0.8-0.03-1.14h0.582l0.023,0.717h0.03c0.166-0.49,0.566-0.801,1.012-0.801
			c0.075,0,0.128,0.008,0.188,0.023v0.627c-0.068-0.016-0.136-0.023-0.227-0.023c-0.468,0-0.8,0.355-0.891,0.854
			c-0.015,0.091-0.03,0.197-0.03,0.311v1.948h-0.657V29.344z"/>
	</g>
	<g>
		<path fill="#F1F2F2" d="M20.521,39.091c-0.045-0.853-0.1-1.876-0.09-2.638h-0.027c-0.208,0.716-0.462,1.478-0.771,2.32
			l-1.079,2.964h-0.598l-0.988-2.909c-0.29-0.861-0.535-1.65-0.707-2.375h-0.018c-0.018,0.762-0.063,1.785-0.118,2.701l-0.163,2.619
			H15.21l0.426-6.109h1.006l1.042,2.955c0.254,0.752,0.462,1.423,0.616,2.058h0.027c0.154-0.616,0.372-1.287,0.644-2.058
			l1.088-2.955h1.006l0.381,6.109h-0.771L20.521,39.091z"/>
		<path fill="#F1F2F2" d="M25.122,41.773l-0.063-0.553h-0.027c-0.245,0.345-0.716,0.652-1.341,0.652
			c-0.888,0-1.341-0.625-1.341-1.26c0-1.061,0.942-1.641,2.637-1.632v-0.09c0-0.363-0.1-1.016-0.997-1.016
			c-0.408,0-0.834,0.127-1.142,0.326l-0.182-0.525c0.363-0.235,0.888-0.39,1.441-0.39c1.341,0,1.667,0.915,1.667,1.794v1.641
			c0,0.381,0.018,0.753,0.073,1.052H25.122z M25.003,39.535c-0.87-0.019-1.858,0.136-1.858,0.987c0,0.517,0.345,0.762,0.752,0.762
			c0.571,0,0.934-0.362,1.061-0.734c0.027-0.082,0.045-0.172,0.045-0.254V39.535z"/>
		<path fill="#F1F2F2" d="M27.064,38.818c0-0.562-0.018-1.015-0.036-1.432h0.716l0.036,0.752h0.019
			c0.326-0.534,0.843-0.852,1.559-0.852c1.061,0,1.858,0.897,1.858,2.229c0,1.577-0.961,2.356-1.994,2.356
			c-0.58,0-1.088-0.254-1.351-0.688h-0.018v2.384h-0.789V38.818z M27.853,39.988c0,0.117,0.018,0.227,0.036,0.326
			c0.145,0.553,0.625,0.934,1.197,0.934c0.843,0,1.332-0.689,1.332-1.695c0-0.879-0.462-1.632-1.305-1.632
			c-0.544,0-1.051,0.391-1.206,0.988c-0.027,0.1-0.054,0.218-0.054,0.326V39.988z"/>
		<path fill="#F1F2F2" d="M34.963,36.335h-1.858v-0.671h4.523v0.671h-1.867v5.438h-0.797V36.335z"/>
		<path fill="#F1F2F2" d="M40.132,41.773l-0.063-0.553h-0.027c-0.245,0.345-0.716,0.652-1.341,0.652
			c-0.888,0-1.341-0.625-1.341-1.26c0-1.061,0.942-1.641,2.637-1.632v-0.09c0-0.363-0.1-1.016-0.997-1.016
			c-0.408,0-0.833,0.127-1.142,0.326l-0.182-0.525c0.363-0.235,0.889-0.39,1.441-0.39c1.341,0,1.667,0.915,1.667,1.794v1.641
			c0,0.381,0.018,0.753,0.073,1.052H40.132z M40.014,39.535c-0.87-0.019-1.858,0.136-1.858,0.987c0,0.517,0.345,0.762,0.752,0.762
			c0.571,0,0.934-0.362,1.061-0.734c0.027-0.082,0.045-0.172,0.045-0.254V39.535z"/>
		<path fill="#F1F2F2" d="M41.965,40.958c0.236,0.153,0.653,0.317,1.052,0.317c0.58,0,0.852-0.29,0.852-0.653
			c0-0.381-0.227-0.589-0.815-0.807c-0.789-0.28-1.16-0.716-1.16-1.241c0-0.707,0.571-1.287,1.514-1.287
			c0.444,0,0.834,0.127,1.079,0.271l-0.2,0.58c-0.172-0.108-0.489-0.254-0.897-0.254c-0.472,0-0.734,0.272-0.734,0.599
			c0,0.362,0.263,0.525,0.834,0.743c0.761,0.29,1.151,0.671,1.151,1.323c0,0.771-0.598,1.314-1.641,1.314
			c-0.48,0-0.924-0.118-1.232-0.299L41.965,40.958z"/>
		<path fill="#F1F2F2" d="M46.454,39.398h0.018c0.109-0.153,0.263-0.344,0.39-0.498l1.287-1.514h0.961l-1.695,1.804l1.93,2.583
			h-0.97l-1.514-2.103l-0.408,0.453v1.649h-0.789v-6.436h0.789V39.398z"/>
	</g>
	<g>
		<path fill="#FFFFFF" d="M16.192,56.751v0.589h-2.239v-0.589H16.192z"/>
		<path fill="#FFFFFF" d="M18.796,59.497v-0.489l0.625-0.607c1.505-1.432,2.185-2.193,2.193-3.082c0-0.598-0.29-1.15-1.169-1.15
			c-0.535,0-0.979,0.271-1.251,0.498l-0.254-0.562c0.408-0.345,0.988-0.599,1.668-0.599c1.269,0,1.804,0.87,1.804,1.713
			c0,1.088-0.789,1.967-2.03,3.163l-0.472,0.436v0.018h2.647v0.662H18.796z"/>
		<path fill="#FFFFFF" d="M26.965,54.276h-2.248l-0.227,1.514c0.136-0.019,0.263-0.036,0.48-0.036c0.453,0,0.906,0.1,1.269,0.317
			c0.462,0.263,0.843,0.771,0.843,1.514c0,1.15-0.916,2.012-2.193,2.012c-0.644,0-1.188-0.182-1.468-0.362l0.199-0.607
			c0.245,0.146,0.725,0.326,1.26,0.326c0.752,0,1.396-0.489,1.396-1.278c-0.009-0.761-0.517-1.305-1.695-1.305
			c-0.335,0-0.599,0.036-0.816,0.063l0.381-2.828h2.819V54.276z"/>
		<path fill="#FFFFFF" d="M31.463,54.168c-0.163-0.01-0.372,0-0.598,0.036c-1.251,0.208-1.913,1.124-2.048,2.094h0.027
			c0.281-0.372,0.771-0.68,1.423-0.68c1.042,0,1.776,0.752,1.776,1.903c0,1.078-0.734,2.075-1.958,2.075
			c-1.26,0-2.084-0.979-2.084-2.511c0-1.16,0.417-2.075,0.997-2.655c0.489-0.48,1.142-0.779,1.885-0.87
			c0.236-0.036,0.435-0.046,0.58-0.046V54.168z M31.237,57.566c0-0.843-0.48-1.351-1.214-1.351c-0.48,0-0.925,0.299-1.142,0.726
			c-0.055,0.091-0.091,0.208-0.091,0.354c0.018,0.97,0.462,1.686,1.296,1.686C30.774,58.98,31.237,58.409,31.237,57.566z"/>
		<path fill="#FFFFFF" d="M38.182,56.814c-0.045-0.853-0.1-1.876-0.09-2.638h-0.027c-0.208,0.716-0.462,1.478-0.771,2.32
			l-1.079,2.964h-0.598l-0.988-2.909c-0.29-0.861-0.535-1.65-0.707-2.375h-0.018c-0.018,0.762-0.063,1.785-0.118,2.701l-0.163,2.619
			h-0.752l0.426-6.109h1.006l1.042,2.955c0.254,0.752,0.462,1.423,0.616,2.058h0.027c0.154-0.616,0.372-1.287,0.644-2.058
			l1.088-2.955h1.006l0.381,6.109h-0.771L38.182,56.814z"/>
		<path fill="#FFFFFF" d="M40.326,53.47c0.344-0.072,0.888-0.127,1.441-0.127c0.789,0,1.296,0.136,1.677,0.444
			c0.317,0.235,0.508,0.598,0.508,1.078c0,0.59-0.39,1.106-1.033,1.342v0.018c0.58,0.146,1.26,0.626,1.26,1.532
			c0,0.525-0.208,0.925-0.517,1.224c-0.426,0.39-1.115,0.571-2.112,0.571c-0.544,0-0.961-0.036-1.224-0.073V53.47z M41.115,55.972
			h0.716c0.834,0,1.323-0.436,1.323-1.024c0-0.716-0.544-0.997-1.341-0.997c-0.363,0-0.571,0.027-0.698,0.055V55.972z
			 M41.115,58.898c0.154,0.027,0.38,0.037,0.662,0.037c0.815,0,1.568-0.3,1.568-1.188c0-0.834-0.716-1.179-1.577-1.179h-0.652
			V58.898z"/>
		<path fill="#FFFFFF" d="M16.192,67.635v0.589h-2.239v-0.589H16.192z"/>
		<path fill="#FFFFFF" d="M20.527,65.232h-0.018l-1.024,0.553l-0.154-0.606l1.287-0.689h0.68v5.892h-0.771V65.232z"/>
		<path fill="#FFFFFF" d="M25.933,65.994l0.861,2.465c0.145,0.399,0.263,0.762,0.354,1.124h0.027c0.1-0.362,0.227-0.725,0.372-1.124
			l0.852-2.465h0.834l-1.722,4.387h-0.761l-1.668-4.387H25.933z"/>
		<path fill="#FFFFFF" d="M34.284,70.182c-0.29,0.145-0.87,0.29-1.613,0.29c-1.722,0-3.019-1.088-3.019-3.091
			c0-1.912,1.296-3.209,3.19-3.209c0.762,0,1.242,0.163,1.45,0.272l-0.19,0.644c-0.299-0.146-0.725-0.254-1.232-0.254
			c-1.432,0-2.384,0.915-2.384,2.52c0,1.495,0.861,2.456,2.348,2.456c0.48,0,0.97-0.1,1.287-0.254L34.284,70.182z"/>
		<path fill="#FFFFFF" d="M39.118,68.151c0,1.622-1.124,2.329-2.184,2.329c-1.188,0-2.103-0.87-2.103-2.257
			c0-1.469,0.961-2.329,2.175-2.329C38.266,65.895,39.118,66.81,39.118,68.151z M35.637,68.196c0,0.961,0.553,1.687,1.333,1.687
			c0.761,0,1.333-0.717,1.333-1.704c0-0.743-0.372-1.687-1.314-1.687C36.045,66.492,35.637,67.362,35.637,68.196z"/>
		<path fill="#FFFFFF" d="M40.127,67.362c0-0.517-0.009-0.96-0.036-1.368h0.698l0.027,0.861h0.036
			c0.199-0.59,0.68-0.961,1.214-0.961c0.091,0,0.154,0.009,0.227,0.027v0.752c-0.082-0.019-0.164-0.027-0.272-0.027
			c-0.562,0-0.961,0.426-1.07,1.024c-0.018,0.108-0.036,0.235-0.036,0.371v2.339h-0.789V67.362z"/>
		<path fill="#FFFFFF" d="M43.446,68.332c0.018,1.079,0.707,1.523,1.504,1.523c0.571,0,0.916-0.1,1.214-0.227l0.136,0.57
			c-0.281,0.127-0.761,0.272-1.459,0.272c-1.351,0-2.157-0.889-2.157-2.212s0.78-2.365,2.058-2.365c1.432,0,1.813,1.26,1.813,2.066
			c0,0.163-0.019,0.29-0.027,0.371H43.446z M45.785,67.762c0.009-0.508-0.208-1.296-1.106-1.296c-0.807,0-1.16,0.743-1.224,1.296
			H45.785z"/>
	</g>
</g>
<g>
	<g>
		<rect x="64.324" y="0.683" fill="#EE2A7B" width="64.272" height="116.547"/>
		<path fill="#FFFFFF" d="M129.096,117.729H63.824V0.183h65.272V117.729z M64.824,116.729h63.272V1.183H64.824V116.729z"/>
	</g>
	<g>
		<path d="M84.361,31.042c-0.242,0.121-0.725,0.24-1.344,0.24c-1.435,0-2.515-0.906-2.515-2.574c0-1.594,1.08-2.674,2.659-2.674
			c0.634,0,1.035,0.135,1.208,0.227l-0.159,0.535c-0.249-0.121-0.604-0.211-1.027-0.211c-1.193,0-1.986,0.764-1.986,2.1
			c0,1.246,0.718,2.047,1.956,2.047c0.4,0,0.809-0.082,1.073-0.211L84.361,31.042z"/>
		<path d="M88.39,29.349c0,1.354-0.937,1.941-1.82,1.941c-0.99,0-1.752-0.725-1.752-1.881c0-1.223,0.801-1.941,1.812-1.941
			C87.68,27.468,88.39,28.231,88.39,29.349z M85.49,29.388c0,0.801,0.46,1.404,1.11,1.404c0.635,0,1.11-0.596,1.11-1.42
			c0-0.619-0.31-1.404-1.095-1.404C85.83,27.968,85.49,28.692,85.49,29.388z"/>
		<path d="M89.231,28.542c0-0.379-0.007-0.688-0.03-0.99h0.589l0.038,0.604h0.015c0.181-0.346,0.604-0.688,1.208-0.688
			c0.506,0,1.292,0.303,1.292,1.557v2.184h-0.665v-2.107c0-0.59-0.219-1.08-0.846-1.08c-0.438,0-0.778,0.309-0.892,0.68
			c-0.03,0.082-0.045,0.195-0.045,0.309v2.199h-0.665V28.542z"/>
		<path d="M94.196,26.501v1.051h0.952v0.506h-0.952v1.971c0,0.455,0.128,0.711,0.499,0.711c0.174,0,0.302-0.023,0.385-0.045
			l0.03,0.498c-0.128,0.053-0.333,0.09-0.589,0.09c-0.31,0-0.559-0.098-0.717-0.279c-0.189-0.195-0.257-0.52-0.257-0.951v-1.994
			H92.98v-0.506h0.567v-0.877L94.196,26.501z"/>
		<path d="M97.921,31.208l-0.053-0.461h-0.023c-0.204,0.287-0.597,0.543-1.118,0.543c-0.74,0-1.118-0.521-1.118-1.049
			c0-0.885,0.786-1.367,2.198-1.359v-0.076c0-0.303-0.083-0.846-0.831-0.846c-0.34,0-0.695,0.105-0.952,0.271l-0.151-0.438
			c0.302-0.197,0.74-0.326,1.201-0.326c1.118,0,1.39,0.764,1.39,1.496v1.367c0,0.318,0.015,0.627,0.06,0.877H97.921z M97.823,29.343
			c-0.725-0.016-1.548,0.113-1.548,0.822c0,0.432,0.287,0.635,0.627,0.635c0.476,0,0.778-0.303,0.883-0.611
			c0.023-0.068,0.038-0.145,0.038-0.213V29.343z"/>
		<path d="M100.28,26.524c0.008,0.227-0.159,0.408-0.423,0.408c-0.234,0-0.4-0.182-0.4-0.408c0-0.234,0.174-0.416,0.416-0.416
			C100.122,26.109,100.28,26.29,100.28,26.524z M99.54,31.208v-3.656h0.665v3.656H99.54z"/>
		<path d="M101.309,28.542c0-0.379-0.007-0.688-0.03-0.99h0.589l0.038,0.604h0.015c0.181-0.346,0.604-0.688,1.208-0.688
			c0.506,0,1.292,0.303,1.292,1.557v2.184h-0.665v-2.107c0-0.59-0.219-1.08-0.846-1.08c-0.438,0-0.778,0.309-0.892,0.68
			c-0.03,0.082-0.045,0.195-0.045,0.309v2.199h-0.665V28.542z"/>
		<path d="M105.874,29.501c0.015,0.898,0.589,1.268,1.254,1.268c0.476,0,0.763-0.082,1.012-0.188l0.113,0.475
			c-0.234,0.107-0.635,0.227-1.216,0.227c-1.125,0-1.797-0.74-1.797-1.842c0-1.104,0.649-1.973,1.714-1.973
			c1.193,0,1.511,1.051,1.511,1.723c0,0.137-0.015,0.242-0.022,0.311H105.874z M107.822,29.024c0.008-0.422-0.174-1.08-0.921-1.08
			c-0.672,0-0.967,0.619-1.02,1.08H107.822z"/>
		<path d="M109.29,28.692c0-0.43-0.007-0.801-0.03-1.141h0.582l0.023,0.717h0.03c0.166-0.49,0.566-0.801,1.012-0.801
			c0.075,0,0.128,0.008,0.188,0.023v0.627c-0.068-0.016-0.136-0.023-0.227-0.023c-0.468,0-0.8,0.355-0.891,0.854
			c-0.015,0.092-0.03,0.197-0.03,0.311v1.949h-0.657V28.692z"/>
	</g>
	<g>
		<path fill="#F1F2F2" d="M84.262,38.438c-0.045-0.852-0.1-1.875-0.09-2.637h-0.027c-0.208,0.715-0.462,1.477-0.771,2.32
			l-1.079,2.963h-0.598l-0.988-2.908c-0.29-0.861-0.535-1.65-0.707-2.375h-0.018c-0.018,0.762-0.063,1.785-0.118,2.701l-0.163,2.619
			h-0.752l0.426-6.109h1.006l1.042,2.955c0.254,0.752,0.462,1.422,0.616,2.057h0.027c0.154-0.615,0.372-1.287,0.644-2.057
			l1.088-2.955h1.006l0.381,6.109h-0.771L84.262,38.438z"/>
		<path fill="#F1F2F2" d="M88.862,41.122l-0.063-0.553h-0.027c-0.245,0.344-0.716,0.652-1.341,0.652
			c-0.888,0-1.341-0.625-1.341-1.26c0-1.061,0.942-1.641,2.637-1.633v-0.09c0-0.363-0.1-1.016-0.997-1.016
			c-0.408,0-0.834,0.127-1.142,0.326l-0.182-0.525c0.363-0.234,0.888-0.389,1.441-0.389c1.341,0,1.667,0.914,1.667,1.793v1.641
			c0,0.381,0.018,0.754,0.073,1.053H88.862z M88.744,38.884c-0.87-0.02-1.858,0.135-1.858,0.986c0,0.518,0.345,0.762,0.752,0.762
			c0.571,0,0.934-0.361,1.061-0.734c0.027-0.08,0.045-0.172,0.045-0.254V38.884z"/>
		<path fill="#F1F2F2" d="M90.805,38.167c0-0.562-0.018-1.016-0.036-1.432h0.716l0.036,0.752h0.019
			c0.326-0.535,0.843-0.852,1.559-0.852c1.061,0,1.858,0.896,1.858,2.229c0,1.578-0.961,2.357-1.994,2.357
			c-0.58,0-1.088-0.254-1.351-0.689h-0.018v2.385h-0.789V38.167z M91.593,39.337c0,0.117,0.018,0.227,0.036,0.326
			c0.145,0.553,0.625,0.934,1.197,0.934c0.843,0,1.332-0.689,1.332-1.695c0-0.879-0.462-1.633-1.305-1.633
			c-0.544,0-1.051,0.391-1.206,0.988c-0.027,0.1-0.054,0.219-0.054,0.326V39.337z"/>
		<path fill="#F1F2F2" d="M98.704,35.683h-1.858v-0.67h4.523v0.67h-1.867v5.439h-0.797V35.683z"/>
		<path fill="#F1F2F2" d="M103.873,41.122l-0.063-0.553h-0.027c-0.245,0.344-0.716,0.652-1.341,0.652
			c-0.888,0-1.341-0.625-1.341-1.26c0-1.061,0.942-1.641,2.637-1.633v-0.09c0-0.363-0.1-1.016-0.997-1.016
			c-0.408,0-0.833,0.127-1.142,0.326l-0.182-0.525c0.363-0.234,0.889-0.389,1.441-0.389c1.341,0,1.667,0.914,1.667,1.793v1.641
			c0,0.381,0.018,0.754,0.073,1.053H103.873z M103.755,38.884c-0.87-0.02-1.858,0.135-1.858,0.986c0,0.518,0.345,0.762,0.752,0.762
			c0.571,0,0.934-0.361,1.061-0.734c0.027-0.08,0.045-0.172,0.045-0.254V38.884z"/>
		<path fill="#F1F2F2" d="M105.706,40.306c0.236,0.154,0.653,0.318,1.052,0.318c0.58,0,0.852-0.291,0.852-0.654
			c0-0.381-0.227-0.588-0.815-0.807c-0.789-0.279-1.16-0.715-1.16-1.24c0-0.707,0.571-1.287,1.514-1.287
			c0.444,0,0.834,0.127,1.079,0.271l-0.2,0.58c-0.172-0.109-0.489-0.254-0.897-0.254c-0.472,0-0.734,0.271-0.734,0.598
			c0,0.363,0.263,0.525,0.834,0.744c0.761,0.289,1.151,0.67,1.151,1.322c0,0.771-0.598,1.314-1.641,1.314
			c-0.48,0-0.924-0.117-1.232-0.299L105.706,40.306z"/>
		<path fill="#F1F2F2" d="M110.195,38.747h0.018c0.109-0.154,0.263-0.344,0.39-0.498l1.287-1.514h0.961l-1.695,1.803l1.93,2.584
			h-0.97l-1.514-2.104l-0.408,0.453v1.65h-0.789v-6.436h0.789V38.747z"/>
	</g>
	<g>
		<path fill="#FFFFFF" d="M79.933,56.101v0.588h-2.239v-0.588H79.933z"/>
		<path fill="#FFFFFF" d="M82.537,58.847v-0.49l0.625-0.607c1.505-1.432,2.185-2.193,2.193-3.082c0-0.598-0.29-1.15-1.169-1.15
			c-0.535,0-0.979,0.271-1.251,0.498l-0.254-0.561c0.408-0.346,0.988-0.6,1.668-0.6c1.269,0,1.804,0.871,1.804,1.713
			c0,1.088-0.789,1.967-2.03,3.164l-0.472,0.436v0.018h2.647v0.662H82.537z"/>
		<path fill="#FFFFFF" d="M90.706,53.626h-2.248l-0.227,1.514c0.136-0.02,0.263-0.037,0.48-0.037c0.453,0,0.906,0.1,1.269,0.318
			c0.462,0.262,0.843,0.77,0.843,1.514c0,1.15-0.916,2.012-2.193,2.012c-0.644,0-1.188-0.182-1.468-0.363l0.199-0.607
			c0.245,0.146,0.725,0.326,1.26,0.326c0.752,0,1.396-0.488,1.396-1.277c-0.009-0.762-0.517-1.305-1.695-1.305
			c-0.335,0-0.599,0.035-0.816,0.062l0.381-2.828h2.819V53.626z"/>
		<path fill="#FFFFFF" d="M95.204,53.517c-0.163-0.01-0.372,0-0.598,0.037c-1.251,0.207-1.913,1.123-2.048,2.094h0.027
			c0.281-0.373,0.771-0.68,1.423-0.68c1.042,0,1.776,0.752,1.776,1.902c0,1.078-0.734,2.076-1.958,2.076
			c-1.26,0-2.084-0.979-2.084-2.512c0-1.16,0.417-2.074,0.997-2.654c0.489-0.48,1.142-0.779,1.885-0.871
			c0.236-0.035,0.435-0.045,0.58-0.045V53.517z M94.978,56.915c0-0.842-0.48-1.35-1.214-1.35c-0.48,0-0.925,0.299-1.142,0.725
			c-0.055,0.092-0.091,0.209-0.091,0.354c0.018,0.971,0.462,1.686,1.296,1.686C94.515,58.329,94.978,57.759,94.978,56.915z"/>
		<path fill="#FFFFFF" d="M103.846,56.163c-0.045-0.852-0.1-1.875-0.09-2.637h-0.027c-0.208,0.715-0.462,1.477-0.771,2.32
			l-1.079,2.963h-0.598l-0.988-2.908c-0.29-0.861-0.535-1.65-0.707-2.375h-0.018c-0.018,0.762-0.063,1.785-0.118,2.701l-0.163,2.619
			h-0.752l0.426-6.109h1.006l1.042,2.955c0.254,0.752,0.462,1.422,0.616,2.057h0.027c0.154-0.615,0.372-1.287,0.644-2.057
			l1.088-2.955h1.006l0.381,6.109H104L103.846,56.163z"/>
		<path fill="#FFFFFF" d="M105.99,52.819c0.344-0.072,0.888-0.127,1.441-0.127c0.789,0,1.296,0.135,1.677,0.443
			c0.317,0.236,0.508,0.598,0.508,1.078c0,0.59-0.39,1.107-1.033,1.342v0.018c0.58,0.146,1.26,0.627,1.26,1.533
			c0,0.525-0.208,0.924-0.517,1.223c-0.426,0.391-1.115,0.572-2.112,0.572c-0.544,0-0.961-0.037-1.224-0.074V52.819z
			 M106.778,55.321h0.716c0.834,0,1.323-0.436,1.323-1.025c0-0.715-0.544-0.996-1.341-0.996c-0.363,0-0.571,0.027-0.698,0.055
			V55.321z M106.778,58.247c0.154,0.027,0.38,0.037,0.662,0.037c0.815,0,1.568-0.299,1.568-1.188c0-0.834-0.716-1.178-1.577-1.178
			h-0.652V58.247z"/>
		<path fill="#FFFFFF" d="M79.933,66.983v0.59h-2.239v-0.59H79.933z"/>
		<path fill="#FFFFFF" d="M84.268,64.581H84.25l-1.024,0.553l-0.154-0.605l1.287-0.689h0.68v5.891h-0.771V64.581z"/>
		<path fill="#FFFFFF" d="M89.674,65.343l0.861,2.465c0.145,0.4,0.263,0.762,0.354,1.125h0.027c0.1-0.363,0.227-0.725,0.372-1.125
			l0.852-2.465h0.834l-1.722,4.387H90.49l-1.668-4.387H89.674z"/>
		<path fill="#FFFFFF" d="M98.024,69.53c-0.29,0.145-0.87,0.291-1.613,0.291c-1.722,0-3.019-1.088-3.019-3.092
			c0-1.912,1.296-3.209,3.19-3.209c0.762,0,1.242,0.164,1.45,0.273l-0.19,0.643c-0.299-0.145-0.725-0.254-1.232-0.254
			c-1.432,0-2.384,0.916-2.384,2.52c0,1.496,0.861,2.457,2.348,2.457c0.48,0,0.97-0.1,1.287-0.254L98.024,69.53z"/>
		<path fill="#FFFFFF" d="M102.858,67.501c0,1.621-1.124,2.328-2.184,2.328c-1.188,0-2.103-0.869-2.103-2.256
			c0-1.469,0.961-2.33,2.175-2.33C102.007,65.243,102.858,66.159,102.858,67.501z M99.378,67.546c0,0.961,0.553,1.686,1.333,1.686
			c0.761,0,1.333-0.717,1.333-1.703c0-0.744-0.372-1.688-1.314-1.688C99.786,65.841,99.378,66.712,99.378,67.546z"/>
		<path fill="#FFFFFF" d="M103.868,66.712c0-0.518-0.009-0.961-0.036-1.369h0.698l0.027,0.861h0.036
			c0.199-0.59,0.68-0.961,1.214-0.961c0.091,0,0.154,0.01,0.227,0.027v0.752c-0.082-0.018-0.164-0.027-0.272-0.027
			c-0.562,0-0.961,0.426-1.07,1.025c-0.018,0.107-0.036,0.234-0.036,0.371v2.338h-0.789V66.712z"/>
		<path fill="#FFFFFF" d="M107.187,67.681c0.018,1.08,0.707,1.523,1.504,1.523c0.571,0,0.916-0.1,1.214-0.227l0.136,0.57
			c-0.281,0.127-0.761,0.273-1.459,0.273c-1.351,0-2.157-0.889-2.157-2.213c0-1.322,0.78-2.365,2.058-2.365
			c1.432,0,1.813,1.26,1.813,2.066c0,0.164-0.019,0.291-0.027,0.371H107.187z M109.525,67.11c0.009-0.508-0.208-1.295-1.106-1.295
			c-0.807,0-1.16,0.742-1.224,1.295H109.525z"/>
	</g>
	<g>
		<path fill="#9E1F63" d="M134.804,8.349c0.332-0.068,0.808-0.106,1.261-0.106c0.703,0,1.156,0.129,1.473,0.416
			c0.257,0.227,0.4,0.574,0.4,0.967c0,0.672-0.423,1.117-0.959,1.299v0.022c0.393,0.136,0.627,0.499,0.748,1.027
			c0.166,0.71,0.287,1.201,0.393,1.397h-0.68c-0.083-0.144-0.196-0.582-0.34-1.216c-0.151-0.703-0.423-0.967-1.02-0.989h-0.62v2.205
			h-0.657V8.349z M135.46,10.667h0.672c0.703,0,1.148-0.385,1.148-0.967c0-0.657-0.476-0.944-1.17-0.951
			c-0.317,0-0.544,0.029-0.65,0.06V10.667z"/>
		<path fill="#9E1F63" d="M140.962,13.371l-0.053-0.461h-0.023c-0.204,0.287-0.597,0.544-1.118,0.544
			c-0.74,0-1.118-0.521-1.118-1.05c0-0.884,0.786-1.367,2.198-1.359v-0.076c0-0.302-0.083-0.846-0.831-0.846
			c-0.34,0-0.695,0.106-0.952,0.272l-0.151-0.438c0.302-0.196,0.74-0.325,1.201-0.325c1.118,0,1.39,0.764,1.39,1.496v1.367
			c0,0.317,0.015,0.627,0.06,0.876H140.962z M140.864,11.506c-0.725-0.016-1.548,0.113-1.548,0.823c0,0.431,0.287,0.634,0.627,0.634
			c0.476,0,0.778-0.302,0.883-0.611c0.023-0.068,0.038-0.144,0.038-0.212V11.506z"/>
		<path fill="#9E1F63" d="M142.491,12.691c0.196,0.128,0.543,0.265,0.876,0.265c0.483,0,0.71-0.242,0.71-0.544
			c0-0.317-0.189-0.491-0.68-0.673c-0.657-0.233-0.967-0.597-0.967-1.034c0-0.59,0.476-1.073,1.261-1.073
			c0.37,0,0.695,0.106,0.899,0.228l-0.166,0.483c-0.144-0.091-0.408-0.212-0.748-0.212c-0.393,0-0.612,0.227-0.612,0.498
			c0,0.303,0.219,0.438,0.695,0.62c0.635,0.241,0.959,0.559,0.959,1.103c0,0.642-0.499,1.095-1.367,1.095
			c-0.4,0-0.771-0.098-1.027-0.249L142.491,12.691z"/>
		<path fill="#9E1F63" d="M145.574,10.909c0-0.469-0.015-0.847-0.03-1.193h0.597l0.03,0.627h0.015
			c0.272-0.446,0.703-0.711,1.299-0.711c0.884,0,1.548,0.748,1.548,1.858c0,1.314-0.801,1.964-1.662,1.964
			c-0.483,0-0.906-0.211-1.125-0.574h-0.015v1.986h-0.657V10.909z M146.231,11.883c0,0.099,0.015,0.189,0.03,0.272
			c0.121,0.461,0.521,0.777,0.997,0.777c0.702,0,1.11-0.573,1.11-1.412c0-0.732-0.385-1.359-1.088-1.359
			c-0.453,0-0.876,0.324-1.004,0.823c-0.023,0.083-0.045,0.182-0.045,0.271V11.883z"/>
		<path fill="#9E1F63" d="M149.844,13.371c0.015-0.249,0.03-0.619,0.03-0.944V8.009h0.657v2.296h0.015
			c0.234-0.408,0.657-0.673,1.246-0.673c0.907,0,1.548,0.756,1.541,1.866c0,1.307-0.823,1.956-1.639,1.956
			c-0.529,0-0.952-0.204-1.224-0.688h-0.022l-0.03,0.604H149.844z M150.532,11.906c0,0.083,0.015,0.166,0.03,0.241
			c0.128,0.461,0.514,0.778,0.997,0.778c0.695,0,1.11-0.566,1.11-1.405c0-0.732-0.378-1.359-1.088-1.359
			c-0.453,0-0.876,0.31-1.012,0.815c-0.015,0.076-0.038,0.166-0.038,0.272V11.906z"/>
		<path fill="#9E1F63" d="M154.545,11.664c0.015,0.898,0.589,1.269,1.254,1.269c0.476,0,0.763-0.083,1.012-0.188l0.113,0.476
			c-0.234,0.106-0.635,0.227-1.216,0.227c-1.125,0-1.797-0.74-1.797-1.843s0.649-1.972,1.714-1.972c1.193,0,1.511,1.051,1.511,1.723
			c0,0.136-0.015,0.241-0.022,0.31H154.545z M156.494,11.188c0.008-0.423-0.174-1.08-0.921-1.08c-0.672,0-0.967,0.619-1.02,1.08
			H156.494z"/>
		<path fill="#9E1F63" d="M157.961,10.855c0-0.43-0.007-0.8-0.03-1.14h0.582l0.023,0.717h0.03c0.166-0.49,0.566-0.801,1.012-0.801
			c0.075,0,0.128,0.008,0.188,0.023v0.627c-0.068-0.016-0.136-0.023-0.227-0.023c-0.468,0-0.801,0.355-0.891,0.854
			c-0.015,0.091-0.03,0.197-0.03,0.311v1.948h-0.657V10.855z"/>
		<path fill="#9E1F63" d="M160.463,10.855c0-0.43-0.007-0.8-0.03-1.14h0.582l0.023,0.717h0.03c0.166-0.49,0.566-0.801,1.012-0.801
			c0.075,0,0.128,0.008,0.188,0.023v0.627c-0.068-0.016-0.136-0.023-0.227-0.023c-0.468,0-0.801,0.355-0.891,0.854
			c-0.015,0.091-0.03,0.197-0.03,0.311v1.948h-0.657V10.855z"/>
		<path fill="#9E1F63" d="M163.365,9.716l0.801,2.16c0.083,0.241,0.174,0.528,0.234,0.747h0.015
			c0.068-0.219,0.144-0.498,0.234-0.763l0.725-2.145h0.703l-0.997,2.605c-0.476,1.254-0.801,1.896-1.254,2.288
			c-0.325,0.287-0.649,0.4-0.816,0.431l-0.166-0.559c0.166-0.053,0.385-0.158,0.582-0.325c0.181-0.144,0.408-0.4,0.559-0.74
			c0.03-0.067,0.053-0.12,0.053-0.158s-0.015-0.091-0.045-0.174l-1.352-3.368H163.365z"/>
		<path fill="#9E1F63" d="M168.308,8.341c0.317-0.053,0.732-0.099,1.261-0.099c0.649,0,1.125,0.151,1.428,0.423
			c0.279,0.242,0.445,0.612,0.445,1.065c0,0.461-0.136,0.823-0.393,1.088c-0.348,0.37-0.914,0.559-1.556,0.559
			c-0.196,0-0.377-0.008-0.529-0.045v2.039h-0.657V8.341z M168.965,10.796c0.144,0.037,0.325,0.053,0.544,0.053
			c0.793,0,1.276-0.386,1.276-1.088c0-0.672-0.476-0.997-1.201-0.997c-0.287,0-0.506,0.022-0.62,0.053V10.796z"/>
		<path fill="#9E1F63" d="M172.926,8.688c0.008,0.227-0.159,0.407-0.423,0.407c-0.234,0-0.4-0.181-0.4-0.407
			c0-0.234,0.174-0.416,0.416-0.416C172.767,8.272,172.926,8.454,172.926,8.688z M172.186,13.371V9.716h0.665v3.655H172.186z"/>
		<path fill="#9E1F63" d="M134.804,17.418c0.4-0.061,0.876-0.106,1.397-0.106c0.944,0,1.617,0.22,2.062,0.635
			c0.453,0.415,0.718,1.005,0.718,1.828c0,0.831-0.257,1.511-0.733,1.979c-0.476,0.476-1.261,0.732-2.25,0.732
			c-0.468,0-0.861-0.022-1.193-0.06V17.418z M135.46,21.919c0.167,0.03,0.408,0.038,0.665,0.038c1.405,0,2.167-0.785,2.167-2.16
			c0.008-1.201-0.672-1.964-2.062-1.964c-0.34,0-0.597,0.03-0.771,0.068V21.919z"/>
		<path fill="#9E1F63" d="M141.839,22.44l-0.053-0.461h-0.023c-0.204,0.287-0.597,0.544-1.118,0.544c-0.74,0-1.118-0.521-1.118-1.05
			c0-0.884,0.786-1.367,2.198-1.359v-0.076c0-0.302-0.083-0.846-0.831-0.846c-0.34,0-0.695,0.105-0.952,0.272l-0.151-0.438
			c0.302-0.196,0.74-0.325,1.201-0.325c1.118,0,1.39,0.764,1.39,1.496v1.367c0,0.317,0.015,0.627,0.06,0.876H141.839z
			 M141.741,20.575c-0.725-0.016-1.548,0.113-1.548,0.823c0,0.431,0.287,0.634,0.627,0.634c0.476,0,0.778-0.302,0.883-0.611
			c0.023-0.068,0.038-0.144,0.038-0.212V20.575z"/>
		<path fill="#9E1F63" d="M144.228,17.734v1.051h0.952v0.506h-0.952v1.971c0,0.454,0.128,0.71,0.499,0.71
			c0.174,0,0.302-0.022,0.385-0.045l0.03,0.499c-0.128,0.053-0.333,0.09-0.589,0.09c-0.31,0-0.559-0.098-0.717-0.279
			c-0.189-0.196-0.257-0.521-0.257-0.951v-1.994h-0.567v-0.506h0.567v-0.877L144.228,17.734z"/>
		<path fill="#9E1F63" d="M147.953,22.44l-0.053-0.461h-0.023c-0.204,0.287-0.597,0.544-1.118,0.544c-0.74,0-1.118-0.521-1.118-1.05
			c0-0.884,0.786-1.367,2.198-1.359v-0.076c0-0.302-0.083-0.846-0.831-0.846c-0.34,0-0.695,0.105-0.952,0.272l-0.151-0.438
			c0.302-0.196,0.74-0.325,1.201-0.325c1.118,0,1.39,0.764,1.39,1.496v1.367c0,0.317,0.015,0.627,0.06,0.876H147.953z
			 M147.855,20.575c-0.725-0.016-1.548,0.113-1.548,0.823c0,0.431,0.287,0.634,0.627,0.634c0.476,0,0.778-0.302,0.883-0.611
			c0.023-0.068,0.038-0.144,0.038-0.212V20.575z"/>
		<path fill="#9E1F63" d="M151.197,22.44V17.35h0.717l1.631,2.575c0.378,0.597,0.672,1.134,0.914,1.654l0.015-0.007
			c-0.061-0.681-0.076-1.3-0.076-2.093v-2.13h0.62v5.091h-0.665l-1.617-2.583c-0.355-0.566-0.695-1.148-0.952-1.699l-0.022,0.007
			c0.038,0.643,0.053,1.254,0.053,2.1v2.176H151.197z"/>
		<path fill="#9E1F63" d="M159.456,20.582c0,1.353-0.937,1.941-1.82,1.941c-0.99,0-1.752-0.725-1.752-1.881
			c0-1.224,0.801-1.941,1.812-1.941C158.745,18.701,159.456,19.465,159.456,20.582z M156.555,20.62c0,0.801,0.46,1.405,1.11,1.405
			c0.635,0,1.11-0.597,1.11-1.42c0-0.62-0.31-1.405-1.095-1.405C156.895,19.2,156.555,19.925,156.555,20.62z"/>
		<path fill="#9E1F63" d="M163.454,17.078v4.418c0,0.325,0.008,0.695,0.03,0.944h-0.597l-0.03-0.635h-0.015
			c-0.204,0.408-0.649,0.718-1.246,0.718c-0.884,0-1.563-0.748-1.563-1.858c-0.008-1.216,0.748-1.964,1.639-1.964
			c0.559,0,0.937,0.265,1.103,0.56h0.015v-2.183H163.454z M162.789,20.272c0-0.083-0.008-0.196-0.03-0.279
			c-0.098-0.423-0.461-0.771-0.959-0.771c-0.688,0-1.095,0.604-1.095,1.412c0,0.74,0.362,1.353,1.08,1.353
			c0.445,0,0.854-0.295,0.974-0.793c0.022-0.091,0.03-0.182,0.03-0.287V20.272z"/>
		<path fill="#9E1F63" d="M164.929,20.733c0.015,0.898,0.589,1.269,1.254,1.269c0.476,0,0.763-0.083,1.012-0.188l0.113,0.476
			c-0.234,0.106-0.635,0.227-1.216,0.227c-1.125,0-1.797-0.74-1.797-1.843s0.649-1.972,1.714-1.972c1.193,0,1.511,1.051,1.511,1.723
			c0,0.136-0.015,0.241-0.022,0.31H164.929z M166.878,20.258c0.008-0.423-0.174-1.08-0.921-1.08c-0.672,0-0.967,0.619-1.02,1.08
			H166.878z"/>
	</g>
	<g>
		<path fill="#9E1F63" d="M135.557,31.447v0.391h-1.481v-0.391H135.557z"/>
		<path fill="#9E1F63" d="M137.153,29.858h-0.012l-0.678,0.366l-0.102-0.402l0.852-0.455h0.45v3.897h-0.51V29.858z"/>
		<path fill="#9E1F63" d="M141.676,31.273c0,1.325-0.492,2.058-1.355,2.058c-0.762,0-1.277-0.714-1.29-2.003
			c0-1.308,0.564-2.027,1.355-2.027C141.208,29.301,141.676,30.032,141.676,31.273z M139.56,31.334c0,1.013,0.312,1.589,0.792,1.589
			c0.54,0,0.797-0.63,0.797-1.625c0-0.96-0.246-1.589-0.792-1.589C139.896,29.709,139.56,30.272,139.56,31.334z"/>
		<path fill="#9E1F63" d="M142.164,33.265V32.94l0.414-0.401c0.996-0.947,1.445-1.451,1.451-2.039c0-0.396-0.192-0.762-0.773-0.762
			c-0.354,0-0.648,0.181-0.828,0.33l-0.168-0.372c0.27-0.228,0.654-0.396,1.104-0.396c0.839,0,1.193,0.576,1.193,1.134
			c0,0.719-0.522,1.301-1.343,2.093l-0.312,0.287v0.013h1.751v0.438H142.164z"/>
		<path fill="#9E1F63" d="M146.873,33.265v-1.062h-1.811v-0.348l1.739-2.488h0.569v2.422h0.546v0.414h-0.546v1.062H146.873z
			 M146.873,31.789v-1.301c0-0.204,0.006-0.408,0.018-0.611h-0.018c-0.12,0.228-0.216,0.396-0.324,0.575l-0.954,1.325v0.012H146.873
			z"/>
		<path fill="#9E1F63" d="M152.854,33.085c-0.234,0.084-0.696,0.222-1.242,0.222c-0.611,0-1.115-0.156-1.511-0.534
			c-0.348-0.335-0.564-0.875-0.564-1.505c0.006-1.205,0.833-2.087,2.189-2.087c0.468,0,0.833,0.103,1.007,0.187l-0.126,0.426
			c-0.216-0.097-0.486-0.175-0.894-0.175c-0.983,0-1.625,0.612-1.625,1.626c0,1.025,0.618,1.631,1.559,1.631
			c0.342,0,0.576-0.048,0.696-0.108v-1.205h-0.822v-0.42h1.332V33.085z"/>
		<path fill="#9E1F63" d="M153.654,29.276c0.228-0.048,0.588-0.083,0.954-0.083c0.522,0,0.857,0.09,1.109,0.293
			c0.21,0.156,0.336,0.396,0.336,0.714c0,0.39-0.258,0.731-0.684,0.888V31.1c0.384,0.096,0.833,0.414,0.833,1.014
			c0,0.348-0.138,0.611-0.342,0.81c-0.282,0.258-0.738,0.378-1.397,0.378c-0.36,0-0.635-0.024-0.81-0.048V29.276z M154.176,30.932
			h0.474c0.552,0,0.875-0.287,0.875-0.678c0-0.474-0.36-0.659-0.888-0.659c-0.24,0-0.377,0.018-0.461,0.036V30.932z M154.176,32.869
			c0.102,0.018,0.252,0.023,0.438,0.023c0.54,0,1.038-0.197,1.038-0.785c0-0.552-0.474-0.779-1.043-0.779h-0.432V32.869z"/>
		<path fill="#9E1F63" d="M135.557,38.647v0.391h-1.481v-0.391H135.557z"/>
		<path fill="#9E1F63" d="M138.911,40.465v-1.062H137.1v-0.348l1.739-2.488h0.57v2.422h0.545v0.414h-0.545v1.062H138.911z
			 M138.911,38.989v-1.301c0-0.204,0.006-0.408,0.018-0.611h-0.018c-0.12,0.228-0.216,0.396-0.324,0.575l-0.954,1.325v0.012H138.911
			z"/>
		<path fill="#9E1F63" d="M144.64,40.333c-0.192,0.096-0.576,0.191-1.067,0.191c-1.14,0-1.997-0.719-1.997-2.045
			c0-1.265,0.857-2.122,2.111-2.122c0.504,0,0.822,0.107,0.959,0.18l-0.126,0.426c-0.198-0.096-0.479-0.168-0.815-0.168
			c-0.947,0-1.577,0.605-1.577,1.667c0,0.989,0.57,1.625,1.553,1.625c0.318,0,0.642-0.065,0.852-0.168L144.64,40.333z"/>
		<path fill="#9E1F63" d="M147.838,38.989c0,1.074-0.744,1.542-1.445,1.542c-0.786,0-1.391-0.576-1.391-1.493
			c0-0.972,0.635-1.542,1.439-1.542C147.274,37.496,147.838,38.103,147.838,38.989z M145.536,39.02c0,0.636,0.366,1.115,0.881,1.115
			c0.504,0,0.881-0.474,0.881-1.127c0-0.492-0.246-1.115-0.869-1.115C145.805,37.893,145.536,38.468,145.536,39.02z"/>
		<path fill="#9E1F63" d="M148.506,38.468c0-0.342-0.006-0.636-0.024-0.905h0.462l0.018,0.569h0.024
			c0.132-0.39,0.45-0.636,0.804-0.636c0.06,0,0.102,0.007,0.15,0.019v0.497c-0.054-0.012-0.108-0.018-0.18-0.018
			c-0.372,0-0.635,0.282-0.708,0.678c-0.012,0.072-0.024,0.156-0.024,0.246v1.547h-0.521V38.468z"/>
		<path fill="#9E1F63" d="M150.701,39.109c0.012,0.714,0.468,1.008,0.996,1.008c0.378,0,0.605-0.066,0.804-0.15l0.09,0.378
			c-0.186,0.084-0.504,0.18-0.965,0.18c-0.894,0-1.427-0.587-1.427-1.463c0-0.875,0.516-1.565,1.361-1.565
			c0.947,0,1.199,0.834,1.199,1.367c0,0.108-0.012,0.192-0.018,0.246H150.701z M152.249,38.731c0.006-0.336-0.138-0.857-0.731-0.857
			c-0.534,0-0.768,0.492-0.81,0.857H152.249z"/>
		<path fill="#9E1F63" d="M153.341,39.925c0.156,0.103,0.432,0.21,0.696,0.21c0.384,0,0.563-0.191,0.563-0.432
			c0-0.252-0.15-0.39-0.54-0.533c-0.522-0.187-0.768-0.474-0.768-0.822c0-0.468,0.378-0.852,1.001-0.852
			c0.294,0,0.552,0.084,0.713,0.181l-0.132,0.384c-0.114-0.072-0.324-0.168-0.594-0.168c-0.312,0-0.485,0.18-0.485,0.396
			c0,0.24,0.174,0.348,0.551,0.491c0.504,0.192,0.762,0.444,0.762,0.876c0,0.51-0.396,0.869-1.085,0.869
			c-0.318,0-0.611-0.077-0.815-0.197L153.341,39.925z"/>
	</g>
</g>
<g>
	<g>
		<rect x="193.555" y="1.175" fill="#EF4136" width="64.272" height="115.586"/>
		<path fill="#FFFFFF" d="M258.328,117.261h-65.272V0.675h65.272V117.261z M194.055,116.261h63.272V1.675h-63.272V116.261z"/>
	</g>
	<g>
		<path d="M206.251,39.171c0,2.104-1.278,3.218-2.837,3.218c-1.613,0-2.747-1.251-2.747-3.1c0-1.939,1.206-3.209,2.837-3.209
			C205.172,36.08,206.251,37.358,206.251,39.171z M201.511,39.271c0,1.306,0.707,2.475,1.949,2.475c1.25,0,1.958-1.151,1.958-2.538
			c0-1.214-0.634-2.483-1.949-2.483C202.163,36.724,201.511,37.93,201.511,39.271z"/>
		<path d="M207.17,41.328c0.354,0.218,0.87,0.399,1.414,0.399c0.807,0,1.278-0.427,1.278-1.043c0-0.57-0.326-0.897-1.151-1.214
			c-0.997-0.354-1.613-0.87-1.613-1.731c0-0.952,0.788-1.659,1.976-1.659c0.625,0,1.079,0.146,1.351,0.3l-0.218,0.644
			c-0.199-0.109-0.607-0.29-1.16-0.29c-0.833,0-1.151,0.498-1.151,0.915c0,0.571,0.372,0.852,1.214,1.179
			c1.033,0.398,1.559,0.896,1.559,1.794c0,0.942-0.698,1.759-2.139,1.759c-0.589,0-1.232-0.173-1.559-0.39L207.17,41.328z"/>
		<path d="M215.976,37.467v2.13h2.048v0.544h-2.048v2.148h-0.58v-2.148h-2.049v-0.544h2.049v-2.13H215.976z"/>
		<path d="M221.791,36.18v2.557h2.954V36.18h0.798v6.109h-0.798v-2.864h-2.954v2.864h-0.789V36.18H221.791z"/>
		<path d="M229.317,42.289l-0.063-0.553h-0.027c-0.244,0.345-0.716,0.652-1.342,0.652c-0.888,0-1.341-0.625-1.341-1.26
			c0-1.061,0.942-1.641,2.638-1.632v-0.09c0-0.363-0.1-1.016-0.997-1.016c-0.408,0-0.834,0.127-1.142,0.326l-0.182-0.525
			c0.362-0.235,0.888-0.39,1.441-0.39c1.341,0,1.667,0.915,1.667,1.794v1.641c0,0.381,0.019,0.753,0.073,1.052H229.317z
			 M229.199,40.051c-0.87-0.019-1.857,0.136-1.857,0.987c0,0.517,0.344,0.762,0.752,0.762c0.57,0,0.934-0.362,1.061-0.734
			c0.027-0.082,0.045-0.172,0.045-0.254V40.051z"/>
		<path d="M235.048,35.854v5.303c0,0.39,0.009,0.834,0.035,1.133h-0.715l-0.037-0.762h-0.018c-0.245,0.49-0.779,0.861-1.496,0.861
			c-1.061,0-1.876-0.897-1.876-2.229c-0.009-1.459,0.897-2.356,1.967-2.356c0.671,0,1.124,0.317,1.323,0.671h0.019v-2.62H235.048z
			 M234.25,39.688c0-0.1-0.009-0.235-0.036-0.335c-0.118-0.508-0.553-0.925-1.151-0.925c-0.825,0-1.314,0.726-1.314,1.695
			c0,0.888,0.435,1.622,1.296,1.622c0.535,0,1.024-0.354,1.17-0.951c0.027-0.109,0.036-0.218,0.036-0.345V39.688z"/>
		<path d="M240.344,40.06c0,1.622-1.124,2.329-2.185,2.329c-1.188,0-2.103-0.87-2.103-2.257c0-1.469,0.961-2.329,2.175-2.329
			C239.493,37.803,240.344,38.718,240.344,40.06z M236.864,40.104c0,0.961,0.554,1.687,1.333,1.687c0.761,0,1.332-0.717,1.332-1.704
			c0-0.743-0.371-1.687-1.314-1.687C237.272,38.4,236.864,39.271,236.864,40.104z"/>
		<path d="M245.324,40.06c0,1.622-1.124,2.329-2.185,2.329c-1.188,0-2.103-0.87-2.103-2.257c0-1.469,0.961-2.329,2.175-2.329
			C244.472,37.803,245.324,38.718,245.324,40.06z M241.843,40.104c0,0.961,0.553,1.687,1.332,1.687c0.762,0,1.332-0.717,1.332-1.704
			c0-0.743-0.371-1.687-1.314-1.687C242.251,38.4,241.843,39.271,241.843,40.104z"/>
		<path d="M246.333,39.334c0-0.562-0.019-1.015-0.036-1.432h0.716l0.036,0.752h0.019c0.326-0.534,0.843-0.852,1.559-0.852
			c1.061,0,1.858,0.897,1.858,2.229c0,1.577-0.961,2.356-1.994,2.356c-0.58,0-1.088-0.254-1.351-0.688h-0.019v2.384h-0.788V39.334z
			 M247.121,40.504c0,0.117,0.019,0.227,0.037,0.326c0.145,0.553,0.625,0.934,1.196,0.934c0.843,0,1.332-0.689,1.332-1.695
			c0-0.879-0.462-1.632-1.306-1.632c-0.543,0-1.051,0.391-1.205,0.988c-0.027,0.1-0.055,0.218-0.055,0.326V40.504z"/>
	</g>
	<g>
		<path fill="#FFFFFF" d="M208.442,52.001v0.589h-2.239v-0.589H208.442z"/>
		<path fill="#FFFFFF" d="M211.046,54.747v-0.489l0.625-0.607c1.505-1.432,2.185-2.193,2.193-3.082c0-0.598-0.29-1.15-1.169-1.15
			c-0.535,0-0.979,0.271-1.251,0.498l-0.254-0.562c0.408-0.345,0.988-0.599,1.668-0.599c1.27,0,1.804,0.87,1.804,1.713
			c0,1.088-0.788,1.967-2.03,3.163l-0.472,0.436v0.018h2.647v0.662H211.046z"/>
		<path fill="#FFFFFF" d="M219.215,49.526h-2.248l-0.227,1.514c0.136-0.019,0.263-0.036,0.48-0.036c0.453,0,0.906,0.1,1.269,0.317
			c0.463,0.263,0.844,0.771,0.844,1.514c0,1.15-0.916,2.012-2.193,2.012c-0.645,0-1.188-0.182-1.469-0.362l0.199-0.607
			c0.244,0.146,0.725,0.326,1.26,0.326c0.752,0,1.396-0.489,1.396-1.278c-0.01-0.761-0.518-1.305-1.695-1.305
			c-0.336,0-0.599,0.036-0.816,0.063l0.381-2.828h2.819V49.526z"/>
		<path fill="#FFFFFF" d="M223.713,49.418c-0.163-0.01-0.372,0-0.599,0.036c-1.25,0.208-1.912,1.124-2.048,2.094h0.026
			c0.281-0.372,0.771-0.68,1.424-0.68c1.042,0,1.776,0.752,1.776,1.903c0,1.078-0.734,2.075-1.958,2.075
			c-1.26,0-2.084-0.979-2.084-2.511c0-1.16,0.416-2.075,0.996-2.655c0.49-0.48,1.143-0.779,1.886-0.87
			c0.235-0.036,0.435-0.046,0.58-0.046V49.418z M223.487,52.816c0-0.843-0.48-1.351-1.214-1.351c-0.48,0-0.926,0.299-1.143,0.726
			c-0.055,0.091-0.091,0.208-0.091,0.354c0.019,0.97,0.462,1.686,1.296,1.686C223.025,54.23,223.487,53.659,223.487,52.816z"/>
		<path fill="#FFFFFF" d="M230.432,52.064c-0.046-0.853-0.1-1.876-0.091-2.638h-0.027c-0.208,0.716-0.462,1.478-0.77,2.32
			l-1.079,2.964h-0.599l-0.987-2.909c-0.29-0.861-0.534-1.65-0.707-2.375h-0.019c-0.018,0.762-0.062,1.785-0.117,2.701l-0.164,2.619
			h-0.752l0.426-6.109h1.007l1.042,2.955c0.254,0.752,0.463,1.423,0.616,2.058h0.027c0.154-0.616,0.372-1.287,0.644-2.058
			l1.088-2.955h1.006l0.381,6.109h-0.771L230.432,52.064z"/>
		<path fill="#FFFFFF" d="M232.576,48.72c0.345-0.072,0.889-0.127,1.441-0.127c0.789,0,1.297,0.136,1.677,0.444
			c0.317,0.235,0.508,0.598,0.508,1.078c0,0.59-0.39,1.106-1.033,1.342v0.018c0.58,0.146,1.26,0.626,1.26,1.532
			c0,0.525-0.208,0.925-0.517,1.224c-0.426,0.39-1.115,0.571-2.111,0.571c-0.545,0-0.961-0.036-1.225-0.073V48.72z M233.365,51.222
			h0.716c0.834,0,1.323-0.436,1.323-1.024c0-0.716-0.544-0.997-1.342-0.997c-0.362,0-0.57,0.027-0.697,0.055V51.222z
			 M233.365,54.148c0.154,0.027,0.381,0.037,0.662,0.037c0.814,0,1.567-0.3,1.567-1.188c0-0.834-0.716-1.179-1.577-1.179h-0.652
			V54.148z"/>
		<path fill="#FFFFFF" d="M208.442,62.885v0.589h-2.239v-0.589H208.442z"/>
		<path fill="#FFFFFF" d="M212.777,60.482h-0.018l-1.024,0.553l-0.154-0.606l1.287-0.689h0.681v5.892h-0.771V60.482z"/>
		<path fill="#FFFFFF" d="M218.183,61.244l0.861,2.465c0.145,0.399,0.263,0.762,0.354,1.124h0.027
			c0.1-0.362,0.227-0.725,0.371-1.124l0.852-2.465h0.834l-1.722,4.387H219l-1.668-4.387H218.183z"/>
		<path fill="#FFFFFF" d="M226.534,65.432c-0.29,0.145-0.87,0.29-1.613,0.29c-1.722,0-3.019-1.088-3.019-3.091
			c0-1.912,1.297-3.209,3.19-3.209c0.762,0,1.241,0.163,1.45,0.272l-0.19,0.644c-0.299-0.146-0.726-0.254-1.232-0.254
			c-1.433,0-2.384,0.915-2.384,2.52c0,1.495,0.861,2.456,2.348,2.456c0.48,0,0.97-0.1,1.287-0.254L226.534,65.432z"/>
		<path fill="#FFFFFF" d="M231.368,63.401c0,1.622-1.124,2.329-2.185,2.329c-1.188,0-2.103-0.87-2.103-2.257
			c0-1.469,0.961-2.329,2.175-2.329C230.516,61.145,231.368,62.06,231.368,63.401z M227.887,63.446c0,0.961,0.554,1.687,1.333,1.687
			c0.761,0,1.332-0.717,1.332-1.704c0-0.743-0.371-1.687-1.314-1.687C228.295,61.742,227.887,62.612,227.887,63.446z"/>
		<path fill="#FFFFFF" d="M232.376,62.612c0-0.517-0.009-0.96-0.035-1.368h0.697l0.027,0.861h0.036
			c0.199-0.59,0.68-0.961,1.214-0.961c0.092,0,0.154,0.009,0.228,0.027v0.752c-0.082-0.019-0.163-0.027-0.272-0.027
			c-0.562,0-0.961,0.426-1.069,1.024c-0.019,0.108-0.036,0.235-0.036,0.371v2.339h-0.789V62.612z"/>
		<path fill="#FFFFFF" d="M235.697,63.582c0.018,1.079,0.706,1.523,1.504,1.523c0.57,0,0.916-0.1,1.215-0.227l0.136,0.57
			c-0.281,0.127-0.761,0.272-1.46,0.272c-1.35,0-2.156-0.889-2.156-2.212s0.779-2.365,2.057-2.365c1.433,0,1.813,1.26,1.813,2.066
			c0,0.163-0.019,0.29-0.027,0.371H235.697z M238.035,63.012c0.009-0.508-0.209-1.296-1.105-1.296c-0.807,0-1.16,0.743-1.225,1.296
			H238.035z"/>
	</g>
</g>
<g>
	<g>
		<rect x="128.666" y="56.049" fill="#27AAE1" width="64.272" height="61.065"/>
		<path fill="#FFFFFF" d="M193.438,117.614h-65.272V55.549h65.272V117.614z M129.166,116.614h63.272V56.549h-63.272V116.614z"/>
	</g>
	<g>
		<path d="M148.786,65.149c-0.242,0.119-0.725,0.239-1.344,0.239c-1.435,0-2.515-0.897-2.515-2.55c0-1.577,1.08-2.646,2.659-2.646
			c0.634,0,1.035,0.135,1.208,0.225l-0.159,0.53c-0.249-0.119-0.604-0.209-1.027-0.209c-1.193,0-1.986,0.755-1.986,2.079
			c0,1.232,0.718,2.025,1.956,2.025c0.4,0,0.809-0.082,1.073-0.209L148.786,65.149z"/>
		<path d="M152.815,63.475c0,1.339-0.937,1.921-1.82,1.921c-0.99,0-1.752-0.717-1.752-1.861c0-1.211,0.801-1.922,1.812-1.922
			C152.105,61.612,152.815,62.368,152.815,63.475z M149.915,63.513c0,0.792,0.46,1.391,1.11,1.391c0.635,0,1.11-0.592,1.11-1.406
			c0-0.613-0.31-1.391-1.095-1.391C150.255,62.106,149.915,62.824,149.915,63.513z"/>
		<path d="M153.656,62.675c0-0.374-0.007-0.681-0.03-0.979h0.589l0.038,0.599h0.015c0.181-0.345,0.604-0.682,1.208-0.682
			c0.506,0,1.292,0.3,1.292,1.541v2.16h-0.665v-2.086c0-0.583-0.219-1.068-0.846-1.068c-0.438,0-0.778,0.307-0.892,0.672
			c-0.03,0.083-0.045,0.195-0.045,0.307v2.176h-0.665V62.675z"/>
		<path d="M158.622,60.655v1.04h0.952v0.501h-0.952v1.951c0,0.449,0.128,0.703,0.499,0.703c0.174,0,0.302-0.022,0.385-0.045
			l0.03,0.493c-0.128,0.053-0.333,0.09-0.589,0.09c-0.31,0-0.559-0.097-0.717-0.276c-0.189-0.195-0.257-0.516-0.257-0.942v-1.974
			h-0.567v-0.501h0.567v-0.867L158.622,60.655z"/>
		<path d="M162.347,65.313l-0.053-0.455h-0.023c-0.204,0.283-0.597,0.537-1.118,0.537c-0.74,0-1.118-0.516-1.118-1.039
			c0-0.875,0.786-1.354,2.198-1.346v-0.074c0-0.299-0.083-0.838-0.831-0.838c-0.34,0-0.695,0.105-0.952,0.27l-0.151-0.434
			c0.302-0.194,0.74-0.322,1.201-0.322c1.118,0,1.39,0.756,1.39,1.48v1.354c0,0.314,0.015,0.621,0.06,0.867H162.347z
			 M162.249,63.468c-0.725-0.016-1.548,0.111-1.548,0.814c0,0.426,0.287,0.628,0.627,0.628c0.476,0,0.778-0.299,0.883-0.605
			c0.023-0.067,0.038-0.142,0.038-0.21V63.468z"/>
		<path d="M164.706,60.679c0.008,0.225-0.159,0.403-0.423,0.403c-0.234,0-0.4-0.179-0.4-0.403c0-0.232,0.174-0.412,0.416-0.412
			C164.547,60.267,164.706,60.446,164.706,60.679z M163.965,65.313v-3.618h0.665v3.618H163.965z"/>
		<path d="M165.734,62.675c0-0.374-0.007-0.681-0.03-0.979h0.589l0.038,0.599h0.015c0.181-0.345,0.604-0.682,1.208-0.682
			c0.506,0,1.292,0.3,1.292,1.541v2.16h-0.665v-2.086c0-0.583-0.219-1.068-0.846-1.068c-0.438,0-0.778,0.307-0.892,0.672
			c-0.03,0.083-0.045,0.195-0.045,0.307v2.176h-0.665V62.675z"/>
		<path d="M170.299,63.624c0.015,0.891,0.589,1.256,1.254,1.256c0.476,0,0.763-0.082,1.012-0.187l0.113,0.472
			c-0.234,0.104-0.635,0.224-1.216,0.224c-1.125,0-1.797-0.732-1.797-1.824s0.649-1.952,1.714-1.952c1.193,0,1.511,1.04,1.511,1.705
			c0,0.135-0.015,0.24-0.022,0.307H170.299z M172.248,63.153c0.008-0.419-0.174-1.069-0.921-1.069c-0.672,0-0.967,0.613-1.02,1.069
			H172.248z"/>
		<path d="M173.715,62.824c0-0.427-0.007-0.792-0.03-1.129h0.582l0.023,0.71h0.03c0.166-0.486,0.566-0.793,1.012-0.793
			c0.075,0,0.128,0.008,0.188,0.023v0.62c-0.068-0.015-0.136-0.022-0.227-0.022c-0.468,0-0.8,0.352-0.891,0.846
			c-0.015,0.089-0.03,0.193-0.03,0.306v1.929h-0.657V62.824z"/>
	</g>
	<g>
		<path fill="#F1F2F2" d="M139.54,69.163c0.399-0.082,0.97-0.127,1.514-0.127c0.843,0,1.387,0.153,1.767,0.494
			c0.309,0.27,0.48,0.682,0.48,1.148c0,0.799-0.507,1.328-1.151,1.543v0.027c0.471,0.161,0.752,0.592,0.897,1.221
			c0.2,0.843,0.345,1.426,0.472,1.659h-0.816c-0.1-0.171-0.236-0.69-0.408-1.444c-0.182-0.834-0.508-1.148-1.224-1.176h-0.743v2.62
			h-0.789V69.163z M140.329,71.917h0.807c0.843,0,1.377-0.457,1.377-1.148c0-0.781-0.571-1.121-1.405-1.131
			c-0.381,0-0.652,0.036-0.779,0.072V71.917z"/>
		<path fill="#F1F2F2" d="M144.873,73.101c0.018,1.068,0.707,1.508,1.504,1.508c0.571,0,0.916-0.099,1.214-0.225l0.136,0.565
			c-0.281,0.126-0.761,0.27-1.459,0.27c-1.351,0-2.157-0.88-2.157-2.189s0.78-2.342,2.058-2.342c1.432,0,1.813,1.247,1.813,2.046
			c0,0.162-0.019,0.287-0.027,0.367H144.873z M147.211,72.536c0.009-0.502-0.208-1.283-1.106-1.283c-0.807,0-1.16,0.736-1.224,1.283
			H147.211z"/>
		<path fill="#F1F2F2" d="M152.761,68.759v5.248c0,0.387,0.009,0.826,0.036,1.122h-0.716l-0.036-0.754h-0.018
			c-0.245,0.485-0.78,0.853-1.496,0.853c-1.061,0-1.876-0.889-1.876-2.207c-0.009-1.444,0.897-2.333,1.967-2.333
			c0.671,0,1.124,0.314,1.324,0.664h0.018v-2.593H152.761z M151.963,72.554c0-0.099-0.009-0.232-0.037-0.332
			c-0.118-0.502-0.553-0.915-1.151-0.915c-0.825,0-1.314,0.718-1.314,1.678c0,0.88,0.435,1.606,1.296,1.606
			c0.535,0,1.024-0.35,1.169-0.942c0.027-0.107,0.037-0.216,0.037-0.341V72.554z"/>
		<path fill="#F1F2F2" d="M157.758,73.944c0,0.449,0.009,0.844,0.036,1.185h-0.707l-0.045-0.709h-0.018
			c-0.208,0.351-0.67,0.808-1.45,0.808c-0.688,0-1.514-0.377-1.514-1.902v-2.539h0.798v2.404c0,0.826,0.254,1.383,0.979,1.383
			c0.535,0,0.906-0.369,1.051-0.719c0.045-0.116,0.072-0.26,0.072-0.403v-2.665h0.798V73.944z"/>
		<path fill="#F1F2F2" d="M162.212,74.968c-0.208,0.107-0.67,0.251-1.26,0.251c-1.323,0-2.185-0.888-2.185-2.216
			c0-1.338,0.925-2.307,2.357-2.307c0.471,0,0.888,0.117,1.105,0.225l-0.181,0.61c-0.19-0.108-0.489-0.206-0.924-0.206
			c-1.006,0-1.55,0.735-1.55,1.642c0,1.005,0.653,1.624,1.523,1.624c0.453,0,0.752-0.117,0.979-0.216L162.212,74.968z"/>
		<path fill="#F1F2F2" d="M163.538,73.101c0.018,1.068,0.707,1.508,1.504,1.508c0.571,0,0.916-0.099,1.214-0.225l0.136,0.565
			c-0.281,0.126-0.761,0.27-1.459,0.27c-1.351,0-2.157-0.88-2.157-2.189s0.78-2.342,2.058-2.342c1.432,0,1.813,1.247,1.813,2.046
			c0,0.162-0.019,0.287-0.027,0.367H163.538z M165.876,72.536c0.009-0.502-0.208-1.283-1.106-1.283c-0.807,0-1.16,0.736-1.224,1.283
			H165.876z"/>
		<path fill="#F1F2F2" d="M170.376,69.745h-1.858v-0.664h4.523v0.664h-1.867v5.384h-0.797V69.745z"/>
		<path fill="#F1F2F2" d="M175.545,75.129l-0.063-0.548h-0.027c-0.245,0.342-0.716,0.646-1.341,0.646
			c-0.888,0-1.341-0.619-1.341-1.247c0-1.05,0.942-1.624,2.637-1.615v-0.089c0-0.359-0.1-1.006-0.997-1.006
			c-0.408,0-0.833,0.126-1.142,0.323l-0.182-0.521c0.363-0.232,0.889-0.386,1.441-0.386c1.341,0,1.667,0.906,1.667,1.776v1.624
			c0,0.377,0.018,0.745,0.073,1.041H175.545z M175.427,72.913c-0.87-0.018-1.858,0.135-1.858,0.978c0,0.512,0.345,0.754,0.752,0.754
			c0.571,0,0.934-0.358,1.061-0.728c0.027-0.08,0.045-0.17,0.045-0.25V72.913z"/>
		<path fill="#F1F2F2" d="M177.378,74.321c0.236,0.152,0.653,0.314,1.052,0.314c0.58,0,0.852-0.287,0.852-0.646
			c0-0.377-0.227-0.583-0.815-0.799c-0.789-0.277-1.16-0.709-1.16-1.229c0-0.7,0.571-1.274,1.514-1.274
			c0.444,0,0.834,0.126,1.079,0.27l-0.2,0.574c-0.172-0.108-0.489-0.251-0.897-0.251c-0.472,0-0.734,0.269-0.734,0.592
			c0,0.359,0.263,0.521,0.834,0.736c0.761,0.287,1.151,0.663,1.151,1.309c0,0.764-0.598,1.302-1.641,1.302
			c-0.48,0-0.924-0.116-1.232-0.296L177.378,74.321z"/>
		<path fill="#F1F2F2" d="M181.867,72.778h0.018c0.109-0.152,0.263-0.341,0.39-0.494l1.287-1.498h0.961l-1.695,1.785l1.93,2.558
			h-0.97l-1.514-2.081l-0.408,0.448v1.633h-0.789v-6.37h0.789V72.778z"/>
	</g>
	<g>
		<path fill="#FFFFFF" d="M144.358,89.956v0.583h-2.239v-0.583H144.358z"/>
		<path fill="#FFFFFF" d="M148.693,87.579h-0.018l-1.024,0.547l-0.154-0.602l1.287-0.682h0.68v5.832h-0.771V87.579z"/>
		<path fill="#FFFFFF" d="M151.614,92.675V92.19l0.625-0.602c1.505-1.417,2.185-2.171,2.193-3.05c0-0.593-0.29-1.14-1.169-1.14
			c-0.535,0-0.979,0.269-1.251,0.493l-0.254-0.557c0.408-0.341,0.988-0.592,1.668-0.592c1.269,0,1.804,0.861,1.804,1.696
			c0,1.076-0.789,1.946-2.03,3.131l-0.472,0.431v0.018h2.647v0.655H151.614z"/>
		<path fill="#FFFFFF" d="M156.194,91.194c0-0.735,0.444-1.256,1.169-1.562l-0.009-0.026c-0.653-0.305-0.934-0.808-0.934-1.311
			c0-0.924,0.789-1.552,1.822-1.552c1.142,0,1.713,0.709,1.713,1.436c0,0.493-0.245,1.022-0.97,1.364v0.026
			c0.734,0.287,1.188,0.799,1.188,1.508c0,1.014-0.879,1.695-2.003,1.695C156.938,92.773,156.194,92.047,156.194,91.194z
			 M159.367,91.158c0-0.708-0.499-1.05-1.296-1.273c-0.689,0.197-1.061,0.646-1.061,1.202c-0.027,0.592,0.426,1.112,1.179,1.112
			C158.904,92.199,159.367,91.76,159.367,91.158z M157.173,88.242c0,0.584,0.444,0.897,1.124,1.077
			c0.508-0.171,0.897-0.529,0.897-1.059c0-0.467-0.281-0.951-0.997-0.951C157.536,87.31,157.173,87.74,157.173,88.242z"/>
		<path fill="#FFFFFF" d="M166.348,90.019c-0.045-0.843-0.1-1.856-0.09-2.61h-0.027c-0.208,0.709-0.462,1.462-0.771,2.297
			l-1.079,2.934h-0.598l-0.988-2.88c-0.29-0.853-0.535-1.633-0.707-2.351h-0.018c-0.018,0.754-0.063,1.768-0.118,2.674l-0.163,2.593
			h-0.752l0.426-6.047h1.006l1.042,2.925c0.254,0.744,0.462,1.408,0.616,2.036h0.027c0.154-0.609,0.372-1.273,0.644-2.036
			l1.088-2.925h1.006l0.381,6.047h-0.771L166.348,90.019z"/>
		<path fill="#FFFFFF" d="M168.492,86.708c0.344-0.071,0.888-0.125,1.441-0.125c0.789,0,1.296,0.135,1.677,0.439
			c0.317,0.233,0.508,0.592,0.508,1.067c0,0.583-0.39,1.095-1.033,1.328v0.018c0.58,0.144,1.26,0.619,1.26,1.517
			c0,0.521-0.208,0.915-0.517,1.211c-0.426,0.386-1.115,0.565-2.112,0.565c-0.544,0-0.961-0.036-1.224-0.071V86.708z
			 M169.281,89.185h0.716c0.834,0,1.323-0.431,1.323-1.014c0-0.709-0.544-0.987-1.341-0.987c-0.363,0-0.571,0.027-0.698,0.054
			V89.185z M169.281,92.083c0.154,0.026,0.38,0.035,0.662,0.035c0.815,0,1.568-0.296,1.568-1.175c0-0.825-0.716-1.167-1.577-1.167
			h-0.652V92.083z"/>
		<path fill="#FFFFFF" d="M144.358,100.729v0.583h-2.239v-0.583H144.358z"/>
		<path fill="#FFFFFF" d="M148.693,98.353h-0.018l-1.024,0.547l-0.154-0.602l1.287-0.682h0.68v5.832h-0.771V98.353z"/>
		<path fill="#FFFFFF" d="M154.099,99.105l0.861,2.44c0.145,0.395,0.263,0.754,0.354,1.113h0.027c0.1-0.359,0.227-0.719,0.372-1.113
			l0.852-2.44h0.834l-1.722,4.343h-0.761l-1.668-4.343H154.099z"/>
		<path fill="#FFFFFF" d="M162.45,103.251c-0.29,0.144-0.87,0.287-1.613,0.287c-1.722,0-3.019-1.077-3.019-3.06
			c0-1.894,1.296-3.176,3.19-3.176c0.762,0,1.242,0.161,1.45,0.269l-0.19,0.637c-0.299-0.143-0.725-0.251-1.232-0.251
			c-1.432,0-2.384,0.906-2.384,2.494c0,1.48,0.861,2.432,2.348,2.432c0.48,0,0.97-0.099,1.287-0.251L162.45,103.251z"/>
		<path fill="#FFFFFF" d="M167.284,101.241c0,1.605-1.124,2.306-2.184,2.306c-1.188,0-2.103-0.861-2.103-2.234
			c0-1.453,0.961-2.306,2.175-2.306C166.432,99.007,167.284,99.913,167.284,101.241z M163.803,101.286
			c0,0.951,0.553,1.669,1.333,1.669c0.761,0,1.333-0.709,1.333-1.688c0-0.735-0.372-1.668-1.314-1.668
			C164.211,99.6,163.803,100.461,163.803,101.286z"/>
		<path fill="#FFFFFF" d="M168.293,100.461c0-0.512-0.009-0.951-0.036-1.355h0.698l0.027,0.853h0.036
			c0.199-0.583,0.68-0.951,1.214-0.951c0.091,0,0.154,0.009,0.227,0.027v0.744c-0.082-0.018-0.164-0.026-0.272-0.026
			c-0.562,0-0.961,0.422-1.07,1.014c-0.018,0.107-0.036,0.233-0.036,0.368v2.314h-0.789V100.461z"/>
		<path fill="#FFFFFF" d="M171.612,101.421c0.018,1.067,0.707,1.507,1.504,1.507c0.571,0,0.916-0.099,1.214-0.225l0.136,0.565
			c-0.281,0.126-0.761,0.27-1.459,0.27c-1.351,0-2.157-0.879-2.157-2.189c0-1.31,0.78-2.342,2.058-2.342
			c1.432,0,1.813,1.247,1.813,2.046c0,0.161-0.019,0.287-0.027,0.368H171.612z M173.951,100.855
			c0.009-0.503-0.208-1.283-1.106-1.283c-0.807,0-1.16,0.735-1.224,1.283H173.951z"/>
	</g>
</g>
<g>
</g>
</svg>
