<?xml version="1.0" encoding="utf-8"?>
<!-- Generator: Adobe Illustrator 16.0.0, SVG Export Plug-In . SVG Version: 6.00 Build 0)  -->
<!DOCTYPE svg PUBLIC "-//W3C//DTD SVG 1.1//EN" "http://www.w3.org/Graphics/SVG/1.1/DTD/svg11.dtd">
<svg version="1.1" id="Layer_1" xmlns="http://www.w3.org/2000/svg" xmlns:xlink="http://www.w3.org/1999/xlink" x="0px" y="0px"
	 width="193.25px" height="136.5px" viewBox="0 0 193.25 136.5" enable-background="new 0 0 193.25 136.5" xml:space="preserve">
<rect x="48.179" y="15.126" fill="none" width="102.683" height="9.644"/>
<text transform="matrix(1 0 0 1 48.1792 22.1284)" fill="#9E1F63" font-family="'MyriadPro-Regular'" font-size="9.863">Raspberry Pi Data Node </text>
<rect x="-0.667" y="102.89" fill="#ED3694" width="55.233" height="16.758"/>
<rect x="-0.009" y="119.648" fill="#FBB040" width="53.809" height="16.758"/>
<rect x="99.936" y="75.659" fill="none" width="40.657" height="13.45"/>
<text transform="matrix(0.497 0 0 1 99.9355 81.2954)" font-family="'MyriadPro-Regular'" font-size="7.9378">yarn resource memory</text>
<rect x="0.032" y="54.327" fill="#2CBA9E" width="164.539" height="16.757"/>
<rect x="27.897" y="59.658" fill="none" width="136.802" height="6.685"/>
<text transform="matrix(1 0 0 1 27.897 64.6274)" font-family="'MyriadPro-Regular'" font-size="7">yarn resource memory: 768 MB  </text>
<rect x="-0.201" y="87.87" fill="#9A75B4" width="25.996" height="15.021"/>
<rect x="54.648" y="102.89" fill="#ED3694" width="55.15" height="16.758"/>
<rect x="54.895" y="119.648" fill="#FBB040" width="54.137" height="16.758"/>
<rect x="57.388" y="79.334" fill="none" width="27.562" height="6.685"/>
<text transform="matrix(1 0 0 1 57.3877 81.2017)"><tspan x="0" y="0" font-family="'MyriadPro-Regular'" font-size="2.6301">map memory </tspan><tspan x="0" y="3.156" font-family="'MyriadPro-Regular'" font-size="2.6301">allocation: 768 mb</tspan></text>
<rect x="54.458" y="85.535" fill="none" stroke="#FFFFFF" stroke-width="2" stroke-miterlimit="10" width="54.82" height="54.298"/>
<rect x="-0.556" y="85.47" fill="none" stroke="#FFFFFF" stroke-width="2" stroke-miterlimit="10" width="54.82" height="54.103"/>
<rect x="109.732" y="85.991" fill="none" stroke="#FFFFFF" stroke-width="2" stroke-miterlimit="10" width="54.821" height="53.874"/>
<rect x="2.374" y="72.238" fill="none" width="23.836" height="6.685"/>
<text transform="matrix(1 0 0 1 2.3735 73.6387)"><tspan x="0" y="0" font-family="'MyriadPro-Regular'" font-size="1.9726">yarn minimum memory </tspan><tspan x="0" y="2.367" font-family="'MyriadPro-Regular'" font-size="1.9726">allocation: 768 MB</tspan></text>
<rect x="57.606" y="87.581" fill="none" width="19.726" height="6.685"/>
<text transform="matrix(1 0 0 1 57.6064 89.4482)"><tspan x="0" y="0" font-family="'MyriadPro-Regular'" font-size="2.6301">container size: </tspan><tspan x="0" y="3.156" font-family="'MyriadPro-Regular'" font-size="2.6301">768 mb</tspan></text>
<rect x="7.489" y="126.065" fill="none" width="41.976" height="14.935"/>
<text transform="matrix(1 0 0 1 7.4893 128.9048)" font-family="'MyriadPro-Regular'" font-size="4">container size: 256 MB</text>
<rect x="62.864" y="126.065" fill="none" width="41.976" height="14.935"/>
<text transform="matrix(1 0 0 1 62.8643 128.9048)" font-family="'MyriadPro-Regular'" font-size="4">container size: 256 MB</text>
<rect x="110.375" y="102.945" fill="#00AEEF" width="52.278" height="16.757"/>
<rect x="117.799" y="81.225" fill="none" width="43.452" height="3.398"/>
<text transform="matrix(1 0 0 1 117.7988 83.0918)" font-family="'MyriadPro-Regular'" font-size="2.6301">reduce memory allocation: 1536 MB</text>
<rect x="122.127" y="88.951" fill="none" width="42.301" height="6.685"/>
<text transform="matrix(1 0 0 1 122.1274 90.8179)" font-family="'MyriadPro-Regular'" font-size="2.6301">container size: 1536 MB</text>
<rect x="0.365" y="71.085" fill="#F5DC5D" width="164.162" height="16.756"/>
<rect x="14.26" y="75.623" fill="none" width="152.103" height="6.685"/>
<text transform="matrix(1 0 0 1 14.2598 79.8823)" font-family="'MyriadPro-Regular'" font-size="6">yarn maximum allocation memory:  640 MB</text>
<rect x="54.868" y="87.786" fill="#FFFFFF" width="138.52" height="15.158"/>
<rect x="63.991" y="45.005" fill="none" width="153.095" height="9.644"/>
<text transform="matrix(1 0 0 1 63.9912 52.0078)" font-family="'MyriadPro-Regular'" font-size="9.863"> </text>
<rect x="44.579" y="25.243" fill="none" width="143.671" height="9.644"/>
<text transform="matrix(1 0 0 1 44.5791 31.312)" fill="#9E1F63" font-family="'MyriadPro-It'" font-size="8.5479">cores: 4    memory: 1 GB    discs: 1</text>
<rect x="11.747" y="106.811" fill="none" width="31.437" height="15.685"/>
<text transform="matrix(1 0 0 1 11.7471 109.6504)"><tspan x="0" y="0" font-family="'MyriadPro-Regular'" font-size="4">map memory </tspan><tspan x="0" y="4.8" font-family="'MyriadPro-Regular'" font-size="4">allocation: 256 MB</tspan></text>
<rect x="66.622" y="106.436" fill="none" width="31.437" height="15.685"/>
<text transform="matrix(1 0 0 1 66.6221 109.2754)"><tspan x="0" y="0" font-family="'MyriadPro-Regular'" font-size="4">map memory </tspan><tspan x="0" y="4.8" font-family="'MyriadPro-Regular'" font-size="4">allocation: 256 MB</tspan></text>
<rect x="110.792" y="104.535" fill="none" width="25.458" height="15.84"/>
<text transform="matrix(1 0 0 1 110.7915 107.2329)"><tspan x="0" y="0" font-family="'MyriadPro-Regular'" font-size="3.8">reduce memory </tspan><tspan x="0" y="4.56" font-family="'MyriadPro-Regular'" font-size="3.8">allocation: </tspan><tspan x="0" y="9.12" font-family="'MyriadPro-Regular'" font-size="3.8">128 MB</tspan></text>
<rect x="139.292" y="104.785" fill="none" width="25.458" height="15.84"/>
<text transform="matrix(1 0 0 1 139.2915 107.4829)"><tspan x="0" y="0" font-family="'MyriadPro-Regular'" font-size="3.8">reduce memory </tspan><tspan x="0" y="4.56" font-family="'MyriadPro-Regular'" font-size="3.8">allocation: </tspan><tspan x="0" y="9.12" font-family="'MyriadPro-Regular'" font-size="3.8">128 MB</tspan></text>
<rect x="1.407" y="90.032" fill="none" width="24.062" height="14.685"/>
<text transform="matrix(1 0 0 1 1.4067 92.5171)"><tspan x="0" y="0" font-family="'MyriadPro-Regular'" font-size="3.5">yarn min </tspan><tspan x="0" y="4.2" font-family="'MyriadPro-Regular'" font-size="3.5">memory </tspan><tspan x="0" y="8.4" font-family="'MyriadPro-Regular'" font-size="3.5">allocation: 128</tspan></text>
<rect x="138.875" y="103.071" fill="#A7A9AC" width="26.167" height="33.429"/>
<rect x="140.598" y="103.511" fill="none" width="25.237" height="19.377"/>
<text transform="matrix(1 0 0 1 140.5981 106.1382)"><tspan x="0" y="0" font-family="'MyriadPro-Regular'" font-size="3.7">yarn  AM </tspan><tspan x="0" y="4.44" font-family="'MyriadPro-Regular'" font-size="3.7">memory </tspan><tspan x="0" y="8.88" font-family="'MyriadPro-Regular'" font-size="3.7">allocation:</tspan><tspan x="0" y="13.32" font-family="'MyriadPro-Regular'" font-size="3.7">128mb</tspan></text>
<rect x="110.416" y="119.676" fill="#FBB040" width="55.181" height="16.757"/>
<rect x="111.25" y="123.42" fill="none" width="25.125" height="14.955"/>
<text transform="matrix(1 0 0 1 111.25 126.2603)"><tspan x="0" y="0" font-family="'MyriadPro-Regular'" font-size="4">container size:  </tspan><tspan x="0" y="4.8" font-family="'MyriadPro-Regular'" font-size="4">128 MB</tspan></text>
<rect x="140.5" y="123.295" fill="none" width="25.125" height="14.955"/>
<text transform="matrix(1 0 0 1 140.5 126.1353)"><tspan x="0" y="0" font-family="'MyriadPro-Regular'" font-size="4">container size:  </tspan><tspan x="0" y="4.8" font-family="'MyriadPro-Regular'" font-size="4">128 MB</tspan></text>
<rect x="168.167" y="123.462" fill="none" width="25.125" height="14.955"/>
<text transform="matrix(1 0 0 1 168.1665 126.3018)"><tspan x="0" y="0" font-family="'MyriadPro-Regular'" font-size="4">container size:  </tspan><tspan x="0" y="4.8" font-family="'MyriadPro-Regular'" font-size="4">128 MB</tspan></text>
<line fill="none" stroke="#FFFFFF" stroke-width="2" stroke-miterlimit="10" x1="138.003" y1="100.875" x2="138.003" y2="136.542"/>
<line fill="none" stroke="#FFFFFF" stroke-width="2" stroke-miterlimit="10" x1="166.018" y1="87.75" x2="166.018" y2="137.066"/>
<rect x="167.126" y="54.152" fill="#EF4136" width="26.25" height="82.348"/>
<rect x="171.286" y="57.957" fill="none" width="19.206" height="32.629"/>
<text transform="matrix(1.0076 0 0 1 171.2861 60.7754)"><tspan x="0" y="0" font-family="'MyriadPro-Regular'" font-size="3.9699">operating </tspan><tspan x="0" y="4.764" font-family="'MyriadPro-Regular'" font-size="3.9699">system </tspan><tspan x="0" y="9.528" font-family="'MyriadPro-Regular'" font-size="3.9699">memory + </tspan><tspan x="0" y="14.292" font-family="'MyriadPro-Regular'" font-size="3.9699">Hadoop: </tspan><tspan x="0" y="19.056" font-family="'MyriadPro-Regular'" font-size="3.9699">256 MB</tspan></text>
<rect y="39.577" fill="#7BC143" width="193.039" height="15.507"/>
<rect x="49.365" y="44.742" fill="none" width="136.802" height="6.186"/>
<text transform="matrix(1.0806 0 0 1 49.3652 49.3408)" font-family="'MyriadPro-Regular'" font-size="6.4778">Total available memory: 1024 MB</text>
</svg>
